G04 #@! TF.GenerationSoftware,KiCad,Pcbnew,8.0.2*
G04 #@! TF.CreationDate,2024-05-04T17:16:49+02:00*
G04 #@! TF.ProjectId,AVRinator,41565269-6e61-4746-9f72-2e6b69636164,1.0*
G04 #@! TF.SameCoordinates,Original*
G04 #@! TF.FileFunction,Copper,L3,Inr*
G04 #@! TF.FilePolarity,Positive*
%FSLAX46Y46*%
G04 Gerber Fmt 4.6, Leading zero omitted, Abs format (unit mm)*
G04 Created by KiCad (PCBNEW 8.0.2) date 2024-05-04 17:16:49*
%MOMM*%
%LPD*%
G01*
G04 APERTURE LIST*
G04 #@! TA.AperFunction,ComponentPad*
%ADD10R,1.700000X1.700000*%
G04 #@! TD*
G04 #@! TA.AperFunction,ComponentPad*
%ADD11O,1.700000X1.700000*%
G04 #@! TD*
G04 #@! TA.AperFunction,ComponentPad*
%ADD12R,1.650000X1.650000*%
G04 #@! TD*
G04 #@! TA.AperFunction,ComponentPad*
%ADD13C,1.650000*%
G04 #@! TD*
G04 #@! TA.AperFunction,ViaPad*
%ADD14C,0.500000*%
G04 #@! TD*
G04 #@! TA.AperFunction,Conductor*
%ADD15C,0.261112*%
G04 #@! TD*
G04 APERTURE END LIST*
D10*
X68554600Y-50774600D03*
D11*
X66014600Y-50774600D03*
X63474600Y-50774600D03*
X60934600Y-50774600D03*
X58394600Y-50774600D03*
X55854600Y-50774600D03*
D12*
X64770000Y-56134000D03*
D13*
X64770000Y-58674000D03*
X62230000Y-56134000D03*
X62230000Y-58674000D03*
X59690000Y-56134000D03*
X59690000Y-58674000D03*
D14*
X59131200Y-73507600D03*
X62219089Y-49646089D03*
X61591590Y-72411990D03*
X68961000Y-54051200D03*
X60871100Y-63919100D03*
X64947800Y-75361800D03*
X54533800Y-55956200D03*
X61493400Y-52044600D03*
X66217800Y-69951600D03*
X63677800Y-79121000D03*
X63830200Y-66268600D03*
X56464200Y-55930800D03*
X57912000Y-55245000D03*
X54940200Y-72034400D03*
X67005200Y-60325000D03*
X54686200Y-49758600D03*
X69824600Y-68249800D03*
X64008000Y-70383400D03*
X63779400Y-63423800D03*
X67640200Y-56057800D03*
X54674000Y-65557400D03*
X68148200Y-60071000D03*
X55905400Y-52171600D03*
X69773800Y-73355200D03*
X57327800Y-73837800D03*
X60934600Y-55626000D03*
X60452000Y-81153000D03*
X69773800Y-74168000D03*
X56515000Y-53162200D03*
X54965600Y-75996800D03*
X59740800Y-53289200D03*
X54660800Y-59664600D03*
X69824600Y-67335400D03*
X61087000Y-58140600D03*
X64185800Y-81178400D03*
X69697600Y-53492400D03*
X67411600Y-74980800D03*
X62331600Y-81178400D03*
X54610000Y-53238400D03*
X61696600Y-53568600D03*
X69875400Y-81584800D03*
X54635400Y-61112400D03*
X57353200Y-74879200D03*
X68757800Y-61366400D03*
X56108600Y-70180200D03*
X62230000Y-72720200D03*
X68326000Y-75387200D03*
X69672200Y-52222400D03*
X67589400Y-61315600D03*
X56413400Y-75692000D03*
X54508400Y-81559400D03*
X69773800Y-76200000D03*
X64160400Y-57531000D03*
X62941200Y-77876400D03*
X54686200Y-67056000D03*
X60731400Y-79121000D03*
X66573400Y-54025800D03*
X56896000Y-49682400D03*
X59029600Y-75641200D03*
X66217800Y-69088000D03*
X64795400Y-72186800D03*
X55422800Y-70967600D03*
X56460793Y-58014167D03*
X67157600Y-71907400D03*
X69760600Y-62280800D03*
X68970600Y-59947762D03*
X56565800Y-59486800D03*
X56718200Y-60883800D03*
X58775600Y-81407000D03*
X55143400Y-79832200D03*
X69570600Y-80264000D03*
X68884800Y-77114400D03*
X61150400Y-61531600D03*
X61290200Y-74620200D03*
X62589244Y-75387200D03*
X61872211Y-75389389D03*
X63169800Y-74625200D03*
X55575200Y-77647800D03*
X60230000Y-60747400D03*
X64058800Y-77622400D03*
X60325000Y-75565000D03*
X62230000Y-51435000D03*
X69545200Y-57454800D03*
X58521600Y-64414400D03*
X57150000Y-70129400D03*
X56083200Y-64820800D03*
X61493400Y-54406800D03*
X61830000Y-60747400D03*
X58782000Y-66833800D03*
X62560200Y-61671200D03*
X63430000Y-60747400D03*
X64230000Y-60747400D03*
X64820800Y-61747400D03*
X66192400Y-61518800D03*
X67183000Y-64135000D03*
X64230000Y-69097400D03*
X62992000Y-67945000D03*
X62630000Y-69097400D03*
D15*
X62106853Y-74803000D02*
X61473000Y-74803000D01*
X61473000Y-74803000D02*
X61290200Y-74620200D01*
X62589244Y-75285391D02*
X62106853Y-74803000D01*
X62589244Y-75387200D02*
X62589244Y-75285391D01*
G04 #@! TA.AperFunction,Conductor*
G36*
X61792102Y-49240585D02*
G01*
X61837857Y-49293389D01*
X61847801Y-49362547D01*
X61837857Y-49396412D01*
X61782391Y-49517863D01*
X61763956Y-49646089D01*
X61782391Y-49774315D01*
X61782392Y-49774316D01*
X61806194Y-49826435D01*
X61816138Y-49895593D01*
X61787113Y-49959149D01*
X61728335Y-49996923D01*
X61658465Y-49996923D01*
X61614736Y-49973800D01*
X61530721Y-49904852D01*
X61521050Y-49896915D01*
X61338554Y-49799368D01*
X61140534Y-49739300D01*
X61140532Y-49739299D01*
X61140534Y-49739299D01*
X60934600Y-49719017D01*
X60728667Y-49739299D01*
X60530643Y-49799369D01*
X60442714Y-49846369D01*
X60348150Y-49896915D01*
X60348148Y-49896916D01*
X60348147Y-49896917D01*
X60188189Y-50028189D01*
X60056917Y-50188147D01*
X60056915Y-50188150D01*
X60018243Y-50260498D01*
X59959369Y-50370643D01*
X59899299Y-50568667D01*
X59879017Y-50774600D01*
X59899299Y-50980532D01*
X59899300Y-50980534D01*
X59959368Y-51178554D01*
X60056915Y-51361050D01*
X60056917Y-51361052D01*
X60188189Y-51521010D01*
X60271707Y-51589550D01*
X60348150Y-51652285D01*
X60530646Y-51749832D01*
X60728666Y-51809900D01*
X60728665Y-51809900D01*
X60747129Y-51811718D01*
X60934600Y-51830183D01*
X61140534Y-51809900D01*
X61338554Y-51749832D01*
X61521050Y-51652285D01*
X61624132Y-51567687D01*
X61688442Y-51540375D01*
X61757310Y-51552166D01*
X61808870Y-51599318D01*
X61815589Y-51612026D01*
X61847118Y-51681063D01*
X61931951Y-51778967D01*
X62040931Y-51849004D01*
X62165225Y-51885499D01*
X62165227Y-51885500D01*
X62165228Y-51885500D01*
X62294773Y-51885500D01*
X62294773Y-51885499D01*
X62419069Y-51849004D01*
X62528049Y-51778967D01*
X62612882Y-51681063D01*
X62630560Y-51642353D01*
X62676312Y-51589552D01*
X62743351Y-51569866D01*
X62810391Y-51589550D01*
X62822017Y-51598012D01*
X62857641Y-51627247D01*
X62888150Y-51652285D01*
X63070646Y-51749832D01*
X63268666Y-51809900D01*
X63268665Y-51809900D01*
X63287129Y-51811718D01*
X63474600Y-51830183D01*
X63680534Y-51809900D01*
X63878554Y-51749832D01*
X64061050Y-51652285D01*
X64221010Y-51521010D01*
X64352285Y-51361050D01*
X64449832Y-51178554D01*
X64509900Y-50980534D01*
X64530183Y-50774600D01*
X64959017Y-50774600D01*
X64979299Y-50980532D01*
X64979300Y-50980534D01*
X65039368Y-51178554D01*
X65136915Y-51361050D01*
X65136917Y-51361052D01*
X65268189Y-51521010D01*
X65351707Y-51589550D01*
X65428150Y-51652285D01*
X65610646Y-51749832D01*
X65808666Y-51809900D01*
X65808665Y-51809900D01*
X65827129Y-51811718D01*
X66014600Y-51830183D01*
X66220534Y-51809900D01*
X66418554Y-51749832D01*
X66601050Y-51652285D01*
X66761010Y-51521010D01*
X66892285Y-51361050D01*
X66989832Y-51178554D01*
X67049900Y-50980534D01*
X67070183Y-50774600D01*
X67049900Y-50568666D01*
X66989832Y-50370646D01*
X66892285Y-50188150D01*
X66840302Y-50124809D01*
X66761010Y-50028189D01*
X66610721Y-49904852D01*
X66610715Y-49904847D01*
X67504100Y-49904847D01*
X67504100Y-51644352D01*
X67515731Y-51702829D01*
X67515732Y-51702830D01*
X67560047Y-51769152D01*
X67626369Y-51813467D01*
X67626370Y-51813468D01*
X67684847Y-51825099D01*
X67684850Y-51825100D01*
X67684852Y-51825100D01*
X69424350Y-51825100D01*
X69424351Y-51825099D01*
X69439168Y-51822152D01*
X69482829Y-51813468D01*
X69482829Y-51813467D01*
X69482831Y-51813467D01*
X69549152Y-51769152D01*
X69593467Y-51702831D01*
X69593467Y-51702829D01*
X69593468Y-51702829D01*
X69605099Y-51644352D01*
X69605100Y-51644350D01*
X69605100Y-49904849D01*
X69605099Y-49904847D01*
X69593468Y-49846370D01*
X69593467Y-49846369D01*
X69549152Y-49780047D01*
X69482830Y-49735732D01*
X69482829Y-49735731D01*
X69424352Y-49724100D01*
X69424348Y-49724100D01*
X67684852Y-49724100D01*
X67684847Y-49724100D01*
X67626370Y-49735731D01*
X67626369Y-49735732D01*
X67560047Y-49780047D01*
X67515732Y-49846369D01*
X67515731Y-49846370D01*
X67504100Y-49904847D01*
X66610715Y-49904847D01*
X66601050Y-49896915D01*
X66418554Y-49799368D01*
X66220534Y-49739300D01*
X66220532Y-49739299D01*
X66220534Y-49739299D01*
X66014600Y-49719017D01*
X65808667Y-49739299D01*
X65610643Y-49799369D01*
X65522714Y-49846369D01*
X65428150Y-49896915D01*
X65428148Y-49896916D01*
X65428147Y-49896917D01*
X65268189Y-50028189D01*
X65136917Y-50188147D01*
X65136915Y-50188150D01*
X65098243Y-50260498D01*
X65039369Y-50370643D01*
X64979299Y-50568667D01*
X64959017Y-50774600D01*
X64530183Y-50774600D01*
X64509900Y-50568666D01*
X64449832Y-50370646D01*
X64352285Y-50188150D01*
X64300302Y-50124809D01*
X64221010Y-50028189D01*
X64070721Y-49904852D01*
X64061050Y-49896915D01*
X63878554Y-49799368D01*
X63680534Y-49739300D01*
X63680532Y-49739299D01*
X63680534Y-49739299D01*
X63474600Y-49719017D01*
X63268667Y-49739299D01*
X63070643Y-49799369D01*
X62888146Y-49896917D01*
X62840812Y-49935763D01*
X62776501Y-49963075D01*
X62707634Y-49951283D01*
X62656074Y-49904130D01*
X62638192Y-49836588D01*
X62649353Y-49788399D01*
X62655786Y-49774315D01*
X62674222Y-49646089D01*
X62655786Y-49517863D01*
X62601971Y-49400026D01*
X62600321Y-49396412D01*
X62590377Y-49327253D01*
X62619402Y-49263697D01*
X62678180Y-49225923D01*
X62713115Y-49220900D01*
X70060500Y-49220900D01*
X70127539Y-49240585D01*
X70173294Y-49293389D01*
X70184500Y-49344900D01*
X70184500Y-57200194D01*
X70164815Y-57267233D01*
X70112011Y-57312988D01*
X70042853Y-57322932D01*
X69979297Y-57293907D01*
X69947706Y-57251707D01*
X69928082Y-57208738D01*
X69928082Y-57208737D01*
X69843249Y-57110833D01*
X69734269Y-57040796D01*
X69734265Y-57040794D01*
X69734264Y-57040794D01*
X69609974Y-57004300D01*
X69609972Y-57004300D01*
X69480428Y-57004300D01*
X69480426Y-57004300D01*
X69356135Y-57040794D01*
X69356132Y-57040795D01*
X69356131Y-57040796D01*
X69304877Y-57073734D01*
X69247150Y-57110833D01*
X69162318Y-57208737D01*
X69162317Y-57208738D01*
X69108502Y-57326574D01*
X69090067Y-57454800D01*
X69108502Y-57583025D01*
X69162317Y-57700861D01*
X69162318Y-57700863D01*
X69247151Y-57798767D01*
X69356131Y-57868804D01*
X69414496Y-57885941D01*
X69480425Y-57905299D01*
X69480427Y-57905300D01*
X69480428Y-57905300D01*
X69609973Y-57905300D01*
X69609973Y-57905299D01*
X69734269Y-57868804D01*
X69843249Y-57798767D01*
X69928082Y-57700863D01*
X69947706Y-57657893D01*
X69993461Y-57605089D01*
X70060500Y-57585405D01*
X70127540Y-57605090D01*
X70173295Y-57657894D01*
X70184500Y-57709405D01*
X70184500Y-61790623D01*
X70164815Y-61857662D01*
X70112011Y-61903417D01*
X70042853Y-61913361D01*
X69993462Y-61894940D01*
X69949669Y-61866796D01*
X69949666Y-61866795D01*
X69949663Y-61866793D01*
X69825374Y-61830300D01*
X69825372Y-61830300D01*
X69695828Y-61830300D01*
X69695826Y-61830300D01*
X69571535Y-61866794D01*
X69571532Y-61866795D01*
X69571531Y-61866796D01*
X69527738Y-61894940D01*
X69462550Y-61936833D01*
X69377718Y-62034737D01*
X69377717Y-62034738D01*
X69323902Y-62152574D01*
X69305467Y-62280800D01*
X69323902Y-62409025D01*
X69377717Y-62526861D01*
X69377718Y-62526863D01*
X69462551Y-62624767D01*
X69571531Y-62694804D01*
X69655521Y-62719465D01*
X69695825Y-62731299D01*
X69695827Y-62731300D01*
X69695828Y-62731300D01*
X69825373Y-62731300D01*
X69825373Y-62731299D01*
X69949669Y-62694804D01*
X69993462Y-62666659D01*
X70060501Y-62646976D01*
X70127540Y-62666661D01*
X70173295Y-62719465D01*
X70184500Y-62770976D01*
X70184500Y-79955102D01*
X70164815Y-80022141D01*
X70112011Y-80067896D01*
X70042853Y-80077840D01*
X69979297Y-80048815D01*
X69956186Y-80022144D01*
X69953483Y-80017938D01*
X69868649Y-79920033D01*
X69759669Y-79849996D01*
X69759665Y-79849994D01*
X69759664Y-79849994D01*
X69635374Y-79813500D01*
X69635372Y-79813500D01*
X69505828Y-79813500D01*
X69505826Y-79813500D01*
X69381535Y-79849994D01*
X69381532Y-79849995D01*
X69381531Y-79849996D01*
X69330277Y-79882934D01*
X69272550Y-79920033D01*
X69187718Y-80017937D01*
X69187717Y-80017938D01*
X69133902Y-80135774D01*
X69115467Y-80264000D01*
X69133902Y-80392225D01*
X69160360Y-80450159D01*
X69187718Y-80510063D01*
X69272551Y-80607967D01*
X69381531Y-80678004D01*
X69505825Y-80714499D01*
X69505827Y-80714500D01*
X69505828Y-80714500D01*
X69635373Y-80714500D01*
X69635373Y-80714499D01*
X69759669Y-80678004D01*
X69868649Y-80607967D01*
X69953482Y-80510063D01*
X69953485Y-80510055D01*
X69956183Y-80505859D01*
X70008987Y-80460104D01*
X70078145Y-80450159D01*
X70141701Y-80479183D01*
X70179477Y-80537960D01*
X70184500Y-80572897D01*
X70184500Y-82125500D01*
X70164815Y-82192539D01*
X70112011Y-82238294D01*
X70060500Y-82249500D01*
X54374100Y-82249500D01*
X54307061Y-82229815D01*
X54261306Y-82177011D01*
X54250100Y-82125500D01*
X54250100Y-81407000D01*
X58320467Y-81407000D01*
X58338902Y-81535225D01*
X58392717Y-81653061D01*
X58392718Y-81653063D01*
X58477551Y-81750967D01*
X58586531Y-81821004D01*
X58710825Y-81857499D01*
X58710827Y-81857500D01*
X58710828Y-81857500D01*
X58840373Y-81857500D01*
X58840373Y-81857499D01*
X58964669Y-81821004D01*
X59073649Y-81750967D01*
X59158482Y-81653063D01*
X59212297Y-81535226D01*
X59230733Y-81407000D01*
X59212297Y-81278774D01*
X59158482Y-81160937D01*
X59073649Y-81063033D01*
X58964669Y-80992996D01*
X58964665Y-80992994D01*
X58964664Y-80992994D01*
X58840374Y-80956500D01*
X58840372Y-80956500D01*
X58710828Y-80956500D01*
X58710826Y-80956500D01*
X58586535Y-80992994D01*
X58586532Y-80992995D01*
X58586531Y-80992996D01*
X58535277Y-81025934D01*
X58477550Y-81063033D01*
X58392718Y-81160937D01*
X58392717Y-81160938D01*
X58338902Y-81278774D01*
X58320467Y-81407000D01*
X54250100Y-81407000D01*
X54250100Y-79832200D01*
X54688267Y-79832200D01*
X54706702Y-79960425D01*
X54734889Y-80022144D01*
X54760518Y-80078263D01*
X54845351Y-80176167D01*
X54954331Y-80246204D01*
X55078625Y-80282699D01*
X55078627Y-80282700D01*
X55078628Y-80282700D01*
X55208173Y-80282700D01*
X55208173Y-80282699D01*
X55332469Y-80246204D01*
X55441449Y-80176167D01*
X55526282Y-80078263D01*
X55580097Y-79960426D01*
X55598533Y-79832200D01*
X55580097Y-79703974D01*
X55526282Y-79586137D01*
X55441449Y-79488233D01*
X55332469Y-79418196D01*
X55332465Y-79418194D01*
X55332464Y-79418194D01*
X55208174Y-79381700D01*
X55208172Y-79381700D01*
X55078628Y-79381700D01*
X55078626Y-79381700D01*
X54954335Y-79418194D01*
X54954332Y-79418195D01*
X54954331Y-79418196D01*
X54903077Y-79451134D01*
X54845350Y-79488233D01*
X54760518Y-79586137D01*
X54760517Y-79586138D01*
X54706702Y-79703974D01*
X54688267Y-79832200D01*
X54250100Y-79832200D01*
X54250100Y-77647800D01*
X55120067Y-77647800D01*
X55138502Y-77776025D01*
X55187419Y-77883136D01*
X55192318Y-77893863D01*
X55277151Y-77991767D01*
X55386131Y-78061804D01*
X55510425Y-78098299D01*
X55510427Y-78098300D01*
X55510428Y-78098300D01*
X55639973Y-78098300D01*
X55639973Y-78098299D01*
X55764269Y-78061804D01*
X55873249Y-77991767D01*
X55958082Y-77893863D01*
X56011897Y-77776026D01*
X56030333Y-77647800D01*
X56021337Y-77585234D01*
X58764500Y-77585234D01*
X58764500Y-77736766D01*
X58768214Y-77750626D01*
X58803719Y-77883136D01*
X58828906Y-77926760D01*
X58879485Y-78014365D01*
X58986635Y-78121515D01*
X59117865Y-78197281D01*
X59264234Y-78236500D01*
X59264236Y-78236500D01*
X59415764Y-78236500D01*
X59415766Y-78236500D01*
X59562135Y-78197281D01*
X59693365Y-78121515D01*
X59800515Y-78014365D01*
X59876281Y-77883135D01*
X59915500Y-77736766D01*
X59915500Y-77622400D01*
X63603667Y-77622400D01*
X63622102Y-77750625D01*
X63675917Y-77868461D01*
X63675918Y-77868463D01*
X63760751Y-77966367D01*
X63869731Y-78036404D01*
X63956238Y-78061804D01*
X63994025Y-78072899D01*
X63994027Y-78072900D01*
X63994028Y-78072900D01*
X64123573Y-78072900D01*
X64123573Y-78072899D01*
X64247869Y-78036404D01*
X64356849Y-77966367D01*
X64407805Y-77907560D01*
X64466582Y-77869784D01*
X64536452Y-77869783D01*
X64595231Y-77907557D01*
X64608906Y-77926760D01*
X64659485Y-78014365D01*
X64766635Y-78121515D01*
X64897865Y-78197281D01*
X65044234Y-78236500D01*
X65044236Y-78236500D01*
X65195764Y-78236500D01*
X65195766Y-78236500D01*
X65342135Y-78197281D01*
X65473365Y-78121515D01*
X65580515Y-78014365D01*
X65656281Y-77883135D01*
X65695500Y-77736766D01*
X65695500Y-77585234D01*
X65656281Y-77438865D01*
X65580515Y-77307635D01*
X65473365Y-77200485D01*
X65407750Y-77162602D01*
X65342136Y-77124719D01*
X65303625Y-77114400D01*
X68429667Y-77114400D01*
X68448102Y-77242625D01*
X68477792Y-77307635D01*
X68501918Y-77360463D01*
X68586751Y-77458367D01*
X68695731Y-77528404D01*
X68820025Y-77564899D01*
X68820027Y-77564900D01*
X68820028Y-77564900D01*
X68949573Y-77564900D01*
X68949573Y-77564899D01*
X69073869Y-77528404D01*
X69182849Y-77458367D01*
X69267682Y-77360463D01*
X69321497Y-77242626D01*
X69339933Y-77114400D01*
X69321497Y-76986174D01*
X69267682Y-76868337D01*
X69182849Y-76770433D01*
X69073869Y-76700396D01*
X69073865Y-76700394D01*
X69073864Y-76700394D01*
X68949574Y-76663900D01*
X68949572Y-76663900D01*
X68820028Y-76663900D01*
X68820026Y-76663900D01*
X68695735Y-76700394D01*
X68695732Y-76700395D01*
X68695731Y-76700396D01*
X68644477Y-76733334D01*
X68586750Y-76770433D01*
X68501918Y-76868337D01*
X68501917Y-76868338D01*
X68448102Y-76986174D01*
X68429667Y-77114400D01*
X65303625Y-77114400D01*
X65268950Y-77105109D01*
X65195766Y-77085500D01*
X65044234Y-77085500D01*
X64897863Y-77124719D01*
X64766635Y-77200485D01*
X64766632Y-77200487D01*
X64659487Y-77307632D01*
X64659485Y-77307635D01*
X64635655Y-77348910D01*
X64585087Y-77397125D01*
X64516480Y-77410347D01*
X64451616Y-77384379D01*
X64434554Y-77368111D01*
X64427925Y-77360461D01*
X64356849Y-77278433D01*
X64247869Y-77208396D01*
X64247865Y-77208394D01*
X64247864Y-77208394D01*
X64123574Y-77171900D01*
X64123572Y-77171900D01*
X63994028Y-77171900D01*
X63994026Y-77171900D01*
X63869735Y-77208394D01*
X63869732Y-77208395D01*
X63869731Y-77208396D01*
X63830211Y-77233794D01*
X63760750Y-77278433D01*
X63675918Y-77376337D01*
X63675917Y-77376338D01*
X63622102Y-77494174D01*
X63603667Y-77622400D01*
X59915500Y-77622400D01*
X59915500Y-77585234D01*
X59876281Y-77438865D01*
X59800515Y-77307635D01*
X59693365Y-77200485D01*
X59627750Y-77162602D01*
X59562136Y-77124719D01*
X59488950Y-77105109D01*
X59415766Y-77085500D01*
X59264234Y-77085500D01*
X59117863Y-77124719D01*
X58986635Y-77200485D01*
X58986632Y-77200487D01*
X58879487Y-77307632D01*
X58879485Y-77307635D01*
X58803719Y-77438863D01*
X58788899Y-77494174D01*
X58764500Y-77585234D01*
X56021337Y-77585234D01*
X56011897Y-77519574D01*
X55958082Y-77401737D01*
X55873249Y-77303833D01*
X55764269Y-77233796D01*
X55764265Y-77233794D01*
X55764264Y-77233794D01*
X55639974Y-77197300D01*
X55639972Y-77197300D01*
X55510428Y-77197300D01*
X55510426Y-77197300D01*
X55386135Y-77233794D01*
X55386132Y-77233795D01*
X55386131Y-77233796D01*
X55334877Y-77266734D01*
X55277150Y-77303833D01*
X55192318Y-77401737D01*
X55192317Y-77401738D01*
X55138502Y-77519574D01*
X55120067Y-77647800D01*
X54250100Y-77647800D01*
X54250100Y-75565000D01*
X59869867Y-75565000D01*
X59888302Y-75693225D01*
X59908059Y-75736485D01*
X59942118Y-75811063D01*
X60026951Y-75908967D01*
X60135931Y-75979004D01*
X60260225Y-76015499D01*
X60260227Y-76015500D01*
X60260228Y-76015500D01*
X60389773Y-76015500D01*
X60389773Y-76015499D01*
X60514069Y-75979004D01*
X60623049Y-75908967D01*
X60707882Y-75811063D01*
X60761697Y-75693226D01*
X60780133Y-75565000D01*
X60761697Y-75436774D01*
X60707882Y-75318937D01*
X60623049Y-75221033D01*
X60514069Y-75150996D01*
X60514065Y-75150994D01*
X60514064Y-75150994D01*
X60389774Y-75114500D01*
X60389772Y-75114500D01*
X60260228Y-75114500D01*
X60260226Y-75114500D01*
X60135935Y-75150994D01*
X60135932Y-75150995D01*
X60135931Y-75150996D01*
X60087604Y-75182054D01*
X60026950Y-75221033D01*
X59942118Y-75318937D01*
X59942117Y-75318938D01*
X59888302Y-75436774D01*
X59869867Y-75565000D01*
X54250100Y-75565000D01*
X54250100Y-74620200D01*
X60835067Y-74620200D01*
X60853502Y-74748425D01*
X60907317Y-74866261D01*
X60907318Y-74866263D01*
X60992151Y-74964167D01*
X61101131Y-75034204D01*
X61131882Y-75043233D01*
X61225425Y-75070699D01*
X61225427Y-75070700D01*
X61225428Y-75070700D01*
X61241332Y-75070700D01*
X61303332Y-75087313D01*
X61345211Y-75111492D01*
X61345212Y-75111492D01*
X61345217Y-75111495D01*
X61347005Y-75111974D01*
X61348345Y-75112790D01*
X61352721Y-75114603D01*
X61352438Y-75115285D01*
X61406664Y-75148334D01*
X61437197Y-75211179D01*
X61434764Y-75252095D01*
X61436776Y-75252385D01*
X61417078Y-75389389D01*
X61435513Y-75517614D01*
X61457154Y-75565000D01*
X61489329Y-75635452D01*
X61574162Y-75733356D01*
X61683142Y-75803393D01*
X61799984Y-75837700D01*
X61807436Y-75839888D01*
X61807438Y-75839889D01*
X61807439Y-75839889D01*
X61936984Y-75839889D01*
X61936984Y-75839888D01*
X62061280Y-75803393D01*
X62165391Y-75736484D01*
X62232430Y-75716800D01*
X62299467Y-75736483D01*
X62400175Y-75801204D01*
X62524469Y-75837699D01*
X62524471Y-75837700D01*
X62524472Y-75837700D01*
X62654017Y-75837700D01*
X62654017Y-75837699D01*
X62778313Y-75801204D01*
X62887293Y-75731167D01*
X62972126Y-75633263D01*
X63025941Y-75515426D01*
X63044377Y-75387200D01*
X63025941Y-75258974D01*
X63022395Y-75251211D01*
X63012452Y-75182054D01*
X63041476Y-75118498D01*
X63100254Y-75080723D01*
X63135190Y-75075700D01*
X63234573Y-75075700D01*
X63234573Y-75075699D01*
X63358869Y-75039204D01*
X63467849Y-74969167D01*
X63552682Y-74871263D01*
X63606497Y-74753426D01*
X63624933Y-74625200D01*
X63606497Y-74496974D01*
X63552682Y-74379137D01*
X63467849Y-74281233D01*
X63358869Y-74211196D01*
X63358865Y-74211194D01*
X63358864Y-74211194D01*
X63234574Y-74174700D01*
X63234572Y-74174700D01*
X63105028Y-74174700D01*
X63105026Y-74174700D01*
X62980735Y-74211194D01*
X62980732Y-74211195D01*
X62980731Y-74211196D01*
X62929477Y-74244134D01*
X62871750Y-74281233D01*
X62786918Y-74379137D01*
X62786917Y-74379138D01*
X62733102Y-74496974D01*
X62714667Y-74625200D01*
X62714667Y-74625204D01*
X62714950Y-74627174D01*
X62714667Y-74629141D01*
X62714667Y-74634069D01*
X62713958Y-74634069D01*
X62705002Y-74696332D01*
X62659243Y-74749133D01*
X62592202Y-74768813D01*
X62525164Y-74749124D01*
X62504530Y-74732494D01*
X62378834Y-74606798D01*
X62378832Y-74606795D01*
X62310127Y-74538090D01*
X62310122Y-74538086D01*
X62234638Y-74494506D01*
X62234637Y-74494505D01*
X62213586Y-74488864D01*
X62150438Y-74471944D01*
X62150437Y-74471944D01*
X62150435Y-74471944D01*
X61797438Y-74471944D01*
X61730399Y-74452259D01*
X61684644Y-74399455D01*
X61673082Y-74374137D01*
X61588249Y-74276233D01*
X61479269Y-74206196D01*
X61479265Y-74206194D01*
X61479264Y-74206194D01*
X61354974Y-74169700D01*
X61354972Y-74169700D01*
X61225428Y-74169700D01*
X61225426Y-74169700D01*
X61101135Y-74206194D01*
X61101132Y-74206195D01*
X61101131Y-74206196D01*
X61049877Y-74239134D01*
X60992150Y-74276233D01*
X60907318Y-74374137D01*
X60907317Y-74374138D01*
X60853502Y-74491974D01*
X60835067Y-74620200D01*
X54250100Y-74620200D01*
X54250100Y-73507600D01*
X58676067Y-73507600D01*
X58694502Y-73635825D01*
X58748317Y-73753661D01*
X58748318Y-73753663D01*
X58833151Y-73851567D01*
X58942131Y-73921604D01*
X59066425Y-73958099D01*
X59066427Y-73958100D01*
X59066428Y-73958100D01*
X59195973Y-73958100D01*
X59195973Y-73958099D01*
X59320269Y-73921604D01*
X59429249Y-73851567D01*
X59514082Y-73753663D01*
X59567897Y-73635826D01*
X59586333Y-73507600D01*
X59567897Y-73379374D01*
X59514082Y-73261537D01*
X59429249Y-73163633D01*
X59320269Y-73093596D01*
X59320265Y-73093594D01*
X59320264Y-73093594D01*
X59195974Y-73057100D01*
X59195972Y-73057100D01*
X59066428Y-73057100D01*
X59066426Y-73057100D01*
X58942135Y-73093594D01*
X58942132Y-73093595D01*
X58942131Y-73093596D01*
X58890877Y-73126534D01*
X58833150Y-73163633D01*
X58748318Y-73261537D01*
X58748317Y-73261538D01*
X58694502Y-73379374D01*
X58676067Y-73507600D01*
X54250100Y-73507600D01*
X54250100Y-72411990D01*
X61136457Y-72411990D01*
X61154892Y-72540215D01*
X61182563Y-72600804D01*
X61208708Y-72658053D01*
X61293541Y-72755957D01*
X61402521Y-72825994D01*
X61526815Y-72862489D01*
X61526817Y-72862490D01*
X61526818Y-72862490D01*
X61656363Y-72862490D01*
X61656363Y-72862489D01*
X61780659Y-72825994D01*
X61889639Y-72755957D01*
X61974472Y-72658053D01*
X62028287Y-72540216D01*
X62046723Y-72411990D01*
X62028287Y-72283764D01*
X61984004Y-72186800D01*
X64340267Y-72186800D01*
X64358702Y-72315025D01*
X64412517Y-72432861D01*
X64412518Y-72432863D01*
X64497351Y-72530767D01*
X64606331Y-72600804D01*
X64730625Y-72637299D01*
X64730627Y-72637300D01*
X64730628Y-72637300D01*
X64860173Y-72637300D01*
X64860173Y-72637299D01*
X64984469Y-72600804D01*
X65093449Y-72530767D01*
X65178282Y-72432863D01*
X65232097Y-72315026D01*
X65250533Y-72186800D01*
X65232097Y-72058574D01*
X65178282Y-71940737D01*
X65149396Y-71907400D01*
X66702467Y-71907400D01*
X66720902Y-72035625D01*
X66731383Y-72058574D01*
X66774718Y-72153463D01*
X66859551Y-72251367D01*
X66968531Y-72321404D01*
X67092825Y-72357899D01*
X67092827Y-72357900D01*
X67092828Y-72357900D01*
X67222373Y-72357900D01*
X67222373Y-72357899D01*
X67346669Y-72321404D01*
X67455649Y-72251367D01*
X67540482Y-72153463D01*
X67594297Y-72035626D01*
X67612733Y-71907400D01*
X67594297Y-71779174D01*
X67540482Y-71661337D01*
X67455649Y-71563433D01*
X67346669Y-71493396D01*
X67346665Y-71493394D01*
X67346664Y-71493394D01*
X67222374Y-71456900D01*
X67222372Y-71456900D01*
X67092828Y-71456900D01*
X67092826Y-71456900D01*
X66968535Y-71493394D01*
X66968532Y-71493395D01*
X66968531Y-71493396D01*
X66917277Y-71526334D01*
X66859550Y-71563433D01*
X66774718Y-71661337D01*
X66774717Y-71661338D01*
X66720902Y-71779174D01*
X66702467Y-71907400D01*
X65149396Y-71907400D01*
X65093449Y-71842833D01*
X64984469Y-71772796D01*
X64984465Y-71772794D01*
X64984464Y-71772794D01*
X64860174Y-71736300D01*
X64860172Y-71736300D01*
X64730628Y-71736300D01*
X64730626Y-71736300D01*
X64606335Y-71772794D01*
X64606332Y-71772795D01*
X64606331Y-71772796D01*
X64596407Y-71779174D01*
X64497350Y-71842833D01*
X64412518Y-71940737D01*
X64412517Y-71940738D01*
X64358702Y-72058574D01*
X64340267Y-72186800D01*
X61984004Y-72186800D01*
X61974472Y-72165927D01*
X61889639Y-72068023D01*
X61780659Y-71997986D01*
X61780655Y-71997984D01*
X61780654Y-71997984D01*
X61656364Y-71961490D01*
X61656362Y-71961490D01*
X61526818Y-71961490D01*
X61526816Y-71961490D01*
X61402525Y-71997984D01*
X61402522Y-71997985D01*
X61402521Y-71997986D01*
X61351267Y-72030924D01*
X61293540Y-72068023D01*
X61208708Y-72165927D01*
X61208707Y-72165928D01*
X61154892Y-72283764D01*
X61136457Y-72411990D01*
X54250100Y-72411990D01*
X54250100Y-70967600D01*
X54967667Y-70967600D01*
X54986102Y-71095825D01*
X55039917Y-71213661D01*
X55039918Y-71213663D01*
X55124751Y-71311567D01*
X55233731Y-71381604D01*
X55358025Y-71418099D01*
X55358027Y-71418100D01*
X55358028Y-71418100D01*
X55487573Y-71418100D01*
X55487573Y-71418099D01*
X55611869Y-71381604D01*
X55720849Y-71311567D01*
X55805682Y-71213663D01*
X55859497Y-71095826D01*
X55877933Y-70967600D01*
X55859497Y-70839374D01*
X55805682Y-70721537D01*
X55720849Y-70623633D01*
X55611869Y-70553596D01*
X55611865Y-70553594D01*
X55611864Y-70553594D01*
X55487574Y-70517100D01*
X55487572Y-70517100D01*
X55358028Y-70517100D01*
X55358026Y-70517100D01*
X55233735Y-70553594D01*
X55233732Y-70553595D01*
X55233731Y-70553596D01*
X55192803Y-70579899D01*
X55124750Y-70623633D01*
X55039918Y-70721537D01*
X55039917Y-70721538D01*
X54986102Y-70839374D01*
X54967667Y-70967600D01*
X54250100Y-70967600D01*
X54250100Y-70129400D01*
X56694867Y-70129400D01*
X56713302Y-70257625D01*
X56767117Y-70375461D01*
X56767118Y-70375463D01*
X56851951Y-70473367D01*
X56960931Y-70543404D01*
X56995636Y-70553594D01*
X57085225Y-70579899D01*
X57085227Y-70579900D01*
X57085228Y-70579900D01*
X57214773Y-70579900D01*
X57214773Y-70579899D01*
X57339069Y-70543404D01*
X57448049Y-70473367D01*
X57532882Y-70375463D01*
X57586697Y-70257626D01*
X57605133Y-70129400D01*
X57586697Y-70001174D01*
X57532882Y-69883337D01*
X57448049Y-69785433D01*
X57339069Y-69715396D01*
X57339065Y-69715394D01*
X57339064Y-69715394D01*
X57214774Y-69678900D01*
X57214772Y-69678900D01*
X57085228Y-69678900D01*
X57085226Y-69678900D01*
X56960935Y-69715394D01*
X56960932Y-69715395D01*
X56960931Y-69715396D01*
X56909677Y-69748334D01*
X56851950Y-69785433D01*
X56767118Y-69883337D01*
X56767117Y-69883338D01*
X56713302Y-70001174D01*
X56694867Y-70129400D01*
X54250100Y-70129400D01*
X54250100Y-69097400D01*
X62174867Y-69097400D01*
X62193302Y-69225625D01*
X62247117Y-69343461D01*
X62247118Y-69343463D01*
X62331951Y-69441367D01*
X62440931Y-69511404D01*
X62565225Y-69547899D01*
X62565227Y-69547900D01*
X62565228Y-69547900D01*
X62694773Y-69547900D01*
X62694773Y-69547899D01*
X62819069Y-69511404D01*
X62928049Y-69441367D01*
X63012882Y-69343463D01*
X63066697Y-69225626D01*
X63085133Y-69097400D01*
X63774867Y-69097400D01*
X63793302Y-69225625D01*
X63847117Y-69343461D01*
X63847118Y-69343463D01*
X63931951Y-69441367D01*
X64040931Y-69511404D01*
X64165225Y-69547899D01*
X64165227Y-69547900D01*
X64165228Y-69547900D01*
X64294773Y-69547900D01*
X64294773Y-69547899D01*
X64419069Y-69511404D01*
X64528049Y-69441367D01*
X64612882Y-69343463D01*
X64666697Y-69225626D01*
X64685133Y-69097400D01*
X64666697Y-68969174D01*
X64612882Y-68851337D01*
X64528049Y-68753433D01*
X64419069Y-68683396D01*
X64419065Y-68683394D01*
X64419064Y-68683394D01*
X64294774Y-68646900D01*
X64294772Y-68646900D01*
X64165228Y-68646900D01*
X64165226Y-68646900D01*
X64040935Y-68683394D01*
X64040932Y-68683395D01*
X64040931Y-68683396D01*
X63989677Y-68716334D01*
X63931950Y-68753433D01*
X63847118Y-68851337D01*
X63847117Y-68851338D01*
X63793302Y-68969174D01*
X63774867Y-69097400D01*
X63085133Y-69097400D01*
X63066697Y-68969174D01*
X63012882Y-68851337D01*
X62928049Y-68753433D01*
X62819069Y-68683396D01*
X62819065Y-68683394D01*
X62819064Y-68683394D01*
X62694774Y-68646900D01*
X62694772Y-68646900D01*
X62565228Y-68646900D01*
X62565226Y-68646900D01*
X62440935Y-68683394D01*
X62440932Y-68683395D01*
X62440931Y-68683396D01*
X62389677Y-68716334D01*
X62331950Y-68753433D01*
X62247118Y-68851337D01*
X62247117Y-68851338D01*
X62193302Y-68969174D01*
X62174867Y-69097400D01*
X54250100Y-69097400D01*
X54250100Y-67945000D01*
X62536867Y-67945000D01*
X62555302Y-68073225D01*
X62609117Y-68191061D01*
X62609118Y-68191063D01*
X62693951Y-68288967D01*
X62802931Y-68359004D01*
X62927225Y-68395499D01*
X62927227Y-68395500D01*
X62927228Y-68395500D01*
X63056773Y-68395500D01*
X63056773Y-68395499D01*
X63181069Y-68359004D01*
X63290049Y-68288967D01*
X63374882Y-68191063D01*
X63428697Y-68073226D01*
X63447133Y-67945000D01*
X63428697Y-67816774D01*
X63374882Y-67698937D01*
X63290049Y-67601033D01*
X63181069Y-67530996D01*
X63181065Y-67530994D01*
X63181064Y-67530994D01*
X63056774Y-67494500D01*
X63056772Y-67494500D01*
X62927228Y-67494500D01*
X62927226Y-67494500D01*
X62802935Y-67530994D01*
X62802932Y-67530995D01*
X62802931Y-67530996D01*
X62751677Y-67563934D01*
X62693950Y-67601033D01*
X62609118Y-67698937D01*
X62609117Y-67698938D01*
X62555302Y-67816774D01*
X62536867Y-67945000D01*
X54250100Y-67945000D01*
X54250100Y-66833800D01*
X58326867Y-66833800D01*
X58345302Y-66962025D01*
X58399117Y-67079861D01*
X58399118Y-67079863D01*
X58483951Y-67177767D01*
X58592931Y-67247804D01*
X58717225Y-67284299D01*
X58717227Y-67284300D01*
X58717228Y-67284300D01*
X58846773Y-67284300D01*
X58846773Y-67284299D01*
X58971069Y-67247804D01*
X59080049Y-67177767D01*
X59164882Y-67079863D01*
X59218697Y-66962026D01*
X59237133Y-66833800D01*
X59218697Y-66705574D01*
X59164882Y-66587737D01*
X59080049Y-66489833D01*
X58971069Y-66419796D01*
X58971065Y-66419794D01*
X58971064Y-66419794D01*
X58846774Y-66383300D01*
X58846772Y-66383300D01*
X58717228Y-66383300D01*
X58717226Y-66383300D01*
X58592935Y-66419794D01*
X58592932Y-66419795D01*
X58592931Y-66419796D01*
X58541677Y-66452734D01*
X58483950Y-66489833D01*
X58399118Y-66587737D01*
X58399117Y-66587738D01*
X58345302Y-66705574D01*
X58326867Y-66833800D01*
X54250100Y-66833800D01*
X54250100Y-64820800D01*
X55628067Y-64820800D01*
X55646502Y-64949025D01*
X55700317Y-65066861D01*
X55700318Y-65066863D01*
X55785151Y-65164767D01*
X55894131Y-65234804D01*
X56018425Y-65271299D01*
X56018427Y-65271300D01*
X56018428Y-65271300D01*
X56147973Y-65271300D01*
X56147973Y-65271299D01*
X56272269Y-65234804D01*
X56381249Y-65164767D01*
X56466082Y-65066863D01*
X56519897Y-64949026D01*
X56538333Y-64820800D01*
X56519897Y-64692574D01*
X56466082Y-64574737D01*
X56381249Y-64476833D01*
X56284101Y-64414400D01*
X58066467Y-64414400D01*
X58084902Y-64542625D01*
X58104483Y-64585500D01*
X58138718Y-64660463D01*
X58223551Y-64758367D01*
X58332531Y-64828404D01*
X58456825Y-64864899D01*
X58456827Y-64864900D01*
X58456828Y-64864900D01*
X58586373Y-64864900D01*
X58586373Y-64864899D01*
X58710669Y-64828404D01*
X58819649Y-64758367D01*
X58904482Y-64660463D01*
X58958297Y-64542626D01*
X58976733Y-64414400D01*
X58958297Y-64286174D01*
X58904482Y-64168337D01*
X58875596Y-64135000D01*
X66727867Y-64135000D01*
X66746302Y-64263225D01*
X66756783Y-64286174D01*
X66800118Y-64381063D01*
X66884951Y-64478967D01*
X66993931Y-64549004D01*
X67118225Y-64585499D01*
X67118227Y-64585500D01*
X67118228Y-64585500D01*
X67247773Y-64585500D01*
X67247773Y-64585499D01*
X67372069Y-64549004D01*
X67481049Y-64478967D01*
X67565882Y-64381063D01*
X67619697Y-64263226D01*
X67638133Y-64135000D01*
X67619697Y-64006774D01*
X67565882Y-63888937D01*
X67481049Y-63791033D01*
X67372069Y-63720996D01*
X67372065Y-63720994D01*
X67372064Y-63720994D01*
X67247774Y-63684500D01*
X67247772Y-63684500D01*
X67118228Y-63684500D01*
X67118226Y-63684500D01*
X66993935Y-63720994D01*
X66993932Y-63720995D01*
X66993931Y-63720996D01*
X66942677Y-63753934D01*
X66884950Y-63791033D01*
X66800118Y-63888937D01*
X66800117Y-63888938D01*
X66746302Y-64006774D01*
X66727867Y-64135000D01*
X58875596Y-64135000D01*
X58819649Y-64070433D01*
X58710669Y-64000396D01*
X58710665Y-64000394D01*
X58710664Y-64000394D01*
X58586374Y-63963900D01*
X58586372Y-63963900D01*
X58456828Y-63963900D01*
X58456826Y-63963900D01*
X58332535Y-64000394D01*
X58332532Y-64000395D01*
X58332531Y-64000396D01*
X58322607Y-64006774D01*
X58223550Y-64070433D01*
X58138718Y-64168337D01*
X58138717Y-64168338D01*
X58084902Y-64286174D01*
X58066467Y-64414400D01*
X56284101Y-64414400D01*
X56272269Y-64406796D01*
X56272265Y-64406794D01*
X56272264Y-64406794D01*
X56147974Y-64370300D01*
X56147972Y-64370300D01*
X56018428Y-64370300D01*
X56018426Y-64370300D01*
X55894135Y-64406794D01*
X55894132Y-64406795D01*
X55894131Y-64406796D01*
X55842877Y-64439734D01*
X55785150Y-64476833D01*
X55700318Y-64574737D01*
X55700317Y-64574738D01*
X55646502Y-64692574D01*
X55628067Y-64820800D01*
X54250100Y-64820800D01*
X54250100Y-61531600D01*
X60695267Y-61531600D01*
X60713702Y-61659825D01*
X60718897Y-61671200D01*
X60767518Y-61777663D01*
X60852351Y-61875567D01*
X60961331Y-61945604D01*
X61085625Y-61982099D01*
X61085627Y-61982100D01*
X61085628Y-61982100D01*
X61215173Y-61982100D01*
X61215173Y-61982099D01*
X61339469Y-61945604D01*
X61448449Y-61875567D01*
X61533282Y-61777663D01*
X61581903Y-61671200D01*
X62105067Y-61671200D01*
X62123502Y-61799425D01*
X62152430Y-61862767D01*
X62177318Y-61917263D01*
X62262151Y-62015167D01*
X62371131Y-62085204D01*
X62392121Y-62091367D01*
X62495425Y-62121699D01*
X62495427Y-62121700D01*
X62495428Y-62121700D01*
X62624973Y-62121700D01*
X62624973Y-62121699D01*
X62749269Y-62085204D01*
X62858249Y-62015167D01*
X62943082Y-61917263D01*
X62996897Y-61799426D01*
X63004377Y-61747400D01*
X64365667Y-61747400D01*
X64384102Y-61875625D01*
X64437917Y-61993461D01*
X64437918Y-61993463D01*
X64522751Y-62091367D01*
X64631731Y-62161404D01*
X64756025Y-62197899D01*
X64756027Y-62197900D01*
X64756028Y-62197900D01*
X64885573Y-62197900D01*
X64885573Y-62197899D01*
X65009869Y-62161404D01*
X65118849Y-62091367D01*
X65203682Y-61993463D01*
X65257497Y-61875626D01*
X65275933Y-61747400D01*
X65257497Y-61619174D01*
X65211657Y-61518800D01*
X65737267Y-61518800D01*
X65755702Y-61647025D01*
X65766743Y-61671200D01*
X65809518Y-61764863D01*
X65831839Y-61790623D01*
X65889927Y-61857662D01*
X65894351Y-61862767D01*
X66003331Y-61932804D01*
X66127625Y-61969299D01*
X66127627Y-61969300D01*
X66127628Y-61969300D01*
X66257173Y-61969300D01*
X66257173Y-61969299D01*
X66381469Y-61932804D01*
X66490449Y-61862767D01*
X66575282Y-61764863D01*
X66629097Y-61647026D01*
X66647533Y-61518800D01*
X66629097Y-61390574D01*
X66575282Y-61272737D01*
X66490449Y-61174833D01*
X66381469Y-61104796D01*
X66381465Y-61104794D01*
X66381464Y-61104794D01*
X66257174Y-61068300D01*
X66257172Y-61068300D01*
X66127628Y-61068300D01*
X66127626Y-61068300D01*
X66003335Y-61104794D01*
X66003332Y-61104795D01*
X66003331Y-61104796D01*
X65964326Y-61129863D01*
X65894350Y-61174833D01*
X65809518Y-61272737D01*
X65809517Y-61272738D01*
X65755702Y-61390574D01*
X65737267Y-61518800D01*
X65211657Y-61518800D01*
X65203682Y-61501337D01*
X65118849Y-61403433D01*
X65009869Y-61333396D01*
X65009865Y-61333394D01*
X65009864Y-61333394D01*
X64885574Y-61296900D01*
X64885572Y-61296900D01*
X64756028Y-61296900D01*
X64756026Y-61296900D01*
X64631735Y-61333394D01*
X64631732Y-61333395D01*
X64631731Y-61333396D01*
X64580477Y-61366334D01*
X64522750Y-61403433D01*
X64437918Y-61501337D01*
X64437917Y-61501338D01*
X64384102Y-61619174D01*
X64365667Y-61747400D01*
X63004377Y-61747400D01*
X63015333Y-61671200D01*
X62996897Y-61542974D01*
X62943082Y-61425137D01*
X62858249Y-61327233D01*
X62749269Y-61257196D01*
X62749265Y-61257194D01*
X62749264Y-61257194D01*
X62624974Y-61220700D01*
X62624972Y-61220700D01*
X62495428Y-61220700D01*
X62495426Y-61220700D01*
X62371135Y-61257194D01*
X62371132Y-61257195D01*
X62371131Y-61257196D01*
X62327030Y-61285538D01*
X62262150Y-61327233D01*
X62177318Y-61425137D01*
X62177317Y-61425138D01*
X62123502Y-61542974D01*
X62105067Y-61671200D01*
X61581903Y-61671200D01*
X61587097Y-61659826D01*
X61605533Y-61531600D01*
X61587097Y-61403374D01*
X61563936Y-61352660D01*
X61553993Y-61283504D01*
X61583017Y-61219948D01*
X61641795Y-61182173D01*
X61711665Y-61182173D01*
X61730261Y-61187633D01*
X61765227Y-61197900D01*
X61765228Y-61197900D01*
X61894773Y-61197900D01*
X61894773Y-61197899D01*
X62019069Y-61161404D01*
X62128049Y-61091367D01*
X62212882Y-60993463D01*
X62266697Y-60875626D01*
X62285133Y-60747400D01*
X62974867Y-60747400D01*
X62993302Y-60875625D01*
X63030000Y-60955980D01*
X63047118Y-60993463D01*
X63131951Y-61091367D01*
X63240931Y-61161404D01*
X63330261Y-61187633D01*
X63365225Y-61197899D01*
X63365227Y-61197900D01*
X63365228Y-61197900D01*
X63494773Y-61197900D01*
X63494773Y-61197899D01*
X63619069Y-61161404D01*
X63728049Y-61091367D01*
X63736284Y-61081862D01*
X63795061Y-61044086D01*
X63864930Y-61044084D01*
X63923710Y-61081856D01*
X63923716Y-61081863D01*
X63931949Y-61091366D01*
X63931951Y-61091367D01*
X64040931Y-61161404D01*
X64130261Y-61187633D01*
X64165225Y-61197899D01*
X64165227Y-61197900D01*
X64165228Y-61197900D01*
X64294773Y-61197900D01*
X64294773Y-61197899D01*
X64419069Y-61161404D01*
X64528049Y-61091367D01*
X64612882Y-60993463D01*
X64666697Y-60875626D01*
X64685133Y-60747400D01*
X64666697Y-60619174D01*
X64612882Y-60501337D01*
X64528049Y-60403433D01*
X64419069Y-60333396D01*
X64419065Y-60333394D01*
X64419064Y-60333394D01*
X64294774Y-60296900D01*
X64294772Y-60296900D01*
X64165228Y-60296900D01*
X64165226Y-60296900D01*
X64040935Y-60333394D01*
X64040932Y-60333395D01*
X64040931Y-60333396D01*
X63999435Y-60360063D01*
X63931948Y-60403434D01*
X63923713Y-60412939D01*
X63864936Y-60450714D01*
X63795066Y-60450714D01*
X63736288Y-60412940D01*
X63736287Y-60412939D01*
X63728051Y-60403434D01*
X63707301Y-60390099D01*
X63619069Y-60333396D01*
X63619065Y-60333394D01*
X63619064Y-60333394D01*
X63494774Y-60296900D01*
X63494772Y-60296900D01*
X63365228Y-60296900D01*
X63365226Y-60296900D01*
X63240935Y-60333394D01*
X63240932Y-60333395D01*
X63240931Y-60333396D01*
X63196786Y-60361766D01*
X63131950Y-60403433D01*
X63047118Y-60501337D01*
X63047117Y-60501338D01*
X62993302Y-60619174D01*
X62974867Y-60747400D01*
X62285133Y-60747400D01*
X62266697Y-60619174D01*
X62212882Y-60501337D01*
X62128049Y-60403433D01*
X62019069Y-60333396D01*
X62019065Y-60333394D01*
X62019064Y-60333394D01*
X61894774Y-60296900D01*
X61894772Y-60296900D01*
X61765228Y-60296900D01*
X61765226Y-60296900D01*
X61640935Y-60333394D01*
X61640932Y-60333395D01*
X61640931Y-60333396D01*
X61596786Y-60361766D01*
X61531950Y-60403433D01*
X61447118Y-60501337D01*
X61447117Y-60501338D01*
X61393302Y-60619174D01*
X61374867Y-60747400D01*
X61393302Y-60875626D01*
X61393303Y-60875627D01*
X61416462Y-60926338D01*
X61426406Y-60995496D01*
X61397381Y-61059052D01*
X61338603Y-61096826D01*
X61268734Y-61096826D01*
X61215174Y-61081100D01*
X61215172Y-61081100D01*
X61085628Y-61081100D01*
X61085626Y-61081100D01*
X60961335Y-61117594D01*
X60961332Y-61117595D01*
X60961331Y-61117596D01*
X60910077Y-61150534D01*
X60852350Y-61187633D01*
X60767518Y-61285537D01*
X60767517Y-61285538D01*
X60713702Y-61403374D01*
X60695267Y-61531600D01*
X54250100Y-61531600D01*
X54250100Y-60883800D01*
X56263067Y-60883800D01*
X56281502Y-61012025D01*
X56313397Y-61081863D01*
X56335318Y-61129863D01*
X56408824Y-61214695D01*
X56414027Y-61220700D01*
X56420151Y-61227767D01*
X56529131Y-61297804D01*
X56653425Y-61334299D01*
X56653427Y-61334300D01*
X56653428Y-61334300D01*
X56782973Y-61334300D01*
X56782973Y-61334299D01*
X56907269Y-61297804D01*
X57016249Y-61227767D01*
X57101082Y-61129863D01*
X57154897Y-61012026D01*
X57173333Y-60883800D01*
X57154897Y-60755574D01*
X57151164Y-60747400D01*
X59774867Y-60747400D01*
X59793302Y-60875625D01*
X59830000Y-60955980D01*
X59847118Y-60993463D01*
X59931951Y-61091367D01*
X60040931Y-61161404D01*
X60130261Y-61187633D01*
X60165225Y-61197899D01*
X60165227Y-61197900D01*
X60165228Y-61197900D01*
X60294773Y-61197900D01*
X60294773Y-61197899D01*
X60419069Y-61161404D01*
X60528049Y-61091367D01*
X60612882Y-60993463D01*
X60666697Y-60875626D01*
X60685133Y-60747400D01*
X60666697Y-60619174D01*
X60612882Y-60501337D01*
X60528049Y-60403433D01*
X60419069Y-60333396D01*
X60419065Y-60333394D01*
X60419064Y-60333394D01*
X60294774Y-60296900D01*
X60294772Y-60296900D01*
X60165228Y-60296900D01*
X60165226Y-60296900D01*
X60040935Y-60333394D01*
X60040932Y-60333395D01*
X60040931Y-60333396D01*
X59996786Y-60361766D01*
X59931950Y-60403433D01*
X59847118Y-60501337D01*
X59847117Y-60501338D01*
X59793302Y-60619174D01*
X59774867Y-60747400D01*
X57151164Y-60747400D01*
X57101082Y-60637737D01*
X57016249Y-60539833D01*
X56907269Y-60469796D01*
X56907265Y-60469794D01*
X56907264Y-60469794D01*
X56782974Y-60433300D01*
X56782972Y-60433300D01*
X56653428Y-60433300D01*
X56653426Y-60433300D01*
X56529135Y-60469794D01*
X56529132Y-60469795D01*
X56529131Y-60469796D01*
X56480052Y-60501337D01*
X56420150Y-60539833D01*
X56335318Y-60637737D01*
X56335317Y-60637738D01*
X56281502Y-60755574D01*
X56263067Y-60883800D01*
X54250100Y-60883800D01*
X54250100Y-59947762D01*
X68515467Y-59947762D01*
X68533902Y-60075987D01*
X68587717Y-60193823D01*
X68587718Y-60193825D01*
X68672551Y-60291729D01*
X68781531Y-60361766D01*
X68905825Y-60398261D01*
X68905827Y-60398262D01*
X68905828Y-60398262D01*
X69035373Y-60398262D01*
X69035373Y-60398261D01*
X69159669Y-60361766D01*
X69268649Y-60291729D01*
X69353482Y-60193825D01*
X69407297Y-60075988D01*
X69425733Y-59947762D01*
X69407297Y-59819536D01*
X69353482Y-59701699D01*
X69268649Y-59603795D01*
X69159669Y-59533758D01*
X69159665Y-59533756D01*
X69159664Y-59533756D01*
X69035374Y-59497262D01*
X69035372Y-59497262D01*
X68905828Y-59497262D01*
X68905826Y-59497262D01*
X68781535Y-59533756D01*
X68781532Y-59533757D01*
X68781531Y-59533758D01*
X68730277Y-59566696D01*
X68672550Y-59603795D01*
X68587718Y-59701699D01*
X68587717Y-59701700D01*
X68533902Y-59819536D01*
X68515467Y-59947762D01*
X54250100Y-59947762D01*
X54250100Y-59486800D01*
X56110667Y-59486800D01*
X56129102Y-59615025D01*
X56182917Y-59732861D01*
X56182918Y-59732863D01*
X56267751Y-59830767D01*
X56376731Y-59900804D01*
X56501025Y-59937299D01*
X56501027Y-59937300D01*
X56501028Y-59937300D01*
X56630573Y-59937300D01*
X56630573Y-59937299D01*
X56754869Y-59900804D01*
X56863849Y-59830767D01*
X56948682Y-59732863D01*
X57002497Y-59615026D01*
X57020933Y-59486800D01*
X57002497Y-59358574D01*
X56948682Y-59240737D01*
X56863849Y-59142833D01*
X56754869Y-59072796D01*
X56754865Y-59072794D01*
X56754864Y-59072794D01*
X56630574Y-59036300D01*
X56630572Y-59036300D01*
X56501028Y-59036300D01*
X56501026Y-59036300D01*
X56376735Y-59072794D01*
X56376732Y-59072795D01*
X56376731Y-59072796D01*
X56325477Y-59105734D01*
X56267750Y-59142833D01*
X56182918Y-59240737D01*
X56182917Y-59240738D01*
X56129102Y-59358574D01*
X56110667Y-59486800D01*
X54250100Y-59486800D01*
X54250100Y-58674000D01*
X58659538Y-58674000D01*
X58679337Y-58875031D01*
X58737978Y-59068345D01*
X58833198Y-59246488D01*
X58833203Y-59246495D01*
X58961352Y-59402647D01*
X59063894Y-59486800D01*
X59117506Y-59530798D01*
X59117509Y-59530799D01*
X59117511Y-59530801D01*
X59295654Y-59626021D01*
X59295656Y-59626021D01*
X59295659Y-59626023D01*
X59488967Y-59684662D01*
X59690000Y-59704462D01*
X59891033Y-59684662D01*
X60084341Y-59626023D01*
X60262494Y-59530798D01*
X60418647Y-59402647D01*
X60546798Y-59246494D01*
X60642023Y-59068341D01*
X60700662Y-58875033D01*
X60720462Y-58674000D01*
X61199538Y-58674000D01*
X61219337Y-58875031D01*
X61277978Y-59068345D01*
X61373198Y-59246488D01*
X61373203Y-59246495D01*
X61501352Y-59402647D01*
X61603894Y-59486800D01*
X61657506Y-59530798D01*
X61657509Y-59530799D01*
X61657511Y-59530801D01*
X61835654Y-59626021D01*
X61835656Y-59626021D01*
X61835659Y-59626023D01*
X62028967Y-59684662D01*
X62230000Y-59704462D01*
X62431033Y-59684662D01*
X62624341Y-59626023D01*
X62802494Y-59530798D01*
X62958647Y-59402647D01*
X63086798Y-59246494D01*
X63182023Y-59068341D01*
X63240662Y-58875033D01*
X63260462Y-58674000D01*
X63739538Y-58674000D01*
X63759337Y-58875031D01*
X63817978Y-59068345D01*
X63913198Y-59246488D01*
X63913203Y-59246495D01*
X64041352Y-59402647D01*
X64143894Y-59486800D01*
X64197506Y-59530798D01*
X64197509Y-59530799D01*
X64197511Y-59530801D01*
X64375654Y-59626021D01*
X64375656Y-59626021D01*
X64375659Y-59626023D01*
X64568967Y-59684662D01*
X64770000Y-59704462D01*
X64971033Y-59684662D01*
X65164341Y-59626023D01*
X65342494Y-59530798D01*
X65498647Y-59402647D01*
X65626798Y-59246494D01*
X65722023Y-59068341D01*
X65780662Y-58875033D01*
X65800462Y-58674000D01*
X65780662Y-58472967D01*
X65722023Y-58279659D01*
X65722021Y-58279656D01*
X65722021Y-58279654D01*
X65626801Y-58101511D01*
X65626799Y-58101509D01*
X65626798Y-58101506D01*
X65555121Y-58014167D01*
X65498647Y-57945352D01*
X65342495Y-57817203D01*
X65342488Y-57817198D01*
X65164345Y-57721978D01*
X64971031Y-57663337D01*
X64770000Y-57643538D01*
X64568968Y-57663337D01*
X64375654Y-57721978D01*
X64197511Y-57817198D01*
X64197504Y-57817203D01*
X64041352Y-57945352D01*
X63913203Y-58101504D01*
X63913198Y-58101511D01*
X63817978Y-58279654D01*
X63759337Y-58472968D01*
X63739538Y-58674000D01*
X63260462Y-58674000D01*
X63240662Y-58472967D01*
X63182023Y-58279659D01*
X63182021Y-58279656D01*
X63182021Y-58279654D01*
X63086801Y-58101511D01*
X63086799Y-58101509D01*
X63086798Y-58101506D01*
X63015121Y-58014167D01*
X62958647Y-57945352D01*
X62802495Y-57817203D01*
X62802488Y-57817198D01*
X62624345Y-57721978D01*
X62431031Y-57663337D01*
X62230000Y-57643538D01*
X62028968Y-57663337D01*
X61835654Y-57721978D01*
X61657511Y-57817198D01*
X61657504Y-57817203D01*
X61501352Y-57945352D01*
X61373203Y-58101504D01*
X61373198Y-58101511D01*
X61277978Y-58279654D01*
X61219337Y-58472968D01*
X61199538Y-58674000D01*
X60720462Y-58674000D01*
X60700662Y-58472967D01*
X60642023Y-58279659D01*
X60642021Y-58279656D01*
X60642021Y-58279654D01*
X60546801Y-58101511D01*
X60546799Y-58101509D01*
X60546798Y-58101506D01*
X60475121Y-58014167D01*
X60418647Y-57945352D01*
X60262495Y-57817203D01*
X60262488Y-57817198D01*
X60084345Y-57721978D01*
X59891031Y-57663337D01*
X59690000Y-57643538D01*
X59488968Y-57663337D01*
X59295654Y-57721978D01*
X59117511Y-57817198D01*
X59117504Y-57817203D01*
X58961352Y-57945352D01*
X58833203Y-58101504D01*
X58833198Y-58101511D01*
X58737978Y-58279654D01*
X58679337Y-58472968D01*
X58659538Y-58674000D01*
X54250100Y-58674000D01*
X54250100Y-58014167D01*
X56005660Y-58014167D01*
X56024095Y-58142392D01*
X56077910Y-58260228D01*
X56077911Y-58260230D01*
X56162744Y-58358134D01*
X56271724Y-58428171D01*
X56396018Y-58464666D01*
X56396020Y-58464667D01*
X56396021Y-58464667D01*
X56525566Y-58464667D01*
X56525566Y-58464666D01*
X56649862Y-58428171D01*
X56758842Y-58358134D01*
X56843675Y-58260230D01*
X56897490Y-58142393D01*
X56915926Y-58014167D01*
X56897490Y-57885941D01*
X56843675Y-57768104D01*
X56758842Y-57670200D01*
X56649862Y-57600163D01*
X56649858Y-57600161D01*
X56649857Y-57600161D01*
X56525567Y-57563667D01*
X56525565Y-57563667D01*
X56396021Y-57563667D01*
X56396019Y-57563667D01*
X56271728Y-57600161D01*
X56271725Y-57600162D01*
X56271724Y-57600163D01*
X56220470Y-57633101D01*
X56162743Y-57670200D01*
X56077911Y-57768104D01*
X56077910Y-57768105D01*
X56024095Y-57885941D01*
X56005660Y-58014167D01*
X54250100Y-58014167D01*
X54250100Y-56134000D01*
X58659538Y-56134000D01*
X58679337Y-56335031D01*
X58737978Y-56528345D01*
X58833198Y-56706488D01*
X58833203Y-56706495D01*
X58961352Y-56862647D01*
X59070016Y-56951824D01*
X59117506Y-56990798D01*
X59117509Y-56990799D01*
X59117511Y-56990801D01*
X59295654Y-57086021D01*
X59295656Y-57086021D01*
X59295659Y-57086023D01*
X59488967Y-57144662D01*
X59690000Y-57164462D01*
X59891033Y-57144662D01*
X60084341Y-57086023D01*
X60262494Y-56990798D01*
X60418647Y-56862647D01*
X60546798Y-56706494D01*
X60642023Y-56528341D01*
X60700662Y-56335033D01*
X60720462Y-56134000D01*
X61199538Y-56134000D01*
X61219337Y-56335031D01*
X61277978Y-56528345D01*
X61373198Y-56706488D01*
X61373203Y-56706495D01*
X61501352Y-56862647D01*
X61610016Y-56951824D01*
X61657506Y-56990798D01*
X61657509Y-56990799D01*
X61657511Y-56990801D01*
X61835654Y-57086021D01*
X61835656Y-57086021D01*
X61835659Y-57086023D01*
X62028967Y-57144662D01*
X62230000Y-57164462D01*
X62431033Y-57144662D01*
X62624341Y-57086023D01*
X62802494Y-56990798D01*
X62958647Y-56862647D01*
X63086798Y-56706494D01*
X63182023Y-56528341D01*
X63240662Y-56335033D01*
X63260462Y-56134000D01*
X63240662Y-55932967D01*
X63182023Y-55739659D01*
X63182021Y-55739656D01*
X63182021Y-55739654D01*
X63086801Y-55561511D01*
X63086799Y-55561509D01*
X63086798Y-55561506D01*
X63047824Y-55514016D01*
X62958647Y-55405352D01*
X62817171Y-55289247D01*
X63744500Y-55289247D01*
X63744500Y-56978752D01*
X63756131Y-57037229D01*
X63756132Y-57037230D01*
X63800447Y-57103552D01*
X63866769Y-57147867D01*
X63866770Y-57147868D01*
X63925247Y-57159499D01*
X63925250Y-57159500D01*
X63925252Y-57159500D01*
X65614750Y-57159500D01*
X65614751Y-57159499D01*
X65629568Y-57156552D01*
X65673229Y-57147868D01*
X65673229Y-57147867D01*
X65673231Y-57147867D01*
X65739552Y-57103552D01*
X65783867Y-57037231D01*
X65783867Y-57037229D01*
X65783868Y-57037229D01*
X65792552Y-56993568D01*
X65795500Y-56978748D01*
X65795500Y-55289252D01*
X65795500Y-55289249D01*
X65795499Y-55289247D01*
X65783868Y-55230770D01*
X65783867Y-55230769D01*
X65739552Y-55164447D01*
X65673230Y-55120132D01*
X65673229Y-55120131D01*
X65614752Y-55108500D01*
X65614748Y-55108500D01*
X63925252Y-55108500D01*
X63925247Y-55108500D01*
X63866770Y-55120131D01*
X63866769Y-55120132D01*
X63800447Y-55164447D01*
X63756132Y-55230769D01*
X63756131Y-55230770D01*
X63744500Y-55289247D01*
X62817171Y-55289247D01*
X62802495Y-55277203D01*
X62802488Y-55277198D01*
X62624345Y-55181978D01*
X62431031Y-55123337D01*
X62230000Y-55103538D01*
X62028968Y-55123337D01*
X61835654Y-55181978D01*
X61657511Y-55277198D01*
X61657504Y-55277203D01*
X61501352Y-55405352D01*
X61373203Y-55561504D01*
X61373198Y-55561511D01*
X61277978Y-55739654D01*
X61219337Y-55932968D01*
X61199538Y-56134000D01*
X60720462Y-56134000D01*
X60700662Y-55932967D01*
X60642023Y-55739659D01*
X60642021Y-55739656D01*
X60642021Y-55739654D01*
X60546801Y-55561511D01*
X60546799Y-55561509D01*
X60546798Y-55561506D01*
X60507824Y-55514016D01*
X60418647Y-55405352D01*
X60262495Y-55277203D01*
X60262488Y-55277198D01*
X60084345Y-55181978D01*
X59891031Y-55123337D01*
X59690000Y-55103538D01*
X59488968Y-55123337D01*
X59295654Y-55181978D01*
X59117511Y-55277198D01*
X59117504Y-55277203D01*
X58961352Y-55405352D01*
X58833203Y-55561504D01*
X58833198Y-55561511D01*
X58737978Y-55739654D01*
X58679337Y-55932968D01*
X58659538Y-56134000D01*
X54250100Y-56134000D01*
X54250100Y-54406800D01*
X61038267Y-54406800D01*
X61056702Y-54535025D01*
X61110517Y-54652861D01*
X61110518Y-54652863D01*
X61195351Y-54750767D01*
X61304331Y-54820804D01*
X61428625Y-54857299D01*
X61428627Y-54857300D01*
X61428628Y-54857300D01*
X61558173Y-54857300D01*
X61558173Y-54857299D01*
X61682469Y-54820804D01*
X61791449Y-54750767D01*
X61876282Y-54652863D01*
X61930097Y-54535026D01*
X61948533Y-54406800D01*
X61930097Y-54278574D01*
X61876282Y-54160737D01*
X61791449Y-54062833D01*
X61773348Y-54051200D01*
X68505867Y-54051200D01*
X68524302Y-54179425D01*
X68569583Y-54278574D01*
X68578118Y-54297263D01*
X68662951Y-54395167D01*
X68771931Y-54465204D01*
X68896225Y-54501699D01*
X68896227Y-54501700D01*
X68896228Y-54501700D01*
X69025773Y-54501700D01*
X69025773Y-54501699D01*
X69150069Y-54465204D01*
X69259049Y-54395167D01*
X69343882Y-54297263D01*
X69397697Y-54179426D01*
X69416133Y-54051200D01*
X69397697Y-53922974D01*
X69343882Y-53805137D01*
X69259049Y-53707233D01*
X69150069Y-53637196D01*
X69150065Y-53637194D01*
X69150064Y-53637194D01*
X69025774Y-53600700D01*
X69025772Y-53600700D01*
X68896228Y-53600700D01*
X68896226Y-53600700D01*
X68771935Y-53637194D01*
X68771932Y-53637195D01*
X68771931Y-53637196D01*
X68720677Y-53670134D01*
X68662950Y-53707233D01*
X68578118Y-53805137D01*
X68578117Y-53805138D01*
X68524302Y-53922974D01*
X68505867Y-54051200D01*
X61773348Y-54051200D01*
X61682469Y-53992796D01*
X61682465Y-53992794D01*
X61682464Y-53992794D01*
X61558174Y-53956300D01*
X61558172Y-53956300D01*
X61428628Y-53956300D01*
X61428626Y-53956300D01*
X61304335Y-53992794D01*
X61304332Y-53992795D01*
X61304331Y-53992796D01*
X61253077Y-54025734D01*
X61195350Y-54062833D01*
X61110518Y-54160737D01*
X61110517Y-54160738D01*
X61056702Y-54278574D01*
X61038267Y-54406800D01*
X54250100Y-54406800D01*
X54250100Y-50774600D01*
X54799017Y-50774600D01*
X54819299Y-50980532D01*
X54819300Y-50980534D01*
X54879368Y-51178554D01*
X54976915Y-51361050D01*
X54976917Y-51361052D01*
X55108189Y-51521010D01*
X55191707Y-51589550D01*
X55268150Y-51652285D01*
X55450646Y-51749832D01*
X55648666Y-51809900D01*
X55648665Y-51809900D01*
X55667129Y-51811718D01*
X55854600Y-51830183D01*
X56060534Y-51809900D01*
X56258554Y-51749832D01*
X56441050Y-51652285D01*
X56601010Y-51521010D01*
X56732285Y-51361050D01*
X56829832Y-51178554D01*
X56889900Y-50980534D01*
X56910183Y-50774600D01*
X57339017Y-50774600D01*
X57359299Y-50980532D01*
X57359300Y-50980534D01*
X57419368Y-51178554D01*
X57516915Y-51361050D01*
X57516917Y-51361052D01*
X57648189Y-51521010D01*
X57731707Y-51589550D01*
X57808150Y-51652285D01*
X57990646Y-51749832D01*
X58188666Y-51809900D01*
X58188665Y-51809900D01*
X58207129Y-51811718D01*
X58394600Y-51830183D01*
X58600534Y-51809900D01*
X58798554Y-51749832D01*
X58981050Y-51652285D01*
X59141010Y-51521010D01*
X59272285Y-51361050D01*
X59369832Y-51178554D01*
X59429900Y-50980534D01*
X59450183Y-50774600D01*
X59429900Y-50568666D01*
X59369832Y-50370646D01*
X59272285Y-50188150D01*
X59220302Y-50124809D01*
X59141010Y-50028189D01*
X58990721Y-49904852D01*
X58981050Y-49896915D01*
X58798554Y-49799368D01*
X58600534Y-49739300D01*
X58600532Y-49739299D01*
X58600534Y-49739299D01*
X58394600Y-49719017D01*
X58188667Y-49739299D01*
X57990643Y-49799369D01*
X57902714Y-49846369D01*
X57808150Y-49896915D01*
X57808148Y-49896916D01*
X57808147Y-49896917D01*
X57648189Y-50028189D01*
X57516917Y-50188147D01*
X57516915Y-50188150D01*
X57478243Y-50260498D01*
X57419369Y-50370643D01*
X57359299Y-50568667D01*
X57339017Y-50774600D01*
X56910183Y-50774600D01*
X56889900Y-50568666D01*
X56829832Y-50370646D01*
X56732285Y-50188150D01*
X56680302Y-50124809D01*
X56601010Y-50028189D01*
X56450721Y-49904852D01*
X56441050Y-49896915D01*
X56258554Y-49799368D01*
X56060534Y-49739300D01*
X56060532Y-49739299D01*
X56060534Y-49739299D01*
X55854600Y-49719017D01*
X55648667Y-49739299D01*
X55450643Y-49799369D01*
X55362714Y-49846369D01*
X55268150Y-49896915D01*
X55268148Y-49896916D01*
X55268147Y-49896917D01*
X55108189Y-50028189D01*
X54976917Y-50188147D01*
X54976915Y-50188150D01*
X54938243Y-50260498D01*
X54879369Y-50370643D01*
X54819299Y-50568667D01*
X54799017Y-50774600D01*
X54250100Y-50774600D01*
X54250100Y-49344900D01*
X54269785Y-49277861D01*
X54322589Y-49232106D01*
X54374100Y-49220900D01*
X61725063Y-49220900D01*
X61792102Y-49240585D01*
G37*
G04 #@! TD.AperFunction*
M02*
