M48
; DRILL file {KiCad 8.0.2} date 2024-05-04T17:25:48+0200
; FORMAT={-:-/ absolute / metric / decimal}
; #@! TF.CreationDate,2024-05-04T17:25:48+02:00
; #@! TF.GenerationSoftware,Kicad,Pcbnew,8.0.2
; #@! TF.FileFunction,Plated,1,4,PTH
FMAT,2
METRIC
; #@! TA.AperFunction,Plated,PTH,ViaDrill
T1C0.300
; #@! TA.AperFunction,Plated,PTH,ComponentDrill
T2C1.000
; #@! TA.AperFunction,Plated,PTH,ComponentDrill
T3C1.100
%
G90
G05
T1
X54.508Y-81.559
X54.534Y-55.956
X54.61Y-53.238
X54.635Y-61.112
X54.661Y-59.665
X54.674Y-65.557
X54.686Y-49.759
X54.686Y-67.056
X54.94Y-72.034
X54.966Y-75.997
X55.143Y-79.832
X55.423Y-70.968
X55.575Y-77.648
X55.905Y-52.172
X56.083Y-64.821
X56.109Y-70.18
X56.413Y-75.692
X56.461Y-58.014
X56.464Y-55.931
X56.515Y-53.162
X56.566Y-59.487
X56.718Y-60.884
X56.896Y-49.682
X57.15Y-70.129
X57.328Y-73.838
X57.353Y-74.879
X57.912Y-55.245
X58.522Y-64.414
X58.776Y-81.407
X58.782Y-66.834
X59.03Y-75.641
X59.131Y-73.508
X59.741Y-53.289
X60.23Y-60.747
X60.325Y-75.565
X60.452Y-81.153
X60.731Y-79.121
X60.871Y-63.919
X60.935Y-55.626
X61.087Y-58.141
X61.15Y-61.532
X61.29Y-74.62
X61.493Y-52.045
X61.493Y-54.407
X61.592Y-72.412
X61.697Y-53.569
X61.83Y-60.747
X61.872Y-75.389
X62.219Y-49.646
X62.23Y-51.435
X62.23Y-72.72
X62.332Y-81.178
X62.56Y-61.671
X62.589Y-75.387
X62.63Y-69.097
X62.941Y-77.876
X62.992Y-67.945
X63.17Y-74.625
X63.43Y-60.747
X63.678Y-79.121
X63.779Y-63.424
X63.83Y-66.269
X64.008Y-70.383
X64.059Y-77.622
X64.16Y-57.531
X64.186Y-81.178
X64.23Y-60.747
X64.23Y-69.097
X64.795Y-72.187
X64.821Y-61.747
X64.948Y-75.362
X66.192Y-61.519
X66.218Y-69.088
X66.218Y-69.952
X66.573Y-54.026
X67.005Y-60.325
X67.158Y-71.907
X67.183Y-64.135
X67.412Y-74.981
X67.589Y-61.316
X67.64Y-56.058
X68.148Y-60.071
X68.326Y-75.387
X68.758Y-61.366
X68.885Y-77.114
X68.961Y-54.051
X68.971Y-59.948
X69.545Y-57.455
X69.571Y-80.264
X69.672Y-52.222
X69.698Y-53.492
X69.761Y-62.281
X69.774Y-73.355
X69.774Y-74.168
X69.774Y-76.2
X69.825Y-67.335
X69.825Y-68.25
X69.875Y-81.585
T2
X55.855Y-50.775
X58.395Y-50.775
X60.935Y-50.775
X63.475Y-50.775
X66.015Y-50.775
X68.555Y-50.775
T3
X59.69Y-56.134
X59.69Y-58.674
X62.23Y-56.134
X62.23Y-58.674
X64.77Y-56.134
X64.77Y-58.674
M30
