%TF.GenerationSoftware,KiCad,Pcbnew,8.0.2*%
%TF.CreationDate,2024-05-04T17:16:57+02:00*%
%TF.ProjectId,AVRinator,41565269-6e61-4746-9f72-2e6b69636164,1.0*%
%TF.SameCoordinates,Original*%
%TF.FileFunction,Drillmap*%
%TF.FilePolarity,Positive*%
%FSLAX45Y45*%
G04 Gerber Fmt 4.5, Leading zero omitted, Abs format (unit mm)*
G04 Created by KiCad (PCBNEW 8.0.2) date 2024-05-04 17:16:57*
%MOMM*%
%LPD*%
G01*
G04 APERTURE LIST*
%ADD10C,0.100000*%
%ADD11C,0.200000*%
%ADD12C,0.110000*%
G04 APERTURE END LIST*
D10*
X5394960Y-4892040D02*
X7048500Y-4892040D01*
X7048500Y-8255000D01*
X5394960Y-8255000D01*
X5394960Y-4892040D01*
D11*
D10*
X5435840Y-8140940D02*
X5465840Y-8170940D01*
X5465840Y-8140940D02*
X5435840Y-8170940D01*
X5438380Y-5580620D02*
X5468380Y-5610620D01*
X5468380Y-5580620D02*
X5438380Y-5610620D01*
X5446000Y-5308840D02*
X5476000Y-5338840D01*
X5476000Y-5308840D02*
X5446000Y-5338840D01*
X5448540Y-6096240D02*
X5478540Y-6126240D01*
X5478540Y-6096240D02*
X5448540Y-6126240D01*
X5451080Y-5951460D02*
X5481080Y-5981460D01*
X5481080Y-5951460D02*
X5451080Y-5981460D01*
X5452400Y-6540740D02*
X5482400Y-6570740D01*
X5482400Y-6540740D02*
X5452400Y-6570740D01*
X5453620Y-4960860D02*
X5483620Y-4990860D01*
X5483620Y-4960860D02*
X5453620Y-4990860D01*
X5453620Y-6690600D02*
X5483620Y-6720600D01*
X5483620Y-6690600D02*
X5453620Y-6720600D01*
X5479020Y-7188440D02*
X5509020Y-7218440D01*
X5509020Y-7188440D02*
X5479020Y-7218440D01*
X5481560Y-7584680D02*
X5511560Y-7614680D01*
X5511560Y-7584680D02*
X5481560Y-7614680D01*
X5499340Y-7968220D02*
X5529340Y-7998220D01*
X5529340Y-7968220D02*
X5499340Y-7998220D01*
X5527280Y-7081760D02*
X5557280Y-7111760D01*
X5557280Y-7081760D02*
X5527280Y-7111760D01*
X5542520Y-7749780D02*
X5572520Y-7779780D01*
X5572520Y-7749780D02*
X5542520Y-7779780D01*
X5575540Y-5202160D02*
X5605540Y-5232160D01*
X5605540Y-5202160D02*
X5575540Y-5232160D01*
X5593320Y-6467080D02*
X5623320Y-6497080D01*
X5623320Y-6467080D02*
X5593320Y-6497080D01*
X5595860Y-7003020D02*
X5625860Y-7033020D01*
X5625860Y-7003020D02*
X5595860Y-7033020D01*
X5626340Y-7554200D02*
X5656340Y-7584200D01*
X5656340Y-7554200D02*
X5626340Y-7584200D01*
X5631079Y-5786417D02*
X5661079Y-5816417D01*
X5661079Y-5786417D02*
X5631079Y-5816417D01*
X5631420Y-5578080D02*
X5661420Y-5608080D01*
X5661420Y-5578080D02*
X5631420Y-5608080D01*
X5636500Y-5301220D02*
X5666500Y-5331220D01*
X5666500Y-5301220D02*
X5636500Y-5331220D01*
X5641580Y-5933680D02*
X5671580Y-5963680D01*
X5671580Y-5933680D02*
X5641580Y-5963680D01*
X5656820Y-6073380D02*
X5686820Y-6103380D01*
X5686820Y-6073380D02*
X5656820Y-6103380D01*
X5674600Y-4953240D02*
X5704600Y-4983240D01*
X5704600Y-4953240D02*
X5674600Y-4983240D01*
X5700000Y-6997940D02*
X5730000Y-7027940D01*
X5730000Y-6997940D02*
X5700000Y-7027940D01*
X5717780Y-7368780D02*
X5747780Y-7398780D01*
X5747780Y-7368780D02*
X5717780Y-7398780D01*
X5720320Y-7472920D02*
X5750320Y-7502920D01*
X5750320Y-7472920D02*
X5720320Y-7502920D01*
X5776200Y-5509500D02*
X5806200Y-5539500D01*
X5806200Y-5509500D02*
X5776200Y-5539500D01*
X5837160Y-6426440D02*
X5867160Y-6456440D01*
X5867160Y-6426440D02*
X5837160Y-6456440D01*
X5862560Y-8125700D02*
X5892560Y-8155700D01*
X5892560Y-8125700D02*
X5862560Y-8155700D01*
X5863200Y-6668380D02*
X5893200Y-6698380D01*
X5893200Y-6668380D02*
X5863200Y-6698380D01*
X5887960Y-7549120D02*
X5917960Y-7579120D01*
X5917960Y-7549120D02*
X5887960Y-7579120D01*
X5898120Y-7335760D02*
X5928120Y-7365760D01*
X5928120Y-7335760D02*
X5898120Y-7365760D01*
X5959080Y-5313920D02*
X5989080Y-5343920D01*
X5989080Y-5313920D02*
X5959080Y-5343920D01*
X6008000Y-6059740D02*
X6038000Y-6089740D01*
X6038000Y-6059740D02*
X6008000Y-6089740D01*
X6017500Y-7541500D02*
X6047500Y-7571500D01*
X6047500Y-7541500D02*
X6017500Y-7571500D01*
X6030200Y-8100300D02*
X6060200Y-8130300D01*
X6060200Y-8100300D02*
X6030200Y-8130300D01*
X6058140Y-7897100D02*
X6088140Y-7927100D01*
X6088140Y-7897100D02*
X6058140Y-7927100D01*
X6072110Y-6376910D02*
X6102110Y-6406910D01*
X6102110Y-6376910D02*
X6072110Y-6406910D01*
X6078460Y-5547600D02*
X6108460Y-5577600D01*
X6108460Y-5547600D02*
X6078460Y-5577600D01*
X6093700Y-5799060D02*
X6123700Y-5829060D01*
X6123700Y-5799060D02*
X6093700Y-5829060D01*
X6100040Y-6138160D02*
X6130040Y-6168160D01*
X6130040Y-6138160D02*
X6100040Y-6168160D01*
X6114020Y-7447020D02*
X6144020Y-7477020D01*
X6144020Y-7447020D02*
X6114020Y-7477020D01*
X6134340Y-5189460D02*
X6164340Y-5219460D01*
X6164340Y-5189460D02*
X6134340Y-5219460D01*
X6134340Y-5425680D02*
X6164340Y-5455680D01*
X6164340Y-5425680D02*
X6134340Y-5455680D01*
X6144159Y-7226199D02*
X6174159Y-7256199D01*
X6174159Y-7226199D02*
X6144159Y-7256199D01*
X6154660Y-5341860D02*
X6184660Y-5371860D01*
X6184660Y-5341860D02*
X6154660Y-5371860D01*
X6168000Y-6059740D02*
X6198000Y-6089740D01*
X6198000Y-6059740D02*
X6168000Y-6089740D01*
X6172221Y-7523939D02*
X6202221Y-7553939D01*
X6202221Y-7523939D02*
X6172221Y-7553939D01*
X6206909Y-4949609D02*
X6236909Y-4979609D01*
X6236909Y-4949609D02*
X6206909Y-4979609D01*
X6208000Y-5128500D02*
X6238000Y-5158500D01*
X6238000Y-5128500D02*
X6208000Y-5158500D01*
X6208000Y-7257020D02*
X6238000Y-7287020D01*
X6238000Y-7257020D02*
X6208000Y-7287020D01*
X6218160Y-8102840D02*
X6248160Y-8132840D01*
X6248160Y-8102840D02*
X6218160Y-8132840D01*
X6241020Y-6152120D02*
X6271020Y-6182120D01*
X6271020Y-6152120D02*
X6241020Y-6182120D01*
X6243924Y-7523720D02*
X6273924Y-7553720D01*
X6273924Y-7523720D02*
X6243924Y-7553720D01*
X6248000Y-6894740D02*
X6278000Y-6924740D01*
X6278000Y-6894740D02*
X6248000Y-6924740D01*
X6279120Y-7772640D02*
X6309120Y-7802640D01*
X6309120Y-7772640D02*
X6279120Y-7802640D01*
X6284200Y-6779500D02*
X6314200Y-6809500D01*
X6314200Y-6779500D02*
X6284200Y-6809500D01*
X6301980Y-7447520D02*
X6331980Y-7477520D01*
X6331980Y-7447520D02*
X6301980Y-7477520D01*
X6328000Y-6059740D02*
X6358000Y-6089740D01*
X6358000Y-6059740D02*
X6328000Y-6089740D01*
X6352780Y-7897100D02*
X6382780Y-7927100D01*
X6382780Y-7897100D02*
X6352780Y-7927100D01*
X6362940Y-6327380D02*
X6392940Y-6357380D01*
X6392940Y-6327380D02*
X6362940Y-6357380D01*
X6368020Y-6611860D02*
X6398020Y-6641860D01*
X6398020Y-6611860D02*
X6368020Y-6641860D01*
X6385800Y-7023340D02*
X6415800Y-7053340D01*
X6415800Y-7023340D02*
X6385800Y-7053340D01*
X6390880Y-7747240D02*
X6420880Y-7777240D01*
X6420880Y-7747240D02*
X6390880Y-7777240D01*
X6401040Y-5738100D02*
X6431040Y-5768100D01*
X6431040Y-5738100D02*
X6401040Y-5768100D01*
X6403580Y-8102840D02*
X6433580Y-8132840D01*
X6433580Y-8102840D02*
X6403580Y-8132840D01*
X6408000Y-6059740D02*
X6438000Y-6089740D01*
X6438000Y-6059740D02*
X6408000Y-6089740D01*
X6408000Y-6894740D02*
X6438000Y-6924740D01*
X6438000Y-6894740D02*
X6408000Y-6924740D01*
X6464540Y-7203680D02*
X6494540Y-7233680D01*
X6494540Y-7203680D02*
X6464540Y-7233680D01*
X6467080Y-6159740D02*
X6497080Y-6189740D01*
X6497080Y-6159740D02*
X6467080Y-6189740D01*
X6479780Y-7521180D02*
X6509780Y-7551180D01*
X6509780Y-7521180D02*
X6479780Y-7551180D01*
X6604240Y-6136880D02*
X6634240Y-6166880D01*
X6634240Y-6136880D02*
X6604240Y-6166880D01*
X6606780Y-6893800D02*
X6636780Y-6923800D01*
X6636780Y-6893800D02*
X6606780Y-6923800D01*
X6606780Y-6980160D02*
X6636780Y-7010160D01*
X6636780Y-6980160D02*
X6606780Y-7010160D01*
X6642340Y-5387580D02*
X6672340Y-5417580D01*
X6672340Y-5387580D02*
X6642340Y-5417580D01*
X6685520Y-6017500D02*
X6715520Y-6047500D01*
X6715520Y-6017500D02*
X6685520Y-6047500D01*
X6700760Y-7175740D02*
X6730760Y-7205740D01*
X6730760Y-7175740D02*
X6700760Y-7205740D01*
X6703300Y-6398500D02*
X6733300Y-6428500D01*
X6733300Y-6398500D02*
X6703300Y-6428500D01*
X6726160Y-7483080D02*
X6756160Y-7513080D01*
X6756160Y-7483080D02*
X6726160Y-7513080D01*
X6743940Y-6116560D02*
X6773940Y-6146560D01*
X6773940Y-6116560D02*
X6743940Y-6146560D01*
X6749020Y-5590780D02*
X6779020Y-5620780D01*
X6779020Y-5590780D02*
X6749020Y-5620780D01*
X6799820Y-5992100D02*
X6829820Y-6022100D01*
X6829820Y-5992100D02*
X6799820Y-6022100D01*
X6817600Y-7523720D02*
X6847600Y-7553720D01*
X6847600Y-7523720D02*
X6817600Y-7553720D01*
X6860780Y-6121640D02*
X6890780Y-6151640D01*
X6890780Y-6121640D02*
X6860780Y-6151640D01*
X6873480Y-7696440D02*
X6903480Y-7726440D01*
X6903480Y-7696440D02*
X6873480Y-7726440D01*
X6881100Y-5390120D02*
X6911100Y-5420120D01*
X6911100Y-5390120D02*
X6881100Y-5420120D01*
X6882060Y-5979776D02*
X6912060Y-6009776D01*
X6912060Y-5979776D02*
X6882060Y-6009776D01*
X6939520Y-5730480D02*
X6969520Y-5760480D01*
X6969520Y-5730480D02*
X6939520Y-5760480D01*
X6942060Y-8011400D02*
X6972060Y-8041400D01*
X6972060Y-8011400D02*
X6942060Y-8041400D01*
X6952220Y-5207240D02*
X6982220Y-5237240D01*
X6982220Y-5207240D02*
X6952220Y-5237240D01*
X6954760Y-5334240D02*
X6984760Y-5364240D01*
X6984760Y-5334240D02*
X6954760Y-5364240D01*
X6961060Y-6213080D02*
X6991060Y-6243080D01*
X6991060Y-6213080D02*
X6961060Y-6243080D01*
X6962380Y-7320520D02*
X6992380Y-7350520D01*
X6992380Y-7320520D02*
X6962380Y-7350520D01*
X6962380Y-7401800D02*
X6992380Y-7431800D01*
X6992380Y-7401800D02*
X6962380Y-7431800D01*
X6962380Y-7605000D02*
X6992380Y-7635000D01*
X6992380Y-7605000D02*
X6962380Y-7635000D01*
X6967460Y-6718540D02*
X6997460Y-6748540D01*
X6997460Y-6718540D02*
X6967460Y-6748540D01*
X6967460Y-6809980D02*
X6997460Y-6839980D01*
X6997460Y-6809980D02*
X6967460Y-6839980D01*
X6972540Y-8143480D02*
X7002540Y-8173480D01*
X7002540Y-8143480D02*
X6972540Y-8173480D01*
X5635460Y-5077460D02*
G75*
G02*
X5535460Y-5077460I-50000J0D01*
G01*
X5535460Y-5077460D02*
G75*
G02*
X5635460Y-5077460I50000J0D01*
G01*
X5889460Y-5077460D02*
G75*
G02*
X5789460Y-5077460I-50000J0D01*
G01*
X5789460Y-5077460D02*
G75*
G02*
X5889460Y-5077460I50000J0D01*
G01*
X6143460Y-5077460D02*
G75*
G02*
X6043460Y-5077460I-50000J0D01*
G01*
X6043460Y-5077460D02*
G75*
G02*
X6143460Y-5077460I50000J0D01*
G01*
X6397460Y-5077460D02*
G75*
G02*
X6297460Y-5077460I-50000J0D01*
G01*
X6297460Y-5077460D02*
G75*
G02*
X6397460Y-5077460I50000J0D01*
G01*
X6651460Y-5077460D02*
G75*
G02*
X6551460Y-5077460I-50000J0D01*
G01*
X6551460Y-5077460D02*
G75*
G02*
X6651460Y-5077460I50000J0D01*
G01*
X6905460Y-5077460D02*
G75*
G02*
X6805460Y-5077460I-50000J0D01*
G01*
X6805460Y-5077460D02*
G75*
G02*
X6905460Y-5077460I50000J0D01*
G01*
D12*
X5969000Y-5558400D02*
X5969000Y-5668400D01*
X5914000Y-5613400D02*
X6024000Y-5613400D01*
X5969000Y-5812400D02*
X5969000Y-5922400D01*
X5914000Y-5867400D02*
X6024000Y-5867400D01*
X6223000Y-5558400D02*
X6223000Y-5668400D01*
X6168000Y-5613400D02*
X6278000Y-5613400D01*
X6223000Y-5812400D02*
X6223000Y-5922400D01*
X6168000Y-5867400D02*
X6278000Y-5867400D01*
X6477000Y-5558400D02*
X6477000Y-5668400D01*
X6422000Y-5613400D02*
X6532000Y-5613400D01*
X6477000Y-5812400D02*
X6477000Y-5922400D01*
X6422000Y-5867400D02*
X6532000Y-5867400D01*
D11*
X5650737Y-8571484D02*
X5650737Y-8371484D01*
X5650737Y-8371484D02*
X5698356Y-8371484D01*
X5698356Y-8371484D02*
X5726927Y-8381008D01*
X5726927Y-8381008D02*
X5745975Y-8400055D01*
X5745975Y-8400055D02*
X5755499Y-8419103D01*
X5755499Y-8419103D02*
X5765022Y-8457198D01*
X5765022Y-8457198D02*
X5765022Y-8485770D01*
X5765022Y-8485770D02*
X5755499Y-8523865D01*
X5755499Y-8523865D02*
X5745975Y-8542912D01*
X5745975Y-8542912D02*
X5726927Y-8561960D01*
X5726927Y-8561960D02*
X5698356Y-8571484D01*
X5698356Y-8571484D02*
X5650737Y-8571484D01*
X5850737Y-8571484D02*
X5850737Y-8438150D01*
X5850737Y-8476246D02*
X5860261Y-8457198D01*
X5860261Y-8457198D02*
X5869784Y-8447674D01*
X5869784Y-8447674D02*
X5888832Y-8438150D01*
X5888832Y-8438150D02*
X5907880Y-8438150D01*
X5974546Y-8571484D02*
X5974546Y-8438150D01*
X5974546Y-8371484D02*
X5965022Y-8381008D01*
X5965022Y-8381008D02*
X5974546Y-8390531D01*
X5974546Y-8390531D02*
X5984070Y-8381008D01*
X5984070Y-8381008D02*
X5974546Y-8371484D01*
X5974546Y-8371484D02*
X5974546Y-8390531D01*
X6098356Y-8571484D02*
X6079308Y-8561960D01*
X6079308Y-8561960D02*
X6069784Y-8542912D01*
X6069784Y-8542912D02*
X6069784Y-8371484D01*
X6203118Y-8571484D02*
X6184070Y-8561960D01*
X6184070Y-8561960D02*
X6174546Y-8542912D01*
X6174546Y-8542912D02*
X6174546Y-8371484D01*
X6431689Y-8571484D02*
X6431689Y-8371484D01*
X6431689Y-8371484D02*
X6498356Y-8514341D01*
X6498356Y-8514341D02*
X6565022Y-8371484D01*
X6565022Y-8371484D02*
X6565022Y-8571484D01*
X6745975Y-8571484D02*
X6745975Y-8466722D01*
X6745975Y-8466722D02*
X6736451Y-8447674D01*
X6736451Y-8447674D02*
X6717403Y-8438150D01*
X6717403Y-8438150D02*
X6679308Y-8438150D01*
X6679308Y-8438150D02*
X6660261Y-8447674D01*
X6745975Y-8561960D02*
X6726927Y-8571484D01*
X6726927Y-8571484D02*
X6679308Y-8571484D01*
X6679308Y-8571484D02*
X6660261Y-8561960D01*
X6660261Y-8561960D02*
X6650737Y-8542912D01*
X6650737Y-8542912D02*
X6650737Y-8523865D01*
X6650737Y-8523865D02*
X6660261Y-8504817D01*
X6660261Y-8504817D02*
X6679308Y-8495293D01*
X6679308Y-8495293D02*
X6726927Y-8495293D01*
X6726927Y-8495293D02*
X6745975Y-8485770D01*
X6841213Y-8438150D02*
X6841213Y-8638150D01*
X6841213Y-8447674D02*
X6860261Y-8438150D01*
X6860261Y-8438150D02*
X6898356Y-8438150D01*
X6898356Y-8438150D02*
X6917403Y-8447674D01*
X6917403Y-8447674D02*
X6926927Y-8457198D01*
X6926927Y-8457198D02*
X6936451Y-8476246D01*
X6936451Y-8476246D02*
X6936451Y-8533389D01*
X6936451Y-8533389D02*
X6926927Y-8552436D01*
X6926927Y-8552436D02*
X6917403Y-8561960D01*
X6917403Y-8561960D02*
X6898356Y-8571484D01*
X6898356Y-8571484D02*
X6860261Y-8571484D01*
X6860261Y-8571484D02*
X6841213Y-8561960D01*
X7022165Y-8552436D02*
X7031689Y-8561960D01*
X7031689Y-8561960D02*
X7022165Y-8571484D01*
X7022165Y-8571484D02*
X7012642Y-8561960D01*
X7012642Y-8561960D02*
X7022165Y-8552436D01*
X7022165Y-8552436D02*
X7022165Y-8571484D01*
X7022165Y-8447674D02*
X7031689Y-8457198D01*
X7031689Y-8457198D02*
X7022165Y-8466722D01*
X7022165Y-8466722D02*
X7012642Y-8457198D01*
X7012642Y-8457198D02*
X7022165Y-8447674D01*
X7022165Y-8447674D02*
X7022165Y-8466722D01*
D10*
X5359960Y-8885000D02*
X5389960Y-8915000D01*
X5389960Y-8885000D02*
X5359960Y-8915000D01*
D11*
X5688832Y-8791484D02*
X5707880Y-8791484D01*
X5707880Y-8791484D02*
X5726927Y-8801008D01*
X5726927Y-8801008D02*
X5736451Y-8810531D01*
X5736451Y-8810531D02*
X5745975Y-8829579D01*
X5745975Y-8829579D02*
X5755499Y-8867674D01*
X5755499Y-8867674D02*
X5755499Y-8915293D01*
X5755499Y-8915293D02*
X5745975Y-8953389D01*
X5745975Y-8953389D02*
X5736451Y-8972436D01*
X5736451Y-8972436D02*
X5726927Y-8981960D01*
X5726927Y-8981960D02*
X5707880Y-8991484D01*
X5707880Y-8991484D02*
X5688832Y-8991484D01*
X5688832Y-8991484D02*
X5669784Y-8981960D01*
X5669784Y-8981960D02*
X5660261Y-8972436D01*
X5660261Y-8972436D02*
X5650737Y-8953389D01*
X5650737Y-8953389D02*
X5641213Y-8915293D01*
X5641213Y-8915293D02*
X5641213Y-8867674D01*
X5641213Y-8867674D02*
X5650737Y-8829579D01*
X5650737Y-8829579D02*
X5660261Y-8810531D01*
X5660261Y-8810531D02*
X5669784Y-8801008D01*
X5669784Y-8801008D02*
X5688832Y-8791484D01*
X5841213Y-8972436D02*
X5850737Y-8981960D01*
X5850737Y-8981960D02*
X5841213Y-8991484D01*
X5841213Y-8991484D02*
X5831689Y-8981960D01*
X5831689Y-8981960D02*
X5841213Y-8972436D01*
X5841213Y-8972436D02*
X5841213Y-8991484D01*
X5917403Y-8791484D02*
X6041213Y-8791484D01*
X6041213Y-8791484D02*
X5974546Y-8867674D01*
X5974546Y-8867674D02*
X6003118Y-8867674D01*
X6003118Y-8867674D02*
X6022165Y-8877198D01*
X6022165Y-8877198D02*
X6031689Y-8886722D01*
X6031689Y-8886722D02*
X6041213Y-8905770D01*
X6041213Y-8905770D02*
X6041213Y-8953389D01*
X6041213Y-8953389D02*
X6031689Y-8972436D01*
X6031689Y-8972436D02*
X6022165Y-8981960D01*
X6022165Y-8981960D02*
X6003118Y-8991484D01*
X6003118Y-8991484D02*
X5945975Y-8991484D01*
X5945975Y-8991484D02*
X5926927Y-8981960D01*
X5926927Y-8981960D02*
X5917403Y-8972436D01*
X6165022Y-8791484D02*
X6184070Y-8791484D01*
X6184070Y-8791484D02*
X6203118Y-8801008D01*
X6203118Y-8801008D02*
X6212642Y-8810531D01*
X6212642Y-8810531D02*
X6222165Y-8829579D01*
X6222165Y-8829579D02*
X6231689Y-8867674D01*
X6231689Y-8867674D02*
X6231689Y-8915293D01*
X6231689Y-8915293D02*
X6222165Y-8953389D01*
X6222165Y-8953389D02*
X6212642Y-8972436D01*
X6212642Y-8972436D02*
X6203118Y-8981960D01*
X6203118Y-8981960D02*
X6184070Y-8991484D01*
X6184070Y-8991484D02*
X6165022Y-8991484D01*
X6165022Y-8991484D02*
X6145975Y-8981960D01*
X6145975Y-8981960D02*
X6136451Y-8972436D01*
X6136451Y-8972436D02*
X6126927Y-8953389D01*
X6126927Y-8953389D02*
X6117403Y-8915293D01*
X6117403Y-8915293D02*
X6117403Y-8867674D01*
X6117403Y-8867674D02*
X6126927Y-8829579D01*
X6126927Y-8829579D02*
X6136451Y-8810531D01*
X6136451Y-8810531D02*
X6145975Y-8801008D01*
X6145975Y-8801008D02*
X6165022Y-8791484D01*
X6355499Y-8791484D02*
X6374546Y-8791484D01*
X6374546Y-8791484D02*
X6393594Y-8801008D01*
X6393594Y-8801008D02*
X6403118Y-8810531D01*
X6403118Y-8810531D02*
X6412642Y-8829579D01*
X6412642Y-8829579D02*
X6422165Y-8867674D01*
X6422165Y-8867674D02*
X6422165Y-8915293D01*
X6422165Y-8915293D02*
X6412642Y-8953389D01*
X6412642Y-8953389D02*
X6403118Y-8972436D01*
X6403118Y-8972436D02*
X6393594Y-8981960D01*
X6393594Y-8981960D02*
X6374546Y-8991484D01*
X6374546Y-8991484D02*
X6355499Y-8991484D01*
X6355499Y-8991484D02*
X6336451Y-8981960D01*
X6336451Y-8981960D02*
X6326927Y-8972436D01*
X6326927Y-8972436D02*
X6317403Y-8953389D01*
X6317403Y-8953389D02*
X6307880Y-8915293D01*
X6307880Y-8915293D02*
X6307880Y-8867674D01*
X6307880Y-8867674D02*
X6317403Y-8829579D01*
X6317403Y-8829579D02*
X6326927Y-8810531D01*
X6326927Y-8810531D02*
X6336451Y-8801008D01*
X6336451Y-8801008D02*
X6355499Y-8791484D01*
X6507880Y-8991484D02*
X6507880Y-8858150D01*
X6507880Y-8877198D02*
X6517403Y-8867674D01*
X6517403Y-8867674D02*
X6536451Y-8858150D01*
X6536451Y-8858150D02*
X6565023Y-8858150D01*
X6565023Y-8858150D02*
X6584070Y-8867674D01*
X6584070Y-8867674D02*
X6593594Y-8886722D01*
X6593594Y-8886722D02*
X6593594Y-8991484D01*
X6593594Y-8886722D02*
X6603118Y-8867674D01*
X6603118Y-8867674D02*
X6622165Y-8858150D01*
X6622165Y-8858150D02*
X6650737Y-8858150D01*
X6650737Y-8858150D02*
X6669784Y-8867674D01*
X6669784Y-8867674D02*
X6679308Y-8886722D01*
X6679308Y-8886722D02*
X6679308Y-8991484D01*
X6774546Y-8991484D02*
X6774546Y-8858150D01*
X6774546Y-8877198D02*
X6784070Y-8867674D01*
X6784070Y-8867674D02*
X6803118Y-8858150D01*
X6803118Y-8858150D02*
X6831689Y-8858150D01*
X6831689Y-8858150D02*
X6850737Y-8867674D01*
X6850737Y-8867674D02*
X6860261Y-8886722D01*
X6860261Y-8886722D02*
X6860261Y-8991484D01*
X6860261Y-8886722D02*
X6869784Y-8867674D01*
X6869784Y-8867674D02*
X6888832Y-8858150D01*
X6888832Y-8858150D02*
X6917403Y-8858150D01*
X6917403Y-8858150D02*
X6936451Y-8867674D01*
X6936451Y-8867674D02*
X6945975Y-8886722D01*
X6945975Y-8886722D02*
X6945975Y-8991484D01*
X7336451Y-8781960D02*
X7165023Y-9039103D01*
X7593594Y-8791484D02*
X7612642Y-8791484D01*
X7612642Y-8791484D02*
X7631689Y-8801008D01*
X7631689Y-8801008D02*
X7641213Y-8810531D01*
X7641213Y-8810531D02*
X7650737Y-8829579D01*
X7650737Y-8829579D02*
X7660261Y-8867674D01*
X7660261Y-8867674D02*
X7660261Y-8915293D01*
X7660261Y-8915293D02*
X7650737Y-8953389D01*
X7650737Y-8953389D02*
X7641213Y-8972436D01*
X7641213Y-8972436D02*
X7631689Y-8981960D01*
X7631689Y-8981960D02*
X7612642Y-8991484D01*
X7612642Y-8991484D02*
X7593594Y-8991484D01*
X7593594Y-8991484D02*
X7574546Y-8981960D01*
X7574546Y-8981960D02*
X7565023Y-8972436D01*
X7565023Y-8972436D02*
X7555499Y-8953389D01*
X7555499Y-8953389D02*
X7545975Y-8915293D01*
X7545975Y-8915293D02*
X7545975Y-8867674D01*
X7545975Y-8867674D02*
X7555499Y-8829579D01*
X7555499Y-8829579D02*
X7565023Y-8810531D01*
X7565023Y-8810531D02*
X7574546Y-8801008D01*
X7574546Y-8801008D02*
X7593594Y-8791484D01*
X7745975Y-8972436D02*
X7755499Y-8981960D01*
X7755499Y-8981960D02*
X7745975Y-8991484D01*
X7745975Y-8991484D02*
X7736451Y-8981960D01*
X7736451Y-8981960D02*
X7745975Y-8972436D01*
X7745975Y-8972436D02*
X7745975Y-8991484D01*
X7879308Y-8791484D02*
X7898356Y-8791484D01*
X7898356Y-8791484D02*
X7917404Y-8801008D01*
X7917404Y-8801008D02*
X7926927Y-8810531D01*
X7926927Y-8810531D02*
X7936451Y-8829579D01*
X7936451Y-8829579D02*
X7945975Y-8867674D01*
X7945975Y-8867674D02*
X7945975Y-8915293D01*
X7945975Y-8915293D02*
X7936451Y-8953389D01*
X7936451Y-8953389D02*
X7926927Y-8972436D01*
X7926927Y-8972436D02*
X7917404Y-8981960D01*
X7917404Y-8981960D02*
X7898356Y-8991484D01*
X7898356Y-8991484D02*
X7879308Y-8991484D01*
X7879308Y-8991484D02*
X7860261Y-8981960D01*
X7860261Y-8981960D02*
X7850737Y-8972436D01*
X7850737Y-8972436D02*
X7841213Y-8953389D01*
X7841213Y-8953389D02*
X7831689Y-8915293D01*
X7831689Y-8915293D02*
X7831689Y-8867674D01*
X7831689Y-8867674D02*
X7841213Y-8829579D01*
X7841213Y-8829579D02*
X7850737Y-8810531D01*
X7850737Y-8810531D02*
X7860261Y-8801008D01*
X7860261Y-8801008D02*
X7879308Y-8791484D01*
X8136451Y-8991484D02*
X8022166Y-8991484D01*
X8079308Y-8991484D02*
X8079308Y-8791484D01*
X8079308Y-8791484D02*
X8060261Y-8820055D01*
X8060261Y-8820055D02*
X8041213Y-8839103D01*
X8041213Y-8839103D02*
X8022166Y-8848627D01*
X8326927Y-8991484D02*
X8212642Y-8991484D01*
X8269785Y-8991484D02*
X8269785Y-8791484D01*
X8269785Y-8791484D02*
X8250737Y-8820055D01*
X8250737Y-8820055D02*
X8231689Y-8839103D01*
X8231689Y-8839103D02*
X8212642Y-8848627D01*
X8441213Y-8877198D02*
X8422166Y-8867674D01*
X8422166Y-8867674D02*
X8412642Y-8858150D01*
X8412642Y-8858150D02*
X8403118Y-8839103D01*
X8403118Y-8839103D02*
X8403118Y-8829579D01*
X8403118Y-8829579D02*
X8412642Y-8810531D01*
X8412642Y-8810531D02*
X8422166Y-8801008D01*
X8422166Y-8801008D02*
X8441213Y-8791484D01*
X8441213Y-8791484D02*
X8479309Y-8791484D01*
X8479309Y-8791484D02*
X8498356Y-8801008D01*
X8498356Y-8801008D02*
X8507880Y-8810531D01*
X8507880Y-8810531D02*
X8517404Y-8829579D01*
X8517404Y-8829579D02*
X8517404Y-8839103D01*
X8517404Y-8839103D02*
X8507880Y-8858150D01*
X8507880Y-8858150D02*
X8498356Y-8867674D01*
X8498356Y-8867674D02*
X8479309Y-8877198D01*
X8479309Y-8877198D02*
X8441213Y-8877198D01*
X8441213Y-8877198D02*
X8422166Y-8886722D01*
X8422166Y-8886722D02*
X8412642Y-8896246D01*
X8412642Y-8896246D02*
X8403118Y-8915293D01*
X8403118Y-8915293D02*
X8403118Y-8953389D01*
X8403118Y-8953389D02*
X8412642Y-8972436D01*
X8412642Y-8972436D02*
X8422166Y-8981960D01*
X8422166Y-8981960D02*
X8441213Y-8991484D01*
X8441213Y-8991484D02*
X8479309Y-8991484D01*
X8479309Y-8991484D02*
X8498356Y-8981960D01*
X8498356Y-8981960D02*
X8507880Y-8972436D01*
X8507880Y-8972436D02*
X8517404Y-8953389D01*
X8517404Y-8953389D02*
X8517404Y-8915293D01*
X8517404Y-8915293D02*
X8507880Y-8896246D01*
X8507880Y-8896246D02*
X8498356Y-8886722D01*
X8498356Y-8886722D02*
X8479309Y-8877198D01*
X8593594Y-8791484D02*
X8593594Y-8829579D01*
X8669785Y-8791484D02*
X8669785Y-8829579D01*
X8965023Y-9067674D02*
X8955499Y-9058150D01*
X8955499Y-9058150D02*
X8936451Y-9029579D01*
X8936451Y-9029579D02*
X8926928Y-9010531D01*
X8926928Y-9010531D02*
X8917404Y-8981960D01*
X8917404Y-8981960D02*
X8907880Y-8934341D01*
X8907880Y-8934341D02*
X8907880Y-8896246D01*
X8907880Y-8896246D02*
X8917404Y-8848627D01*
X8917404Y-8848627D02*
X8926928Y-8820055D01*
X8926928Y-8820055D02*
X8936451Y-8801008D01*
X8936451Y-8801008D02*
X8955499Y-8772436D01*
X8955499Y-8772436D02*
X8965023Y-8762912D01*
X9050737Y-8991484D02*
X9088832Y-8991484D01*
X9088832Y-8991484D02*
X9107880Y-8981960D01*
X9107880Y-8981960D02*
X9117404Y-8972436D01*
X9117404Y-8972436D02*
X9136451Y-8943865D01*
X9136451Y-8943865D02*
X9145975Y-8905770D01*
X9145975Y-8905770D02*
X9145975Y-8829579D01*
X9145975Y-8829579D02*
X9136451Y-8810531D01*
X9136451Y-8810531D02*
X9126928Y-8801008D01*
X9126928Y-8801008D02*
X9107880Y-8791484D01*
X9107880Y-8791484D02*
X9069785Y-8791484D01*
X9069785Y-8791484D02*
X9050737Y-8801008D01*
X9050737Y-8801008D02*
X9041213Y-8810531D01*
X9041213Y-8810531D02*
X9031690Y-8829579D01*
X9031690Y-8829579D02*
X9031690Y-8877198D01*
X9031690Y-8877198D02*
X9041213Y-8896246D01*
X9041213Y-8896246D02*
X9050737Y-8905770D01*
X9050737Y-8905770D02*
X9069785Y-8915293D01*
X9069785Y-8915293D02*
X9107880Y-8915293D01*
X9107880Y-8915293D02*
X9126928Y-8905770D01*
X9126928Y-8905770D02*
X9136451Y-8896246D01*
X9136451Y-8896246D02*
X9145975Y-8877198D01*
X9260261Y-8877198D02*
X9241213Y-8867674D01*
X9241213Y-8867674D02*
X9231690Y-8858150D01*
X9231690Y-8858150D02*
X9222166Y-8839103D01*
X9222166Y-8839103D02*
X9222166Y-8829579D01*
X9222166Y-8829579D02*
X9231690Y-8810531D01*
X9231690Y-8810531D02*
X9241213Y-8801008D01*
X9241213Y-8801008D02*
X9260261Y-8791484D01*
X9260261Y-8791484D02*
X9298356Y-8791484D01*
X9298356Y-8791484D02*
X9317404Y-8801008D01*
X9317404Y-8801008D02*
X9326928Y-8810531D01*
X9326928Y-8810531D02*
X9336451Y-8829579D01*
X9336451Y-8829579D02*
X9336451Y-8839103D01*
X9336451Y-8839103D02*
X9326928Y-8858150D01*
X9326928Y-8858150D02*
X9317404Y-8867674D01*
X9317404Y-8867674D02*
X9298356Y-8877198D01*
X9298356Y-8877198D02*
X9260261Y-8877198D01*
X9260261Y-8877198D02*
X9241213Y-8886722D01*
X9241213Y-8886722D02*
X9231690Y-8896246D01*
X9231690Y-8896246D02*
X9222166Y-8915293D01*
X9222166Y-8915293D02*
X9222166Y-8953389D01*
X9222166Y-8953389D02*
X9231690Y-8972436D01*
X9231690Y-8972436D02*
X9241213Y-8981960D01*
X9241213Y-8981960D02*
X9260261Y-8991484D01*
X9260261Y-8991484D02*
X9298356Y-8991484D01*
X9298356Y-8991484D02*
X9317404Y-8981960D01*
X9317404Y-8981960D02*
X9326928Y-8972436D01*
X9326928Y-8972436D02*
X9336451Y-8953389D01*
X9336451Y-8953389D02*
X9336451Y-8915293D01*
X9336451Y-8915293D02*
X9326928Y-8896246D01*
X9326928Y-8896246D02*
X9317404Y-8886722D01*
X9317404Y-8886722D02*
X9298356Y-8877198D01*
X9574547Y-8991484D02*
X9574547Y-8791484D01*
X9660261Y-8991484D02*
X9660261Y-8886722D01*
X9660261Y-8886722D02*
X9650737Y-8867674D01*
X9650737Y-8867674D02*
X9631690Y-8858150D01*
X9631690Y-8858150D02*
X9603118Y-8858150D01*
X9603118Y-8858150D02*
X9584071Y-8867674D01*
X9584071Y-8867674D02*
X9574547Y-8877198D01*
X9784071Y-8991484D02*
X9765023Y-8981960D01*
X9765023Y-8981960D02*
X9755499Y-8972436D01*
X9755499Y-8972436D02*
X9745975Y-8953389D01*
X9745975Y-8953389D02*
X9745975Y-8896246D01*
X9745975Y-8896246D02*
X9755499Y-8877198D01*
X9755499Y-8877198D02*
X9765023Y-8867674D01*
X9765023Y-8867674D02*
X9784071Y-8858150D01*
X9784071Y-8858150D02*
X9812642Y-8858150D01*
X9812642Y-8858150D02*
X9831690Y-8867674D01*
X9831690Y-8867674D02*
X9841213Y-8877198D01*
X9841213Y-8877198D02*
X9850737Y-8896246D01*
X9850737Y-8896246D02*
X9850737Y-8953389D01*
X9850737Y-8953389D02*
X9841213Y-8972436D01*
X9841213Y-8972436D02*
X9831690Y-8981960D01*
X9831690Y-8981960D02*
X9812642Y-8991484D01*
X9812642Y-8991484D02*
X9784071Y-8991484D01*
X9965023Y-8991484D02*
X9945975Y-8981960D01*
X9945975Y-8981960D02*
X9936452Y-8962912D01*
X9936452Y-8962912D02*
X9936452Y-8791484D01*
X10117404Y-8981960D02*
X10098356Y-8991484D01*
X10098356Y-8991484D02*
X10060261Y-8991484D01*
X10060261Y-8991484D02*
X10041213Y-8981960D01*
X10041213Y-8981960D02*
X10031690Y-8962912D01*
X10031690Y-8962912D02*
X10031690Y-8886722D01*
X10031690Y-8886722D02*
X10041213Y-8867674D01*
X10041213Y-8867674D02*
X10060261Y-8858150D01*
X10060261Y-8858150D02*
X10098356Y-8858150D01*
X10098356Y-8858150D02*
X10117404Y-8867674D01*
X10117404Y-8867674D02*
X10126928Y-8886722D01*
X10126928Y-8886722D02*
X10126928Y-8905770D01*
X10126928Y-8905770D02*
X10031690Y-8924817D01*
X10203118Y-8981960D02*
X10222166Y-8991484D01*
X10222166Y-8991484D02*
X10260261Y-8991484D01*
X10260261Y-8991484D02*
X10279309Y-8981960D01*
X10279309Y-8981960D02*
X10288833Y-8962912D01*
X10288833Y-8962912D02*
X10288833Y-8953389D01*
X10288833Y-8953389D02*
X10279309Y-8934341D01*
X10279309Y-8934341D02*
X10260261Y-8924817D01*
X10260261Y-8924817D02*
X10231690Y-8924817D01*
X10231690Y-8924817D02*
X10212642Y-8915293D01*
X10212642Y-8915293D02*
X10203118Y-8896246D01*
X10203118Y-8896246D02*
X10203118Y-8886722D01*
X10203118Y-8886722D02*
X10212642Y-8867674D01*
X10212642Y-8867674D02*
X10231690Y-8858150D01*
X10231690Y-8858150D02*
X10260261Y-8858150D01*
X10260261Y-8858150D02*
X10279309Y-8867674D01*
X10355499Y-9067674D02*
X10365023Y-9058150D01*
X10365023Y-9058150D02*
X10384071Y-9029579D01*
X10384071Y-9029579D02*
X10393594Y-9010531D01*
X10393594Y-9010531D02*
X10403118Y-8981960D01*
X10403118Y-8981960D02*
X10412642Y-8934341D01*
X10412642Y-8934341D02*
X10412642Y-8896246D01*
X10412642Y-8896246D02*
X10403118Y-8848627D01*
X10403118Y-8848627D02*
X10393594Y-8820055D01*
X10393594Y-8820055D02*
X10384071Y-8801008D01*
X10384071Y-8801008D02*
X10365023Y-8772436D01*
X10365023Y-8772436D02*
X10355499Y-8762912D01*
D10*
X5389960Y-9164000D02*
G75*
G02*
X5289960Y-9164000I-50000J0D01*
G01*
X5289960Y-9164000D02*
G75*
G02*
X5389960Y-9164000I50000J0D01*
G01*
D11*
X5755499Y-9255484D02*
X5641213Y-9255484D01*
X5698356Y-9255484D02*
X5698356Y-9055484D01*
X5698356Y-9055484D02*
X5679308Y-9084055D01*
X5679308Y-9084055D02*
X5660261Y-9103103D01*
X5660261Y-9103103D02*
X5641213Y-9112627D01*
X5841213Y-9236436D02*
X5850737Y-9245960D01*
X5850737Y-9245960D02*
X5841213Y-9255484D01*
X5841213Y-9255484D02*
X5831689Y-9245960D01*
X5831689Y-9245960D02*
X5841213Y-9236436D01*
X5841213Y-9236436D02*
X5841213Y-9255484D01*
X5974546Y-9055484D02*
X5993594Y-9055484D01*
X5993594Y-9055484D02*
X6012642Y-9065008D01*
X6012642Y-9065008D02*
X6022165Y-9074531D01*
X6022165Y-9074531D02*
X6031689Y-9093579D01*
X6031689Y-9093579D02*
X6041213Y-9131674D01*
X6041213Y-9131674D02*
X6041213Y-9179293D01*
X6041213Y-9179293D02*
X6031689Y-9217389D01*
X6031689Y-9217389D02*
X6022165Y-9236436D01*
X6022165Y-9236436D02*
X6012642Y-9245960D01*
X6012642Y-9245960D02*
X5993594Y-9255484D01*
X5993594Y-9255484D02*
X5974546Y-9255484D01*
X5974546Y-9255484D02*
X5955499Y-9245960D01*
X5955499Y-9245960D02*
X5945975Y-9236436D01*
X5945975Y-9236436D02*
X5936451Y-9217389D01*
X5936451Y-9217389D02*
X5926927Y-9179293D01*
X5926927Y-9179293D02*
X5926927Y-9131674D01*
X5926927Y-9131674D02*
X5936451Y-9093579D01*
X5936451Y-9093579D02*
X5945975Y-9074531D01*
X5945975Y-9074531D02*
X5955499Y-9065008D01*
X5955499Y-9065008D02*
X5974546Y-9055484D01*
X6165022Y-9055484D02*
X6184070Y-9055484D01*
X6184070Y-9055484D02*
X6203118Y-9065008D01*
X6203118Y-9065008D02*
X6212642Y-9074531D01*
X6212642Y-9074531D02*
X6222165Y-9093579D01*
X6222165Y-9093579D02*
X6231689Y-9131674D01*
X6231689Y-9131674D02*
X6231689Y-9179293D01*
X6231689Y-9179293D02*
X6222165Y-9217389D01*
X6222165Y-9217389D02*
X6212642Y-9236436D01*
X6212642Y-9236436D02*
X6203118Y-9245960D01*
X6203118Y-9245960D02*
X6184070Y-9255484D01*
X6184070Y-9255484D02*
X6165022Y-9255484D01*
X6165022Y-9255484D02*
X6145975Y-9245960D01*
X6145975Y-9245960D02*
X6136451Y-9236436D01*
X6136451Y-9236436D02*
X6126927Y-9217389D01*
X6126927Y-9217389D02*
X6117403Y-9179293D01*
X6117403Y-9179293D02*
X6117403Y-9131674D01*
X6117403Y-9131674D02*
X6126927Y-9093579D01*
X6126927Y-9093579D02*
X6136451Y-9074531D01*
X6136451Y-9074531D02*
X6145975Y-9065008D01*
X6145975Y-9065008D02*
X6165022Y-9055484D01*
X6355499Y-9055484D02*
X6374546Y-9055484D01*
X6374546Y-9055484D02*
X6393594Y-9065008D01*
X6393594Y-9065008D02*
X6403118Y-9074531D01*
X6403118Y-9074531D02*
X6412642Y-9093579D01*
X6412642Y-9093579D02*
X6422165Y-9131674D01*
X6422165Y-9131674D02*
X6422165Y-9179293D01*
X6422165Y-9179293D02*
X6412642Y-9217389D01*
X6412642Y-9217389D02*
X6403118Y-9236436D01*
X6403118Y-9236436D02*
X6393594Y-9245960D01*
X6393594Y-9245960D02*
X6374546Y-9255484D01*
X6374546Y-9255484D02*
X6355499Y-9255484D01*
X6355499Y-9255484D02*
X6336451Y-9245960D01*
X6336451Y-9245960D02*
X6326927Y-9236436D01*
X6326927Y-9236436D02*
X6317403Y-9217389D01*
X6317403Y-9217389D02*
X6307880Y-9179293D01*
X6307880Y-9179293D02*
X6307880Y-9131674D01*
X6307880Y-9131674D02*
X6317403Y-9093579D01*
X6317403Y-9093579D02*
X6326927Y-9074531D01*
X6326927Y-9074531D02*
X6336451Y-9065008D01*
X6336451Y-9065008D02*
X6355499Y-9055484D01*
X6507880Y-9255484D02*
X6507880Y-9122150D01*
X6507880Y-9141198D02*
X6517403Y-9131674D01*
X6517403Y-9131674D02*
X6536451Y-9122150D01*
X6536451Y-9122150D02*
X6565023Y-9122150D01*
X6565023Y-9122150D02*
X6584070Y-9131674D01*
X6584070Y-9131674D02*
X6593594Y-9150722D01*
X6593594Y-9150722D02*
X6593594Y-9255484D01*
X6593594Y-9150722D02*
X6603118Y-9131674D01*
X6603118Y-9131674D02*
X6622165Y-9122150D01*
X6622165Y-9122150D02*
X6650737Y-9122150D01*
X6650737Y-9122150D02*
X6669784Y-9131674D01*
X6669784Y-9131674D02*
X6679308Y-9150722D01*
X6679308Y-9150722D02*
X6679308Y-9255484D01*
X6774546Y-9255484D02*
X6774546Y-9122150D01*
X6774546Y-9141198D02*
X6784070Y-9131674D01*
X6784070Y-9131674D02*
X6803118Y-9122150D01*
X6803118Y-9122150D02*
X6831689Y-9122150D01*
X6831689Y-9122150D02*
X6850737Y-9131674D01*
X6850737Y-9131674D02*
X6860261Y-9150722D01*
X6860261Y-9150722D02*
X6860261Y-9255484D01*
X6860261Y-9150722D02*
X6869784Y-9131674D01*
X6869784Y-9131674D02*
X6888832Y-9122150D01*
X6888832Y-9122150D02*
X6917403Y-9122150D01*
X6917403Y-9122150D02*
X6936451Y-9131674D01*
X6936451Y-9131674D02*
X6945975Y-9150722D01*
X6945975Y-9150722D02*
X6945975Y-9255484D01*
X7336451Y-9045960D02*
X7165023Y-9303103D01*
X7593594Y-9055484D02*
X7612642Y-9055484D01*
X7612642Y-9055484D02*
X7631689Y-9065008D01*
X7631689Y-9065008D02*
X7641213Y-9074531D01*
X7641213Y-9074531D02*
X7650737Y-9093579D01*
X7650737Y-9093579D02*
X7660261Y-9131674D01*
X7660261Y-9131674D02*
X7660261Y-9179293D01*
X7660261Y-9179293D02*
X7650737Y-9217389D01*
X7650737Y-9217389D02*
X7641213Y-9236436D01*
X7641213Y-9236436D02*
X7631689Y-9245960D01*
X7631689Y-9245960D02*
X7612642Y-9255484D01*
X7612642Y-9255484D02*
X7593594Y-9255484D01*
X7593594Y-9255484D02*
X7574546Y-9245960D01*
X7574546Y-9245960D02*
X7565023Y-9236436D01*
X7565023Y-9236436D02*
X7555499Y-9217389D01*
X7555499Y-9217389D02*
X7545975Y-9179293D01*
X7545975Y-9179293D02*
X7545975Y-9131674D01*
X7545975Y-9131674D02*
X7555499Y-9093579D01*
X7555499Y-9093579D02*
X7565023Y-9074531D01*
X7565023Y-9074531D02*
X7574546Y-9065008D01*
X7574546Y-9065008D02*
X7593594Y-9055484D01*
X7745975Y-9236436D02*
X7755499Y-9245960D01*
X7755499Y-9245960D02*
X7745975Y-9255484D01*
X7745975Y-9255484D02*
X7736451Y-9245960D01*
X7736451Y-9245960D02*
X7745975Y-9236436D01*
X7745975Y-9236436D02*
X7745975Y-9255484D01*
X7879308Y-9055484D02*
X7898356Y-9055484D01*
X7898356Y-9055484D02*
X7917404Y-9065008D01*
X7917404Y-9065008D02*
X7926927Y-9074531D01*
X7926927Y-9074531D02*
X7936451Y-9093579D01*
X7936451Y-9093579D02*
X7945975Y-9131674D01*
X7945975Y-9131674D02*
X7945975Y-9179293D01*
X7945975Y-9179293D02*
X7936451Y-9217389D01*
X7936451Y-9217389D02*
X7926927Y-9236436D01*
X7926927Y-9236436D02*
X7917404Y-9245960D01*
X7917404Y-9245960D02*
X7898356Y-9255484D01*
X7898356Y-9255484D02*
X7879308Y-9255484D01*
X7879308Y-9255484D02*
X7860261Y-9245960D01*
X7860261Y-9245960D02*
X7850737Y-9236436D01*
X7850737Y-9236436D02*
X7841213Y-9217389D01*
X7841213Y-9217389D02*
X7831689Y-9179293D01*
X7831689Y-9179293D02*
X7831689Y-9131674D01*
X7831689Y-9131674D02*
X7841213Y-9093579D01*
X7841213Y-9093579D02*
X7850737Y-9074531D01*
X7850737Y-9074531D02*
X7860261Y-9065008D01*
X7860261Y-9065008D02*
X7879308Y-9055484D01*
X8012642Y-9055484D02*
X8136451Y-9055484D01*
X8136451Y-9055484D02*
X8069785Y-9131674D01*
X8069785Y-9131674D02*
X8098356Y-9131674D01*
X8098356Y-9131674D02*
X8117404Y-9141198D01*
X8117404Y-9141198D02*
X8126927Y-9150722D01*
X8126927Y-9150722D02*
X8136451Y-9169770D01*
X8136451Y-9169770D02*
X8136451Y-9217389D01*
X8136451Y-9217389D02*
X8126927Y-9236436D01*
X8126927Y-9236436D02*
X8117404Y-9245960D01*
X8117404Y-9245960D02*
X8098356Y-9255484D01*
X8098356Y-9255484D02*
X8041213Y-9255484D01*
X8041213Y-9255484D02*
X8022166Y-9245960D01*
X8022166Y-9245960D02*
X8012642Y-9236436D01*
X8231689Y-9255484D02*
X8269785Y-9255484D01*
X8269785Y-9255484D02*
X8288832Y-9245960D01*
X8288832Y-9245960D02*
X8298356Y-9236436D01*
X8298356Y-9236436D02*
X8317404Y-9207865D01*
X8317404Y-9207865D02*
X8326927Y-9169770D01*
X8326927Y-9169770D02*
X8326927Y-9093579D01*
X8326927Y-9093579D02*
X8317404Y-9074531D01*
X8317404Y-9074531D02*
X8307880Y-9065008D01*
X8307880Y-9065008D02*
X8288832Y-9055484D01*
X8288832Y-9055484D02*
X8250737Y-9055484D01*
X8250737Y-9055484D02*
X8231689Y-9065008D01*
X8231689Y-9065008D02*
X8222166Y-9074531D01*
X8222166Y-9074531D02*
X8212642Y-9093579D01*
X8212642Y-9093579D02*
X8212642Y-9141198D01*
X8212642Y-9141198D02*
X8222166Y-9160246D01*
X8222166Y-9160246D02*
X8231689Y-9169770D01*
X8231689Y-9169770D02*
X8250737Y-9179293D01*
X8250737Y-9179293D02*
X8288832Y-9179293D01*
X8288832Y-9179293D02*
X8307880Y-9169770D01*
X8307880Y-9169770D02*
X8317404Y-9160246D01*
X8317404Y-9160246D02*
X8326927Y-9141198D01*
X8498356Y-9122150D02*
X8498356Y-9255484D01*
X8450737Y-9045960D02*
X8403118Y-9188817D01*
X8403118Y-9188817D02*
X8526928Y-9188817D01*
X8593594Y-9055484D02*
X8593594Y-9093579D01*
X8669785Y-9055484D02*
X8669785Y-9093579D01*
X8965023Y-9331674D02*
X8955499Y-9322150D01*
X8955499Y-9322150D02*
X8936451Y-9293579D01*
X8936451Y-9293579D02*
X8926928Y-9274531D01*
X8926928Y-9274531D02*
X8917404Y-9245960D01*
X8917404Y-9245960D02*
X8907880Y-9198341D01*
X8907880Y-9198341D02*
X8907880Y-9160246D01*
X8907880Y-9160246D02*
X8917404Y-9112627D01*
X8917404Y-9112627D02*
X8926928Y-9084055D01*
X8926928Y-9084055D02*
X8936451Y-9065008D01*
X8936451Y-9065008D02*
X8955499Y-9036436D01*
X8955499Y-9036436D02*
X8965023Y-9026912D01*
X9126928Y-9055484D02*
X9088832Y-9055484D01*
X9088832Y-9055484D02*
X9069785Y-9065008D01*
X9069785Y-9065008D02*
X9060261Y-9074531D01*
X9060261Y-9074531D02*
X9041213Y-9103103D01*
X9041213Y-9103103D02*
X9031690Y-9141198D01*
X9031690Y-9141198D02*
X9031690Y-9217389D01*
X9031690Y-9217389D02*
X9041213Y-9236436D01*
X9041213Y-9236436D02*
X9050737Y-9245960D01*
X9050737Y-9245960D02*
X9069785Y-9255484D01*
X9069785Y-9255484D02*
X9107880Y-9255484D01*
X9107880Y-9255484D02*
X9126928Y-9245960D01*
X9126928Y-9245960D02*
X9136451Y-9236436D01*
X9136451Y-9236436D02*
X9145975Y-9217389D01*
X9145975Y-9217389D02*
X9145975Y-9169770D01*
X9145975Y-9169770D02*
X9136451Y-9150722D01*
X9136451Y-9150722D02*
X9126928Y-9141198D01*
X9126928Y-9141198D02*
X9107880Y-9131674D01*
X9107880Y-9131674D02*
X9069785Y-9131674D01*
X9069785Y-9131674D02*
X9050737Y-9141198D01*
X9050737Y-9141198D02*
X9041213Y-9150722D01*
X9041213Y-9150722D02*
X9031690Y-9169770D01*
X9384071Y-9255484D02*
X9384071Y-9055484D01*
X9469785Y-9255484D02*
X9469785Y-9150722D01*
X9469785Y-9150722D02*
X9460261Y-9131674D01*
X9460261Y-9131674D02*
X9441213Y-9122150D01*
X9441213Y-9122150D02*
X9412642Y-9122150D01*
X9412642Y-9122150D02*
X9393594Y-9131674D01*
X9393594Y-9131674D02*
X9384071Y-9141198D01*
X9593594Y-9255484D02*
X9574547Y-9245960D01*
X9574547Y-9245960D02*
X9565023Y-9236436D01*
X9565023Y-9236436D02*
X9555499Y-9217389D01*
X9555499Y-9217389D02*
X9555499Y-9160246D01*
X9555499Y-9160246D02*
X9565023Y-9141198D01*
X9565023Y-9141198D02*
X9574547Y-9131674D01*
X9574547Y-9131674D02*
X9593594Y-9122150D01*
X9593594Y-9122150D02*
X9622166Y-9122150D01*
X9622166Y-9122150D02*
X9641213Y-9131674D01*
X9641213Y-9131674D02*
X9650737Y-9141198D01*
X9650737Y-9141198D02*
X9660261Y-9160246D01*
X9660261Y-9160246D02*
X9660261Y-9217389D01*
X9660261Y-9217389D02*
X9650737Y-9236436D01*
X9650737Y-9236436D02*
X9641213Y-9245960D01*
X9641213Y-9245960D02*
X9622166Y-9255484D01*
X9622166Y-9255484D02*
X9593594Y-9255484D01*
X9774547Y-9255484D02*
X9755499Y-9245960D01*
X9755499Y-9245960D02*
X9745975Y-9226912D01*
X9745975Y-9226912D02*
X9745975Y-9055484D01*
X9926928Y-9245960D02*
X9907880Y-9255484D01*
X9907880Y-9255484D02*
X9869785Y-9255484D01*
X9869785Y-9255484D02*
X9850737Y-9245960D01*
X9850737Y-9245960D02*
X9841213Y-9226912D01*
X9841213Y-9226912D02*
X9841213Y-9150722D01*
X9841213Y-9150722D02*
X9850737Y-9131674D01*
X9850737Y-9131674D02*
X9869785Y-9122150D01*
X9869785Y-9122150D02*
X9907880Y-9122150D01*
X9907880Y-9122150D02*
X9926928Y-9131674D01*
X9926928Y-9131674D02*
X9936452Y-9150722D01*
X9936452Y-9150722D02*
X9936452Y-9169770D01*
X9936452Y-9169770D02*
X9841213Y-9188817D01*
X10012642Y-9245960D02*
X10031690Y-9255484D01*
X10031690Y-9255484D02*
X10069785Y-9255484D01*
X10069785Y-9255484D02*
X10088833Y-9245960D01*
X10088833Y-9245960D02*
X10098356Y-9226912D01*
X10098356Y-9226912D02*
X10098356Y-9217389D01*
X10098356Y-9217389D02*
X10088833Y-9198341D01*
X10088833Y-9198341D02*
X10069785Y-9188817D01*
X10069785Y-9188817D02*
X10041213Y-9188817D01*
X10041213Y-9188817D02*
X10022166Y-9179293D01*
X10022166Y-9179293D02*
X10012642Y-9160246D01*
X10012642Y-9160246D02*
X10012642Y-9150722D01*
X10012642Y-9150722D02*
X10022166Y-9131674D01*
X10022166Y-9131674D02*
X10041213Y-9122150D01*
X10041213Y-9122150D02*
X10069785Y-9122150D01*
X10069785Y-9122150D02*
X10088833Y-9131674D01*
X10165023Y-9331674D02*
X10174547Y-9322150D01*
X10174547Y-9322150D02*
X10193594Y-9293579D01*
X10193594Y-9293579D02*
X10203118Y-9274531D01*
X10203118Y-9274531D02*
X10212642Y-9245960D01*
X10212642Y-9245960D02*
X10222166Y-9198341D01*
X10222166Y-9198341D02*
X10222166Y-9160246D01*
X10222166Y-9160246D02*
X10212642Y-9112627D01*
X10212642Y-9112627D02*
X10203118Y-9084055D01*
X10203118Y-9084055D02*
X10193594Y-9065008D01*
X10193594Y-9065008D02*
X10174547Y-9036436D01*
X10174547Y-9036436D02*
X10165023Y-9026912D01*
D12*
X5334960Y-9373000D02*
X5334960Y-9483000D01*
X5279960Y-9428000D02*
X5389960Y-9428000D01*
D11*
X5755499Y-9519484D02*
X5641213Y-9519484D01*
X5698356Y-9519484D02*
X5698356Y-9319484D01*
X5698356Y-9319484D02*
X5679308Y-9348055D01*
X5679308Y-9348055D02*
X5660261Y-9367103D01*
X5660261Y-9367103D02*
X5641213Y-9376627D01*
X5841213Y-9500436D02*
X5850737Y-9509960D01*
X5850737Y-9509960D02*
X5841213Y-9519484D01*
X5841213Y-9519484D02*
X5831689Y-9509960D01*
X5831689Y-9509960D02*
X5841213Y-9500436D01*
X5841213Y-9500436D02*
X5841213Y-9519484D01*
X6041213Y-9519484D02*
X5926927Y-9519484D01*
X5984070Y-9519484D02*
X5984070Y-9319484D01*
X5984070Y-9319484D02*
X5965022Y-9348055D01*
X5965022Y-9348055D02*
X5945975Y-9367103D01*
X5945975Y-9367103D02*
X5926927Y-9376627D01*
X6165022Y-9319484D02*
X6184070Y-9319484D01*
X6184070Y-9319484D02*
X6203118Y-9329008D01*
X6203118Y-9329008D02*
X6212642Y-9338531D01*
X6212642Y-9338531D02*
X6222165Y-9357579D01*
X6222165Y-9357579D02*
X6231689Y-9395674D01*
X6231689Y-9395674D02*
X6231689Y-9443293D01*
X6231689Y-9443293D02*
X6222165Y-9481389D01*
X6222165Y-9481389D02*
X6212642Y-9500436D01*
X6212642Y-9500436D02*
X6203118Y-9509960D01*
X6203118Y-9509960D02*
X6184070Y-9519484D01*
X6184070Y-9519484D02*
X6165022Y-9519484D01*
X6165022Y-9519484D02*
X6145975Y-9509960D01*
X6145975Y-9509960D02*
X6136451Y-9500436D01*
X6136451Y-9500436D02*
X6126927Y-9481389D01*
X6126927Y-9481389D02*
X6117403Y-9443293D01*
X6117403Y-9443293D02*
X6117403Y-9395674D01*
X6117403Y-9395674D02*
X6126927Y-9357579D01*
X6126927Y-9357579D02*
X6136451Y-9338531D01*
X6136451Y-9338531D02*
X6145975Y-9329008D01*
X6145975Y-9329008D02*
X6165022Y-9319484D01*
X6355499Y-9319484D02*
X6374546Y-9319484D01*
X6374546Y-9319484D02*
X6393594Y-9329008D01*
X6393594Y-9329008D02*
X6403118Y-9338531D01*
X6403118Y-9338531D02*
X6412642Y-9357579D01*
X6412642Y-9357579D02*
X6422165Y-9395674D01*
X6422165Y-9395674D02*
X6422165Y-9443293D01*
X6422165Y-9443293D02*
X6412642Y-9481389D01*
X6412642Y-9481389D02*
X6403118Y-9500436D01*
X6403118Y-9500436D02*
X6393594Y-9509960D01*
X6393594Y-9509960D02*
X6374546Y-9519484D01*
X6374546Y-9519484D02*
X6355499Y-9519484D01*
X6355499Y-9519484D02*
X6336451Y-9509960D01*
X6336451Y-9509960D02*
X6326927Y-9500436D01*
X6326927Y-9500436D02*
X6317403Y-9481389D01*
X6317403Y-9481389D02*
X6307880Y-9443293D01*
X6307880Y-9443293D02*
X6307880Y-9395674D01*
X6307880Y-9395674D02*
X6317403Y-9357579D01*
X6317403Y-9357579D02*
X6326927Y-9338531D01*
X6326927Y-9338531D02*
X6336451Y-9329008D01*
X6336451Y-9329008D02*
X6355499Y-9319484D01*
X6507880Y-9519484D02*
X6507880Y-9386150D01*
X6507880Y-9405198D02*
X6517403Y-9395674D01*
X6517403Y-9395674D02*
X6536451Y-9386150D01*
X6536451Y-9386150D02*
X6565023Y-9386150D01*
X6565023Y-9386150D02*
X6584070Y-9395674D01*
X6584070Y-9395674D02*
X6593594Y-9414722D01*
X6593594Y-9414722D02*
X6593594Y-9519484D01*
X6593594Y-9414722D02*
X6603118Y-9395674D01*
X6603118Y-9395674D02*
X6622165Y-9386150D01*
X6622165Y-9386150D02*
X6650737Y-9386150D01*
X6650737Y-9386150D02*
X6669784Y-9395674D01*
X6669784Y-9395674D02*
X6679308Y-9414722D01*
X6679308Y-9414722D02*
X6679308Y-9519484D01*
X6774546Y-9519484D02*
X6774546Y-9386150D01*
X6774546Y-9405198D02*
X6784070Y-9395674D01*
X6784070Y-9395674D02*
X6803118Y-9386150D01*
X6803118Y-9386150D02*
X6831689Y-9386150D01*
X6831689Y-9386150D02*
X6850737Y-9395674D01*
X6850737Y-9395674D02*
X6860261Y-9414722D01*
X6860261Y-9414722D02*
X6860261Y-9519484D01*
X6860261Y-9414722D02*
X6869784Y-9395674D01*
X6869784Y-9395674D02*
X6888832Y-9386150D01*
X6888832Y-9386150D02*
X6917403Y-9386150D01*
X6917403Y-9386150D02*
X6936451Y-9395674D01*
X6936451Y-9395674D02*
X6945975Y-9414722D01*
X6945975Y-9414722D02*
X6945975Y-9519484D01*
X7336451Y-9309960D02*
X7165023Y-9567103D01*
X7593594Y-9319484D02*
X7612642Y-9319484D01*
X7612642Y-9319484D02*
X7631689Y-9329008D01*
X7631689Y-9329008D02*
X7641213Y-9338531D01*
X7641213Y-9338531D02*
X7650737Y-9357579D01*
X7650737Y-9357579D02*
X7660261Y-9395674D01*
X7660261Y-9395674D02*
X7660261Y-9443293D01*
X7660261Y-9443293D02*
X7650737Y-9481389D01*
X7650737Y-9481389D02*
X7641213Y-9500436D01*
X7641213Y-9500436D02*
X7631689Y-9509960D01*
X7631689Y-9509960D02*
X7612642Y-9519484D01*
X7612642Y-9519484D02*
X7593594Y-9519484D01*
X7593594Y-9519484D02*
X7574546Y-9509960D01*
X7574546Y-9509960D02*
X7565023Y-9500436D01*
X7565023Y-9500436D02*
X7555499Y-9481389D01*
X7555499Y-9481389D02*
X7545975Y-9443293D01*
X7545975Y-9443293D02*
X7545975Y-9395674D01*
X7545975Y-9395674D02*
X7555499Y-9357579D01*
X7555499Y-9357579D02*
X7565023Y-9338531D01*
X7565023Y-9338531D02*
X7574546Y-9329008D01*
X7574546Y-9329008D02*
X7593594Y-9319484D01*
X7745975Y-9500436D02*
X7755499Y-9509960D01*
X7755499Y-9509960D02*
X7745975Y-9519484D01*
X7745975Y-9519484D02*
X7736451Y-9509960D01*
X7736451Y-9509960D02*
X7745975Y-9500436D01*
X7745975Y-9500436D02*
X7745975Y-9519484D01*
X7879308Y-9319484D02*
X7898356Y-9319484D01*
X7898356Y-9319484D02*
X7917404Y-9329008D01*
X7917404Y-9329008D02*
X7926927Y-9338531D01*
X7926927Y-9338531D02*
X7936451Y-9357579D01*
X7936451Y-9357579D02*
X7945975Y-9395674D01*
X7945975Y-9395674D02*
X7945975Y-9443293D01*
X7945975Y-9443293D02*
X7936451Y-9481389D01*
X7936451Y-9481389D02*
X7926927Y-9500436D01*
X7926927Y-9500436D02*
X7917404Y-9509960D01*
X7917404Y-9509960D02*
X7898356Y-9519484D01*
X7898356Y-9519484D02*
X7879308Y-9519484D01*
X7879308Y-9519484D02*
X7860261Y-9509960D01*
X7860261Y-9509960D02*
X7850737Y-9500436D01*
X7850737Y-9500436D02*
X7841213Y-9481389D01*
X7841213Y-9481389D02*
X7831689Y-9443293D01*
X7831689Y-9443293D02*
X7831689Y-9395674D01*
X7831689Y-9395674D02*
X7841213Y-9357579D01*
X7841213Y-9357579D02*
X7850737Y-9338531D01*
X7850737Y-9338531D02*
X7860261Y-9329008D01*
X7860261Y-9329008D02*
X7879308Y-9319484D01*
X8117404Y-9386150D02*
X8117404Y-9519484D01*
X8069785Y-9309960D02*
X8022166Y-9452817D01*
X8022166Y-9452817D02*
X8145975Y-9452817D01*
X8203118Y-9319484D02*
X8326927Y-9319484D01*
X8326927Y-9319484D02*
X8260261Y-9395674D01*
X8260261Y-9395674D02*
X8288832Y-9395674D01*
X8288832Y-9395674D02*
X8307880Y-9405198D01*
X8307880Y-9405198D02*
X8317404Y-9414722D01*
X8317404Y-9414722D02*
X8326927Y-9433770D01*
X8326927Y-9433770D02*
X8326927Y-9481389D01*
X8326927Y-9481389D02*
X8317404Y-9500436D01*
X8317404Y-9500436D02*
X8307880Y-9509960D01*
X8307880Y-9509960D02*
X8288832Y-9519484D01*
X8288832Y-9519484D02*
X8231689Y-9519484D01*
X8231689Y-9519484D02*
X8212642Y-9509960D01*
X8212642Y-9509960D02*
X8203118Y-9500436D01*
X8393594Y-9319484D02*
X8517404Y-9319484D01*
X8517404Y-9319484D02*
X8450737Y-9395674D01*
X8450737Y-9395674D02*
X8479309Y-9395674D01*
X8479309Y-9395674D02*
X8498356Y-9405198D01*
X8498356Y-9405198D02*
X8507880Y-9414722D01*
X8507880Y-9414722D02*
X8517404Y-9433770D01*
X8517404Y-9433770D02*
X8517404Y-9481389D01*
X8517404Y-9481389D02*
X8507880Y-9500436D01*
X8507880Y-9500436D02*
X8498356Y-9509960D01*
X8498356Y-9509960D02*
X8479309Y-9519484D01*
X8479309Y-9519484D02*
X8422166Y-9519484D01*
X8422166Y-9519484D02*
X8403118Y-9509960D01*
X8403118Y-9509960D02*
X8393594Y-9500436D01*
X8593594Y-9319484D02*
X8593594Y-9357579D01*
X8669785Y-9319484D02*
X8669785Y-9357579D01*
X8965023Y-9595674D02*
X8955499Y-9586150D01*
X8955499Y-9586150D02*
X8936451Y-9557579D01*
X8936451Y-9557579D02*
X8926928Y-9538531D01*
X8926928Y-9538531D02*
X8917404Y-9509960D01*
X8917404Y-9509960D02*
X8907880Y-9462341D01*
X8907880Y-9462341D02*
X8907880Y-9424246D01*
X8907880Y-9424246D02*
X8917404Y-9376627D01*
X8917404Y-9376627D02*
X8926928Y-9348055D01*
X8926928Y-9348055D02*
X8936451Y-9329008D01*
X8936451Y-9329008D02*
X8955499Y-9300436D01*
X8955499Y-9300436D02*
X8965023Y-9290912D01*
X9126928Y-9319484D02*
X9088832Y-9319484D01*
X9088832Y-9319484D02*
X9069785Y-9329008D01*
X9069785Y-9329008D02*
X9060261Y-9338531D01*
X9060261Y-9338531D02*
X9041213Y-9367103D01*
X9041213Y-9367103D02*
X9031690Y-9405198D01*
X9031690Y-9405198D02*
X9031690Y-9481389D01*
X9031690Y-9481389D02*
X9041213Y-9500436D01*
X9041213Y-9500436D02*
X9050737Y-9509960D01*
X9050737Y-9509960D02*
X9069785Y-9519484D01*
X9069785Y-9519484D02*
X9107880Y-9519484D01*
X9107880Y-9519484D02*
X9126928Y-9509960D01*
X9126928Y-9509960D02*
X9136451Y-9500436D01*
X9136451Y-9500436D02*
X9145975Y-9481389D01*
X9145975Y-9481389D02*
X9145975Y-9433770D01*
X9145975Y-9433770D02*
X9136451Y-9414722D01*
X9136451Y-9414722D02*
X9126928Y-9405198D01*
X9126928Y-9405198D02*
X9107880Y-9395674D01*
X9107880Y-9395674D02*
X9069785Y-9395674D01*
X9069785Y-9395674D02*
X9050737Y-9405198D01*
X9050737Y-9405198D02*
X9041213Y-9414722D01*
X9041213Y-9414722D02*
X9031690Y-9433770D01*
X9384071Y-9519484D02*
X9384071Y-9319484D01*
X9469785Y-9519484D02*
X9469785Y-9414722D01*
X9469785Y-9414722D02*
X9460261Y-9395674D01*
X9460261Y-9395674D02*
X9441213Y-9386150D01*
X9441213Y-9386150D02*
X9412642Y-9386150D01*
X9412642Y-9386150D02*
X9393594Y-9395674D01*
X9393594Y-9395674D02*
X9384071Y-9405198D01*
X9593594Y-9519484D02*
X9574547Y-9509960D01*
X9574547Y-9509960D02*
X9565023Y-9500436D01*
X9565023Y-9500436D02*
X9555499Y-9481389D01*
X9555499Y-9481389D02*
X9555499Y-9424246D01*
X9555499Y-9424246D02*
X9565023Y-9405198D01*
X9565023Y-9405198D02*
X9574547Y-9395674D01*
X9574547Y-9395674D02*
X9593594Y-9386150D01*
X9593594Y-9386150D02*
X9622166Y-9386150D01*
X9622166Y-9386150D02*
X9641213Y-9395674D01*
X9641213Y-9395674D02*
X9650737Y-9405198D01*
X9650737Y-9405198D02*
X9660261Y-9424246D01*
X9660261Y-9424246D02*
X9660261Y-9481389D01*
X9660261Y-9481389D02*
X9650737Y-9500436D01*
X9650737Y-9500436D02*
X9641213Y-9509960D01*
X9641213Y-9509960D02*
X9622166Y-9519484D01*
X9622166Y-9519484D02*
X9593594Y-9519484D01*
X9774547Y-9519484D02*
X9755499Y-9509960D01*
X9755499Y-9509960D02*
X9745975Y-9490912D01*
X9745975Y-9490912D02*
X9745975Y-9319484D01*
X9926928Y-9509960D02*
X9907880Y-9519484D01*
X9907880Y-9519484D02*
X9869785Y-9519484D01*
X9869785Y-9519484D02*
X9850737Y-9509960D01*
X9850737Y-9509960D02*
X9841213Y-9490912D01*
X9841213Y-9490912D02*
X9841213Y-9414722D01*
X9841213Y-9414722D02*
X9850737Y-9395674D01*
X9850737Y-9395674D02*
X9869785Y-9386150D01*
X9869785Y-9386150D02*
X9907880Y-9386150D01*
X9907880Y-9386150D02*
X9926928Y-9395674D01*
X9926928Y-9395674D02*
X9936452Y-9414722D01*
X9936452Y-9414722D02*
X9936452Y-9433770D01*
X9936452Y-9433770D02*
X9841213Y-9452817D01*
X10012642Y-9509960D02*
X10031690Y-9519484D01*
X10031690Y-9519484D02*
X10069785Y-9519484D01*
X10069785Y-9519484D02*
X10088833Y-9509960D01*
X10088833Y-9509960D02*
X10098356Y-9490912D01*
X10098356Y-9490912D02*
X10098356Y-9481389D01*
X10098356Y-9481389D02*
X10088833Y-9462341D01*
X10088833Y-9462341D02*
X10069785Y-9452817D01*
X10069785Y-9452817D02*
X10041213Y-9452817D01*
X10041213Y-9452817D02*
X10022166Y-9443293D01*
X10022166Y-9443293D02*
X10012642Y-9424246D01*
X10012642Y-9424246D02*
X10012642Y-9414722D01*
X10012642Y-9414722D02*
X10022166Y-9395674D01*
X10022166Y-9395674D02*
X10041213Y-9386150D01*
X10041213Y-9386150D02*
X10069785Y-9386150D01*
X10069785Y-9386150D02*
X10088833Y-9395674D01*
X10165023Y-9595674D02*
X10174547Y-9586150D01*
X10174547Y-9586150D02*
X10193594Y-9557579D01*
X10193594Y-9557579D02*
X10203118Y-9538531D01*
X10203118Y-9538531D02*
X10212642Y-9509960D01*
X10212642Y-9509960D02*
X10222166Y-9462341D01*
X10222166Y-9462341D02*
X10222166Y-9424246D01*
X10222166Y-9424246D02*
X10212642Y-9376627D01*
X10212642Y-9376627D02*
X10203118Y-9348055D01*
X10203118Y-9348055D02*
X10193594Y-9329008D01*
X10193594Y-9329008D02*
X10174547Y-9300436D01*
X10174547Y-9300436D02*
X10165023Y-9290912D01*
M02*
