G04 #@! TF.GenerationSoftware,KiCad,Pcbnew,8.0.1*
G04 #@! TF.CreationDate,2024-04-30T14:23:49+02:00*
G04 #@! TF.ProjectId,AVRinator,41565269-6e61-4746-9f72-2e6b69636164,1.0*
G04 #@! TF.SameCoordinates,Original*
G04 #@! TF.FileFunction,Paste,Top*
G04 #@! TF.FilePolarity,Positive*
%FSLAX46Y46*%
G04 Gerber Fmt 4.6, Leading zero omitted, Abs format (unit mm)*
G04 Created by KiCad (PCBNEW 8.0.1) date 2024-04-30 14:23:49*
%MOMM*%
%LPD*%
G01*
G04 APERTURE LIST*
G04 Aperture macros list*
%AMRoundRect*
0 Rectangle with rounded corners*
0 $1 Rounding radius*
0 $2 $3 $4 $5 $6 $7 $8 $9 X,Y pos of 4 corners*
0 Add a 4 corners polygon primitive as box body*
4,1,4,$2,$3,$4,$5,$6,$7,$8,$9,$2,$3,0*
0 Add four circle primitives for the rounded corners*
1,1,$1+$1,$2,$3*
1,1,$1+$1,$4,$5*
1,1,$1+$1,$6,$7*
1,1,$1+$1,$8,$9*
0 Add four rect primitives between the rounded corners*
20,1,$1+$1,$2,$3,$4,$5,0*
20,1,$1+$1,$4,$5,$6,$7,0*
20,1,$1+$1,$6,$7,$8,$9,0*
20,1,$1+$1,$8,$9,$2,$3,0*%
G04 Aperture macros list end*
%ADD10RoundRect,0.250000X-0.450000X0.262500X-0.450000X-0.262500X0.450000X-0.262500X0.450000X0.262500X0*%
%ADD11RoundRect,0.250000X0.625000X-0.375000X0.625000X0.375000X-0.625000X0.375000X-0.625000X-0.375000X0*%
%ADD12RoundRect,0.150000X0.512500X0.150000X-0.512500X0.150000X-0.512500X-0.150000X0.512500X-0.150000X0*%
%ADD13RoundRect,0.100000X0.100000X-0.637500X0.100000X0.637500X-0.100000X0.637500X-0.100000X-0.637500X0*%
%ADD14RoundRect,0.250000X-0.475000X0.250000X-0.475000X-0.250000X0.475000X-0.250000X0.475000X0.250000X0*%
%ADD15R,1.250000X1.000000*%
%ADD16RoundRect,0.200000X-0.200000X-0.275000X0.200000X-0.275000X0.200000X0.275000X-0.200000X0.275000X0*%
%ADD17RoundRect,0.200000X0.200000X0.275000X-0.200000X0.275000X-0.200000X-0.275000X0.200000X-0.275000X0*%
G04 APERTURE END LIST*
D10*
X57962800Y-77014700D03*
X57962800Y-78839700D03*
D11*
X55880000Y-81537000D03*
X55880000Y-78737000D03*
D12*
X59633700Y-72769900D03*
X59633700Y-71819900D03*
X59633700Y-70869900D03*
X57358700Y-70869900D03*
X57358700Y-72769900D03*
D10*
X66497200Y-77014700D03*
X66497200Y-78839700D03*
D13*
X54707600Y-68953300D03*
X55357600Y-68953300D03*
X56007600Y-68953300D03*
X56657600Y-68953300D03*
X57307600Y-68953300D03*
X57957600Y-68953300D03*
X58607600Y-68953300D03*
X59257600Y-68953300D03*
X59907600Y-68953300D03*
X60557600Y-68953300D03*
X60557600Y-63228300D03*
X59907600Y-63228300D03*
X59257600Y-63228300D03*
X58607600Y-63228300D03*
X57957600Y-63228300D03*
X57307600Y-63228300D03*
X56657600Y-63228300D03*
X56007600Y-63228300D03*
X55357600Y-63228300D03*
X54707600Y-63228300D03*
D14*
X61544200Y-71770200D03*
X61544200Y-73670200D03*
D15*
X66105000Y-80391000D03*
X58355000Y-80391000D03*
D16*
X54699400Y-77114400D03*
X56349400Y-77114400D03*
D11*
X68580000Y-81537000D03*
X68580000Y-78737000D03*
D14*
X55092600Y-73091000D03*
X55092600Y-74991000D03*
D17*
X69760600Y-77114400D03*
X68110600Y-77114400D03*
M02*
