G04 #@! TF.GenerationSoftware,KiCad,Pcbnew,8.0.2*
G04 #@! TF.CreationDate,2024-05-04T17:25:46+02:00*
G04 #@! TF.ProjectId,AVRinator,41565269-6e61-4746-9f72-2e6b69636164,1.0*
G04 #@! TF.SameCoordinates,Original*
G04 #@! TF.FileFunction,Soldermask,Top*
G04 #@! TF.FilePolarity,Negative*
%FSLAX46Y46*%
G04 Gerber Fmt 4.6, Leading zero omitted, Abs format (unit mm)*
G04 Created by KiCad (PCBNEW 8.0.2) date 2024-05-04 17:25:46*
%MOMM*%
%LPD*%
G01*
G04 APERTURE LIST*
G04 Aperture macros list*
%AMRoundRect*
0 Rectangle with rounded corners*
0 $1 Rounding radius*
0 $2 $3 $4 $5 $6 $7 $8 $9 X,Y pos of 4 corners*
0 Add a 4 corners polygon primitive as box body*
4,1,4,$2,$3,$4,$5,$6,$7,$8,$9,$2,$3,0*
0 Add four circle primitives for the rounded corners*
1,1,$1+$1,$2,$3*
1,1,$1+$1,$4,$5*
1,1,$1+$1,$6,$7*
1,1,$1+$1,$8,$9*
0 Add four rect primitives between the rounded corners*
20,1,$1+$1,$2,$3,$4,$5,0*
20,1,$1+$1,$4,$5,$6,$7,0*
20,1,$1+$1,$6,$7,$8,$9,0*
20,1,$1+$1,$8,$9,$2,$3,0*%
G04 Aperture macros list end*
%ADD10RoundRect,0.250000X-0.450000X0.262500X-0.450000X-0.262500X0.450000X-0.262500X0.450000X0.262500X0*%
%ADD11RoundRect,0.250000X0.625000X-0.375000X0.625000X0.375000X-0.625000X0.375000X-0.625000X-0.375000X0*%
%ADD12R,1.700000X1.700000*%
%ADD13O,1.700000X1.700000*%
%ADD14C,1.000000*%
%ADD15RoundRect,0.150000X0.512500X0.150000X-0.512500X0.150000X-0.512500X-0.150000X0.512500X-0.150000X0*%
%ADD16RoundRect,0.100000X0.100000X-0.637500X0.100000X0.637500X-0.100000X0.637500X-0.100000X-0.637500X0*%
%ADD17R,1.650000X1.650000*%
%ADD18C,1.650000*%
%ADD19RoundRect,0.250000X-0.475000X0.250000X-0.475000X-0.250000X0.475000X-0.250000X0.475000X0.250000X0*%
%ADD20R,1.250000X1.000000*%
%ADD21RoundRect,0.200000X-0.200000X-0.275000X0.200000X-0.275000X0.200000X0.275000X-0.200000X0.275000X0*%
%ADD22RoundRect,0.200000X0.200000X0.275000X-0.200000X0.275000X-0.200000X-0.275000X0.200000X-0.275000X0*%
%ADD23C,0.650000*%
%ADD24C,0.500000*%
G04 APERTURE END LIST*
D10*
X57962800Y-77014700D03*
X57962800Y-78839700D03*
D11*
X55880000Y-81537000D03*
X55880000Y-78737000D03*
D12*
X68554600Y-50774600D03*
D13*
X66014600Y-50774600D03*
X63474600Y-50774600D03*
X60934600Y-50774600D03*
X58394600Y-50774600D03*
X55854600Y-50774600D03*
D14*
X63982600Y-67157600D03*
D15*
X59633700Y-72769900D03*
X59633700Y-71819900D03*
X59633700Y-70869900D03*
X57358700Y-70869900D03*
X57358700Y-72769900D03*
D10*
X66497200Y-77014700D03*
X66497200Y-78839700D03*
D16*
X54707600Y-68953300D03*
X55357600Y-68953300D03*
X56007600Y-68953300D03*
X56657600Y-68953300D03*
X57307600Y-68953300D03*
X57957600Y-68953300D03*
X58607600Y-68953300D03*
X59257600Y-68953300D03*
X59907600Y-68953300D03*
X60557600Y-68953300D03*
X60557600Y-63228300D03*
X59907600Y-63228300D03*
X59257600Y-63228300D03*
X58607600Y-63228300D03*
X57957600Y-63228300D03*
X57307600Y-63228300D03*
X56657600Y-63228300D03*
X56007600Y-63228300D03*
X55357600Y-63228300D03*
X54707600Y-63228300D03*
D14*
X55422800Y-70967600D03*
D17*
X64770000Y-56134000D03*
D18*
X64770000Y-58674000D03*
X62230000Y-56134000D03*
X62230000Y-58674000D03*
X59690000Y-56134000D03*
X59690000Y-58674000D03*
D19*
X61544200Y-71770200D03*
X61544200Y-73670200D03*
D20*
X66105000Y-80391000D03*
X58355000Y-80391000D03*
D21*
X54699400Y-77114400D03*
X56349400Y-77114400D03*
D14*
X62230000Y-63220600D03*
D11*
X68580000Y-81537000D03*
X68580000Y-78737000D03*
D19*
X55092600Y-73091000D03*
X55092600Y-74991000D03*
D14*
X67183000Y-64135000D03*
D22*
X69760600Y-77114400D03*
X68110600Y-77114400D03*
D23*
X65120000Y-77661000D03*
X59340000Y-77661000D03*
D24*
X59131200Y-73507600D03*
X62219089Y-49646089D03*
X61591590Y-72411990D03*
X68961000Y-54051200D03*
X60871100Y-63919100D03*
X64947800Y-75361800D03*
X54533800Y-55956200D03*
X61493400Y-52044600D03*
X66217800Y-69951600D03*
X63677800Y-79121000D03*
X63830200Y-66268600D03*
X56464200Y-55930800D03*
X54940200Y-72034400D03*
X67005200Y-60325000D03*
X54686200Y-49758600D03*
X69824600Y-68249800D03*
X64008000Y-70383400D03*
X63779400Y-63423800D03*
X67640200Y-56057800D03*
X54674000Y-65557400D03*
X68148200Y-60071000D03*
X55905400Y-52171600D03*
X69773800Y-73355200D03*
X57327800Y-73837800D03*
X60934600Y-55626000D03*
X60452000Y-81153000D03*
X69773800Y-74168000D03*
X56515000Y-53162200D03*
X54965600Y-75996800D03*
X59740800Y-53289200D03*
X54660800Y-59664600D03*
X69824600Y-67335400D03*
X61087000Y-58140600D03*
X64185800Y-81178400D03*
X69697600Y-53492400D03*
X67411600Y-74980800D03*
X62331600Y-81178400D03*
X54610000Y-53238400D03*
X61696600Y-53568600D03*
X69875400Y-81584800D03*
X54635400Y-61112400D03*
X57353200Y-74879200D03*
X68757800Y-61366400D03*
X56108600Y-70180200D03*
X62230000Y-72720200D03*
X68326000Y-75387200D03*
X69672200Y-52222400D03*
X67589400Y-61315600D03*
X56413400Y-75692000D03*
X54508400Y-81559400D03*
X69773800Y-76200000D03*
X64160400Y-57531000D03*
X62941200Y-77876400D03*
X54686200Y-67056000D03*
X60731400Y-79121000D03*
X66573400Y-54025800D03*
X56896000Y-49682400D03*
X59029600Y-75641200D03*
X66217800Y-69088000D03*
X64795400Y-72186800D03*
X55422800Y-70967600D03*
X56460793Y-58014167D03*
X67157600Y-71907400D03*
X69760600Y-62280800D03*
X68970600Y-59947762D03*
X56565800Y-59486800D03*
X56718200Y-60883800D03*
X58775600Y-81407000D03*
X55143400Y-79832200D03*
X69570600Y-80264000D03*
X68884800Y-77114400D03*
X61150400Y-61531600D03*
X61290200Y-74620200D03*
X62589244Y-75387200D03*
X61872211Y-75389389D03*
X63169800Y-74625200D03*
X55575200Y-77647800D03*
X60230000Y-60747400D03*
X64058800Y-77622400D03*
X60325000Y-75565000D03*
X62230000Y-51435000D03*
X69545200Y-57454800D03*
X58521600Y-64414400D03*
X57150000Y-70129400D03*
X56083200Y-64820800D03*
X61493400Y-54406800D03*
X61830000Y-60747400D03*
X58782000Y-66833800D03*
X62560200Y-61671200D03*
X63430000Y-60747400D03*
X64230000Y-60747400D03*
X64820800Y-61747400D03*
X66192400Y-61518800D03*
X67183000Y-64135000D03*
X64230000Y-69097400D03*
X62992000Y-67945000D03*
X62630000Y-69097400D03*
X57912000Y-55245000D03*
M02*
