G04 #@! TF.GenerationSoftware,KiCad,Pcbnew,8.0.2*
G04 #@! TF.CreationDate,2024-05-04T17:16:49+02:00*
G04 #@! TF.ProjectId,AVRinator,41565269-6e61-4746-9f72-2e6b69636164,1.0*
G04 #@! TF.SameCoordinates,Original*
G04 #@! TF.FileFunction,Copper,L1,Top*
G04 #@! TF.FilePolarity,Positive*
%FSLAX46Y46*%
G04 Gerber Fmt 4.6, Leading zero omitted, Abs format (unit mm)*
G04 Created by KiCad (PCBNEW 8.0.2) date 2024-05-04 17:16:49*
%MOMM*%
%LPD*%
G01*
G04 APERTURE LIST*
G04 Aperture macros list*
%AMRoundRect*
0 Rectangle with rounded corners*
0 $1 Rounding radius*
0 $2 $3 $4 $5 $6 $7 $8 $9 X,Y pos of 4 corners*
0 Add a 4 corners polygon primitive as box body*
4,1,4,$2,$3,$4,$5,$6,$7,$8,$9,$2,$3,0*
0 Add four circle primitives for the rounded corners*
1,1,$1+$1,$2,$3*
1,1,$1+$1,$4,$5*
1,1,$1+$1,$6,$7*
1,1,$1+$1,$8,$9*
0 Add four rect primitives between the rounded corners*
20,1,$1+$1,$2,$3,$4,$5,0*
20,1,$1+$1,$4,$5,$6,$7,0*
20,1,$1+$1,$6,$7,$8,$9,0*
20,1,$1+$1,$8,$9,$2,$3,0*%
G04 Aperture macros list end*
G04 #@! TA.AperFunction,EtchedComponent*
%ADD10C,0.000000*%
G04 #@! TD*
G04 #@! TA.AperFunction,SMDPad,CuDef*
%ADD11RoundRect,0.250000X-0.450000X0.262500X-0.450000X-0.262500X0.450000X-0.262500X0.450000X0.262500X0*%
G04 #@! TD*
G04 #@! TA.AperFunction,SMDPad,CuDef*
%ADD12RoundRect,0.250000X0.625000X-0.375000X0.625000X0.375000X-0.625000X0.375000X-0.625000X-0.375000X0*%
G04 #@! TD*
G04 #@! TA.AperFunction,ComponentPad*
%ADD13R,1.700000X1.700000*%
G04 #@! TD*
G04 #@! TA.AperFunction,ComponentPad*
%ADD14O,1.700000X1.700000*%
G04 #@! TD*
G04 #@! TA.AperFunction,SMDPad,CuDef*
%ADD15C,1.000000*%
G04 #@! TD*
G04 #@! TA.AperFunction,SMDPad,CuDef*
%ADD16RoundRect,0.150000X0.512500X0.150000X-0.512500X0.150000X-0.512500X-0.150000X0.512500X-0.150000X0*%
G04 #@! TD*
G04 #@! TA.AperFunction,SMDPad,CuDef*
%ADD17RoundRect,0.100000X0.100000X-0.637500X0.100000X0.637500X-0.100000X0.637500X-0.100000X-0.637500X0*%
G04 #@! TD*
G04 #@! TA.AperFunction,SMDPad,CuDef*
%ADD18C,0.500000*%
G04 #@! TD*
G04 #@! TA.AperFunction,ComponentPad*
%ADD19R,1.650000X1.650000*%
G04 #@! TD*
G04 #@! TA.AperFunction,ComponentPad*
%ADD20C,1.650000*%
G04 #@! TD*
G04 #@! TA.AperFunction,SMDPad,CuDef*
%ADD21RoundRect,0.250000X-0.475000X0.250000X-0.475000X-0.250000X0.475000X-0.250000X0.475000X0.250000X0*%
G04 #@! TD*
G04 #@! TA.AperFunction,SMDPad,CuDef*
%ADD22R,1.250000X1.000000*%
G04 #@! TD*
G04 #@! TA.AperFunction,SMDPad,CuDef*
%ADD23RoundRect,0.200000X-0.200000X-0.275000X0.200000X-0.275000X0.200000X0.275000X-0.200000X0.275000X0*%
G04 #@! TD*
G04 #@! TA.AperFunction,SMDPad,CuDef*
%ADD24RoundRect,0.200000X0.200000X0.275000X-0.200000X0.275000X-0.200000X-0.275000X0.200000X-0.275000X0*%
G04 #@! TD*
G04 #@! TA.AperFunction,ViaPad*
%ADD25C,0.500000*%
G04 #@! TD*
G04 #@! TA.AperFunction,Conductor*
%ADD26C,0.400000*%
G04 #@! TD*
G04 #@! TA.AperFunction,Conductor*
%ADD27C,0.300000*%
G04 #@! TD*
G04 #@! TA.AperFunction,Conductor*
%ADD28C,0.200000*%
G04 #@! TD*
G04 APERTURE END LIST*
D10*
G04 #@! TA.AperFunction,EtchedComponent*
G36*
X66717800Y-72792400D02*
G01*
X65717800Y-72792400D01*
X65717800Y-72292400D01*
X66717800Y-72292400D01*
X66717800Y-72792400D01*
G37*
G04 #@! TD.AperFunction*
D11*
X57962800Y-77014700D03*
X57962800Y-78839700D03*
D12*
X55880000Y-81537000D03*
X55880000Y-78737000D03*
D13*
X68554600Y-50774600D03*
D14*
X66014600Y-50774600D03*
X63474600Y-50774600D03*
X60934600Y-50774600D03*
X58394600Y-50774600D03*
X55854600Y-50774600D03*
D15*
X63982600Y-67157600D03*
D16*
X59633700Y-72769900D03*
X59633700Y-71819900D03*
X59633700Y-70869900D03*
X57358700Y-70869900D03*
X57358700Y-72769900D03*
D11*
X66497200Y-77014700D03*
X66497200Y-78839700D03*
D17*
X54707600Y-68953300D03*
X55357600Y-68953300D03*
X56007600Y-68953300D03*
X56657600Y-68953300D03*
X57307600Y-68953300D03*
X57957600Y-68953300D03*
X58607600Y-68953300D03*
X59257600Y-68953300D03*
X59907600Y-68953300D03*
X60557600Y-68953300D03*
X60557600Y-63228300D03*
X59907600Y-63228300D03*
X59257600Y-63228300D03*
X58607600Y-63228300D03*
X57957600Y-63228300D03*
X57307600Y-63228300D03*
X56657600Y-63228300D03*
X56007600Y-63228300D03*
X55357600Y-63228300D03*
X54707600Y-63228300D03*
D18*
X65717800Y-72542400D03*
X66717800Y-72542400D03*
D15*
X55422800Y-70967600D03*
D19*
X64770000Y-56134000D03*
D20*
X64770000Y-58674000D03*
X62230000Y-56134000D03*
X62230000Y-58674000D03*
X59690000Y-56134000D03*
X59690000Y-58674000D03*
D21*
X61544200Y-71770200D03*
X61544200Y-73670200D03*
D22*
X66105000Y-80391000D03*
X58355000Y-80391000D03*
D23*
X54699400Y-77114400D03*
X56349400Y-77114400D03*
D15*
X62230000Y-63220600D03*
D12*
X68580000Y-81537000D03*
X68580000Y-78737000D03*
D21*
X55092600Y-73091000D03*
X55092600Y-74991000D03*
D15*
X67183000Y-64135000D03*
D24*
X69760600Y-77114400D03*
X68110600Y-77114400D03*
D25*
X59131200Y-73507600D03*
X62219089Y-49646089D03*
X61591590Y-72411990D03*
X68961000Y-54051200D03*
X60871100Y-63919100D03*
X64947800Y-75361800D03*
X54533800Y-55956200D03*
X61493400Y-52044600D03*
X66217800Y-69951600D03*
X63677800Y-79121000D03*
X63830200Y-66268600D03*
X56464200Y-55930800D03*
X57912000Y-55245000D03*
X54940200Y-72034400D03*
X67005200Y-60325000D03*
X54686200Y-49758600D03*
X69824600Y-68249800D03*
X64008000Y-70383400D03*
X63779400Y-63423800D03*
X67640200Y-56057800D03*
X54674000Y-65557400D03*
X68148200Y-60071000D03*
X55905400Y-52171600D03*
X69773800Y-73355200D03*
X57327800Y-73837800D03*
X60934600Y-55626000D03*
X60452000Y-81153000D03*
X69773800Y-74168000D03*
X56515000Y-53162200D03*
X54965600Y-75996800D03*
X59740800Y-53289200D03*
X54660800Y-59664600D03*
X69824600Y-67335400D03*
X61087000Y-58140600D03*
X64185800Y-81178400D03*
X69697600Y-53492400D03*
X67411600Y-74980800D03*
X62331600Y-81178400D03*
X54610000Y-53238400D03*
X61696600Y-53568600D03*
X69875400Y-81584800D03*
X54635400Y-61112400D03*
X57353200Y-74879200D03*
X68757800Y-61366400D03*
X56108600Y-70180200D03*
X62230000Y-72720200D03*
X68326000Y-75387200D03*
X69672200Y-52222400D03*
X67589400Y-61315600D03*
X56413400Y-75692000D03*
X54508400Y-81559400D03*
X69773800Y-76200000D03*
X64160400Y-57531000D03*
X62941200Y-77876400D03*
X54686200Y-67056000D03*
X60731400Y-79121000D03*
X66573400Y-54025800D03*
X56896000Y-49682400D03*
X59029600Y-75641200D03*
X66217800Y-69088000D03*
X64795400Y-72186800D03*
X55422800Y-70967600D03*
X56460793Y-58014167D03*
X67157600Y-71907400D03*
X69760600Y-62280800D03*
X68970600Y-59947762D03*
X56565800Y-59486800D03*
X56718200Y-60883800D03*
X58775600Y-81407000D03*
X55143400Y-79832200D03*
X69570600Y-80264000D03*
X68884800Y-77114400D03*
X61150400Y-61531600D03*
X61290200Y-74620200D03*
X62589244Y-75387200D03*
X61872211Y-75389389D03*
X63169800Y-74625200D03*
X55575200Y-77647800D03*
X60230000Y-60747400D03*
X64058800Y-77622400D03*
X60325000Y-75565000D03*
X62230000Y-51435000D03*
X69545200Y-57454800D03*
X58521600Y-64414400D03*
X57150000Y-70129400D03*
X56083200Y-64820800D03*
X61493400Y-54406800D03*
X61830000Y-60747400D03*
X58782000Y-66833800D03*
X62560200Y-61671200D03*
X63430000Y-60747400D03*
X64230000Y-60747400D03*
X64820800Y-61747400D03*
X66192400Y-61518800D03*
X67183000Y-64135000D03*
X64230000Y-69097400D03*
X62992000Y-67945000D03*
X62630000Y-69097400D03*
D26*
X63962530Y-49623000D02*
X64812645Y-50473115D01*
X68961000Y-54051200D02*
X67564000Y-54051200D01*
X60049500Y-70869900D02*
X59633700Y-70869900D01*
X66141600Y-58047691D02*
X66141600Y-60619471D01*
X66792400Y-61270271D02*
X66792400Y-63272270D01*
X64812645Y-50473115D02*
X64812645Y-51262175D01*
X67601670Y-54051200D02*
X68961000Y-54051200D01*
X59633700Y-73005100D02*
X59131200Y-73507600D01*
X66449000Y-55166200D02*
X66449000Y-57740291D01*
X61544200Y-72364600D02*
X61591590Y-72411990D01*
X64170600Y-71770200D02*
X61544200Y-71770200D01*
X67564000Y-54051200D02*
X66449000Y-55166200D01*
X66449000Y-57740291D02*
X66141600Y-58047691D01*
X61544200Y-71770200D02*
X61544200Y-72364600D01*
X64812645Y-51262175D02*
X67601670Y-54051200D01*
X61591590Y-72411990D02*
X61233680Y-72769900D01*
X66792400Y-63272270D02*
X64871600Y-65193070D01*
X64871600Y-71069200D02*
X64170600Y-71770200D01*
X61233680Y-72769900D02*
X59633700Y-72769900D01*
X59633700Y-72769900D02*
X59633700Y-73005100D01*
X62242178Y-49623000D02*
X63962530Y-49623000D01*
X62219089Y-49646089D02*
X62242178Y-49623000D01*
X66141600Y-60619471D02*
X66792400Y-61270271D01*
X64871600Y-65193070D02*
X64871600Y-71069200D01*
X61591590Y-72411990D02*
X60049500Y-70869900D01*
D27*
X55712400Y-74991000D02*
X56413400Y-75692000D01*
X59633700Y-71819900D02*
X59313174Y-71819900D01*
X59313174Y-71819900D02*
X58581200Y-72551874D01*
X62230000Y-72984400D02*
X61544200Y-73670200D01*
X56413400Y-75692000D02*
X56121800Y-75692000D01*
X61000600Y-73670200D02*
X61544200Y-73670200D01*
X58581200Y-75192800D02*
X59029600Y-75641200D01*
X62230000Y-72720200D02*
X62230000Y-72984400D01*
X60871100Y-63919100D02*
X60557600Y-63605600D01*
X56121800Y-75692000D02*
X54699400Y-77114400D01*
X69773800Y-77101200D02*
X69760600Y-77114400D01*
X60557600Y-63605600D02*
X60557600Y-63228300D01*
X55092600Y-74991000D02*
X55712400Y-74991000D01*
X69773800Y-76200000D02*
X69773800Y-77101200D01*
X58581200Y-72551874D02*
X58581200Y-75192800D01*
X57962800Y-77309105D02*
X59097695Y-78444000D01*
X55922799Y-72260801D02*
X55092600Y-73091000D01*
X55422800Y-70967600D02*
X55556400Y-70967600D01*
X65151000Y-72542400D02*
X64795400Y-72186800D01*
X55422800Y-70967600D02*
X55922799Y-71467599D01*
X57962800Y-73374000D02*
X57962800Y-77014700D01*
X55357600Y-68953300D02*
X55422800Y-69018500D01*
X65396505Y-79682505D02*
X66105000Y-80391000D01*
X65269505Y-78536800D02*
X65396505Y-78409800D01*
X66497200Y-77014700D02*
X66497200Y-73963538D01*
X65717800Y-73184138D02*
X65717800Y-72542400D01*
X59756618Y-78536800D02*
X65269505Y-78536800D01*
X55413700Y-72769900D02*
X55092600Y-73091000D01*
X57358700Y-72769900D02*
X55413700Y-72769900D01*
X65396505Y-78409800D02*
X65396505Y-79682505D01*
X65396505Y-78409800D02*
X66497200Y-77309105D01*
X55922799Y-71467599D02*
X55922799Y-72260801D01*
X55556400Y-70967600D02*
X57358700Y-72769900D01*
X66497200Y-73963538D02*
X65717800Y-73184138D01*
X59663818Y-78444000D02*
X59756618Y-78536800D01*
X57962800Y-77014700D02*
X57962800Y-77309105D01*
X55422800Y-69018500D02*
X55422800Y-70967600D01*
X66497200Y-77309105D02*
X66497200Y-77014700D01*
X57358700Y-72769900D02*
X57962800Y-73374000D01*
X59097695Y-78444000D02*
X59663818Y-78444000D01*
X65717800Y-72542400D02*
X65151000Y-72542400D01*
X67157600Y-71907400D02*
X67157600Y-72102600D01*
X67157600Y-72102600D02*
X66717800Y-72542400D01*
D28*
X56159400Y-59893200D02*
X55672000Y-59893200D01*
D26*
X63474600Y-50774600D02*
X63474600Y-50799600D01*
D28*
X56565800Y-59486800D02*
X56159400Y-59893200D01*
X55448200Y-62019264D02*
X55672000Y-61795464D01*
X62432709Y-50774600D02*
X63474600Y-50774600D01*
D27*
X68970600Y-59947762D02*
X68970600Y-60400200D01*
D26*
X65922000Y-53247000D02*
X65922000Y-57522000D01*
X63474600Y-50799600D02*
X65922000Y-53247000D01*
D28*
X55448200Y-63137700D02*
X55448200Y-62019264D01*
X57124600Y-50393600D02*
X57795200Y-49723000D01*
X61381109Y-49723000D02*
X62432709Y-50774600D01*
X55357600Y-63228300D02*
X55448200Y-63137700D01*
D26*
X65922000Y-57522000D02*
X64770000Y-58674000D01*
D28*
X55672000Y-53116200D02*
X57124600Y-51663600D01*
X57795200Y-49723000D02*
X61381109Y-49723000D01*
D27*
X68970600Y-60400200D02*
X69760600Y-61190200D01*
D28*
X57124600Y-51663600D02*
X57124600Y-50393600D01*
D27*
X69760600Y-61190200D02*
X69760600Y-62280800D01*
D28*
X55672000Y-59461400D02*
X55672000Y-53116200D01*
X55672000Y-61795464D02*
X55672000Y-59461400D01*
X58355000Y-80986400D02*
X58355000Y-80391000D01*
X58775600Y-81407000D02*
X58355000Y-80986400D01*
X55143400Y-79832200D02*
X55143400Y-80800400D01*
X55143400Y-80800400D02*
X55880000Y-81537000D01*
X57860100Y-78737000D02*
X57962800Y-78839700D01*
X55880000Y-78737000D02*
X57860100Y-78737000D01*
D27*
X68580000Y-81254600D02*
X69570600Y-80264000D01*
X68580000Y-81537000D02*
X68580000Y-81254600D01*
D28*
X68580000Y-78737000D02*
X66599900Y-78737000D01*
X66599900Y-78737000D02*
X66497200Y-78839700D01*
X68884800Y-77114400D02*
X68110600Y-77114400D01*
X55575200Y-77647800D02*
X56108600Y-77114400D01*
X56108600Y-77114400D02*
X56349400Y-77114400D01*
X61899800Y-77139800D02*
X63576200Y-77139800D01*
X63576200Y-77139800D02*
X64058800Y-77622400D01*
X60325000Y-75565000D02*
X61899800Y-77139800D01*
X57307600Y-63228300D02*
X57307600Y-62011104D01*
X57902400Y-61416304D02*
X57902400Y-56433847D01*
X62230000Y-52106247D02*
X62230000Y-51435000D01*
X57307600Y-62011104D02*
X57902400Y-61416304D01*
X57902400Y-56433847D02*
X62230000Y-52106247D01*
X56657600Y-63228300D02*
X56657600Y-62198656D01*
X60934600Y-52939199D02*
X60934600Y-50774600D01*
X57575400Y-61280856D02*
X57575400Y-56298399D01*
X56657600Y-62198656D02*
X57575400Y-61280856D01*
X57575400Y-56298399D02*
X60934600Y-52939199D01*
X56007600Y-63228300D02*
X56007600Y-62386208D01*
X58394600Y-51790600D02*
X58394600Y-50774600D01*
X56007600Y-62386208D02*
X57248400Y-61145408D01*
X57248400Y-52936800D02*
X58394600Y-51790600D01*
X57248400Y-61145408D02*
X57248400Y-52936800D01*
X54707600Y-63228300D02*
X54707600Y-62335600D01*
X55372000Y-51257200D02*
X55854600Y-50774600D01*
X55372000Y-61671200D02*
X55372000Y-51257200D01*
X54707600Y-62335600D02*
X55372000Y-61671200D01*
X60557600Y-69766999D02*
X60557600Y-68953300D01*
X57150000Y-70129400D02*
X60195199Y-70129400D01*
X60195199Y-70129400D02*
X60557600Y-69766999D01*
X61830000Y-60747400D02*
X61830000Y-62820600D01*
X61830000Y-62820600D02*
X62230000Y-63220600D01*
X58983000Y-67034800D02*
X63859800Y-67034800D01*
X63859800Y-67034800D02*
X63982600Y-67157600D01*
X58782000Y-66833800D02*
X58983000Y-67034800D01*
X65692400Y-59825000D02*
X65659000Y-59791600D01*
X59118899Y-65797000D02*
X63163168Y-65797000D01*
X63163168Y-65797000D02*
X65692400Y-63267768D01*
X57307600Y-68953300D02*
X57307600Y-66922645D01*
X59101499Y-65814400D02*
X59118899Y-65797000D01*
X57307600Y-66922645D02*
X58415845Y-65814400D01*
X65659000Y-59791600D02*
X63062601Y-59791600D01*
X62560200Y-60294001D02*
X62560200Y-61671200D01*
X65692400Y-63267768D02*
X65692400Y-59825000D01*
X58415845Y-65814400D02*
X59101499Y-65814400D01*
X63062601Y-59791600D02*
X62560200Y-60294001D01*
X62714008Y-64897000D02*
X58746107Y-64897000D01*
X58314493Y-64914400D02*
X58297093Y-64897000D01*
X58728707Y-64914400D02*
X58314493Y-64914400D01*
X58297093Y-64897000D02*
X57955800Y-64897000D01*
X54707600Y-68145200D02*
X54707600Y-68953300D01*
X57955800Y-64897000D02*
X54707600Y-68145200D01*
X63246000Y-60931400D02*
X63246000Y-64365008D01*
X63430000Y-60747400D02*
X63246000Y-60931400D01*
X58746107Y-64897000D02*
X58728707Y-64914400D01*
X63246000Y-64365008D02*
X62714008Y-64897000D01*
X56657600Y-67110197D02*
X56657600Y-68953300D01*
X63038904Y-65497000D02*
X58994635Y-65497000D01*
X65365400Y-63170504D02*
X63038904Y-65497000D01*
X65365400Y-60443048D02*
X65365400Y-63170504D01*
X58253397Y-65514400D02*
X56657600Y-67110197D01*
X64754000Y-60223400D02*
X65145752Y-60223400D01*
X65145752Y-60223400D02*
X65365400Y-60443048D01*
X58977235Y-65514400D02*
X58253397Y-65514400D01*
X58994635Y-65497000D02*
X58977235Y-65514400D01*
X64230000Y-60747400D02*
X64754000Y-60223400D01*
X58852971Y-65214400D02*
X58062664Y-65214400D01*
X58870371Y-65197000D02*
X58852971Y-65214400D01*
X64820800Y-61747400D02*
X64820800Y-63214472D01*
X58062664Y-65214400D02*
X56007600Y-67269464D01*
X62838272Y-65197000D02*
X58870371Y-65197000D01*
X56007600Y-67269464D02*
X56007600Y-68953300D01*
X64820800Y-63214472D02*
X62838272Y-65197000D01*
X57957600Y-68953300D02*
X57957600Y-66735093D01*
X57957600Y-66735093D02*
X58578293Y-66114400D01*
X58578293Y-66114400D02*
X63270032Y-66114400D01*
X66192400Y-63192032D02*
X66192400Y-61518800D01*
X63270032Y-66114400D02*
X66192400Y-63192032D01*
X59360400Y-67334800D02*
X58607600Y-68087600D01*
X58607600Y-68087600D02*
X58607600Y-68953300D01*
X64230000Y-68475893D02*
X63088907Y-67334800D01*
X63088907Y-67334800D02*
X59360400Y-67334800D01*
X64230000Y-69097400D02*
X64230000Y-68475893D01*
X62992000Y-67945000D02*
X62708800Y-67661800D01*
X59668400Y-67661800D02*
X59257600Y-68072600D01*
X59257600Y-68072600D02*
X59257600Y-68953300D01*
X62708800Y-67661800D02*
X59668400Y-67661800D01*
X62630000Y-69097400D02*
X61494400Y-67961800D01*
X60130400Y-67961800D02*
X59907600Y-68184600D01*
X61494400Y-67961800D02*
X60130400Y-67961800D01*
X59907600Y-68184600D02*
X59907600Y-68953300D01*
X63500000Y-57404000D02*
X64770000Y-56134000D01*
X60730000Y-60453400D02*
X61457400Y-59726000D01*
X59907600Y-63228300D02*
X59907600Y-61776907D01*
X62665753Y-59726000D02*
X63500000Y-58891753D01*
X59907600Y-61776907D02*
X60730000Y-60954507D01*
X60730000Y-60954507D02*
X60730000Y-60453400D01*
X61457400Y-59726000D02*
X62665753Y-59726000D01*
X63500000Y-58891753D02*
X63500000Y-57404000D01*
X59257600Y-60594153D02*
X61177753Y-58674000D01*
X61177753Y-58674000D02*
X62230000Y-58674000D01*
X59257600Y-63228300D02*
X59257600Y-60594153D01*
X59182000Y-57404000D02*
X60960000Y-57404000D01*
X58572400Y-63193100D02*
X58572400Y-58013600D01*
X58607600Y-63228300D02*
X58572400Y-63193100D01*
X60960000Y-57404000D02*
X62230000Y-56134000D01*
X58572400Y-58013600D02*
X59182000Y-57404000D01*
X58039000Y-61742152D02*
X58229400Y-61551752D01*
X57957600Y-63228300D02*
X58039000Y-63146900D01*
X58664695Y-56134000D02*
X59690000Y-56134000D01*
X58229400Y-61551752D02*
X58229400Y-56569295D01*
X58229400Y-56569295D02*
X58664695Y-56134000D01*
X58039000Y-63146900D02*
X58039000Y-61742152D01*
G04 #@! TA.AperFunction,Conductor*
G36*
X54892439Y-76884085D02*
G01*
X54938194Y-76936889D01*
X54949400Y-76988400D01*
X54949400Y-77976621D01*
X54929715Y-78043660D01*
X54925171Y-78050254D01*
X54852207Y-78149118D01*
X54852206Y-78149119D01*
X54807353Y-78277298D01*
X54807353Y-78277300D01*
X54804500Y-78307730D01*
X54804500Y-79166269D01*
X54807353Y-79196699D01*
X54807353Y-79196701D01*
X54852206Y-79324880D01*
X54852209Y-79324885D01*
X54855234Y-79328984D01*
X54879204Y-79394613D01*
X54863886Y-79462783D01*
X54849176Y-79483816D01*
X54760520Y-79586132D01*
X54760517Y-79586138D01*
X54706702Y-79703974D01*
X54688267Y-79832200D01*
X54706702Y-79960425D01*
X54747069Y-80048815D01*
X54760518Y-80078263D01*
X54812614Y-80138386D01*
X54841638Y-80201938D01*
X54842900Y-80219586D01*
X54842900Y-80839964D01*
X54853600Y-80879894D01*
X54851938Y-80949744D01*
X54850868Y-80952943D01*
X54807353Y-81077301D01*
X54804500Y-81107730D01*
X54804500Y-81966269D01*
X54807353Y-81996699D01*
X54807354Y-81996701D01*
X54838092Y-82084545D01*
X54841654Y-82154324D01*
X54806926Y-82214951D01*
X54744932Y-82247179D01*
X54721051Y-82249500D01*
X54374100Y-82249500D01*
X54307061Y-82229815D01*
X54261306Y-82177011D01*
X54250100Y-82125500D01*
X54250100Y-78207665D01*
X54269785Y-78140626D01*
X54322589Y-78094871D01*
X54385324Y-78084174D01*
X54442813Y-78089398D01*
X54442826Y-78089399D01*
X54449399Y-78089398D01*
X54449400Y-78089398D01*
X54449400Y-76988400D01*
X54469085Y-76921361D01*
X54521889Y-76875606D01*
X54573400Y-76864400D01*
X54825400Y-76864400D01*
X54892439Y-76884085D01*
G37*
G04 #@! TD.AperFunction*
G04 #@! TA.AperFunction,Conductor*
G36*
X70127539Y-49240585D02*
G01*
X70173294Y-49293389D01*
X70184500Y-49344900D01*
X70184500Y-57200194D01*
X70164815Y-57267233D01*
X70112011Y-57312988D01*
X70042853Y-57322932D01*
X69979297Y-57293907D01*
X69947706Y-57251707D01*
X69928082Y-57208738D01*
X69928082Y-57208737D01*
X69843249Y-57110833D01*
X69734269Y-57040796D01*
X69734265Y-57040794D01*
X69734264Y-57040794D01*
X69609974Y-57004300D01*
X69609972Y-57004300D01*
X69480428Y-57004300D01*
X69480426Y-57004300D01*
X69356135Y-57040794D01*
X69356132Y-57040795D01*
X69356131Y-57040796D01*
X69317761Y-57065455D01*
X69247150Y-57110833D01*
X69162318Y-57208737D01*
X69162317Y-57208738D01*
X69108502Y-57326574D01*
X69090067Y-57454800D01*
X69108502Y-57583025D01*
X69161181Y-57698374D01*
X69162318Y-57700863D01*
X69220582Y-57768104D01*
X69245414Y-57796763D01*
X69247151Y-57798767D01*
X69356131Y-57868804D01*
X69444940Y-57894880D01*
X69480425Y-57905299D01*
X69480427Y-57905300D01*
X69480428Y-57905300D01*
X69609973Y-57905300D01*
X69609973Y-57905299D01*
X69734269Y-57868804D01*
X69843249Y-57798767D01*
X69928082Y-57700863D01*
X69947706Y-57657893D01*
X69993461Y-57605089D01*
X70060500Y-57585405D01*
X70127540Y-57605090D01*
X70173295Y-57657894D01*
X70184500Y-57709405D01*
X70184500Y-60819056D01*
X70164815Y-60886095D01*
X70112011Y-60931850D01*
X70042853Y-60941794D01*
X69979297Y-60912769D01*
X69972819Y-60906737D01*
X69385023Y-60318941D01*
X69351538Y-60257618D01*
X69356522Y-60187926D01*
X69359897Y-60179777D01*
X69407297Y-60075988D01*
X69425733Y-59947762D01*
X69407297Y-59819536D01*
X69353482Y-59701699D01*
X69268649Y-59603795D01*
X69159669Y-59533758D01*
X69159665Y-59533756D01*
X69159664Y-59533756D01*
X69035374Y-59497262D01*
X69035372Y-59497262D01*
X68905828Y-59497262D01*
X68905826Y-59497262D01*
X68781535Y-59533756D01*
X68781532Y-59533757D01*
X68781531Y-59533758D01*
X68730277Y-59566696D01*
X68672550Y-59603795D01*
X68587718Y-59701699D01*
X68587717Y-59701700D01*
X68533902Y-59819536D01*
X68515467Y-59947762D01*
X68533902Y-60075987D01*
X68582535Y-60182477D01*
X68587718Y-60193825D01*
X68589812Y-60196242D01*
X68591140Y-60199150D01*
X68592513Y-60201286D01*
X68592206Y-60201483D01*
X68618837Y-60259794D01*
X68620100Y-60277445D01*
X68620100Y-60446344D01*
X68635394Y-60503422D01*
X68643985Y-60535486D01*
X68690127Y-60615408D01*
X68690131Y-60615413D01*
X69373781Y-61299063D01*
X69407266Y-61360386D01*
X69410100Y-61386744D01*
X69410100Y-61951117D01*
X69390415Y-62018156D01*
X69379815Y-62032317D01*
X69377719Y-62034735D01*
X69377716Y-62034739D01*
X69323902Y-62152574D01*
X69305467Y-62280800D01*
X69323902Y-62409025D01*
X69341524Y-62447611D01*
X69377718Y-62526863D01*
X69462551Y-62624767D01*
X69571531Y-62694804D01*
X69655521Y-62719465D01*
X69695825Y-62731299D01*
X69695827Y-62731300D01*
X69695828Y-62731300D01*
X69825373Y-62731300D01*
X69825373Y-62731299D01*
X69949669Y-62694804D01*
X69993462Y-62666659D01*
X70060501Y-62646976D01*
X70127540Y-62666661D01*
X70173295Y-62719465D01*
X70184500Y-62770976D01*
X70184500Y-76018826D01*
X70164815Y-76085865D01*
X70112011Y-76131620D01*
X70049280Y-76142317D01*
X70017174Y-76139400D01*
X70010600Y-76139400D01*
X70010600Y-78089399D01*
X70017179Y-78089399D01*
X70049277Y-78086482D01*
X70117823Y-78100018D01*
X70168169Y-78148465D01*
X70184500Y-78209973D01*
X70184500Y-79955102D01*
X70164815Y-80022141D01*
X70112011Y-80067896D01*
X70042853Y-80077840D01*
X69979297Y-80048815D01*
X69956186Y-80022144D01*
X69953483Y-80017938D01*
X69868649Y-79920033D01*
X69759669Y-79849996D01*
X69759665Y-79849994D01*
X69759664Y-79849994D01*
X69635374Y-79813500D01*
X69635372Y-79813500D01*
X69505828Y-79813500D01*
X69505826Y-79813500D01*
X69381535Y-79849994D01*
X69381532Y-79849995D01*
X69381531Y-79849996D01*
X69348464Y-79871247D01*
X69272550Y-79920033D01*
X69187718Y-80017937D01*
X69187717Y-80017938D01*
X69133903Y-80135772D01*
X69133902Y-80135777D01*
X69128149Y-80175791D01*
X69099123Y-80239346D01*
X69093092Y-80245824D01*
X68663737Y-80675181D01*
X68602414Y-80708666D01*
X68576056Y-80711500D01*
X67900730Y-80711500D01*
X67870300Y-80714353D01*
X67870298Y-80714353D01*
X67742119Y-80759206D01*
X67742117Y-80759207D01*
X67632850Y-80839850D01*
X67552207Y-80949117D01*
X67552206Y-80949119D01*
X67507353Y-81077298D01*
X67507353Y-81077300D01*
X67504500Y-81107730D01*
X67504500Y-81966269D01*
X67507353Y-81996699D01*
X67507354Y-81996701D01*
X67538092Y-82084545D01*
X67541654Y-82154324D01*
X67506926Y-82214951D01*
X67444932Y-82247179D01*
X67421051Y-82249500D01*
X57038949Y-82249500D01*
X56971910Y-82229815D01*
X56926155Y-82177011D01*
X56916211Y-82107853D01*
X56921908Y-82084545D01*
X56952645Y-81996701D01*
X56952646Y-81996699D01*
X56955500Y-81966269D01*
X56955500Y-81107730D01*
X56952646Y-81077300D01*
X56952646Y-81077298D01*
X56907793Y-80949119D01*
X56907792Y-80949117D01*
X56883638Y-80916389D01*
X56827150Y-80839850D01*
X56717882Y-80759207D01*
X56717880Y-80759206D01*
X56589700Y-80714353D01*
X56559270Y-80711500D01*
X56559266Y-80711500D01*
X55567900Y-80711500D01*
X55500861Y-80691815D01*
X55455106Y-80639011D01*
X55443900Y-80587500D01*
X55443900Y-80219586D01*
X55463585Y-80152547D01*
X55474178Y-80138394D01*
X55526282Y-80078263D01*
X55580097Y-79960426D01*
X55598533Y-79832200D01*
X55580122Y-79704147D01*
X55590066Y-79634988D01*
X55635821Y-79582184D01*
X55702860Y-79562500D01*
X56559270Y-79562500D01*
X56589699Y-79559646D01*
X56589701Y-79559646D01*
X56653790Y-79537219D01*
X56717882Y-79514793D01*
X56827150Y-79434150D01*
X56907793Y-79324882D01*
X56907792Y-79324882D01*
X56912746Y-79318171D01*
X56968393Y-79275920D01*
X57038049Y-79270461D01*
X57099599Y-79303528D01*
X57112286Y-79318170D01*
X57190650Y-79424350D01*
X57299918Y-79504993D01*
X57327922Y-79514792D01*
X57428099Y-79549846D01*
X57458530Y-79552700D01*
X57482918Y-79552700D01*
X57549957Y-79572385D01*
X57595712Y-79625189D01*
X57605656Y-79694347D01*
X57586020Y-79745591D01*
X57541132Y-79812769D01*
X57541131Y-79812770D01*
X57529500Y-79871247D01*
X57529500Y-80910752D01*
X57541131Y-80969229D01*
X57541132Y-80969230D01*
X57585447Y-81035552D01*
X57651769Y-81079867D01*
X57651770Y-81079868D01*
X57710247Y-81091499D01*
X57710250Y-81091500D01*
X57710252Y-81091500D01*
X57997101Y-81091500D01*
X58064140Y-81111185D01*
X58104485Y-81153495D01*
X58108782Y-81160937D01*
X58114540Y-81170911D01*
X58114541Y-81170912D01*
X58286218Y-81342589D01*
X58319703Y-81403912D01*
X58321275Y-81412623D01*
X58338902Y-81535225D01*
X58392717Y-81653061D01*
X58392718Y-81653063D01*
X58477551Y-81750967D01*
X58586531Y-81821004D01*
X58710825Y-81857499D01*
X58710827Y-81857500D01*
X58710828Y-81857500D01*
X58840373Y-81857500D01*
X58840373Y-81857499D01*
X58964669Y-81821004D01*
X59073649Y-81750967D01*
X59158482Y-81653063D01*
X59212297Y-81535226D01*
X59230733Y-81407000D01*
X59212297Y-81278774D01*
X59158482Y-81160937D01*
X59153948Y-81155705D01*
X59124922Y-81092150D01*
X59134865Y-81022992D01*
X59144552Y-81005619D01*
X59168867Y-80969231D01*
X59180500Y-80910748D01*
X59180500Y-79871252D01*
X59180500Y-79871249D01*
X59180499Y-79871247D01*
X59168868Y-79812770D01*
X59168867Y-79812769D01*
X59124552Y-79746447D01*
X59058230Y-79702132D01*
X59058229Y-79702131D01*
X58999752Y-79690500D01*
X58999748Y-79690500D01*
X58751160Y-79690500D01*
X58684121Y-79670815D01*
X58638366Y-79618011D01*
X58628422Y-79548853D01*
X58657447Y-79485297D01*
X58677527Y-79466730D01*
X58690279Y-79457318D01*
X58734950Y-79424350D01*
X58815593Y-79315082D01*
X58838019Y-79250990D01*
X58860446Y-79186901D01*
X58860446Y-79186899D01*
X58863300Y-79156469D01*
X58863300Y-78905657D01*
X58882985Y-78838618D01*
X58935789Y-78792863D01*
X59004947Y-78782919D01*
X59019378Y-78785879D01*
X59051551Y-78794500D01*
X59469639Y-78794500D01*
X59534220Y-78813463D01*
X59534368Y-78813207D01*
X59535424Y-78813816D01*
X59536678Y-78814185D01*
X59539506Y-78816173D01*
X59541405Y-78817269D01*
X59541406Y-78817270D01*
X59621330Y-78863414D01*
X59710474Y-78887300D01*
X64922005Y-78887300D01*
X64989044Y-78906985D01*
X65034799Y-78959789D01*
X65046005Y-79011300D01*
X65046005Y-79728648D01*
X65063151Y-79792639D01*
X65063151Y-79792640D01*
X65069889Y-79817789D01*
X65069890Y-79817791D01*
X65069891Y-79817793D01*
X65116035Y-79897717D01*
X65116036Y-79897718D01*
X65116037Y-79897719D01*
X65243181Y-80024863D01*
X65276666Y-80086186D01*
X65279500Y-80112544D01*
X65279500Y-80910752D01*
X65291131Y-80969229D01*
X65291132Y-80969230D01*
X65335447Y-81035552D01*
X65401769Y-81079867D01*
X65401770Y-81079868D01*
X65460247Y-81091499D01*
X65460250Y-81091500D01*
X65460252Y-81091500D01*
X66749750Y-81091500D01*
X66749751Y-81091499D01*
X66764568Y-81088552D01*
X66808229Y-81079868D01*
X66808229Y-81079867D01*
X66808231Y-81079867D01*
X66874552Y-81035552D01*
X66918867Y-80969231D01*
X66918867Y-80969229D01*
X66918868Y-80969229D01*
X66930499Y-80910752D01*
X66930500Y-80910750D01*
X66930500Y-79871249D01*
X66930499Y-79871247D01*
X66918868Y-79812770D01*
X66918867Y-79812769D01*
X66873980Y-79745591D01*
X66853102Y-79678914D01*
X66871586Y-79611534D01*
X66923565Y-79564843D01*
X66977082Y-79552700D01*
X67001470Y-79552700D01*
X67031899Y-79549846D01*
X67031901Y-79549846D01*
X67095990Y-79527419D01*
X67160082Y-79504993D01*
X67269350Y-79424350D01*
X67347714Y-79318168D01*
X67403360Y-79275920D01*
X67473016Y-79270461D01*
X67534566Y-79303528D01*
X67547253Y-79318170D01*
X67552207Y-79324882D01*
X67632850Y-79434150D01*
X67742118Y-79514793D01*
X67784845Y-79529744D01*
X67870299Y-79559646D01*
X67900730Y-79562500D01*
X67900734Y-79562500D01*
X69259270Y-79562500D01*
X69289699Y-79559646D01*
X69289701Y-79559646D01*
X69353790Y-79537219D01*
X69417882Y-79514793D01*
X69527150Y-79434150D01*
X69607793Y-79324882D01*
X69630219Y-79260790D01*
X69652646Y-79196701D01*
X69652646Y-79196699D01*
X69655500Y-79166269D01*
X69655500Y-78307730D01*
X69652646Y-78277300D01*
X69652646Y-78277298D01*
X69607793Y-78149119D01*
X69607793Y-78149118D01*
X69537749Y-78054211D01*
X69534829Y-78050254D01*
X69510859Y-77984625D01*
X69510600Y-77976621D01*
X69510600Y-76139400D01*
X69510599Y-76139399D01*
X69504036Y-76139400D01*
X69504017Y-76139401D01*
X69433497Y-76145808D01*
X69433492Y-76145809D01*
X69271203Y-76196381D01*
X69125722Y-76284327D01*
X69005527Y-76404522D01*
X68917582Y-76550001D01*
X68908090Y-76580461D01*
X68869351Y-76638608D01*
X68824640Y-76662545D01*
X68788819Y-76673063D01*
X68718949Y-76673063D01*
X68660171Y-76635289D01*
X68643401Y-76610382D01*
X68638650Y-76601058D01*
X68638646Y-76601054D01*
X68638645Y-76601052D01*
X68548947Y-76511354D01*
X68548944Y-76511352D01*
X68548942Y-76511350D01*
X68472117Y-76472205D01*
X68435901Y-76453752D01*
X68342124Y-76438900D01*
X67879082Y-76438900D01*
X67798119Y-76451723D01*
X67785296Y-76453754D01*
X67672258Y-76511350D01*
X67672257Y-76511351D01*
X67672252Y-76511354D01*
X67582552Y-76601054D01*
X67579332Y-76605487D01*
X67524002Y-76648152D01*
X67454388Y-76654131D01*
X67392593Y-76621525D01*
X67361974Y-76573558D01*
X67349993Y-76539318D01*
X67269350Y-76430050D01*
X67160082Y-76349407D01*
X67160080Y-76349406D01*
X67031900Y-76304553D01*
X67001470Y-76301700D01*
X67001466Y-76301700D01*
X66971700Y-76301700D01*
X66904661Y-76282015D01*
X66858906Y-76229211D01*
X66847700Y-76177700D01*
X66847700Y-73917396D01*
X66847700Y-73917394D01*
X66823814Y-73828250D01*
X66802596Y-73791500D01*
X66802596Y-73791498D01*
X66777674Y-73748332D01*
X66777668Y-73748324D01*
X66238925Y-73209581D01*
X66205440Y-73148258D01*
X66210424Y-73078566D01*
X66252296Y-73022633D01*
X66317760Y-72998216D01*
X66326606Y-72997900D01*
X66717803Y-72997900D01*
X66717803Y-72997899D01*
X66755256Y-72993680D01*
X66769140Y-72992900D01*
X66782573Y-72992900D01*
X66782573Y-72992899D01*
X66906869Y-72956404D01*
X67015849Y-72886367D01*
X67100682Y-72788463D01*
X67154497Y-72670626D01*
X67160249Y-72630610D01*
X67189271Y-72567055D01*
X67195277Y-72560603D01*
X67438070Y-72317812D01*
X67484214Y-72237888D01*
X67484387Y-72237241D01*
X67484819Y-72236427D01*
X67487326Y-72230376D01*
X67487903Y-72230615D01*
X67510451Y-72188120D01*
X67540482Y-72153463D01*
X67594297Y-72035626D01*
X67612733Y-71907400D01*
X67594297Y-71779174D01*
X67540482Y-71661337D01*
X67455649Y-71563433D01*
X67346669Y-71493396D01*
X67346665Y-71493394D01*
X67346664Y-71493394D01*
X67222374Y-71456900D01*
X67222372Y-71456900D01*
X67092828Y-71456900D01*
X67092826Y-71456900D01*
X66968535Y-71493394D01*
X66968532Y-71493395D01*
X66968531Y-71493396D01*
X66917277Y-71526334D01*
X66859550Y-71563433D01*
X66774718Y-71661337D01*
X66774717Y-71661338D01*
X66720902Y-71779174D01*
X66711750Y-71842833D01*
X66702467Y-71907400D01*
X66707909Y-71945254D01*
X66697967Y-72014410D01*
X66652213Y-72067215D01*
X66585173Y-72086900D01*
X65717795Y-72086900D01*
X65680344Y-72091120D01*
X65666460Y-72091900D01*
X65653026Y-72091900D01*
X65528733Y-72128394D01*
X65528728Y-72128396D01*
X65460546Y-72172215D01*
X65393507Y-72191900D01*
X65358713Y-72191900D01*
X65291674Y-72172215D01*
X65245919Y-72119411D01*
X65235975Y-72085546D01*
X65232097Y-72058574D01*
X65207855Y-72005492D01*
X65178282Y-71940737D01*
X65093449Y-71842833D01*
X64984469Y-71772796D01*
X64984466Y-71772795D01*
X64984463Y-71772793D01*
X64976397Y-71769109D01*
X64977813Y-71766007D01*
X64932878Y-71737108D01*
X64903873Y-71673543D01*
X64913839Y-71604388D01*
X64938930Y-71568261D01*
X65107306Y-71399884D01*
X65107311Y-71399881D01*
X65117511Y-71389680D01*
X65117513Y-71389680D01*
X65192080Y-71315113D01*
X65244807Y-71223787D01*
X65247520Y-71213663D01*
X65272101Y-71121927D01*
X65272101Y-71016473D01*
X65272101Y-71008878D01*
X65272100Y-71008860D01*
X65272100Y-65410324D01*
X65291785Y-65343285D01*
X65308414Y-65322647D01*
X66315318Y-64315743D01*
X66376639Y-64282260D01*
X66446331Y-64287244D01*
X66502264Y-64329116D01*
X66518939Y-64359455D01*
X66558182Y-64462930D01*
X66558182Y-64462931D01*
X66620475Y-64553177D01*
X66654817Y-64602929D01*
X66715326Y-64656535D01*
X66782150Y-64715736D01*
X66932773Y-64794789D01*
X66932775Y-64794790D01*
X67097944Y-64835500D01*
X67268056Y-64835500D01*
X67433225Y-64794790D01*
X67512692Y-64753081D01*
X67583849Y-64715736D01*
X67583850Y-64715734D01*
X67583852Y-64715734D01*
X67711183Y-64602929D01*
X67807818Y-64462930D01*
X67868140Y-64303872D01*
X67888645Y-64135000D01*
X67868140Y-63966128D01*
X67807818Y-63807070D01*
X67803859Y-63801335D01*
X67725993Y-63688527D01*
X67711183Y-63667071D01*
X67583852Y-63554266D01*
X67583849Y-63554263D01*
X67433226Y-63475210D01*
X67287225Y-63439224D01*
X67226844Y-63404068D01*
X67195056Y-63341848D01*
X67192900Y-63318827D01*
X67192900Y-61217544D01*
X67189150Y-61203551D01*
X67189149Y-61203546D01*
X67165608Y-61115684D01*
X67134275Y-61061415D01*
X67112880Y-61024358D01*
X66578419Y-60489897D01*
X66544934Y-60428574D01*
X66542100Y-60402216D01*
X66542100Y-58264946D01*
X66561785Y-58197907D01*
X66578419Y-58177265D01*
X66654180Y-58101504D01*
X66769480Y-57986204D01*
X66822207Y-57894879D01*
X66849500Y-57793018D01*
X66849500Y-57687564D01*
X66849500Y-55383455D01*
X66869185Y-55316416D01*
X66885819Y-55295774D01*
X67693574Y-54488019D01*
X67754897Y-54454534D01*
X67781255Y-54451700D01*
X68715386Y-54451700D01*
X68766894Y-54462904D01*
X68771928Y-54465202D01*
X68771931Y-54465204D01*
X68896225Y-54501699D01*
X68896227Y-54501700D01*
X68896228Y-54501700D01*
X69025773Y-54501700D01*
X69025773Y-54501699D01*
X69150069Y-54465204D01*
X69259049Y-54395167D01*
X69343882Y-54297263D01*
X69397697Y-54179426D01*
X69416133Y-54051200D01*
X69397697Y-53922974D01*
X69343882Y-53805137D01*
X69259049Y-53707233D01*
X69150069Y-53637196D01*
X69150065Y-53637194D01*
X69150064Y-53637194D01*
X69025774Y-53600700D01*
X69025772Y-53600700D01*
X68896228Y-53600700D01*
X68896226Y-53600700D01*
X68771932Y-53637195D01*
X68766894Y-53639496D01*
X68715386Y-53650700D01*
X67818925Y-53650700D01*
X67751886Y-53631015D01*
X67731244Y-53614381D01*
X66138489Y-52021626D01*
X66105004Y-51960303D01*
X66109988Y-51890611D01*
X66151860Y-51834678D01*
X66214017Y-51810542D01*
X66216520Y-51810295D01*
X66220534Y-51809900D01*
X66418554Y-51749832D01*
X66601050Y-51652285D01*
X66761010Y-51521010D01*
X66892285Y-51361050D01*
X66989832Y-51178554D01*
X67049900Y-50980534D01*
X67070183Y-50774600D01*
X67049900Y-50568666D01*
X66989832Y-50370646D01*
X66892285Y-50188150D01*
X66824803Y-50105922D01*
X66761010Y-50028189D01*
X66610721Y-49904852D01*
X66610715Y-49904847D01*
X67504100Y-49904847D01*
X67504100Y-51644352D01*
X67515731Y-51702829D01*
X67515732Y-51702830D01*
X67560047Y-51769152D01*
X67626369Y-51813467D01*
X67626370Y-51813468D01*
X67684847Y-51825099D01*
X67684850Y-51825100D01*
X67684852Y-51825100D01*
X69424350Y-51825100D01*
X69424351Y-51825099D01*
X69439168Y-51822152D01*
X69482829Y-51813468D01*
X69482829Y-51813467D01*
X69482831Y-51813467D01*
X69549152Y-51769152D01*
X69593467Y-51702831D01*
X69593467Y-51702829D01*
X69593468Y-51702829D01*
X69605099Y-51644352D01*
X69605100Y-51644350D01*
X69605100Y-49904849D01*
X69605099Y-49904847D01*
X69593468Y-49846370D01*
X69593467Y-49846369D01*
X69549152Y-49780047D01*
X69482830Y-49735732D01*
X69482829Y-49735731D01*
X69424352Y-49724100D01*
X69424348Y-49724100D01*
X67684852Y-49724100D01*
X67684847Y-49724100D01*
X67626370Y-49735731D01*
X67626369Y-49735732D01*
X67560047Y-49780047D01*
X67515732Y-49846369D01*
X67515731Y-49846370D01*
X67504100Y-49904847D01*
X66610715Y-49904847D01*
X66601050Y-49896915D01*
X66418554Y-49799368D01*
X66220534Y-49739300D01*
X66220532Y-49739299D01*
X66220534Y-49739299D01*
X66014600Y-49719017D01*
X65808667Y-49739299D01*
X65610643Y-49799369D01*
X65522714Y-49846369D01*
X65428150Y-49896915D01*
X65428148Y-49896916D01*
X65428147Y-49896917D01*
X65268189Y-50028189D01*
X65204397Y-50105922D01*
X65146651Y-50145257D01*
X65076806Y-50147128D01*
X65020862Y-50114939D01*
X64338504Y-49432581D01*
X64305019Y-49371258D01*
X64310003Y-49301566D01*
X64351875Y-49245633D01*
X64417339Y-49221216D01*
X64426185Y-49220900D01*
X70060500Y-49220900D01*
X70127539Y-49240585D01*
G37*
G04 #@! TD.AperFunction*
G04 #@! TA.AperFunction,Conductor*
G36*
X70141701Y-80479183D02*
G01*
X70179477Y-80537960D01*
X70184500Y-80572897D01*
X70184500Y-82125500D01*
X70164815Y-82192539D01*
X70112011Y-82238294D01*
X70060500Y-82249500D01*
X69738949Y-82249500D01*
X69671910Y-82229815D01*
X69626155Y-82177011D01*
X69616211Y-82107853D01*
X69621908Y-82084545D01*
X69652645Y-81996701D01*
X69652646Y-81996699D01*
X69655500Y-81966269D01*
X69655500Y-81107730D01*
X69652646Y-81077300D01*
X69652646Y-81077298D01*
X69607793Y-80949119D01*
X69607792Y-80949117D01*
X69590922Y-80926259D01*
X69575675Y-80905599D01*
X69551705Y-80839974D01*
X69567020Y-80771803D01*
X69616760Y-80722735D01*
X69640512Y-80712991D01*
X69676588Y-80702397D01*
X69759669Y-80678004D01*
X69868649Y-80607967D01*
X69953482Y-80510063D01*
X69953485Y-80510055D01*
X69956183Y-80505859D01*
X70008987Y-80460104D01*
X70078145Y-80450159D01*
X70141701Y-80479183D01*
G37*
G04 #@! TD.AperFunction*
G04 #@! TA.AperFunction,Conductor*
G36*
X58741226Y-70449585D02*
G01*
X58786981Y-70502389D01*
X58796925Y-70571547D01*
X58785587Y-70608361D01*
X58780626Y-70618507D01*
X58770700Y-70686639D01*
X58770700Y-71051867D01*
X58751015Y-71118906D01*
X58722704Y-71149844D01*
X58719645Y-71152216D01*
X58603518Y-71268342D01*
X58603514Y-71268347D01*
X58519918Y-71409701D01*
X58474099Y-71567413D01*
X58473904Y-71569898D01*
X58473905Y-71569900D01*
X59759700Y-71569900D01*
X59826739Y-71589585D01*
X59872494Y-71642389D01*
X59883700Y-71693900D01*
X59883700Y-71945900D01*
X59864015Y-72012939D01*
X59811211Y-72058694D01*
X59759700Y-72069900D01*
X58473905Y-72069900D01*
X58473904Y-72069901D01*
X58474099Y-72072386D01*
X58519918Y-72230098D01*
X58603514Y-72371452D01*
X58603521Y-72371461D01*
X58719639Y-72487579D01*
X58722697Y-72489951D01*
X58724480Y-72492420D01*
X58725160Y-72493100D01*
X58725050Y-72493209D01*
X58763606Y-72546592D01*
X58770700Y-72587933D01*
X58770700Y-72953160D01*
X58780626Y-73021292D01*
X58780626Y-73021293D01*
X58808038Y-73077365D01*
X58819796Y-73146238D01*
X58792453Y-73210535D01*
X58790352Y-73213024D01*
X58748320Y-73261533D01*
X58748317Y-73261538D01*
X58694502Y-73379374D01*
X58676067Y-73507600D01*
X58694502Y-73635825D01*
X58743810Y-73743792D01*
X58748318Y-73753663D01*
X58833151Y-73851567D01*
X58942131Y-73921604D01*
X59066425Y-73958099D01*
X59066427Y-73958100D01*
X59066428Y-73958100D01*
X59195973Y-73958100D01*
X59195973Y-73958099D01*
X59320269Y-73921604D01*
X59429249Y-73851567D01*
X59514082Y-73753663D01*
X59557367Y-73658881D01*
X59582480Y-73622712D01*
X59898474Y-73306719D01*
X59959797Y-73273234D01*
X59986155Y-73270400D01*
X60179462Y-73270400D01*
X60183931Y-73270076D01*
X60184046Y-73271671D01*
X60246470Y-73280511D01*
X60299372Y-73326153D01*
X60319200Y-73393150D01*
X60319200Y-73420200D01*
X62769199Y-73420200D01*
X62769199Y-73370228D01*
X62769198Y-73370213D01*
X62758705Y-73267502D01*
X62703558Y-73101080D01*
X62703556Y-73101075D01*
X62611515Y-72951854D01*
X62487545Y-72827884D01*
X62338324Y-72735843D01*
X62338319Y-72735841D01*
X62170117Y-72680105D01*
X62112672Y-72640333D01*
X62085849Y-72575817D01*
X62098164Y-72507041D01*
X62145707Y-72455841D01*
X62168166Y-72445358D01*
X62232082Y-72422993D01*
X62341350Y-72342350D01*
X62421993Y-72233082D01*
X62421993Y-72233081D01*
X62427511Y-72225605D01*
X62429485Y-72227062D01*
X62468780Y-72186685D01*
X62529680Y-72170700D01*
X64230505Y-72170700D01*
X64297544Y-72190385D01*
X64343299Y-72243189D01*
X64353243Y-72277052D01*
X64358702Y-72315025D01*
X64408010Y-72422992D01*
X64412518Y-72432863D01*
X64497351Y-72530767D01*
X64606331Y-72600804D01*
X64727998Y-72636527D01*
X64780742Y-72667823D01*
X64870531Y-72757612D01*
X64935788Y-72822869D01*
X64935791Y-72822870D01*
X64935794Y-72822873D01*
X65015706Y-72869011D01*
X65015707Y-72869011D01*
X65015712Y-72869014D01*
X65104856Y-72892900D01*
X65243300Y-72892900D01*
X65310339Y-72912585D01*
X65356094Y-72965389D01*
X65367300Y-73016900D01*
X65367300Y-73230284D01*
X65377743Y-73269255D01*
X65377744Y-73269259D01*
X65391184Y-73319423D01*
X65391185Y-73319424D01*
X65437327Y-73399346D01*
X65437331Y-73399351D01*
X66110381Y-74072401D01*
X66143866Y-74133724D01*
X66146700Y-74160082D01*
X66146700Y-76177700D01*
X66127015Y-76244739D01*
X66074211Y-76290494D01*
X66022700Y-76301700D01*
X65992930Y-76301700D01*
X65962500Y-76304553D01*
X65962498Y-76304553D01*
X65834319Y-76349406D01*
X65834317Y-76349407D01*
X65725050Y-76430050D01*
X65644407Y-76539317D01*
X65644406Y-76539319D01*
X65599553Y-76667498D01*
X65599553Y-76667500D01*
X65596700Y-76697930D01*
X65596700Y-77056917D01*
X65577015Y-77123956D01*
X65524211Y-77169711D01*
X65455053Y-77179655D01*
X65410700Y-77164304D01*
X65342138Y-77124720D01*
X65342135Y-77124719D01*
X65195766Y-77085500D01*
X65044234Y-77085500D01*
X64897863Y-77124719D01*
X64766635Y-77200485D01*
X64766632Y-77200487D01*
X64659487Y-77307632D01*
X64659485Y-77307635D01*
X64635655Y-77348910D01*
X64585087Y-77397125D01*
X64516480Y-77410347D01*
X64451616Y-77384379D01*
X64434554Y-77368111D01*
X64429171Y-77361899D01*
X64356849Y-77278433D01*
X64247869Y-77208396D01*
X64247865Y-77208394D01*
X64247864Y-77208394D01*
X64123574Y-77171900D01*
X64123572Y-77171900D01*
X64084633Y-77171900D01*
X64017594Y-77152215D01*
X63996952Y-77135581D01*
X63760712Y-76899341D01*
X63760704Y-76899335D01*
X63692195Y-76859782D01*
X63692190Y-76859779D01*
X63666713Y-76852952D01*
X63615762Y-76839300D01*
X63615760Y-76839300D01*
X62075633Y-76839300D01*
X62008594Y-76819615D01*
X61987952Y-76802981D01*
X60814381Y-75629410D01*
X60780896Y-75568087D01*
X60779324Y-75559375D01*
X60761697Y-75436774D01*
X60707882Y-75318938D01*
X60707882Y-75318937D01*
X60623049Y-75221033D01*
X60514069Y-75150996D01*
X60514065Y-75150994D01*
X60514064Y-75150994D01*
X60389774Y-75114500D01*
X60389772Y-75114500D01*
X60260228Y-75114500D01*
X60260226Y-75114500D01*
X60135935Y-75150994D01*
X60135932Y-75150995D01*
X60135931Y-75150996D01*
X60108677Y-75168511D01*
X60026950Y-75221033D01*
X59942118Y-75318937D01*
X59942117Y-75318938D01*
X59888302Y-75436774D01*
X59869867Y-75565000D01*
X59888302Y-75693225D01*
X59908059Y-75736485D01*
X59942118Y-75811063D01*
X60026951Y-75908967D01*
X60135931Y-75979004D01*
X60197310Y-75997026D01*
X60260225Y-76015499D01*
X60260227Y-76015500D01*
X60260228Y-76015500D01*
X60299167Y-76015500D01*
X60366206Y-76035185D01*
X60386848Y-76051819D01*
X61715289Y-77380260D01*
X61783812Y-77419822D01*
X61860238Y-77440300D01*
X61939362Y-77440300D01*
X63400367Y-77440300D01*
X63467406Y-77459985D01*
X63488048Y-77476619D01*
X63569418Y-77557989D01*
X63602903Y-77619312D01*
X63604475Y-77628023D01*
X63622102Y-77750625D01*
X63640039Y-77789900D01*
X63675918Y-77868463D01*
X63721872Y-77921497D01*
X63760750Y-77966366D01*
X63763312Y-77968586D01*
X63765144Y-77971438D01*
X63766559Y-77973070D01*
X63766324Y-77973273D01*
X63801087Y-78027364D01*
X63801087Y-78097234D01*
X63763314Y-78156012D01*
X63699758Y-78185038D01*
X63682110Y-78186300D01*
X59950797Y-78186300D01*
X59886215Y-78167336D01*
X59886068Y-78167593D01*
X59885011Y-78166983D01*
X59883758Y-78166615D01*
X59880929Y-78164626D01*
X59862940Y-78154240D01*
X59814724Y-78103673D01*
X59801501Y-78035066D01*
X59817554Y-77984852D01*
X59822307Y-77976621D01*
X59876281Y-77883135D01*
X59915500Y-77736766D01*
X59915500Y-77585234D01*
X59876281Y-77438865D01*
X59800515Y-77307635D01*
X59693365Y-77200485D01*
X59619648Y-77157924D01*
X59562136Y-77124719D01*
X59481089Y-77103003D01*
X59415766Y-77085500D01*
X59264234Y-77085500D01*
X59117865Y-77124719D01*
X59117864Y-77124719D01*
X59117862Y-77124720D01*
X59117861Y-77124720D01*
X59049300Y-77164304D01*
X58981399Y-77180777D01*
X58915373Y-77157924D01*
X58872182Y-77103003D01*
X58863300Y-77056917D01*
X58863300Y-76697930D01*
X58860446Y-76667500D01*
X58860446Y-76667498D01*
X58815593Y-76539319D01*
X58815592Y-76539317D01*
X58734950Y-76430050D01*
X58625682Y-76349407D01*
X58625680Y-76349406D01*
X58497500Y-76304553D01*
X58467070Y-76301700D01*
X58467066Y-76301700D01*
X58437300Y-76301700D01*
X58370261Y-76282015D01*
X58324506Y-76229211D01*
X58313300Y-76177700D01*
X58313300Y-73970186D01*
X60319201Y-73970186D01*
X60329694Y-74072897D01*
X60384841Y-74239319D01*
X60384843Y-74239324D01*
X60476884Y-74388545D01*
X60600854Y-74512515D01*
X60750080Y-74604558D01*
X60764134Y-74609215D01*
X60821581Y-74648985D01*
X60847874Y-74709276D01*
X60853502Y-74748422D01*
X60853503Y-74748427D01*
X60876125Y-74797961D01*
X60907318Y-74866263D01*
X60992151Y-74964167D01*
X61101131Y-75034204D01*
X61225425Y-75070699D01*
X61225427Y-75070700D01*
X61329548Y-75070700D01*
X61396587Y-75090385D01*
X61442342Y-75143189D01*
X61452286Y-75212347D01*
X61442342Y-75246212D01*
X61435513Y-75261163D01*
X61417078Y-75389389D01*
X61435513Y-75517614D01*
X61454585Y-75559375D01*
X61489329Y-75635452D01*
X61574162Y-75733356D01*
X61683142Y-75803393D01*
X61799984Y-75837700D01*
X61807436Y-75839888D01*
X61807438Y-75839889D01*
X61807439Y-75839889D01*
X61936984Y-75839889D01*
X61936984Y-75839888D01*
X62061280Y-75803393D01*
X62165391Y-75736484D01*
X62232430Y-75716800D01*
X62299467Y-75736483D01*
X62400175Y-75801204D01*
X62509538Y-75833315D01*
X62524469Y-75837699D01*
X62524471Y-75837700D01*
X62524472Y-75837700D01*
X62654017Y-75837700D01*
X62654017Y-75837699D01*
X62778313Y-75801204D01*
X62887293Y-75731167D01*
X62972126Y-75633263D01*
X63025941Y-75515426D01*
X63044377Y-75387200D01*
X63025941Y-75258974D01*
X63022395Y-75251211D01*
X63012452Y-75182054D01*
X63041476Y-75118498D01*
X63100254Y-75080723D01*
X63135190Y-75075700D01*
X63234573Y-75075700D01*
X63234573Y-75075699D01*
X63358869Y-75039204D01*
X63467849Y-74969167D01*
X63552682Y-74871263D01*
X63606497Y-74753426D01*
X63624933Y-74625200D01*
X63606497Y-74496974D01*
X63552682Y-74379137D01*
X63467849Y-74281233D01*
X63358869Y-74211196D01*
X63358865Y-74211194D01*
X63358864Y-74211194D01*
X63234574Y-74174700D01*
X63234572Y-74174700D01*
X63105028Y-74174700D01*
X63105026Y-74174700D01*
X62980734Y-74211194D01*
X62935474Y-74240280D01*
X62868434Y-74259963D01*
X62801395Y-74240277D01*
X62755642Y-74187472D01*
X62745700Y-74118313D01*
X62750732Y-74096956D01*
X62758705Y-74072896D01*
X62758706Y-74072890D01*
X62769199Y-73970186D01*
X62769200Y-73970173D01*
X62769200Y-73920200D01*
X60319201Y-73920200D01*
X60319201Y-73970186D01*
X58313300Y-73970186D01*
X58313300Y-73327858D01*
X58313300Y-73327856D01*
X58289414Y-73238712D01*
X58272595Y-73209581D01*
X58243273Y-73158794D01*
X58243270Y-73158791D01*
X58243269Y-73158788D01*
X58239571Y-73155090D01*
X58206086Y-73093767D01*
X58210574Y-73031001D01*
X58208930Y-73030493D01*
X58211771Y-73021296D01*
X58211773Y-73021293D01*
X58221700Y-72953160D01*
X58221700Y-72586640D01*
X58218846Y-72567055D01*
X58211773Y-72518508D01*
X58211773Y-72518507D01*
X58160398Y-72413417D01*
X58160396Y-72413415D01*
X58160396Y-72413414D01*
X58077685Y-72330703D01*
X57972591Y-72279326D01*
X57904461Y-72269400D01*
X57904460Y-72269400D01*
X57405244Y-72269400D01*
X57338205Y-72249715D01*
X57317563Y-72233081D01*
X56658084Y-71573602D01*
X56624599Y-71512279D01*
X56629583Y-71442587D01*
X56671455Y-71386654D01*
X56736919Y-71362237D01*
X56763638Y-71363216D01*
X56812940Y-71370400D01*
X56812941Y-71370400D01*
X57904461Y-71370400D01*
X57928715Y-71366866D01*
X57972593Y-71360473D01*
X58077683Y-71309098D01*
X58160398Y-71226383D01*
X58211773Y-71121293D01*
X58221700Y-71053160D01*
X58221700Y-70686640D01*
X58214856Y-70639670D01*
X58211773Y-70618507D01*
X58206813Y-70608361D01*
X58195053Y-70539488D01*
X58222396Y-70475191D01*
X58280160Y-70435883D01*
X58318213Y-70429900D01*
X58674187Y-70429900D01*
X58741226Y-70449585D01*
G37*
G04 #@! TD.AperFunction*
G04 #@! TA.AperFunction,Conductor*
G36*
X56566696Y-73140085D02*
G01*
X56587333Y-73156714D01*
X56639717Y-73209098D01*
X56744807Y-73260473D01*
X56752110Y-73261537D01*
X56812939Y-73270400D01*
X56812940Y-73270400D01*
X57312156Y-73270400D01*
X57379195Y-73290085D01*
X57399837Y-73306719D01*
X57575981Y-73482862D01*
X57609466Y-73544185D01*
X57612300Y-73570543D01*
X57612300Y-76177700D01*
X57592615Y-76244739D01*
X57539811Y-76290494D01*
X57488300Y-76301700D01*
X57458530Y-76301700D01*
X57428100Y-76304553D01*
X57428098Y-76304553D01*
X57299919Y-76349406D01*
X57299917Y-76349407D01*
X57190650Y-76430050D01*
X57110008Y-76539316D01*
X57098026Y-76573558D01*
X57057303Y-76630333D01*
X56992350Y-76656079D01*
X56923789Y-76642622D01*
X56880663Y-76605482D01*
X56877452Y-76601062D01*
X56877450Y-76601058D01*
X56877446Y-76601054D01*
X56877444Y-76601051D01*
X56787747Y-76511354D01*
X56787744Y-76511352D01*
X56787742Y-76511350D01*
X56710917Y-76472205D01*
X56674701Y-76453752D01*
X56580924Y-76438900D01*
X56117882Y-76438900D01*
X56036919Y-76451723D01*
X56024096Y-76453754D01*
X55911058Y-76511350D01*
X55911057Y-76511351D01*
X55911052Y-76511354D01*
X55821354Y-76601052D01*
X55821350Y-76601057D01*
X55796405Y-76650014D01*
X55748429Y-76700809D01*
X55680608Y-76717603D01*
X55614474Y-76695064D01*
X55571023Y-76640348D01*
X55567535Y-76630607D01*
X55542417Y-76550000D01*
X55454472Y-76404522D01*
X55334277Y-76284327D01*
X55229713Y-76221116D01*
X55182525Y-76169588D01*
X55170687Y-76100729D01*
X55197956Y-76036400D01*
X55255675Y-75997026D01*
X55293863Y-75990999D01*
X55617571Y-75990999D01*
X55617587Y-75990998D01*
X55720297Y-75980505D01*
X55886719Y-75925358D01*
X55886724Y-75925356D01*
X56035945Y-75833315D01*
X56159915Y-75709345D01*
X56251956Y-75560124D01*
X56251958Y-75560119D01*
X56307105Y-75393697D01*
X56307106Y-75393690D01*
X56317599Y-75290986D01*
X56317600Y-75290973D01*
X56317600Y-75241000D01*
X54966600Y-75241000D01*
X54899561Y-75221315D01*
X54853806Y-75168511D01*
X54842600Y-75117000D01*
X54842600Y-74865000D01*
X54862285Y-74797961D01*
X54915089Y-74752206D01*
X54966600Y-74741000D01*
X56317599Y-74741000D01*
X56317599Y-74691028D01*
X56317598Y-74691013D01*
X56307105Y-74588302D01*
X56251958Y-74421880D01*
X56251956Y-74421875D01*
X56159915Y-74272654D01*
X56035945Y-74148684D01*
X55886724Y-74056643D01*
X55886719Y-74056641D01*
X55718517Y-74000905D01*
X55661072Y-73961133D01*
X55634249Y-73896617D01*
X55646564Y-73827841D01*
X55694107Y-73776641D01*
X55716566Y-73766158D01*
X55752272Y-73753664D01*
X55780482Y-73743793D01*
X55889750Y-73663150D01*
X55970393Y-73553882D01*
X55995244Y-73482862D01*
X56015246Y-73425701D01*
X56015246Y-73425699D01*
X56018100Y-73395269D01*
X56018100Y-73244400D01*
X56037785Y-73177361D01*
X56090589Y-73131606D01*
X56142100Y-73120400D01*
X56499657Y-73120400D01*
X56566696Y-73140085D01*
G37*
G04 #@! TD.AperFunction*
G04 #@! TA.AperFunction,Conductor*
G36*
X54423065Y-69841216D02*
G01*
X54424325Y-69838365D01*
X54434834Y-69843005D01*
X54434835Y-69843006D01*
X54537609Y-69888385D01*
X54562735Y-69891300D01*
X54852464Y-69891299D01*
X54852479Y-69891297D01*
X54852482Y-69891297D01*
X54877587Y-69888386D01*
X54877587Y-69888385D01*
X54877591Y-69888385D01*
X54898214Y-69879278D01*
X54967491Y-69870207D01*
X55030676Y-69900030D01*
X55067707Y-69959279D01*
X55072300Y-69992713D01*
X55072300Y-70287030D01*
X55052615Y-70354069D01*
X55026670Y-70380886D01*
X55027562Y-70381893D01*
X55021949Y-70386865D01*
X55021948Y-70386866D01*
X54894617Y-70499671D01*
X54894616Y-70499672D01*
X54797982Y-70639668D01*
X54737660Y-70798725D01*
X54737659Y-70798730D01*
X54717155Y-70967600D01*
X54737659Y-71136469D01*
X54737660Y-71136474D01*
X54797982Y-71295531D01*
X54842809Y-71360473D01*
X54894617Y-71435529D01*
X54959936Y-71493396D01*
X55021950Y-71548336D01*
X55172573Y-71627389D01*
X55172575Y-71627390D01*
X55337744Y-71668100D01*
X55448299Y-71668100D01*
X55515338Y-71687785D01*
X55561093Y-71740589D01*
X55572299Y-71792100D01*
X55572299Y-72064257D01*
X55552614Y-72131296D01*
X55535980Y-72151938D01*
X55333737Y-72354181D01*
X55272414Y-72387666D01*
X55246056Y-72390500D01*
X54563330Y-72390500D01*
X54532900Y-72393353D01*
X54532898Y-72393353D01*
X54415055Y-72434590D01*
X54345276Y-72438152D01*
X54284649Y-72403424D01*
X54252421Y-72341431D01*
X54250100Y-72317549D01*
X54250100Y-69951704D01*
X54269785Y-69884665D01*
X54322589Y-69838910D01*
X54391747Y-69828966D01*
X54423065Y-69841216D01*
G37*
G04 #@! TD.AperFunction*
G04 #@! TA.AperFunction,Conductor*
G36*
X62498946Y-67981985D02*
G01*
X62544701Y-68034789D01*
X62554645Y-68068651D01*
X62555302Y-68073223D01*
X62555303Y-68073227D01*
X62602279Y-68176088D01*
X62609118Y-68191063D01*
X62693951Y-68288967D01*
X62802931Y-68359004D01*
X62895895Y-68386300D01*
X62927225Y-68395499D01*
X62927227Y-68395500D01*
X62927228Y-68395500D01*
X63056773Y-68395500D01*
X63056773Y-68395499D01*
X63181069Y-68359004D01*
X63290049Y-68288967D01*
X63355125Y-68213863D01*
X63413902Y-68176088D01*
X63483772Y-68176087D01*
X63536520Y-68207384D01*
X63893181Y-68564045D01*
X63926666Y-68625368D01*
X63929500Y-68651726D01*
X63929500Y-68710011D01*
X63909815Y-68777050D01*
X63899214Y-68791212D01*
X63847120Y-68851332D01*
X63847117Y-68851338D01*
X63793302Y-68969174D01*
X63774867Y-69097400D01*
X63793302Y-69225625D01*
X63847117Y-69343461D01*
X63847118Y-69343463D01*
X63931951Y-69441367D01*
X64040931Y-69511404D01*
X64147835Y-69542793D01*
X64165225Y-69547899D01*
X64165227Y-69547900D01*
X64165228Y-69547900D01*
X64294772Y-69547900D01*
X64312165Y-69542793D01*
X64382034Y-69542793D01*
X64440812Y-69580567D01*
X64469838Y-69644122D01*
X64471100Y-69661770D01*
X64471100Y-70851945D01*
X64451415Y-70918984D01*
X64434781Y-70939626D01*
X64041026Y-71333381D01*
X63979703Y-71366866D01*
X63953345Y-71369700D01*
X62529680Y-71369700D01*
X62462641Y-71350015D01*
X62429168Y-71313571D01*
X62427511Y-71314795D01*
X62421993Y-71307318D01*
X62341350Y-71198050D01*
X62232082Y-71117407D01*
X62232080Y-71117406D01*
X62103900Y-71072553D01*
X62073470Y-71069700D01*
X62073466Y-71069700D01*
X61014934Y-71069700D01*
X61014930Y-71069700D01*
X60984501Y-71072553D01*
X60935105Y-71089838D01*
X60865326Y-71093399D01*
X60806470Y-71060477D01*
X60533019Y-70787026D01*
X60499534Y-70725703D01*
X60496700Y-70699345D01*
X60496700Y-70686639D01*
X60486773Y-70618508D01*
X60486773Y-70618507D01*
X60435398Y-70513417D01*
X60435396Y-70513415D01*
X60435396Y-70513414D01*
X60423457Y-70501475D01*
X60389972Y-70440152D01*
X60394956Y-70370460D01*
X60423457Y-70326113D01*
X60491944Y-70257626D01*
X60798060Y-69951510D01*
X60832822Y-69891300D01*
X60837621Y-69882988D01*
X60846311Y-69850552D01*
X60878407Y-69794963D01*
X60882600Y-69790771D01*
X60909806Y-69763565D01*
X60955185Y-69660791D01*
X60958100Y-69635665D01*
X60958099Y-68386299D01*
X60977784Y-68319261D01*
X61030587Y-68273506D01*
X61082099Y-68262300D01*
X61318567Y-68262300D01*
X61385606Y-68281985D01*
X61406248Y-68298619D01*
X62140618Y-69032989D01*
X62174103Y-69094312D01*
X62175675Y-69103023D01*
X62193302Y-69225625D01*
X62247117Y-69343461D01*
X62247118Y-69343463D01*
X62331951Y-69441367D01*
X62440931Y-69511404D01*
X62547835Y-69542793D01*
X62565225Y-69547899D01*
X62565227Y-69547900D01*
X62565228Y-69547900D01*
X62694773Y-69547900D01*
X62694773Y-69547899D01*
X62819069Y-69511404D01*
X62928049Y-69441367D01*
X63012882Y-69343463D01*
X63066697Y-69225626D01*
X63085133Y-69097400D01*
X63066697Y-68969174D01*
X63012882Y-68851337D01*
X62928049Y-68753433D01*
X62819069Y-68683396D01*
X62819065Y-68683394D01*
X62819064Y-68683394D01*
X62694774Y-68646900D01*
X62694772Y-68646900D01*
X62655833Y-68646900D01*
X62588794Y-68627215D01*
X62568152Y-68610581D01*
X62131552Y-68173981D01*
X62098067Y-68112658D01*
X62103051Y-68042966D01*
X62144923Y-67987033D01*
X62210387Y-67962616D01*
X62219233Y-67962300D01*
X62431907Y-67962300D01*
X62498946Y-67981985D01*
G37*
G04 #@! TD.AperFunction*
G04 #@! TA.AperFunction,Conductor*
G36*
X56382685Y-69842057D02*
G01*
X56487604Y-69888383D01*
X56487609Y-69888385D01*
X56512735Y-69891300D01*
X56585996Y-69891299D01*
X56653034Y-69910983D01*
X56698790Y-69963786D01*
X56708734Y-70032944D01*
X56708734Y-70032945D01*
X56694867Y-70129398D01*
X56694867Y-70129399D01*
X56713302Y-70257626D01*
X56713303Y-70257628D01*
X56714314Y-70259841D01*
X56714659Y-70262247D01*
X56715801Y-70266133D01*
X56715242Y-70266297D01*
X56724256Y-70329000D01*
X56695230Y-70392555D01*
X56655984Y-70422748D01*
X56639717Y-70430700D01*
X56557003Y-70513414D01*
X56505626Y-70618508D01*
X56495700Y-70686639D01*
X56495700Y-70686640D01*
X56495700Y-71053160D01*
X56501563Y-71093399D01*
X56502883Y-71102457D01*
X56493069Y-71171634D01*
X56447413Y-71224523D01*
X56380411Y-71244334D01*
X56313334Y-71224775D01*
X56292497Y-71208015D01*
X56162869Y-71078387D01*
X56129384Y-71017064D01*
X56127454Y-70975757D01*
X56128445Y-70967600D01*
X56107940Y-70798728D01*
X56047618Y-70639670D01*
X55950983Y-70499671D01*
X55823652Y-70386866D01*
X55823650Y-70386865D01*
X55818038Y-70381893D01*
X55819602Y-70380127D01*
X55782865Y-70334786D01*
X55773300Y-70287030D01*
X55773300Y-70015299D01*
X55792985Y-69948260D01*
X55845789Y-69902505D01*
X55897295Y-69891299D01*
X56152464Y-69891299D01*
X56152479Y-69891297D01*
X56152482Y-69891297D01*
X56177587Y-69888386D01*
X56177587Y-69888385D01*
X56177591Y-69888385D01*
X56280365Y-69843006D01*
X56280366Y-69843004D01*
X56282512Y-69842057D01*
X56351790Y-69832985D01*
X56382685Y-69842057D01*
G37*
G04 #@! TD.AperFunction*
G04 #@! TA.AperFunction,Conductor*
G36*
X54423065Y-64116216D02*
G01*
X54424325Y-64113365D01*
X54434834Y-64118005D01*
X54434835Y-64118006D01*
X54537609Y-64163385D01*
X54562735Y-64166300D01*
X54852464Y-64166299D01*
X54852479Y-64166297D01*
X54852482Y-64166297D01*
X54877587Y-64163386D01*
X54877587Y-64163385D01*
X54877591Y-64163385D01*
X54980365Y-64118006D01*
X54980366Y-64118004D01*
X54982512Y-64117057D01*
X55051790Y-64107985D01*
X55082685Y-64117057D01*
X55187604Y-64163383D01*
X55187609Y-64163385D01*
X55212735Y-64166300D01*
X55502464Y-64166299D01*
X55502479Y-64166297D01*
X55502482Y-64166297D01*
X55527587Y-64163386D01*
X55527587Y-64163385D01*
X55527591Y-64163385D01*
X55630365Y-64118006D01*
X55630366Y-64118004D01*
X55632512Y-64117057D01*
X55701790Y-64107985D01*
X55732685Y-64117057D01*
X55837604Y-64163383D01*
X55837609Y-64163385D01*
X55862735Y-64166300D01*
X55866294Y-64166713D01*
X55866078Y-64168569D01*
X55924939Y-64189523D01*
X55967645Y-64244822D01*
X55973675Y-64314431D01*
X55941114Y-64376249D01*
X55900995Y-64400464D01*
X55902203Y-64403109D01*
X55894136Y-64406793D01*
X55894131Y-64406795D01*
X55894131Y-64406796D01*
X55882299Y-64414400D01*
X55785150Y-64476833D01*
X55700318Y-64574737D01*
X55700317Y-64574738D01*
X55646502Y-64692574D01*
X55628067Y-64820800D01*
X55646502Y-64949025D01*
X55700317Y-65066861D01*
X55700318Y-65066863D01*
X55785151Y-65164767D01*
X55894131Y-65234804D01*
X56018425Y-65271299D01*
X56018427Y-65271300D01*
X56018428Y-65271300D01*
X56147973Y-65271300D01*
X56147973Y-65271299D01*
X56272269Y-65234804D01*
X56381249Y-65164767D01*
X56466082Y-65066863D01*
X56519897Y-64949026D01*
X56538333Y-64820800D01*
X56519897Y-64692574D01*
X56466082Y-64574737D01*
X56381249Y-64476833D01*
X56272269Y-64406796D01*
X56272265Y-64406794D01*
X56272264Y-64406794D01*
X56209543Y-64388378D01*
X56150765Y-64350605D01*
X56121739Y-64287049D01*
X56131682Y-64217891D01*
X56177436Y-64165086D01*
X56194384Y-64155970D01*
X56280365Y-64118006D01*
X56280366Y-64118004D01*
X56282512Y-64117057D01*
X56351791Y-64107985D01*
X56382685Y-64117057D01*
X56487604Y-64163383D01*
X56487609Y-64163385D01*
X56512735Y-64166300D01*
X56802464Y-64166299D01*
X56802479Y-64166297D01*
X56802482Y-64166297D01*
X56827587Y-64163386D01*
X56827587Y-64163385D01*
X56827591Y-64163385D01*
X56930365Y-64118006D01*
X56930366Y-64118004D01*
X56932512Y-64117057D01*
X57001790Y-64107985D01*
X57032685Y-64117057D01*
X57137604Y-64163383D01*
X57137609Y-64163385D01*
X57162735Y-64166300D01*
X57452464Y-64166299D01*
X57452479Y-64166297D01*
X57452482Y-64166297D01*
X57477587Y-64163386D01*
X57477587Y-64163385D01*
X57477591Y-64163385D01*
X57580365Y-64118006D01*
X57580366Y-64118004D01*
X57582512Y-64117057D01*
X57651790Y-64107985D01*
X57682685Y-64117057D01*
X57787604Y-64163383D01*
X57787609Y-64163385D01*
X57812735Y-64166300D01*
X57959034Y-64166299D01*
X58026073Y-64185983D01*
X58071828Y-64238787D01*
X58081772Y-64307945D01*
X58066467Y-64414399D01*
X58066467Y-64414400D01*
X58072283Y-64454854D01*
X58062339Y-64524012D01*
X58016584Y-64576816D01*
X57949545Y-64596500D01*
X57916238Y-64596500D01*
X57885667Y-64604691D01*
X57839808Y-64616979D01*
X57839807Y-64616980D01*
X57791228Y-64645028D01*
X57791227Y-64645028D01*
X57771295Y-64656535D01*
X57771287Y-64656541D01*
X54461781Y-67966048D01*
X54400458Y-67999533D01*
X54330766Y-67994549D01*
X54274833Y-67952677D01*
X54250416Y-67887213D01*
X54250100Y-67878367D01*
X54250100Y-64226704D01*
X54269785Y-64159665D01*
X54322589Y-64113910D01*
X54391747Y-64103966D01*
X54423065Y-64116216D01*
G37*
G04 #@! TD.AperFunction*
G04 #@! TA.AperFunction,Conductor*
G36*
X64390434Y-65521483D02*
G01*
X64446367Y-65563355D01*
X64470784Y-65628819D01*
X64471100Y-65637665D01*
X64471100Y-66417745D01*
X64451415Y-66484784D01*
X64398611Y-66530539D01*
X64329453Y-66540483D01*
X64289475Y-66527542D01*
X64232825Y-66497809D01*
X64067656Y-66457100D01*
X63897544Y-66457100D01*
X63732373Y-66497810D01*
X63581750Y-66576863D01*
X63454410Y-66689676D01*
X63451884Y-66692529D01*
X63449512Y-66694016D01*
X63448803Y-66694645D01*
X63448698Y-66694527D01*
X63392694Y-66729654D01*
X63359071Y-66734300D01*
X59311505Y-66734300D01*
X59244466Y-66714615D01*
X59198711Y-66661811D01*
X59166102Y-66590410D01*
X59156160Y-66521253D01*
X59185185Y-66457697D01*
X59243964Y-66419923D01*
X59278898Y-66414900D01*
X63309592Y-66414900D01*
X63309594Y-66414900D01*
X63386021Y-66394421D01*
X63454543Y-66354860D01*
X63510492Y-66298911D01*
X64259419Y-65549984D01*
X64320742Y-65516499D01*
X64390434Y-65521483D01*
G37*
G04 #@! TD.AperFunction*
G04 #@! TA.AperFunction,Conductor*
G36*
X60637005Y-61574986D02*
G01*
X60692938Y-61616858D01*
X60712647Y-61656231D01*
X60713701Y-61659823D01*
X60730668Y-61696974D01*
X60767518Y-61777663D01*
X60791387Y-61805210D01*
X60820412Y-61868765D01*
X60810468Y-61937923D01*
X60779433Y-61979640D01*
X60757600Y-61998787D01*
X60757600Y-63028300D01*
X61257599Y-63028300D01*
X61257599Y-62551475D01*
X61242157Y-62434171D01*
X61242155Y-62434166D01*
X61181700Y-62288212D01*
X61181698Y-62288209D01*
X61099883Y-62181587D01*
X61074688Y-62116418D01*
X61088726Y-62047973D01*
X61137540Y-61997983D01*
X61198258Y-61982100D01*
X61215173Y-61982100D01*
X61215173Y-61982099D01*
X61320693Y-61951117D01*
X61339466Y-61945605D01*
X61339466Y-61945604D01*
X61339469Y-61945604D01*
X61339470Y-61945602D01*
X61347531Y-61941922D01*
X61348202Y-61943392D01*
X61405488Y-61926566D01*
X61472529Y-61946244D01*
X61518289Y-61999043D01*
X61529500Y-62050566D01*
X61529500Y-62860162D01*
X61538211Y-62892670D01*
X61549980Y-62936593D01*
X61551283Y-62939738D01*
X61551590Y-62942601D01*
X61552083Y-62944439D01*
X61551796Y-62944515D01*
X61558747Y-63009208D01*
X61552663Y-63031149D01*
X61544860Y-63051726D01*
X61524355Y-63220600D01*
X61544859Y-63389469D01*
X61544860Y-63389474D01*
X61605182Y-63548531D01*
X61609139Y-63554263D01*
X61701817Y-63688529D01*
X61787502Y-63764439D01*
X61829150Y-63801336D01*
X61979773Y-63880389D01*
X61979775Y-63880390D01*
X62144944Y-63921100D01*
X62315056Y-63921100D01*
X62480225Y-63880390D01*
X62630852Y-63801334D01*
X62739273Y-63705282D01*
X62802506Y-63675560D01*
X62871769Y-63684744D01*
X62925073Y-63729916D01*
X62945493Y-63796735D01*
X62945500Y-63798097D01*
X62945500Y-64189175D01*
X62925815Y-64256214D01*
X62909181Y-64276856D01*
X62625856Y-64560181D01*
X62564533Y-64593666D01*
X62538175Y-64596500D01*
X61056233Y-64596500D01*
X60989194Y-64576815D01*
X60943439Y-64524011D01*
X60933495Y-64454853D01*
X60962520Y-64391297D01*
X60980746Y-64374124D01*
X61085524Y-64293724D01*
X61181700Y-64168386D01*
X61242154Y-64022434D01*
X61242155Y-64022430D01*
X61257599Y-63905130D01*
X61257600Y-63905116D01*
X61257600Y-63428300D01*
X60481600Y-63428300D01*
X60414561Y-63408615D01*
X60368806Y-63355811D01*
X60357600Y-63304300D01*
X60357600Y-61998787D01*
X60325591Y-61970717D01*
X60288167Y-61911716D01*
X60288583Y-61841847D01*
X60319667Y-61789809D01*
X60505990Y-61603486D01*
X60567313Y-61570002D01*
X60637005Y-61574986D01*
G37*
G04 #@! TD.AperFunction*
G04 #@! TA.AperFunction,Conductor*
G36*
X65007939Y-60543585D02*
G01*
X65053694Y-60596389D01*
X65064900Y-60647900D01*
X65064900Y-61183910D01*
X65045215Y-61250949D01*
X64992411Y-61296704D01*
X64923253Y-61306648D01*
X64905968Y-61302888D01*
X64885573Y-61296900D01*
X64885572Y-61296900D01*
X64756028Y-61296900D01*
X64756026Y-61296900D01*
X64631735Y-61333394D01*
X64631732Y-61333395D01*
X64631731Y-61333396D01*
X64589734Y-61360386D01*
X64522750Y-61403433D01*
X64437918Y-61501337D01*
X64437917Y-61501338D01*
X64384102Y-61619174D01*
X64365667Y-61747400D01*
X64384102Y-61875625D01*
X64437917Y-61993461D01*
X64437918Y-61993463D01*
X64490014Y-62053586D01*
X64519038Y-62117138D01*
X64520300Y-62134786D01*
X64520300Y-63038639D01*
X64500615Y-63105678D01*
X64483981Y-63126320D01*
X63758181Y-63852120D01*
X63696858Y-63885605D01*
X63627166Y-63880621D01*
X63571233Y-63838749D01*
X63546816Y-63773285D01*
X63546500Y-63764439D01*
X63546500Y-61274235D01*
X63566185Y-61207196D01*
X63612283Y-61167251D01*
X63611608Y-61166200D01*
X63618919Y-61161501D01*
X63618989Y-61161441D01*
X63618996Y-61161437D01*
X63619064Y-61161405D01*
X63619069Y-61161404D01*
X63619073Y-61161401D01*
X63619076Y-61161400D01*
X63728048Y-61091368D01*
X63736284Y-61081863D01*
X63795061Y-61044086D01*
X63864930Y-61044084D01*
X63923710Y-61081856D01*
X63923716Y-61081863D01*
X63931949Y-61091366D01*
X63932643Y-61091812D01*
X64040931Y-61161404D01*
X64130261Y-61187633D01*
X64165225Y-61197899D01*
X64165227Y-61197900D01*
X64165228Y-61197900D01*
X64294773Y-61197900D01*
X64294773Y-61197899D01*
X64419069Y-61161404D01*
X64528049Y-61091367D01*
X64612882Y-60993463D01*
X64666697Y-60875626D01*
X64684324Y-60753021D01*
X64713349Y-60689467D01*
X64719351Y-60683018D01*
X64842153Y-60560217D01*
X64903476Y-60526734D01*
X64929833Y-60523900D01*
X64940900Y-60523900D01*
X65007939Y-60543585D01*
G37*
G04 #@! TD.AperFunction*
G04 #@! TA.AperFunction,Conductor*
G36*
X57668127Y-49240585D02*
G01*
X57713882Y-49293389D01*
X57723826Y-49362547D01*
X57694801Y-49426103D01*
X57663090Y-49452285D01*
X57610689Y-49482540D01*
X57610686Y-49482542D01*
X57246860Y-49846369D01*
X56940089Y-50153140D01*
X56915931Y-50177298D01*
X56906913Y-50186316D01*
X56845589Y-50219800D01*
X56775898Y-50214814D01*
X56723380Y-50177298D01*
X56601010Y-50028190D01*
X56450721Y-49904852D01*
X56441050Y-49896915D01*
X56258554Y-49799368D01*
X56060534Y-49739300D01*
X56060532Y-49739299D01*
X56060534Y-49739299D01*
X55854600Y-49719017D01*
X55648667Y-49739299D01*
X55450643Y-49799369D01*
X55362714Y-49846369D01*
X55268150Y-49896915D01*
X55268148Y-49896916D01*
X55268147Y-49896917D01*
X55108189Y-50028189D01*
X54978420Y-50186316D01*
X54976915Y-50188150D01*
X54959998Y-50219800D01*
X54879369Y-50370643D01*
X54819299Y-50568667D01*
X54799017Y-50774600D01*
X54819299Y-50980532D01*
X54819300Y-50980534D01*
X54879368Y-51178554D01*
X54976915Y-51361050D01*
X55043354Y-51442006D01*
X55070666Y-51506313D01*
X55071500Y-51520669D01*
X55071500Y-61495367D01*
X55051815Y-61562406D01*
X55035181Y-61583048D01*
X54461781Y-62156448D01*
X54400458Y-62189933D01*
X54330766Y-62184949D01*
X54274833Y-62143077D01*
X54250416Y-62077613D01*
X54250100Y-62068767D01*
X54250100Y-49344900D01*
X54269785Y-49277861D01*
X54322589Y-49232106D01*
X54374100Y-49220900D01*
X57601088Y-49220900D01*
X57668127Y-49240585D01*
G37*
G04 #@! TD.AperFunction*
G04 #@! TA.AperFunction,Conductor*
G36*
X62810391Y-51589550D02*
G01*
X62822017Y-51598012D01*
X62853731Y-51624038D01*
X62888150Y-51652285D01*
X63070646Y-51749832D01*
X63268666Y-51809900D01*
X63268665Y-51809900D01*
X63275184Y-51810542D01*
X63474600Y-51830183D01*
X63680534Y-51809900D01*
X63791997Y-51776088D01*
X63861864Y-51775464D01*
X63915674Y-51807067D01*
X65485181Y-53376574D01*
X65518666Y-53437897D01*
X65521500Y-53464255D01*
X65521500Y-54984500D01*
X65501815Y-55051539D01*
X65449011Y-55097294D01*
X65397500Y-55108500D01*
X63925247Y-55108500D01*
X63866770Y-55120131D01*
X63866769Y-55120132D01*
X63800447Y-55164447D01*
X63756132Y-55230769D01*
X63756131Y-55230770D01*
X63744500Y-55289247D01*
X63744500Y-56683167D01*
X63724815Y-56750206D01*
X63708181Y-56770848D01*
X63259541Y-57219487D01*
X63259535Y-57219495D01*
X63219982Y-57288004D01*
X63219979Y-57288009D01*
X63218399Y-57293907D01*
X63201733Y-57356107D01*
X63199500Y-57364439D01*
X63199500Y-57892276D01*
X63179815Y-57959315D01*
X63127011Y-58005070D01*
X63057853Y-58015014D01*
X62994297Y-57985989D01*
X62979647Y-57970941D01*
X62958647Y-57945352D01*
X62802495Y-57817203D01*
X62802488Y-57817198D01*
X62624345Y-57721978D01*
X62431031Y-57663337D01*
X62230000Y-57643538D01*
X62028968Y-57663337D01*
X61835654Y-57721978D01*
X61657511Y-57817198D01*
X61657504Y-57817203D01*
X61501352Y-57945352D01*
X61373203Y-58101504D01*
X61373198Y-58101511D01*
X61277980Y-58279651D01*
X61277976Y-58279661D01*
X61276205Y-58285500D01*
X61237906Y-58343937D01*
X61174092Y-58372391D01*
X61157546Y-58373500D01*
X61138191Y-58373500D01*
X61099977Y-58383739D01*
X61061762Y-58393979D01*
X61061757Y-58393982D01*
X60993248Y-58433535D01*
X60993244Y-58433538D01*
X60905869Y-58520913D01*
X60844545Y-58554397D01*
X60774854Y-58549413D01*
X60718920Y-58507541D01*
X60699527Y-58469226D01*
X60698144Y-58464666D01*
X60642023Y-58279659D01*
X60642021Y-58279656D01*
X60642021Y-58279654D01*
X60546801Y-58101511D01*
X60546799Y-58101509D01*
X60546798Y-58101506D01*
X60475121Y-58014167D01*
X60418647Y-57945352D01*
X60393059Y-57924353D01*
X60353725Y-57866608D01*
X60351854Y-57796763D01*
X60388041Y-57736995D01*
X60450797Y-57706279D01*
X60471724Y-57704500D01*
X60999560Y-57704500D01*
X60999562Y-57704500D01*
X61075989Y-57684021D01*
X61144511Y-57644460D01*
X61200460Y-57588511D01*
X61684147Y-57104822D01*
X61745468Y-57071339D01*
X61815159Y-57076323D01*
X61830279Y-57083147D01*
X61835659Y-57086023D01*
X62028967Y-57144662D01*
X62230000Y-57164462D01*
X62431033Y-57144662D01*
X62624341Y-57086023D01*
X62642489Y-57076323D01*
X62727261Y-57031011D01*
X62802494Y-56990798D01*
X62958647Y-56862647D01*
X63086798Y-56706494D01*
X63182023Y-56528341D01*
X63240662Y-56335033D01*
X63260462Y-56134000D01*
X63240662Y-55932967D01*
X63182023Y-55739659D01*
X63182021Y-55739656D01*
X63182021Y-55739654D01*
X63086801Y-55561511D01*
X63086799Y-55561509D01*
X63086798Y-55561506D01*
X63047824Y-55514016D01*
X62958647Y-55405352D01*
X62802495Y-55277203D01*
X62802488Y-55277198D01*
X62624345Y-55181978D01*
X62431031Y-55123337D01*
X62230000Y-55103538D01*
X62028968Y-55123337D01*
X61835654Y-55181978D01*
X61657511Y-55277198D01*
X61657504Y-55277203D01*
X61501352Y-55405352D01*
X61373203Y-55561504D01*
X61373198Y-55561511D01*
X61277978Y-55739654D01*
X61219337Y-55932968D01*
X61199538Y-56134000D01*
X61219337Y-56335031D01*
X61277979Y-56528346D01*
X61280853Y-56533723D01*
X61295093Y-56602126D01*
X61270090Y-56667369D01*
X61259174Y-56679853D01*
X60871848Y-57067181D01*
X60810525Y-57100666D01*
X60784167Y-57103500D01*
X60471724Y-57103500D01*
X60404685Y-57083815D01*
X60358930Y-57031011D01*
X60348986Y-56961853D01*
X60378011Y-56898297D01*
X60393059Y-56883647D01*
X60418647Y-56862647D01*
X60493984Y-56770848D01*
X60546798Y-56706494D01*
X60642023Y-56528341D01*
X60700662Y-56335033D01*
X60720462Y-56134000D01*
X60700662Y-55932967D01*
X60642023Y-55739659D01*
X60642021Y-55739656D01*
X60642021Y-55739654D01*
X60546801Y-55561511D01*
X60546799Y-55561509D01*
X60546798Y-55561506D01*
X60507824Y-55514016D01*
X60418647Y-55405352D01*
X60262495Y-55277203D01*
X60262488Y-55277198D01*
X60084347Y-55181979D01*
X60084341Y-55181977D01*
X59894770Y-55124471D01*
X59836333Y-55086174D01*
X59807877Y-55022362D01*
X59818437Y-54953295D01*
X59843083Y-54918133D01*
X60354416Y-54406800D01*
X61038267Y-54406800D01*
X61056702Y-54535025D01*
X61110517Y-54652861D01*
X61110518Y-54652863D01*
X61195351Y-54750767D01*
X61304331Y-54820804D01*
X61428625Y-54857299D01*
X61428627Y-54857300D01*
X61428628Y-54857300D01*
X61558173Y-54857300D01*
X61558173Y-54857299D01*
X61682469Y-54820804D01*
X61791449Y-54750767D01*
X61876282Y-54652863D01*
X61930097Y-54535026D01*
X61948533Y-54406800D01*
X61930097Y-54278574D01*
X61876282Y-54160737D01*
X61791449Y-54062833D01*
X61682469Y-53992796D01*
X61682465Y-53992794D01*
X61682464Y-53992794D01*
X61558174Y-53956300D01*
X61558172Y-53956300D01*
X61428628Y-53956300D01*
X61428626Y-53956300D01*
X61304335Y-53992794D01*
X61304332Y-53992795D01*
X61304331Y-53992796D01*
X61253077Y-54025734D01*
X61195350Y-54062833D01*
X61110518Y-54160737D01*
X61110517Y-54160738D01*
X61056702Y-54278574D01*
X61038267Y-54406800D01*
X60354416Y-54406800D01*
X62470460Y-52290758D01*
X62510022Y-52222235D01*
X62530500Y-52145809D01*
X62530500Y-52066685D01*
X62530500Y-51822386D01*
X62550185Y-51755347D01*
X62560778Y-51741194D01*
X62612882Y-51681063D01*
X62630560Y-51642353D01*
X62676312Y-51589552D01*
X62743351Y-51569866D01*
X62810391Y-51589550D01*
G37*
G04 #@! TD.AperFunction*
G04 #@! TA.AperFunction,Conductor*
G36*
X65464539Y-57179185D02*
G01*
X65510294Y-57231989D01*
X65521500Y-57283500D01*
X65521500Y-57304744D01*
X65501815Y-57371783D01*
X65485181Y-57392425D01*
X65210211Y-57667394D01*
X65148888Y-57700879D01*
X65086536Y-57698374D01*
X64971033Y-57663338D01*
X64770000Y-57643538D01*
X64568968Y-57663337D01*
X64375654Y-57721978D01*
X64197511Y-57817198D01*
X64197504Y-57817203D01*
X64041352Y-57945352D01*
X64020353Y-57970941D01*
X63962608Y-58010275D01*
X63892763Y-58012146D01*
X63832995Y-57975959D01*
X63802279Y-57913203D01*
X63800500Y-57892276D01*
X63800500Y-57579833D01*
X63820185Y-57512794D01*
X63836819Y-57492152D01*
X64133152Y-57195819D01*
X64194475Y-57162334D01*
X64220833Y-57159500D01*
X65397500Y-57159500D01*
X65464539Y-57179185D01*
G37*
G04 #@! TD.AperFunction*
G04 #@! TA.AperFunction,Conductor*
G36*
X57630303Y-51502018D02*
G01*
X57644955Y-51517068D01*
X57648190Y-51521011D01*
X57731709Y-51589552D01*
X57808150Y-51652285D01*
X57856065Y-51677896D01*
X57905909Y-51726859D01*
X57921369Y-51794997D01*
X57897537Y-51860676D01*
X57885292Y-51874935D01*
X57063889Y-52696340D01*
X57007941Y-52752287D01*
X57007935Y-52752295D01*
X56968382Y-52820804D01*
X56968379Y-52820809D01*
X56947900Y-52897239D01*
X56947900Y-57564611D01*
X56928215Y-57631650D01*
X56875411Y-57677405D01*
X56806253Y-57687349D01*
X56756861Y-57668927D01*
X56739693Y-57657894D01*
X56649862Y-57600163D01*
X56649858Y-57600161D01*
X56649857Y-57600161D01*
X56525567Y-57563667D01*
X56525565Y-57563667D01*
X56396021Y-57563667D01*
X56396019Y-57563667D01*
X56271728Y-57600161D01*
X56271725Y-57600162D01*
X56271724Y-57600163D01*
X56202790Y-57644464D01*
X56163539Y-57669689D01*
X56096499Y-57689373D01*
X56029460Y-57669688D01*
X55983705Y-57616884D01*
X55972500Y-57565373D01*
X55972500Y-53292033D01*
X55992185Y-53224994D01*
X56008819Y-53204352D01*
X56536995Y-52676176D01*
X57365060Y-51848111D01*
X57404622Y-51779588D01*
X57425100Y-51703162D01*
X57425100Y-51624038D01*
X57425100Y-51595731D01*
X57444785Y-51528692D01*
X57497589Y-51482937D01*
X57566747Y-51472993D01*
X57630303Y-51502018D01*
G37*
G04 #@! TD.AperFunction*
G04 #@! TA.AperFunction,Conductor*
G36*
X60005080Y-50043185D02*
G01*
X60050835Y-50095989D01*
X60060779Y-50165147D01*
X60047399Y-50205951D01*
X60039998Y-50219800D01*
X59959369Y-50370643D01*
X59899299Y-50568667D01*
X59879017Y-50774600D01*
X59899299Y-50980532D01*
X59899300Y-50980534D01*
X59959368Y-51178554D01*
X60056915Y-51361050D01*
X60056917Y-51361052D01*
X60188189Y-51521010D01*
X60271707Y-51589550D01*
X60348150Y-51652285D01*
X60530646Y-51749832D01*
X60546096Y-51754518D01*
X60604532Y-51792812D01*
X60632990Y-51856624D01*
X60634100Y-51873178D01*
X60634100Y-52763366D01*
X60614415Y-52830405D01*
X60597781Y-52851047D01*
X57760581Y-55688247D01*
X57699258Y-55721732D01*
X57629566Y-55716748D01*
X57573633Y-55674876D01*
X57549216Y-55609412D01*
X57548900Y-55600566D01*
X57548900Y-53112633D01*
X57568585Y-53045594D01*
X57585219Y-53024952D01*
X58102622Y-52507549D01*
X58635060Y-51975111D01*
X58674622Y-51906588D01*
X58691540Y-51843444D01*
X58727903Y-51783787D01*
X58775316Y-51756880D01*
X58798554Y-51749832D01*
X58981050Y-51652285D01*
X59141010Y-51521010D01*
X59272285Y-51361050D01*
X59369832Y-51178554D01*
X59429900Y-50980534D01*
X59450183Y-50774600D01*
X59429900Y-50568666D01*
X59369832Y-50370646D01*
X59281800Y-50205952D01*
X59267559Y-50137551D01*
X59292559Y-50072307D01*
X59348863Y-50030936D01*
X59391159Y-50023500D01*
X59938041Y-50023500D01*
X60005080Y-50043185D01*
G37*
G04 #@! TD.AperFunction*
G04 #@! TA.AperFunction,Conductor*
G36*
X66527703Y-53544072D02*
G01*
X66534181Y-53550104D01*
X66928761Y-53944684D01*
X66962246Y-54006007D01*
X66957262Y-54075699D01*
X66928761Y-54120046D01*
X66534181Y-54514626D01*
X66472858Y-54548111D01*
X66403166Y-54543127D01*
X66347233Y-54501255D01*
X66322816Y-54435791D01*
X66322500Y-54426945D01*
X66322500Y-53637785D01*
X66342185Y-53570746D01*
X66394989Y-53524991D01*
X66464147Y-53515047D01*
X66527703Y-53544072D01*
G37*
G04 #@! TD.AperFunction*
G04 #@! TA.AperFunction,Conductor*
G36*
X56417267Y-51747188D02*
G01*
X56458639Y-51803492D01*
X56463003Y-51873226D01*
X56429757Y-51933471D01*
X55884181Y-52479048D01*
X55822858Y-52512533D01*
X55753167Y-52507549D01*
X55697233Y-52465678D01*
X55672816Y-52400213D01*
X55672500Y-52391367D01*
X55672500Y-51949060D01*
X55692185Y-51882021D01*
X55744989Y-51836266D01*
X55808653Y-51825657D01*
X55854600Y-51830183D01*
X56060534Y-51809900D01*
X56258554Y-51749832D01*
X56283622Y-51736432D01*
X56352023Y-51722190D01*
X56417267Y-51747188D01*
G37*
G04 #@! TD.AperFunction*
G04 #@! TA.AperFunction,Conductor*
G36*
X61757310Y-51552166D02*
G01*
X61808870Y-51599318D01*
X61815589Y-51612026D01*
X61847118Y-51681063D01*
X61899214Y-51741186D01*
X61928238Y-51804738D01*
X61929500Y-51822386D01*
X61929500Y-51930414D01*
X61909815Y-51997453D01*
X61893181Y-52018095D01*
X61446781Y-52464495D01*
X61385458Y-52497980D01*
X61315766Y-52492996D01*
X61259833Y-52451124D01*
X61235416Y-52385660D01*
X61235100Y-52376814D01*
X61235100Y-51873178D01*
X61254785Y-51806139D01*
X61307589Y-51760384D01*
X61323088Y-51754523D01*
X61338554Y-51749832D01*
X61521050Y-51652285D01*
X61624132Y-51567687D01*
X61688442Y-51540375D01*
X61757310Y-51552166D01*
G37*
G04 #@! TD.AperFunction*
M02*
