%TF.GenerationSoftware,KiCad,Pcbnew,8.0.2*%
%TF.CreationDate,2024-05-04T17:16:57+02:00*%
%TF.ProjectId,AVRinator,41565269-6e61-4746-9f72-2e6b69636164,1.0*%
%TF.SameCoordinates,Original*%
%TF.FileFunction,Drillmap*%
%TF.FilePolarity,Positive*%
%FSLAX45Y45*%
G04 Gerber Fmt 4.5, Leading zero omitted, Abs format (unit mm)*
G04 Created by KiCad (PCBNEW 8.0.2) date 2024-05-04 17:16:57*
%MOMM*%
%LPD*%
G01*
G04 APERTURE LIST*
%ADD10C,0.100000*%
%ADD11C,0.200000*%
G04 APERTURE END LIST*
D10*
X5394960Y-4892040D02*
X7048500Y-4892040D01*
X7048500Y-8255000D01*
X5394960Y-8255000D01*
X5394960Y-4892040D01*
D11*
D10*
X5901500Y-7733600D02*
X5966500Y-7798600D01*
X5966500Y-7733600D02*
X5901500Y-7798600D01*
X6479500Y-7733600D02*
X6544500Y-7798600D01*
X6544500Y-7733600D02*
X6479500Y-7798600D01*
D11*
X5650737Y-8571484D02*
X5650737Y-8371484D01*
X5650737Y-8371484D02*
X5698356Y-8371484D01*
X5698356Y-8371484D02*
X5726927Y-8381008D01*
X5726927Y-8381008D02*
X5745975Y-8400055D01*
X5745975Y-8400055D02*
X5755499Y-8419103D01*
X5755499Y-8419103D02*
X5765022Y-8457198D01*
X5765022Y-8457198D02*
X5765022Y-8485770D01*
X5765022Y-8485770D02*
X5755499Y-8523865D01*
X5755499Y-8523865D02*
X5745975Y-8542912D01*
X5745975Y-8542912D02*
X5726927Y-8561960D01*
X5726927Y-8561960D02*
X5698356Y-8571484D01*
X5698356Y-8571484D02*
X5650737Y-8571484D01*
X5850737Y-8571484D02*
X5850737Y-8438150D01*
X5850737Y-8476246D02*
X5860261Y-8457198D01*
X5860261Y-8457198D02*
X5869784Y-8447674D01*
X5869784Y-8447674D02*
X5888832Y-8438150D01*
X5888832Y-8438150D02*
X5907880Y-8438150D01*
X5974546Y-8571484D02*
X5974546Y-8438150D01*
X5974546Y-8371484D02*
X5965022Y-8381008D01*
X5965022Y-8381008D02*
X5974546Y-8390531D01*
X5974546Y-8390531D02*
X5984070Y-8381008D01*
X5984070Y-8381008D02*
X5974546Y-8371484D01*
X5974546Y-8371484D02*
X5974546Y-8390531D01*
X6098356Y-8571484D02*
X6079308Y-8561960D01*
X6079308Y-8561960D02*
X6069784Y-8542912D01*
X6069784Y-8542912D02*
X6069784Y-8371484D01*
X6203118Y-8571484D02*
X6184070Y-8561960D01*
X6184070Y-8561960D02*
X6174546Y-8542912D01*
X6174546Y-8542912D02*
X6174546Y-8371484D01*
X6431689Y-8571484D02*
X6431689Y-8371484D01*
X6431689Y-8371484D02*
X6498356Y-8514341D01*
X6498356Y-8514341D02*
X6565022Y-8371484D01*
X6565022Y-8371484D02*
X6565022Y-8571484D01*
X6745975Y-8571484D02*
X6745975Y-8466722D01*
X6745975Y-8466722D02*
X6736451Y-8447674D01*
X6736451Y-8447674D02*
X6717403Y-8438150D01*
X6717403Y-8438150D02*
X6679308Y-8438150D01*
X6679308Y-8438150D02*
X6660261Y-8447674D01*
X6745975Y-8561960D02*
X6726927Y-8571484D01*
X6726927Y-8571484D02*
X6679308Y-8571484D01*
X6679308Y-8571484D02*
X6660261Y-8561960D01*
X6660261Y-8561960D02*
X6650737Y-8542912D01*
X6650737Y-8542912D02*
X6650737Y-8523865D01*
X6650737Y-8523865D02*
X6660261Y-8504817D01*
X6660261Y-8504817D02*
X6679308Y-8495293D01*
X6679308Y-8495293D02*
X6726927Y-8495293D01*
X6726927Y-8495293D02*
X6745975Y-8485770D01*
X6841213Y-8438150D02*
X6841213Y-8638150D01*
X6841213Y-8447674D02*
X6860261Y-8438150D01*
X6860261Y-8438150D02*
X6898356Y-8438150D01*
X6898356Y-8438150D02*
X6917403Y-8447674D01*
X6917403Y-8447674D02*
X6926927Y-8457198D01*
X6926927Y-8457198D02*
X6936451Y-8476246D01*
X6936451Y-8476246D02*
X6936451Y-8533389D01*
X6936451Y-8533389D02*
X6926927Y-8552436D01*
X6926927Y-8552436D02*
X6917403Y-8561960D01*
X6917403Y-8561960D02*
X6898356Y-8571484D01*
X6898356Y-8571484D02*
X6860261Y-8571484D01*
X6860261Y-8571484D02*
X6841213Y-8561960D01*
X7022165Y-8552436D02*
X7031689Y-8561960D01*
X7031689Y-8561960D02*
X7022165Y-8571484D01*
X7022165Y-8571484D02*
X7012642Y-8561960D01*
X7012642Y-8561960D02*
X7022165Y-8552436D01*
X7022165Y-8552436D02*
X7022165Y-8571484D01*
X7022165Y-8447674D02*
X7031689Y-8457198D01*
X7031689Y-8457198D02*
X7022165Y-8466722D01*
X7022165Y-8466722D02*
X7012642Y-8457198D01*
X7012642Y-8457198D02*
X7022165Y-8447674D01*
X7022165Y-8447674D02*
X7022165Y-8466722D01*
D10*
X5324960Y-8867500D02*
X5389960Y-8932500D01*
X5389960Y-8867500D02*
X5324960Y-8932500D01*
D11*
X5688832Y-8791484D02*
X5707880Y-8791484D01*
X5707880Y-8791484D02*
X5726927Y-8801008D01*
X5726927Y-8801008D02*
X5736451Y-8810531D01*
X5736451Y-8810531D02*
X5745975Y-8829579D01*
X5745975Y-8829579D02*
X5755499Y-8867674D01*
X5755499Y-8867674D02*
X5755499Y-8915293D01*
X5755499Y-8915293D02*
X5745975Y-8953389D01*
X5745975Y-8953389D02*
X5736451Y-8972436D01*
X5736451Y-8972436D02*
X5726927Y-8981960D01*
X5726927Y-8981960D02*
X5707880Y-8991484D01*
X5707880Y-8991484D02*
X5688832Y-8991484D01*
X5688832Y-8991484D02*
X5669784Y-8981960D01*
X5669784Y-8981960D02*
X5660261Y-8972436D01*
X5660261Y-8972436D02*
X5650737Y-8953389D01*
X5650737Y-8953389D02*
X5641213Y-8915293D01*
X5641213Y-8915293D02*
X5641213Y-8867674D01*
X5641213Y-8867674D02*
X5650737Y-8829579D01*
X5650737Y-8829579D02*
X5660261Y-8810531D01*
X5660261Y-8810531D02*
X5669784Y-8801008D01*
X5669784Y-8801008D02*
X5688832Y-8791484D01*
X5841213Y-8972436D02*
X5850737Y-8981960D01*
X5850737Y-8981960D02*
X5841213Y-8991484D01*
X5841213Y-8991484D02*
X5831689Y-8981960D01*
X5831689Y-8981960D02*
X5841213Y-8972436D01*
X5841213Y-8972436D02*
X5841213Y-8991484D01*
X6022165Y-8791484D02*
X5984070Y-8791484D01*
X5984070Y-8791484D02*
X5965022Y-8801008D01*
X5965022Y-8801008D02*
X5955499Y-8810531D01*
X5955499Y-8810531D02*
X5936451Y-8839103D01*
X5936451Y-8839103D02*
X5926927Y-8877198D01*
X5926927Y-8877198D02*
X5926927Y-8953389D01*
X5926927Y-8953389D02*
X5936451Y-8972436D01*
X5936451Y-8972436D02*
X5945975Y-8981960D01*
X5945975Y-8981960D02*
X5965022Y-8991484D01*
X5965022Y-8991484D02*
X6003118Y-8991484D01*
X6003118Y-8991484D02*
X6022165Y-8981960D01*
X6022165Y-8981960D02*
X6031689Y-8972436D01*
X6031689Y-8972436D02*
X6041213Y-8953389D01*
X6041213Y-8953389D02*
X6041213Y-8905770D01*
X6041213Y-8905770D02*
X6031689Y-8886722D01*
X6031689Y-8886722D02*
X6022165Y-8877198D01*
X6022165Y-8877198D02*
X6003118Y-8867674D01*
X6003118Y-8867674D02*
X5965022Y-8867674D01*
X5965022Y-8867674D02*
X5945975Y-8877198D01*
X5945975Y-8877198D02*
X5936451Y-8886722D01*
X5936451Y-8886722D02*
X5926927Y-8905770D01*
X6222165Y-8791484D02*
X6126927Y-8791484D01*
X6126927Y-8791484D02*
X6117403Y-8886722D01*
X6117403Y-8886722D02*
X6126927Y-8877198D01*
X6126927Y-8877198D02*
X6145975Y-8867674D01*
X6145975Y-8867674D02*
X6193594Y-8867674D01*
X6193594Y-8867674D02*
X6212642Y-8877198D01*
X6212642Y-8877198D02*
X6222165Y-8886722D01*
X6222165Y-8886722D02*
X6231689Y-8905770D01*
X6231689Y-8905770D02*
X6231689Y-8953389D01*
X6231689Y-8953389D02*
X6222165Y-8972436D01*
X6222165Y-8972436D02*
X6212642Y-8981960D01*
X6212642Y-8981960D02*
X6193594Y-8991484D01*
X6193594Y-8991484D02*
X6145975Y-8991484D01*
X6145975Y-8991484D02*
X6126927Y-8981960D01*
X6126927Y-8981960D02*
X6117403Y-8972436D01*
X6355499Y-8791484D02*
X6374546Y-8791484D01*
X6374546Y-8791484D02*
X6393594Y-8801008D01*
X6393594Y-8801008D02*
X6403118Y-8810531D01*
X6403118Y-8810531D02*
X6412642Y-8829579D01*
X6412642Y-8829579D02*
X6422165Y-8867674D01*
X6422165Y-8867674D02*
X6422165Y-8915293D01*
X6422165Y-8915293D02*
X6412642Y-8953389D01*
X6412642Y-8953389D02*
X6403118Y-8972436D01*
X6403118Y-8972436D02*
X6393594Y-8981960D01*
X6393594Y-8981960D02*
X6374546Y-8991484D01*
X6374546Y-8991484D02*
X6355499Y-8991484D01*
X6355499Y-8991484D02*
X6336451Y-8981960D01*
X6336451Y-8981960D02*
X6326927Y-8972436D01*
X6326927Y-8972436D02*
X6317403Y-8953389D01*
X6317403Y-8953389D02*
X6307880Y-8915293D01*
X6307880Y-8915293D02*
X6307880Y-8867674D01*
X6307880Y-8867674D02*
X6317403Y-8829579D01*
X6317403Y-8829579D02*
X6326927Y-8810531D01*
X6326927Y-8810531D02*
X6336451Y-8801008D01*
X6336451Y-8801008D02*
X6355499Y-8791484D01*
X6507880Y-8991484D02*
X6507880Y-8858150D01*
X6507880Y-8877198D02*
X6517403Y-8867674D01*
X6517403Y-8867674D02*
X6536451Y-8858150D01*
X6536451Y-8858150D02*
X6565023Y-8858150D01*
X6565023Y-8858150D02*
X6584070Y-8867674D01*
X6584070Y-8867674D02*
X6593594Y-8886722D01*
X6593594Y-8886722D02*
X6593594Y-8991484D01*
X6593594Y-8886722D02*
X6603118Y-8867674D01*
X6603118Y-8867674D02*
X6622165Y-8858150D01*
X6622165Y-8858150D02*
X6650737Y-8858150D01*
X6650737Y-8858150D02*
X6669784Y-8867674D01*
X6669784Y-8867674D02*
X6679308Y-8886722D01*
X6679308Y-8886722D02*
X6679308Y-8991484D01*
X6774546Y-8991484D02*
X6774546Y-8858150D01*
X6774546Y-8877198D02*
X6784070Y-8867674D01*
X6784070Y-8867674D02*
X6803118Y-8858150D01*
X6803118Y-8858150D02*
X6831689Y-8858150D01*
X6831689Y-8858150D02*
X6850737Y-8867674D01*
X6850737Y-8867674D02*
X6860261Y-8886722D01*
X6860261Y-8886722D02*
X6860261Y-8991484D01*
X6860261Y-8886722D02*
X6869784Y-8867674D01*
X6869784Y-8867674D02*
X6888832Y-8858150D01*
X6888832Y-8858150D02*
X6917403Y-8858150D01*
X6917403Y-8858150D02*
X6936451Y-8867674D01*
X6936451Y-8867674D02*
X6945975Y-8886722D01*
X6945975Y-8886722D02*
X6945975Y-8991484D01*
X7336451Y-8781960D02*
X7165023Y-9039103D01*
X7593594Y-8791484D02*
X7612642Y-8791484D01*
X7612642Y-8791484D02*
X7631689Y-8801008D01*
X7631689Y-8801008D02*
X7641213Y-8810531D01*
X7641213Y-8810531D02*
X7650737Y-8829579D01*
X7650737Y-8829579D02*
X7660261Y-8867674D01*
X7660261Y-8867674D02*
X7660261Y-8915293D01*
X7660261Y-8915293D02*
X7650737Y-8953389D01*
X7650737Y-8953389D02*
X7641213Y-8972436D01*
X7641213Y-8972436D02*
X7631689Y-8981960D01*
X7631689Y-8981960D02*
X7612642Y-8991484D01*
X7612642Y-8991484D02*
X7593594Y-8991484D01*
X7593594Y-8991484D02*
X7574546Y-8981960D01*
X7574546Y-8981960D02*
X7565023Y-8972436D01*
X7565023Y-8972436D02*
X7555499Y-8953389D01*
X7555499Y-8953389D02*
X7545975Y-8915293D01*
X7545975Y-8915293D02*
X7545975Y-8867674D01*
X7545975Y-8867674D02*
X7555499Y-8829579D01*
X7555499Y-8829579D02*
X7565023Y-8810531D01*
X7565023Y-8810531D02*
X7574546Y-8801008D01*
X7574546Y-8801008D02*
X7593594Y-8791484D01*
X7745975Y-8972436D02*
X7755499Y-8981960D01*
X7755499Y-8981960D02*
X7745975Y-8991484D01*
X7745975Y-8991484D02*
X7736451Y-8981960D01*
X7736451Y-8981960D02*
X7745975Y-8972436D01*
X7745975Y-8972436D02*
X7745975Y-8991484D01*
X7879308Y-8791484D02*
X7898356Y-8791484D01*
X7898356Y-8791484D02*
X7917404Y-8801008D01*
X7917404Y-8801008D02*
X7926927Y-8810531D01*
X7926927Y-8810531D02*
X7936451Y-8829579D01*
X7936451Y-8829579D02*
X7945975Y-8867674D01*
X7945975Y-8867674D02*
X7945975Y-8915293D01*
X7945975Y-8915293D02*
X7936451Y-8953389D01*
X7936451Y-8953389D02*
X7926927Y-8972436D01*
X7926927Y-8972436D02*
X7917404Y-8981960D01*
X7917404Y-8981960D02*
X7898356Y-8991484D01*
X7898356Y-8991484D02*
X7879308Y-8991484D01*
X7879308Y-8991484D02*
X7860261Y-8981960D01*
X7860261Y-8981960D02*
X7850737Y-8972436D01*
X7850737Y-8972436D02*
X7841213Y-8953389D01*
X7841213Y-8953389D02*
X7831689Y-8915293D01*
X7831689Y-8915293D02*
X7831689Y-8867674D01*
X7831689Y-8867674D02*
X7841213Y-8829579D01*
X7841213Y-8829579D02*
X7850737Y-8810531D01*
X7850737Y-8810531D02*
X7860261Y-8801008D01*
X7860261Y-8801008D02*
X7879308Y-8791484D01*
X8022166Y-8810531D02*
X8031689Y-8801008D01*
X8031689Y-8801008D02*
X8050737Y-8791484D01*
X8050737Y-8791484D02*
X8098356Y-8791484D01*
X8098356Y-8791484D02*
X8117404Y-8801008D01*
X8117404Y-8801008D02*
X8126927Y-8810531D01*
X8126927Y-8810531D02*
X8136451Y-8829579D01*
X8136451Y-8829579D02*
X8136451Y-8848627D01*
X8136451Y-8848627D02*
X8126927Y-8877198D01*
X8126927Y-8877198D02*
X8012642Y-8991484D01*
X8012642Y-8991484D02*
X8136451Y-8991484D01*
X8317404Y-8791484D02*
X8222166Y-8791484D01*
X8222166Y-8791484D02*
X8212642Y-8886722D01*
X8212642Y-8886722D02*
X8222166Y-8877198D01*
X8222166Y-8877198D02*
X8241213Y-8867674D01*
X8241213Y-8867674D02*
X8288832Y-8867674D01*
X8288832Y-8867674D02*
X8307880Y-8877198D01*
X8307880Y-8877198D02*
X8317404Y-8886722D01*
X8317404Y-8886722D02*
X8326927Y-8905770D01*
X8326927Y-8905770D02*
X8326927Y-8953389D01*
X8326927Y-8953389D02*
X8317404Y-8972436D01*
X8317404Y-8972436D02*
X8307880Y-8981960D01*
X8307880Y-8981960D02*
X8288832Y-8991484D01*
X8288832Y-8991484D02*
X8241213Y-8991484D01*
X8241213Y-8991484D02*
X8222166Y-8981960D01*
X8222166Y-8981960D02*
X8212642Y-8972436D01*
X8498356Y-8791484D02*
X8460261Y-8791484D01*
X8460261Y-8791484D02*
X8441213Y-8801008D01*
X8441213Y-8801008D02*
X8431689Y-8810531D01*
X8431689Y-8810531D02*
X8412642Y-8839103D01*
X8412642Y-8839103D02*
X8403118Y-8877198D01*
X8403118Y-8877198D02*
X8403118Y-8953389D01*
X8403118Y-8953389D02*
X8412642Y-8972436D01*
X8412642Y-8972436D02*
X8422166Y-8981960D01*
X8422166Y-8981960D02*
X8441213Y-8991484D01*
X8441213Y-8991484D02*
X8479309Y-8991484D01*
X8479309Y-8991484D02*
X8498356Y-8981960D01*
X8498356Y-8981960D02*
X8507880Y-8972436D01*
X8507880Y-8972436D02*
X8517404Y-8953389D01*
X8517404Y-8953389D02*
X8517404Y-8905770D01*
X8517404Y-8905770D02*
X8507880Y-8886722D01*
X8507880Y-8886722D02*
X8498356Y-8877198D01*
X8498356Y-8877198D02*
X8479309Y-8867674D01*
X8479309Y-8867674D02*
X8441213Y-8867674D01*
X8441213Y-8867674D02*
X8422166Y-8877198D01*
X8422166Y-8877198D02*
X8412642Y-8886722D01*
X8412642Y-8886722D02*
X8403118Y-8905770D01*
X8593594Y-8791484D02*
X8593594Y-8829579D01*
X8669785Y-8791484D02*
X8669785Y-8829579D01*
X8965023Y-9067674D02*
X8955499Y-9058150D01*
X8955499Y-9058150D02*
X8936451Y-9029579D01*
X8936451Y-9029579D02*
X8926928Y-9010531D01*
X8926928Y-9010531D02*
X8917404Y-8981960D01*
X8917404Y-8981960D02*
X8907880Y-8934341D01*
X8907880Y-8934341D02*
X8907880Y-8896246D01*
X8907880Y-8896246D02*
X8917404Y-8848627D01*
X8917404Y-8848627D02*
X8926928Y-8820055D01*
X8926928Y-8820055D02*
X8936451Y-8801008D01*
X8936451Y-8801008D02*
X8955499Y-8772436D01*
X8955499Y-8772436D02*
X8965023Y-8762912D01*
X9031690Y-8810531D02*
X9041213Y-8801008D01*
X9041213Y-8801008D02*
X9060261Y-8791484D01*
X9060261Y-8791484D02*
X9107880Y-8791484D01*
X9107880Y-8791484D02*
X9126928Y-8801008D01*
X9126928Y-8801008D02*
X9136451Y-8810531D01*
X9136451Y-8810531D02*
X9145975Y-8829579D01*
X9145975Y-8829579D02*
X9145975Y-8848627D01*
X9145975Y-8848627D02*
X9136451Y-8877198D01*
X9136451Y-8877198D02*
X9022166Y-8991484D01*
X9022166Y-8991484D02*
X9145975Y-8991484D01*
X9384071Y-8991484D02*
X9384071Y-8791484D01*
X9469785Y-8991484D02*
X9469785Y-8886722D01*
X9469785Y-8886722D02*
X9460261Y-8867674D01*
X9460261Y-8867674D02*
X9441213Y-8858150D01*
X9441213Y-8858150D02*
X9412642Y-8858150D01*
X9412642Y-8858150D02*
X9393594Y-8867674D01*
X9393594Y-8867674D02*
X9384071Y-8877198D01*
X9593594Y-8991484D02*
X9574547Y-8981960D01*
X9574547Y-8981960D02*
X9565023Y-8972436D01*
X9565023Y-8972436D02*
X9555499Y-8953389D01*
X9555499Y-8953389D02*
X9555499Y-8896246D01*
X9555499Y-8896246D02*
X9565023Y-8877198D01*
X9565023Y-8877198D02*
X9574547Y-8867674D01*
X9574547Y-8867674D02*
X9593594Y-8858150D01*
X9593594Y-8858150D02*
X9622166Y-8858150D01*
X9622166Y-8858150D02*
X9641213Y-8867674D01*
X9641213Y-8867674D02*
X9650737Y-8877198D01*
X9650737Y-8877198D02*
X9660261Y-8896246D01*
X9660261Y-8896246D02*
X9660261Y-8953389D01*
X9660261Y-8953389D02*
X9650737Y-8972436D01*
X9650737Y-8972436D02*
X9641213Y-8981960D01*
X9641213Y-8981960D02*
X9622166Y-8991484D01*
X9622166Y-8991484D02*
X9593594Y-8991484D01*
X9774547Y-8991484D02*
X9755499Y-8981960D01*
X9755499Y-8981960D02*
X9745975Y-8962912D01*
X9745975Y-8962912D02*
X9745975Y-8791484D01*
X9926928Y-8981960D02*
X9907880Y-8991484D01*
X9907880Y-8991484D02*
X9869785Y-8991484D01*
X9869785Y-8991484D02*
X9850737Y-8981960D01*
X9850737Y-8981960D02*
X9841213Y-8962912D01*
X9841213Y-8962912D02*
X9841213Y-8886722D01*
X9841213Y-8886722D02*
X9850737Y-8867674D01*
X9850737Y-8867674D02*
X9869785Y-8858150D01*
X9869785Y-8858150D02*
X9907880Y-8858150D01*
X9907880Y-8858150D02*
X9926928Y-8867674D01*
X9926928Y-8867674D02*
X9936452Y-8886722D01*
X9936452Y-8886722D02*
X9936452Y-8905770D01*
X9936452Y-8905770D02*
X9841213Y-8924817D01*
X10012642Y-8981960D02*
X10031690Y-8991484D01*
X10031690Y-8991484D02*
X10069785Y-8991484D01*
X10069785Y-8991484D02*
X10088833Y-8981960D01*
X10088833Y-8981960D02*
X10098356Y-8962912D01*
X10098356Y-8962912D02*
X10098356Y-8953389D01*
X10098356Y-8953389D02*
X10088833Y-8934341D01*
X10088833Y-8934341D02*
X10069785Y-8924817D01*
X10069785Y-8924817D02*
X10041213Y-8924817D01*
X10041213Y-8924817D02*
X10022166Y-8915293D01*
X10022166Y-8915293D02*
X10012642Y-8896246D01*
X10012642Y-8896246D02*
X10012642Y-8886722D01*
X10012642Y-8886722D02*
X10022166Y-8867674D01*
X10022166Y-8867674D02*
X10041213Y-8858150D01*
X10041213Y-8858150D02*
X10069785Y-8858150D01*
X10069785Y-8858150D02*
X10088833Y-8867674D01*
X10165023Y-9067674D02*
X10174547Y-9058150D01*
X10174547Y-9058150D02*
X10193594Y-9029579D01*
X10193594Y-9029579D02*
X10203118Y-9010531D01*
X10203118Y-9010531D02*
X10212642Y-8981960D01*
X10212642Y-8981960D02*
X10222166Y-8934341D01*
X10222166Y-8934341D02*
X10222166Y-8896246D01*
X10222166Y-8896246D02*
X10212642Y-8848627D01*
X10212642Y-8848627D02*
X10203118Y-8820055D01*
X10203118Y-8820055D02*
X10193594Y-8801008D01*
X10193594Y-8801008D02*
X10174547Y-8772436D01*
X10174547Y-8772436D02*
X10165023Y-8762912D01*
X10526928Y-9067674D02*
X10517404Y-9058150D01*
X10517404Y-9058150D02*
X10498356Y-9029579D01*
X10498356Y-9029579D02*
X10488833Y-9010531D01*
X10488833Y-9010531D02*
X10479309Y-8981960D01*
X10479309Y-8981960D02*
X10469785Y-8934341D01*
X10469785Y-8934341D02*
X10469785Y-8896246D01*
X10469785Y-8896246D02*
X10479309Y-8848627D01*
X10479309Y-8848627D02*
X10488833Y-8820055D01*
X10488833Y-8820055D02*
X10498356Y-8801008D01*
X10498356Y-8801008D02*
X10517404Y-8772436D01*
X10517404Y-8772436D02*
X10526928Y-8762912D01*
X10603118Y-8858150D02*
X10603118Y-8991484D01*
X10603118Y-8877198D02*
X10612642Y-8867674D01*
X10612642Y-8867674D02*
X10631690Y-8858150D01*
X10631690Y-8858150D02*
X10660261Y-8858150D01*
X10660261Y-8858150D02*
X10679309Y-8867674D01*
X10679309Y-8867674D02*
X10688833Y-8886722D01*
X10688833Y-8886722D02*
X10688833Y-8991484D01*
X10812642Y-8991484D02*
X10793594Y-8981960D01*
X10793594Y-8981960D02*
X10784071Y-8972436D01*
X10784071Y-8972436D02*
X10774547Y-8953389D01*
X10774547Y-8953389D02*
X10774547Y-8896246D01*
X10774547Y-8896246D02*
X10784071Y-8877198D01*
X10784071Y-8877198D02*
X10793594Y-8867674D01*
X10793594Y-8867674D02*
X10812642Y-8858150D01*
X10812642Y-8858150D02*
X10841214Y-8858150D01*
X10841214Y-8858150D02*
X10860261Y-8867674D01*
X10860261Y-8867674D02*
X10869785Y-8877198D01*
X10869785Y-8877198D02*
X10879309Y-8896246D01*
X10879309Y-8896246D02*
X10879309Y-8953389D01*
X10879309Y-8953389D02*
X10869785Y-8972436D01*
X10869785Y-8972436D02*
X10860261Y-8981960D01*
X10860261Y-8981960D02*
X10841214Y-8991484D01*
X10841214Y-8991484D02*
X10812642Y-8991484D01*
X10936452Y-8858150D02*
X11012642Y-8858150D01*
X10965023Y-8791484D02*
X10965023Y-8962912D01*
X10965023Y-8962912D02*
X10974547Y-8981960D01*
X10974547Y-8981960D02*
X10993594Y-8991484D01*
X10993594Y-8991484D02*
X11012642Y-8991484D01*
X11231690Y-8858150D02*
X11231690Y-9058150D01*
X11231690Y-8867674D02*
X11250737Y-8858150D01*
X11250737Y-8858150D02*
X11288833Y-8858150D01*
X11288833Y-8858150D02*
X11307880Y-8867674D01*
X11307880Y-8867674D02*
X11317404Y-8877198D01*
X11317404Y-8877198D02*
X11326928Y-8896246D01*
X11326928Y-8896246D02*
X11326928Y-8953389D01*
X11326928Y-8953389D02*
X11317404Y-8972436D01*
X11317404Y-8972436D02*
X11307880Y-8981960D01*
X11307880Y-8981960D02*
X11288833Y-8991484D01*
X11288833Y-8991484D02*
X11250737Y-8991484D01*
X11250737Y-8991484D02*
X11231690Y-8981960D01*
X11441213Y-8991484D02*
X11422166Y-8981960D01*
X11422166Y-8981960D02*
X11412642Y-8962912D01*
X11412642Y-8962912D02*
X11412642Y-8791484D01*
X11603118Y-8991484D02*
X11603118Y-8886722D01*
X11603118Y-8886722D02*
X11593594Y-8867674D01*
X11593594Y-8867674D02*
X11574547Y-8858150D01*
X11574547Y-8858150D02*
X11536452Y-8858150D01*
X11536452Y-8858150D02*
X11517404Y-8867674D01*
X11603118Y-8981960D02*
X11584071Y-8991484D01*
X11584071Y-8991484D02*
X11536452Y-8991484D01*
X11536452Y-8991484D02*
X11517404Y-8981960D01*
X11517404Y-8981960D02*
X11507880Y-8962912D01*
X11507880Y-8962912D02*
X11507880Y-8943865D01*
X11507880Y-8943865D02*
X11517404Y-8924817D01*
X11517404Y-8924817D02*
X11536452Y-8915293D01*
X11536452Y-8915293D02*
X11584071Y-8915293D01*
X11584071Y-8915293D02*
X11603118Y-8905770D01*
X11669785Y-8858150D02*
X11745975Y-8858150D01*
X11698356Y-8791484D02*
X11698356Y-8962912D01*
X11698356Y-8962912D02*
X11707880Y-8981960D01*
X11707880Y-8981960D02*
X11726928Y-8991484D01*
X11726928Y-8991484D02*
X11745975Y-8991484D01*
X11888833Y-8981960D02*
X11869785Y-8991484D01*
X11869785Y-8991484D02*
X11831690Y-8991484D01*
X11831690Y-8991484D02*
X11812642Y-8981960D01*
X11812642Y-8981960D02*
X11803118Y-8962912D01*
X11803118Y-8962912D02*
X11803118Y-8886722D01*
X11803118Y-8886722D02*
X11812642Y-8867674D01*
X11812642Y-8867674D02*
X11831690Y-8858150D01*
X11831690Y-8858150D02*
X11869785Y-8858150D01*
X11869785Y-8858150D02*
X11888833Y-8867674D01*
X11888833Y-8867674D02*
X11898356Y-8886722D01*
X11898356Y-8886722D02*
X11898356Y-8905770D01*
X11898356Y-8905770D02*
X11803118Y-8924817D01*
X12069785Y-8991484D02*
X12069785Y-8791484D01*
X12069785Y-8981960D02*
X12050737Y-8991484D01*
X12050737Y-8991484D02*
X12012642Y-8991484D01*
X12012642Y-8991484D02*
X11993594Y-8981960D01*
X11993594Y-8981960D02*
X11984071Y-8972436D01*
X11984071Y-8972436D02*
X11974547Y-8953389D01*
X11974547Y-8953389D02*
X11974547Y-8896246D01*
X11974547Y-8896246D02*
X11984071Y-8877198D01*
X11984071Y-8877198D02*
X11993594Y-8867674D01*
X11993594Y-8867674D02*
X12012642Y-8858150D01*
X12012642Y-8858150D02*
X12050737Y-8858150D01*
X12050737Y-8858150D02*
X12069785Y-8867674D01*
X12145975Y-9067674D02*
X12155499Y-9058150D01*
X12155499Y-9058150D02*
X12174547Y-9029579D01*
X12174547Y-9029579D02*
X12184071Y-9010531D01*
X12184071Y-9010531D02*
X12193594Y-8981960D01*
X12193594Y-8981960D02*
X12203118Y-8934341D01*
X12203118Y-8934341D02*
X12203118Y-8896246D01*
X12203118Y-8896246D02*
X12193594Y-8848627D01*
X12193594Y-8848627D02*
X12184071Y-8820055D01*
X12184071Y-8820055D02*
X12174547Y-8801008D01*
X12174547Y-8801008D02*
X12155499Y-8772436D01*
X12155499Y-8772436D02*
X12145975Y-8762912D01*
M02*
