G04 #@! TF.GenerationSoftware,KiCad,Pcbnew,8.0.1*
G04 #@! TF.CreationDate,2024-04-30T14:23:49+02:00*
G04 #@! TF.ProjectId,AVRinator,41565269-6e61-4746-9f72-2e6b69636164,1.0*
G04 #@! TF.SameCoordinates,Original*
G04 #@! TF.FileFunction,Copper,L4,Bot*
G04 #@! TF.FilePolarity,Positive*
%FSLAX46Y46*%
G04 Gerber Fmt 4.6, Leading zero omitted, Abs format (unit mm)*
G04 Created by KiCad (PCBNEW 8.0.1) date 2024-04-30 14:23:49*
%MOMM*%
%LPD*%
G01*
G04 APERTURE LIST*
G04 Aperture macros list*
%AMRoundRect*
0 Rectangle with rounded corners*
0 $1 Rounding radius*
0 $2 $3 $4 $5 $6 $7 $8 $9 X,Y pos of 4 corners*
0 Add a 4 corners polygon primitive as box body*
4,1,4,$2,$3,$4,$5,$6,$7,$8,$9,$2,$3,0*
0 Add four circle primitives for the rounded corners*
1,1,$1+$1,$2,$3*
1,1,$1+$1,$4,$5*
1,1,$1+$1,$6,$7*
1,1,$1+$1,$8,$9*
0 Add four rect primitives between the rounded corners*
20,1,$1+$1,$2,$3,$4,$5,0*
20,1,$1+$1,$4,$5,$6,$7,0*
20,1,$1+$1,$6,$7,$8,$9,0*
20,1,$1+$1,$8,$9,$2,$3,0*%
G04 Aperture macros list end*
G04 #@! TA.AperFunction,EtchedComponent*
%ADD10C,0.000000*%
G04 #@! TD*
G04 #@! TA.AperFunction,ComponentPad*
%ADD11R,1.700000X1.700000*%
G04 #@! TD*
G04 #@! TA.AperFunction,ComponentPad*
%ADD12O,1.700000X1.700000*%
G04 #@! TD*
G04 #@! TA.AperFunction,ComponentPad*
%ADD13R,1.650000X1.650000*%
G04 #@! TD*
G04 #@! TA.AperFunction,ComponentPad*
%ADD14C,1.650000*%
G04 #@! TD*
G04 #@! TA.AperFunction,SMDPad,CuDef*
%ADD15RoundRect,0.200000X-0.200000X-0.275000X0.200000X-0.275000X0.200000X0.275000X-0.200000X0.275000X0*%
G04 #@! TD*
G04 #@! TA.AperFunction,SMDPad,CuDef*
%ADD16RoundRect,0.250000X-0.250000X-0.475000X0.250000X-0.475000X0.250000X0.475000X-0.250000X0.475000X0*%
G04 #@! TD*
G04 #@! TA.AperFunction,SMDPad,CuDef*
%ADD17RoundRect,0.225000X-0.250000X0.225000X-0.250000X-0.225000X0.250000X-0.225000X0.250000X0.225000X0*%
G04 #@! TD*
G04 #@! TA.AperFunction,SMDPad,CuDef*
%ADD18RoundRect,0.150000X0.512500X0.150000X-0.512500X0.150000X-0.512500X-0.150000X0.512500X-0.150000X0*%
G04 #@! TD*
G04 #@! TA.AperFunction,SMDPad,CuDef*
%ADD19C,1.000000*%
G04 #@! TD*
G04 #@! TA.AperFunction,SMDPad,CuDef*
%ADD20RoundRect,0.225000X0.225000X0.250000X-0.225000X0.250000X-0.225000X-0.250000X0.225000X-0.250000X0*%
G04 #@! TD*
G04 #@! TA.AperFunction,SMDPad,CuDef*
%ADD21RoundRect,0.250000X-0.325000X-0.650000X0.325000X-0.650000X0.325000X0.650000X-0.325000X0.650000X0*%
G04 #@! TD*
G04 #@! TA.AperFunction,SMDPad,CuDef*
%ADD22RoundRect,0.062500X-0.062500X0.375000X-0.062500X-0.375000X0.062500X-0.375000X0.062500X0.375000X0*%
G04 #@! TD*
G04 #@! TA.AperFunction,SMDPad,CuDef*
%ADD23RoundRect,0.062500X-0.375000X0.062500X-0.375000X-0.062500X0.375000X-0.062500X0.375000X0.062500X0*%
G04 #@! TD*
G04 #@! TA.AperFunction,HeatsinkPad*
%ADD24R,3.450000X3.450000*%
G04 #@! TD*
G04 #@! TA.AperFunction,SMDPad,CuDef*
%ADD25RoundRect,0.200000X0.200000X0.275000X-0.200000X0.275000X-0.200000X-0.275000X0.200000X-0.275000X0*%
G04 #@! TD*
G04 #@! TA.AperFunction,SMDPad,CuDef*
%ADD26RoundRect,0.225000X-0.225000X-0.250000X0.225000X-0.250000X0.225000X0.250000X-0.225000X0.250000X0*%
G04 #@! TD*
G04 #@! TA.AperFunction,SMDPad,CuDef*
%ADD27RoundRect,0.250000X0.250000X0.475000X-0.250000X0.475000X-0.250000X-0.475000X0.250000X-0.475000X0*%
G04 #@! TD*
G04 #@! TA.AperFunction,SMDPad,CuDef*
%ADD28RoundRect,0.125000X-0.125000X0.625000X-0.125000X-0.625000X0.125000X-0.625000X0.125000X0.625000X0*%
G04 #@! TD*
G04 #@! TA.AperFunction,SMDPad,CuDef*
%ADD29RoundRect,0.125000X-0.625000X0.125000X-0.625000X-0.125000X0.625000X-0.125000X0.625000X0.125000X0*%
G04 #@! TD*
G04 #@! TA.AperFunction,SMDPad,CuDef*
%ADD30C,0.500000*%
G04 #@! TD*
G04 #@! TA.AperFunction,SMDPad,CuDef*
%ADD31RoundRect,0.150000X0.150000X-0.512500X0.150000X0.512500X-0.150000X0.512500X-0.150000X-0.512500X0*%
G04 #@! TD*
G04 #@! TA.AperFunction,SMDPad,CuDef*
%ADD32R,0.300000X1.150000*%
G04 #@! TD*
G04 #@! TA.AperFunction,SMDPad,CuDef*
%ADD33R,2.180000X2.000000*%
G04 #@! TD*
G04 #@! TA.AperFunction,SMDPad,CuDef*
%ADD34RoundRect,0.250000X0.450000X-0.262500X0.450000X0.262500X-0.450000X0.262500X-0.450000X-0.262500X0*%
G04 #@! TD*
G04 #@! TA.AperFunction,ViaPad*
%ADD35C,0.500000*%
G04 #@! TD*
G04 #@! TA.AperFunction,Conductor*
%ADD36C,0.300000*%
G04 #@! TD*
G04 #@! TA.AperFunction,Conductor*
%ADD37C,0.400000*%
G04 #@! TD*
G04 #@! TA.AperFunction,Conductor*
%ADD38C,0.200000*%
G04 #@! TD*
G04 #@! TA.AperFunction,Conductor*
%ADD39C,0.261112*%
G04 #@! TD*
G04 APERTURE END LIST*
D10*
G04 #@! TA.AperFunction,EtchedComponent*
G36*
X69542130Y-72772023D02*
G01*
X68835023Y-73479130D01*
X68481470Y-73125577D01*
X69188577Y-72418470D01*
X69542130Y-72772023D01*
G37*
G04 #@! TD.AperFunction*
G04 #@! TA.AperFunction,EtchedComponent*
G36*
X69185600Y-65016000D02*
G01*
X68685600Y-65016000D01*
X68685600Y-64016000D01*
X69185600Y-64016000D01*
X69185600Y-65016000D01*
G37*
G04 #@! TD.AperFunction*
D11*
X68554600Y-50774600D03*
D12*
X66014600Y-50774600D03*
X63474600Y-50774600D03*
X60934600Y-50774600D03*
X58394600Y-50774600D03*
X55854600Y-50774600D03*
D13*
X64770000Y-56134000D03*
D14*
X64770000Y-58674000D03*
X62230000Y-56134000D03*
X62230000Y-58674000D03*
X59690000Y-56134000D03*
X59690000Y-58674000D03*
D15*
X68110600Y-64516000D03*
X69760600Y-64516000D03*
D16*
X67630000Y-58699400D03*
X69530000Y-58699400D03*
D17*
X64516000Y-52463400D03*
X64516000Y-54013400D03*
D18*
X62859500Y-52618600D03*
X62859500Y-53568600D03*
X62859500Y-54518600D03*
X60584500Y-54518600D03*
X60584500Y-52618600D03*
D15*
X68110600Y-62992000D03*
X69760600Y-62992000D03*
D19*
X59131200Y-73507600D03*
D20*
X58966400Y-52603400D03*
X57416400Y-52603400D03*
D21*
X64819000Y-73355200D03*
X67769000Y-73355200D03*
D22*
X60480000Y-62484900D03*
X60980000Y-62484900D03*
X61480000Y-62484900D03*
X61980000Y-62484900D03*
X62480000Y-62484900D03*
X62980000Y-62484900D03*
X63480000Y-62484900D03*
X63980000Y-62484900D03*
D23*
X64667500Y-63172400D03*
X64667500Y-63672400D03*
X64667500Y-64172400D03*
X64667500Y-64672400D03*
X64667500Y-65172400D03*
X64667500Y-65672400D03*
X64667500Y-66172400D03*
X64667500Y-66672400D03*
D22*
X63980000Y-67359900D03*
X63480000Y-67359900D03*
X62980000Y-67359900D03*
X62480000Y-67359900D03*
X61980000Y-67359900D03*
X61480000Y-67359900D03*
X60980000Y-67359900D03*
X60480000Y-67359900D03*
D23*
X59792500Y-66672400D03*
X59792500Y-66172400D03*
X59792500Y-65672400D03*
X59792500Y-65172400D03*
X59792500Y-64672400D03*
X59792500Y-64172400D03*
X59792500Y-63672400D03*
X59792500Y-63172400D03*
D24*
X62230000Y-64922400D03*
D25*
X56324000Y-60401200D03*
X54674000Y-60401200D03*
D18*
X69361900Y-55057000D03*
X69361900Y-56007000D03*
X69361900Y-56957000D03*
X67086900Y-56957000D03*
X67086900Y-55057000D03*
D26*
X64655400Y-71424800D03*
X66205400Y-71424800D03*
D27*
X68412400Y-52730400D03*
X66512400Y-52730400D03*
D15*
X54674000Y-66294000D03*
X56324000Y-66294000D03*
D28*
X59430000Y-60747400D03*
X60230000Y-60747400D03*
X61030000Y-60747400D03*
X61830000Y-60747400D03*
X62630000Y-60747400D03*
X63430000Y-60747400D03*
X64230000Y-60747400D03*
X65030000Y-60747400D03*
D29*
X66405000Y-62122400D03*
X66405000Y-62922400D03*
X66405000Y-63722400D03*
X66405000Y-64522400D03*
X66405000Y-65322400D03*
X66405000Y-66122400D03*
X66405000Y-66922400D03*
X66405000Y-67722400D03*
D28*
X65030000Y-69097400D03*
X64230000Y-69097400D03*
X63430000Y-69097400D03*
X62630000Y-69097400D03*
X61830000Y-69097400D03*
X61030000Y-69097400D03*
X60230000Y-69097400D03*
X59430000Y-69097400D03*
D29*
X58055000Y-67722400D03*
X58055000Y-66922400D03*
X58055000Y-66122400D03*
X58055000Y-65322400D03*
X58055000Y-64522400D03*
X58055000Y-63722400D03*
X58055000Y-62922400D03*
X58055000Y-62122400D03*
D30*
X68658247Y-73302353D03*
X69365353Y-72595247D03*
D31*
X63180000Y-73527500D03*
X62230000Y-73527500D03*
X61280000Y-73527500D03*
X61280000Y-71252500D03*
X62230000Y-71252500D03*
X63180000Y-71252500D03*
D32*
X65580000Y-76586000D03*
X64780000Y-76586000D03*
X63480000Y-76586000D03*
X62480000Y-76586000D03*
X61980000Y-76586000D03*
X60980000Y-76586000D03*
X59680000Y-76586000D03*
X58880000Y-76586000D03*
X59180000Y-76586000D03*
X59980000Y-76586000D03*
X60480000Y-76586000D03*
X61480000Y-76586000D03*
X62980000Y-76586000D03*
X63980000Y-76586000D03*
X64480000Y-76586000D03*
X65280000Y-76586000D03*
D33*
X67340000Y-81091000D03*
X67340000Y-77161000D03*
X57120000Y-81091000D03*
X57120000Y-77161000D03*
D16*
X67249000Y-69697600D03*
X69149000Y-69697600D03*
D25*
X59016400Y-54076600D03*
X57366400Y-54076600D03*
D17*
X57734200Y-59346800D03*
X57734200Y-60896800D03*
D25*
X56324000Y-64820800D03*
X54674000Y-64820800D03*
D26*
X54724000Y-61874400D03*
X56274000Y-61874400D03*
X67639600Y-71424800D03*
X69189600Y-71424800D03*
D30*
X68935600Y-65016000D03*
X68935600Y-64016000D03*
D34*
X68453000Y-67841500D03*
X68453000Y-66016500D03*
D25*
X56324000Y-63347600D03*
X54674000Y-63347600D03*
D35*
X59131200Y-73507600D03*
X62219089Y-49646089D03*
X61591590Y-72411990D03*
X68961000Y-54051200D03*
X60871100Y-63919100D03*
X64947800Y-75361800D03*
X54533800Y-55956200D03*
X61493400Y-52044600D03*
X66217800Y-69951600D03*
X63677800Y-79121000D03*
X63830200Y-66268600D03*
X56464200Y-55930800D03*
X57912000Y-55245000D03*
X55245000Y-72059800D03*
X67005200Y-60325000D03*
X54686200Y-49758600D03*
X69824600Y-68249800D03*
X64008000Y-70383400D03*
X63779400Y-63423800D03*
X67640200Y-56057800D03*
X54674000Y-65557400D03*
X68148200Y-60071000D03*
X55905400Y-52171600D03*
X69773800Y-73355200D03*
X57327800Y-73837800D03*
X60934600Y-55626000D03*
X60452000Y-81153000D03*
X69773800Y-74168000D03*
X56515000Y-53162200D03*
X54965600Y-75996800D03*
X59740800Y-53289200D03*
X54635400Y-59613800D03*
X69824600Y-67335400D03*
X61087000Y-58140600D03*
X64185800Y-81178400D03*
X69697600Y-53492400D03*
X67411600Y-74980800D03*
X62331600Y-81178400D03*
X54610000Y-53238400D03*
X61696600Y-53568600D03*
X69875400Y-81584800D03*
X54635400Y-61112400D03*
X57353200Y-74879200D03*
X68757800Y-61366400D03*
X56108600Y-70180200D03*
X62280800Y-74523600D03*
X68326000Y-75387200D03*
X69672200Y-52222400D03*
X67589400Y-61315600D03*
X56413400Y-75692000D03*
X54508400Y-81559400D03*
X69773800Y-76200000D03*
X64160400Y-57531000D03*
X62941200Y-77876400D03*
X54686200Y-67056000D03*
X60731400Y-79121000D03*
X66573400Y-54025800D03*
X56896000Y-49682400D03*
X59029600Y-75641200D03*
X66217800Y-69088000D03*
X64795400Y-72186800D03*
X55422800Y-70967600D03*
X56464200Y-59131200D03*
X67157600Y-71907400D03*
X69760600Y-62280800D03*
X68970600Y-59947762D03*
X56718200Y-60883800D03*
X58775600Y-81407000D03*
X55143400Y-79832200D03*
X69570600Y-80264000D03*
X68884800Y-77114400D03*
X61150400Y-61531600D03*
X55575200Y-77647800D03*
X60230000Y-60747400D03*
X64058800Y-77622400D03*
X60452000Y-75184000D03*
X62230000Y-51435000D03*
X69545200Y-57454800D03*
X58521600Y-64414400D03*
X57150000Y-70129400D03*
X56083200Y-64820800D03*
X61493400Y-54406800D03*
X61830000Y-60747400D03*
X58782000Y-66833800D03*
X62560200Y-61671200D03*
X63430000Y-60747400D03*
X64230000Y-60747400D03*
X64820800Y-61747400D03*
X66192400Y-61518800D03*
X67183000Y-64135000D03*
X64230000Y-69097400D03*
X62992000Y-67945000D03*
X62630000Y-69097400D03*
D36*
X64780000Y-76586000D02*
X64780000Y-76124218D01*
X64480000Y-76586000D02*
X64480000Y-76109001D01*
D37*
X58966400Y-52603400D02*
X58826400Y-52603400D01*
X58966400Y-52603400D02*
X59758000Y-51811800D01*
D36*
X64780000Y-76194929D02*
X64587036Y-76001965D01*
D37*
X68961000Y-53279000D02*
X68412400Y-52730400D01*
X68961000Y-54051200D02*
X68961000Y-54656100D01*
D36*
X64480000Y-76109001D02*
X64587036Y-76001965D01*
X59680000Y-75768200D02*
X59680000Y-74945159D01*
D37*
X63917000Y-75331929D02*
X64587036Y-76001965D01*
D36*
X64780000Y-76124218D02*
X64558891Y-75903109D01*
X59980000Y-76586000D02*
X59980000Y-76068200D01*
D37*
X61591590Y-72411990D02*
X63508964Y-72411990D01*
X58826400Y-52603400D02*
X57366400Y-54063400D01*
D36*
X59680000Y-74945159D02*
X59131200Y-74396359D01*
D37*
X59758000Y-50312470D02*
X60447470Y-49623000D01*
D36*
X59131200Y-74396359D02*
X59131200Y-73507600D01*
X59680000Y-76586000D02*
X59680000Y-75768200D01*
D37*
X68961000Y-54051200D02*
X68961000Y-53279000D01*
D36*
X59980000Y-76068200D02*
X59680000Y-75768200D01*
X64780000Y-76586000D02*
X64780000Y-76194929D01*
D37*
X63508964Y-72411990D02*
X63917000Y-72820026D01*
X63917000Y-72820026D02*
X63917000Y-75331929D01*
X60584500Y-52618600D02*
X58981600Y-52618600D01*
X62230000Y-71773580D02*
X62230000Y-71252500D01*
X62196000Y-49623000D02*
X62219089Y-49646089D01*
X58981600Y-52618600D02*
X58966400Y-52603400D01*
X68961000Y-54656100D02*
X69361900Y-55057000D01*
D36*
X64780000Y-76586000D02*
X64780000Y-76161000D01*
D37*
X60447470Y-49623000D02*
X62196000Y-49623000D01*
X57366400Y-54063400D02*
X57366400Y-54076600D01*
X61591590Y-72411990D02*
X62230000Y-71773580D01*
X59758000Y-51811800D02*
X59758000Y-50312470D01*
D38*
X64797926Y-66674958D02*
X65449648Y-67326680D01*
D36*
X67769000Y-73355200D02*
X68605400Y-73355200D01*
D38*
X59662074Y-63169842D02*
X59010352Y-62518120D01*
D36*
X69773800Y-75360000D02*
X69773800Y-76200000D01*
X54635400Y-61112400D02*
X54674000Y-61151000D01*
D38*
X64667500Y-66672400D02*
X64797926Y-66674958D01*
D36*
X64947800Y-75361800D02*
X65280000Y-75694000D01*
D38*
X62230000Y-64922400D02*
X62099574Y-64919842D01*
D36*
X58880000Y-76586000D02*
X58880000Y-75790800D01*
X56413400Y-75692000D02*
X58978800Y-75692000D01*
X65280000Y-76586000D02*
X65280000Y-75867800D01*
X66205400Y-71791600D02*
X66205400Y-71424800D01*
X54674000Y-60401200D02*
X54674000Y-61073800D01*
X65580000Y-75567800D02*
X65580000Y-76586000D01*
X57734200Y-60896800D02*
X57734200Y-61801600D01*
D38*
X59792500Y-63172400D02*
X59662074Y-63169842D01*
X63493864Y-66186264D02*
X62230000Y-64922400D01*
D36*
X67769000Y-73355200D02*
X67769000Y-73378800D01*
X54674000Y-61073800D02*
X54635400Y-61112400D01*
X67760999Y-73397999D02*
X67769000Y-73389998D01*
X65684400Y-70903800D02*
X65684400Y-68443000D01*
X67769000Y-73389998D02*
X67769000Y-73355200D01*
X57734200Y-61801600D02*
X58055000Y-62122400D01*
X57734200Y-60629800D02*
X57734200Y-60896800D01*
X67769000Y-73378800D02*
X65580000Y-75567800D01*
D38*
X62099574Y-64919842D02*
X60747852Y-63568120D01*
D36*
X65280000Y-75694000D02*
X65280000Y-75867800D01*
X65280000Y-75867800D02*
X65580000Y-75567800D01*
X67769000Y-73355200D02*
X66205400Y-71791600D01*
X59180000Y-75791600D02*
X59029600Y-75641200D01*
X62230000Y-74472800D02*
X62280800Y-74523600D01*
X59180000Y-76586000D02*
X59180000Y-75791600D01*
X68605400Y-73355200D02*
X68658247Y-73302353D01*
X67769000Y-73355200D02*
X69773800Y-75360000D01*
X58978800Y-75692000D02*
X59029600Y-75641200D01*
X62230000Y-73527500D02*
X62230000Y-74472800D01*
X58880000Y-75790800D02*
X59029600Y-75641200D01*
X66205400Y-71424800D02*
X65684400Y-70903800D01*
X54674000Y-61151000D02*
X54674000Y-66294000D01*
X65684400Y-68443000D02*
X66405000Y-67722400D01*
D38*
X65449648Y-67326680D02*
G75*
G03*
X66405000Y-67722391I955352J955380D01*
G01*
X59010352Y-62518120D02*
G75*
G03*
X58055000Y-62122409I-955352J-955380D01*
G01*
X64667500Y-66672400D02*
G75*
G02*
X63493858Y-66186270I0J1659800D01*
G01*
X60747852Y-63568120D02*
G75*
G03*
X59792500Y-63172409I-955352J-955380D01*
G01*
X60477442Y-62354474D02*
X59825720Y-61702752D01*
D36*
X55422800Y-70967600D02*
X55451000Y-70939400D01*
D38*
X64655400Y-71424800D02*
X65030000Y-71050200D01*
D36*
X64795400Y-73331600D02*
X64795400Y-72186800D01*
X57518600Y-59131200D02*
X57734200Y-59346800D01*
D38*
X63980000Y-67359900D02*
X65030000Y-68409900D01*
D36*
X56464200Y-59131200D02*
X57518600Y-59131200D01*
D38*
X65030000Y-68409900D02*
X65030000Y-69097400D01*
D36*
X57734200Y-59346800D02*
X58029400Y-59346800D01*
X64795400Y-72186800D02*
X64795400Y-71564800D01*
X58029400Y-59346800D02*
X59430000Y-60747400D01*
D38*
X60480000Y-62484900D02*
X60477442Y-62354474D01*
D36*
X64819000Y-73355200D02*
X64795400Y-73331600D01*
D38*
X65030000Y-71050200D02*
X65030000Y-69097400D01*
D36*
X64795400Y-71564800D02*
X64655400Y-71424800D01*
D38*
X59825720Y-61702752D02*
G75*
G02*
X59430009Y-60747400I955380J955352D01*
G01*
D36*
X67639600Y-70088200D02*
X67249000Y-69697600D01*
D38*
X65126025Y-66172400D02*
X65501983Y-66548358D01*
D36*
X67049400Y-66922400D02*
X66405000Y-66922400D01*
X67639600Y-71425400D02*
X67157600Y-71907400D01*
X67432000Y-69453600D02*
X67432000Y-67305000D01*
X67432000Y-67305000D02*
X67049400Y-66922400D01*
X67639600Y-71424800D02*
X67639600Y-70088200D01*
X67249000Y-69697600D02*
X67249000Y-69636600D01*
X67249000Y-69636600D02*
X67432000Y-69453600D01*
X67639600Y-71424800D02*
X67639600Y-71425400D01*
D38*
X64667500Y-66172400D02*
X65126025Y-66172400D01*
X65501984Y-66548357D02*
G75*
G03*
X66405000Y-66922387I903016J903057D01*
G01*
D36*
X68878362Y-59947762D02*
X67630000Y-58699400D01*
D37*
X64360800Y-52618600D02*
X62859500Y-52618600D01*
X67630000Y-58699400D02*
X67081400Y-58699400D01*
X64770000Y-58674000D02*
X67604600Y-58674000D01*
X62859500Y-52618600D02*
X62859500Y-51389700D01*
D36*
X69760600Y-62280800D02*
X69760600Y-62992000D01*
D37*
X66097400Y-57715400D02*
X66097400Y-56046500D01*
X62859500Y-51389700D02*
X63474600Y-50774600D01*
D36*
X68970600Y-59947762D02*
X68878362Y-59947762D01*
D37*
X66097400Y-56046500D02*
X67086900Y-55057000D01*
X64516000Y-52463400D02*
X64360800Y-52618600D01*
X67604600Y-58674000D02*
X67630000Y-58699400D01*
X67081400Y-58699400D02*
X66097400Y-57715400D01*
D38*
X59458961Y-63635936D02*
X59344238Y-63569690D01*
X59586919Y-63670233D02*
X59458961Y-63635936D01*
X59792500Y-63672400D02*
X59653157Y-63672400D01*
X59344238Y-63569690D02*
X59295854Y-63524400D01*
X59295854Y-63524400D02*
X59145592Y-63374138D01*
X56274000Y-61328000D02*
X56274000Y-61874400D01*
X56718200Y-60883800D02*
X56324000Y-60489600D01*
X57563000Y-62922400D02*
X58055000Y-62922400D01*
X56718200Y-60883800D02*
X56274000Y-61328000D01*
X59653157Y-63672400D02*
X59586919Y-63670233D01*
X56515000Y-61874400D02*
X57563000Y-62922400D01*
X56324000Y-60489600D02*
X56324000Y-60401200D01*
X56274000Y-61874400D02*
X56515000Y-61874400D01*
X59145591Y-63374139D02*
G75*
G03*
X58055000Y-62922392I-1090591J-1090561D01*
G01*
X59792500Y-66672400D02*
X58742500Y-67722400D01*
X58742500Y-67722400D02*
X58055000Y-67722400D01*
X54686200Y-77829693D02*
X55651400Y-76864493D01*
X55143400Y-79832200D02*
X54686200Y-79375000D01*
X58055000Y-71104000D02*
X58055000Y-67722400D01*
X54686200Y-79375000D02*
X54686200Y-77829693D01*
X55651400Y-76864493D02*
X55651400Y-73507600D01*
X55651400Y-73507600D02*
X58055000Y-71104000D01*
X69164200Y-79857600D02*
X69570600Y-80264000D01*
X57023000Y-63000374D02*
X56572026Y-62549400D01*
X55397400Y-70285893D02*
X54349600Y-71333693D01*
X57305001Y-63722400D02*
X57023000Y-63440399D01*
X55388800Y-80332200D02*
X55863400Y-79857600D01*
X55397400Y-63018724D02*
X55397400Y-70285893D01*
X55866724Y-62549400D02*
X55397400Y-63018724D01*
X58055000Y-63722400D02*
X57305001Y-63722400D01*
X56572026Y-62549400D02*
X55866724Y-62549400D01*
X62270900Y-55107200D02*
X62859500Y-54518600D01*
X55866724Y-62549400D02*
X55397400Y-62080076D01*
X55397400Y-58953400D02*
X59243600Y-55107200D01*
X58187701Y-63722400D02*
X58055000Y-63722400D01*
D36*
X62859500Y-54426700D02*
X62849800Y-54417000D01*
D38*
X59792500Y-64172400D02*
X59274096Y-64172400D01*
X54932200Y-80332200D02*
X55388800Y-80332200D01*
X57023000Y-63440399D02*
X57023000Y-63000374D01*
X55863400Y-79857600D02*
X69164200Y-79857600D01*
X54349600Y-79749600D02*
X54932200Y-80332200D01*
X54349600Y-71333693D02*
X54349600Y-79749600D01*
X55397400Y-62080076D02*
X55397400Y-58953400D01*
D36*
X62859500Y-54518600D02*
X62859500Y-54426700D01*
D38*
X59243600Y-55107200D02*
X62270900Y-55107200D01*
X58877200Y-64008000D02*
X58807794Y-63941914D01*
X58807794Y-63941914D02*
G75*
G03*
X58187701Y-63722394I-610194J-738086D01*
G01*
X59274096Y-64172400D02*
G75*
G02*
X58877201Y-64007999I4J561300D01*
G01*
X63480000Y-76586000D02*
X63480000Y-77780200D01*
X61480000Y-61833796D02*
X61480000Y-62484900D01*
X61150400Y-61531600D02*
X61417120Y-61798320D01*
X68389200Y-78655800D02*
X68884800Y-78160200D01*
X64355600Y-78655800D02*
X68389200Y-78655800D01*
X63480000Y-77780200D02*
X64355600Y-78655800D01*
X61417120Y-61798320D02*
X61480000Y-61833796D01*
X68884800Y-78160200D02*
X68884800Y-77114400D01*
D39*
X61480000Y-77478512D02*
X61480000Y-76586000D01*
X61493044Y-77491556D02*
X61480000Y-77478512D01*
X62460556Y-77491556D02*
X61493044Y-77491556D01*
X62480000Y-76586000D02*
X62480000Y-77472112D01*
X61480000Y-73727500D02*
X61280000Y-73527500D01*
X61480000Y-76586000D02*
X61480000Y-73727500D01*
X62480000Y-77472112D02*
X62460556Y-77491556D01*
X62980000Y-74693488D02*
X62980000Y-73727500D01*
X61980000Y-76586000D02*
X61980000Y-75693488D01*
X62980000Y-76586000D02*
X62980000Y-73727500D01*
X61980000Y-75693488D02*
X62980000Y-74693488D01*
X62980000Y-73727500D02*
X63180000Y-73527500D01*
D38*
X60230000Y-74098400D02*
X60980000Y-74848400D01*
X60980000Y-67533148D02*
X60977287Y-67624279D01*
X60230000Y-69097400D02*
X60230000Y-74098400D01*
X60929216Y-67818370D02*
X60639991Y-68107595D01*
X60980000Y-67359900D02*
X60980000Y-67533148D01*
X60930101Y-67800327D02*
X60929216Y-67818370D01*
X60977287Y-67624279D02*
X60930101Y-67800327D01*
X60980000Y-74848400D02*
X60980000Y-76586000D01*
X60639991Y-68107595D02*
G75*
G03*
X60230002Y-69097400I989809J-989805D01*
G01*
X55803000Y-78388000D02*
X59567594Y-78388000D01*
X60980000Y-62136254D02*
X60980000Y-62484900D01*
X55575200Y-78160200D02*
X55803000Y-78388000D01*
X60230000Y-60747400D02*
X60230000Y-61386254D01*
X59567594Y-78388000D02*
X60480000Y-77475594D01*
X55575200Y-77647800D02*
X55575200Y-78160200D01*
X60230000Y-61386254D02*
X60980000Y-62136254D01*
X60480000Y-77475594D02*
X60480000Y-76586000D01*
X60480000Y-67359900D02*
X60477940Y-67449887D01*
X60436470Y-67670884D02*
X60421605Y-67671513D01*
X63980000Y-77543600D02*
X64058800Y-77622400D01*
X59893200Y-73863200D02*
X59893200Y-74625200D01*
X60475482Y-67525265D02*
X60436470Y-67670884D01*
X60477940Y-67449887D02*
X60475482Y-67525265D01*
X59893200Y-73863200D02*
X59893200Y-70011866D01*
X59893200Y-74625200D02*
X60452000Y-75184000D01*
X59430000Y-69548666D02*
X59430000Y-69097400D01*
X60421605Y-67671513D02*
X60392578Y-67683556D01*
X60392578Y-67683556D02*
X59749094Y-68327040D01*
X63980000Y-76586000D02*
X63980000Y-77543600D01*
X59893200Y-70011866D02*
X59430000Y-69548666D01*
X59749094Y-68327040D02*
G75*
G03*
X59430014Y-69097400I770406J-770360D01*
G01*
D36*
X68453000Y-67841500D02*
X68453000Y-67648422D01*
X68453000Y-67841500D02*
X69760600Y-66533900D01*
X69365353Y-71600553D02*
X69189600Y-71424800D01*
X68453000Y-69001600D02*
X69149000Y-69697600D01*
X69149000Y-69697600D02*
X69149000Y-71384200D01*
X69760600Y-66533900D02*
X69760600Y-64516000D01*
X66926978Y-66122400D02*
X66405000Y-66122400D01*
D38*
X64667500Y-65672400D02*
X64673695Y-65666781D01*
X64697482Y-65659981D02*
X65491315Y-65659981D01*
X64673695Y-65666781D02*
X64689129Y-65660384D01*
X65491315Y-65659981D02*
X65634641Y-65803307D01*
D36*
X68453000Y-67841500D02*
X68453000Y-69001600D01*
X69365353Y-72595247D02*
X69365353Y-71600553D01*
X69149000Y-71384200D02*
X69189600Y-71424800D01*
X68453000Y-67648422D02*
X66926978Y-66122400D01*
D38*
X64689129Y-65660384D02*
X64697482Y-65659981D01*
X65634641Y-65803307D02*
G75*
G03*
X66405000Y-66122386I770359J770407D01*
G01*
X62230000Y-51435000D02*
X62230000Y-50521891D01*
X63028891Y-49723000D02*
X64963000Y-49723000D01*
X62230000Y-50521891D02*
X63028891Y-49723000D01*
X64963000Y-49723000D02*
X66014600Y-50774600D01*
D37*
X68699401Y-56007000D02*
X68199000Y-55506599D01*
X69530000Y-58699400D02*
X69697600Y-58867000D01*
X68699401Y-56007000D02*
X68300600Y-56405801D01*
X69697600Y-58867000D02*
X69697600Y-61315666D01*
X69697600Y-61315666D02*
X68935600Y-62077666D01*
X60842000Y-57522000D02*
X62518400Y-57522000D01*
X68199000Y-54417000D02*
X66512400Y-52730400D01*
X64516000Y-54013400D02*
X65024000Y-54013400D01*
X63382000Y-55299152D02*
X64516000Y-54165152D01*
X68300600Y-57470000D02*
X69530000Y-58699400D01*
X62518400Y-57522000D02*
X63382000Y-56658400D01*
X69361900Y-56007000D02*
X68699401Y-56007000D01*
X62859500Y-53568600D02*
X64071200Y-53568600D01*
X68935600Y-62077666D02*
X68935600Y-64016000D01*
X68300600Y-56405801D02*
X68300600Y-57470000D01*
X65024000Y-54013400D02*
X68262800Y-50774600D01*
X68199000Y-55506599D02*
X68199000Y-54417000D01*
X63382000Y-56658400D02*
X63382000Y-55299152D01*
X64516000Y-54165152D02*
X64516000Y-54013400D01*
X59690000Y-58674000D02*
X60842000Y-57522000D01*
X68262800Y-50774600D02*
X68554600Y-50774600D01*
X64071200Y-53568600D02*
X64516000Y-54013400D01*
D36*
X69361900Y-57271500D02*
X69545200Y-57454800D01*
X69361900Y-56957000D02*
X69361900Y-57271500D01*
D38*
X58163000Y-64414400D02*
X58055000Y-64522400D01*
X59792500Y-64672400D02*
X58417132Y-64672400D01*
X58521600Y-64414400D02*
X57023000Y-64414400D01*
X58521600Y-64414400D02*
X58163000Y-64414400D01*
X57023000Y-64414400D02*
X56324000Y-63715400D01*
X56324000Y-63715400D02*
X56324000Y-63347600D01*
X58417132Y-64672400D02*
G75*
G02*
X58054991Y-64522409I-32J512100D01*
G01*
X58055000Y-66122400D02*
X56495600Y-66122400D01*
X56324000Y-69303400D02*
X56324000Y-66294000D01*
X59792500Y-65672400D02*
X59141396Y-65672400D01*
X57150000Y-70129400D02*
X56324000Y-69303400D01*
X56495600Y-66122400D02*
X56324000Y-66294000D01*
X59141395Y-65672399D02*
G75*
G02*
X58055000Y-66122398I-1086395J1086399D01*
G01*
X59016400Y-54076600D02*
X60142500Y-54076600D01*
X56083200Y-64820800D02*
X56584800Y-65322400D01*
X56083200Y-64820800D02*
X56324000Y-64820800D01*
X56584800Y-65322400D02*
X58055000Y-65322400D01*
X59792500Y-65172400D02*
X58417132Y-65172400D01*
X60142500Y-54076600D02*
X60584500Y-54518600D01*
X58417132Y-65172400D02*
G75*
G03*
X58054991Y-65322391I-32J-512100D01*
G01*
X66474600Y-62992000D02*
X66405000Y-62922400D01*
X65126025Y-63672400D02*
X65501983Y-63296442D01*
X68110600Y-64516000D02*
X68110600Y-62992000D01*
X68110600Y-62992000D02*
X66474600Y-62992000D01*
X64667500Y-63672400D02*
X65126025Y-63672400D01*
X65501984Y-63296443D02*
G75*
G02*
X66405000Y-62922413I903016J-903057D01*
G01*
X61980000Y-60897400D02*
X61980000Y-62484900D01*
X61830000Y-60747400D02*
X61980000Y-60897400D01*
X58782000Y-66833800D02*
X58782000Y-66646666D01*
X58782000Y-66833800D02*
X58594866Y-66833800D01*
X58594866Y-66833800D02*
X58506266Y-66922400D01*
X58782000Y-66646666D02*
X59256266Y-66172400D01*
X58506266Y-66922400D02*
X58055000Y-66922400D01*
X59256266Y-66172400D02*
X59792500Y-66172400D01*
X62560200Y-61671200D02*
X62480000Y-61591000D01*
X62480000Y-61751400D02*
X62560200Y-61671200D01*
X62480000Y-61591000D02*
X62480000Y-61109532D01*
X62480000Y-62484900D02*
X62480000Y-61751400D01*
X62480000Y-61109532D02*
G75*
G02*
X62629991Y-60747391I512100J32D01*
G01*
X63060200Y-61577600D02*
X63430000Y-61207800D01*
X63060200Y-62404700D02*
X63060200Y-61577600D01*
X63430000Y-61207800D02*
X63430000Y-60747400D01*
X62980000Y-62484900D02*
X63060200Y-62404700D01*
X64230000Y-60747400D02*
X64230000Y-61397891D01*
X63482167Y-62279319D02*
X63480000Y-62345557D01*
X63582710Y-62036638D02*
X63516464Y-62151361D01*
X64230000Y-61397891D02*
X63836796Y-61791095D01*
X63778262Y-61837992D02*
X63628000Y-61988254D01*
X63480000Y-62345557D02*
X63480000Y-62484900D01*
X63628000Y-61988254D02*
X63582710Y-62036638D01*
X63516464Y-62151361D02*
X63482167Y-62279319D01*
X63836796Y-61791095D02*
G75*
G03*
X63778262Y-61837992I3960304J-5003005D01*
G01*
X64820800Y-61747400D02*
X64795400Y-61747400D01*
X64999867Y-61568333D02*
X64820800Y-61747400D01*
X64057900Y-62484900D02*
X63980000Y-62484900D01*
X64999867Y-60957973D02*
X64999867Y-61568333D01*
X64795400Y-61747400D02*
X64057900Y-62484900D01*
X65030000Y-60747400D02*
G75*
G03*
X64999867Y-60957973I55350600J-8028100D01*
G01*
X64886777Y-63131463D02*
X65535809Y-62482431D01*
X64742291Y-63170179D02*
X64886777Y-63131463D01*
X64667500Y-63172400D02*
X64742291Y-63170179D01*
X66192400Y-61909800D02*
X66405000Y-62122400D01*
X66192400Y-61518800D02*
X66192400Y-61909800D01*
X65535809Y-62482431D02*
G75*
G02*
X66405000Y-62122394I869191J-869169D01*
G01*
X66405000Y-63722400D02*
X66770400Y-63722400D01*
X64667500Y-64672400D02*
X66042868Y-64672400D01*
X64667500Y-64672400D02*
X64667500Y-64172400D01*
X64667500Y-64172400D02*
X65318604Y-64172400D01*
X66405000Y-64522400D02*
X66405000Y-63722400D01*
X66770400Y-63722400D02*
X67183000Y-64135000D01*
X65318605Y-64172401D02*
G75*
G02*
X66405000Y-63722402I1086395J-1086399D01*
G01*
X66042868Y-64672400D02*
G75*
G03*
X66405009Y-64522409I32J512100D01*
G01*
X67758900Y-65322400D02*
X68453000Y-66016500D01*
X64667500Y-65172400D02*
X66042868Y-65172400D01*
D36*
X68935600Y-65533900D02*
X68453000Y-66016500D01*
D38*
X66405000Y-65322400D02*
X67758900Y-65322400D01*
D36*
X68935600Y-65016000D02*
X68935600Y-65533900D01*
D38*
X66042868Y-65172400D02*
G75*
G02*
X66405009Y-65322391I32J-512100D01*
G01*
X63480000Y-67725893D02*
X63480000Y-67359900D01*
X64230000Y-68475893D02*
X63480000Y-67725893D01*
X64230000Y-69097400D02*
X64230000Y-68475893D01*
X63390330Y-68343330D02*
X62992000Y-67945000D01*
X62992000Y-67720546D02*
X62980000Y-67708546D01*
X63390330Y-68723738D02*
X63390330Y-68343330D01*
X62980000Y-67708546D02*
X62980000Y-67359900D01*
X62992000Y-67945000D02*
X62992000Y-67720546D01*
X63429999Y-69097400D02*
G75*
G03*
X63390319Y-68723741I-1583299J20800D01*
G01*
X62630000Y-69097400D02*
X62484000Y-68951400D01*
X62484000Y-68951400D02*
X62484000Y-67363900D01*
X62484000Y-67363900D02*
X62480000Y-67359900D01*
D39*
X63180000Y-71252500D02*
X63180000Y-70590001D01*
X63180000Y-70590001D02*
X62771155Y-70181156D01*
X62771155Y-70181156D02*
X62002356Y-70181156D01*
X61980000Y-67359900D02*
X61980000Y-68201794D01*
X61712697Y-68980097D02*
X61830000Y-69097400D01*
X61980000Y-68201794D02*
X61712697Y-68469097D01*
X61830000Y-70008800D02*
X61830000Y-69097400D01*
X61712697Y-68469097D02*
X61712697Y-68980097D01*
X62002356Y-70181156D02*
X61830000Y-70008800D01*
X61030000Y-71002500D02*
X61030000Y-69097400D01*
X61280000Y-71252500D02*
X61030000Y-71002500D01*
X61480000Y-68045158D02*
X61378660Y-68146498D01*
X61480000Y-67359900D02*
X61480000Y-68045158D01*
X61032112Y-68983139D02*
X61030000Y-69097400D01*
X61378661Y-68146499D02*
G75*
G03*
X61032140Y-68983139I836639J-836601D01*
G01*
G04 #@! TA.AperFunction,Conductor*
G36*
X54455303Y-80280720D02*
G01*
X54461781Y-80286752D01*
X54691740Y-80516711D01*
X54747689Y-80572660D01*
X54747691Y-80572661D01*
X54747695Y-80572664D01*
X54748099Y-80572897D01*
X54816211Y-80612221D01*
X54892638Y-80632700D01*
X54892640Y-80632700D01*
X55428360Y-80632700D01*
X55428362Y-80632700D01*
X55504789Y-80612221D01*
X55573311Y-80572660D01*
X55617819Y-80528152D01*
X55679142Y-80494667D01*
X55748834Y-80499651D01*
X55804767Y-80541523D01*
X55829184Y-80606987D01*
X55829500Y-80615833D01*
X55829500Y-82110745D01*
X55829756Y-82113345D01*
X55829500Y-82114694D01*
X55829500Y-82116840D01*
X55829093Y-82116840D01*
X55816738Y-82181991D01*
X55768673Y-82232702D01*
X55706353Y-82249500D01*
X54374100Y-82249500D01*
X54307061Y-82229815D01*
X54261306Y-82177011D01*
X54250100Y-82125500D01*
X54250100Y-80374433D01*
X54269785Y-80307394D01*
X54322589Y-80261639D01*
X54391747Y-80251695D01*
X54455303Y-80280720D01*
G37*
G04 #@! TD.AperFunction*
G04 #@! TA.AperFunction,Conductor*
G36*
X65992539Y-80177785D02*
G01*
X66038294Y-80230589D01*
X66049500Y-80282100D01*
X66049500Y-82110745D01*
X66049756Y-82113345D01*
X66049500Y-82114694D01*
X66049500Y-82116840D01*
X66049093Y-82116840D01*
X66036738Y-82181991D01*
X65988673Y-82232702D01*
X65926353Y-82249500D01*
X58533647Y-82249500D01*
X58466608Y-82229815D01*
X58420853Y-82177011D01*
X58410826Y-82116840D01*
X58410500Y-82116840D01*
X58410500Y-82114881D01*
X58410244Y-82113345D01*
X58410500Y-82110745D01*
X58410500Y-81933560D01*
X58430185Y-81866521D01*
X58482989Y-81820766D01*
X58552147Y-81810822D01*
X58586027Y-81820773D01*
X58586527Y-81821001D01*
X58586531Y-81821004D01*
X58586535Y-81821005D01*
X58586539Y-81821007D01*
X58710825Y-81857499D01*
X58710827Y-81857500D01*
X58710828Y-81857500D01*
X58840373Y-81857500D01*
X58840373Y-81857499D01*
X58964669Y-81821004D01*
X59073649Y-81750967D01*
X59158482Y-81653063D01*
X59212297Y-81535226D01*
X59230733Y-81407000D01*
X59212297Y-81278774D01*
X59158482Y-81160937D01*
X59073649Y-81063033D01*
X58964669Y-80992996D01*
X58964665Y-80992994D01*
X58964664Y-80992994D01*
X58840374Y-80956500D01*
X58840372Y-80956500D01*
X58710828Y-80956500D01*
X58710826Y-80956500D01*
X58586533Y-80992994D01*
X58586016Y-80993231D01*
X58585452Y-80993312D01*
X58578021Y-80995494D01*
X58577707Y-80994426D01*
X58516858Y-81003178D01*
X58453301Y-80974155D01*
X58415524Y-80915379D01*
X58410500Y-80880439D01*
X58410500Y-80282100D01*
X58430185Y-80215061D01*
X58482989Y-80169306D01*
X58534500Y-80158100D01*
X65925500Y-80158100D01*
X65992539Y-80177785D01*
G37*
G04 #@! TD.AperFunction*
G04 #@! TA.AperFunction,Conductor*
G36*
X69055406Y-80177785D02*
G01*
X69076048Y-80194419D01*
X69081218Y-80199589D01*
X69114703Y-80260912D01*
X69116275Y-80269623D01*
X69133902Y-80392225D01*
X69160360Y-80450159D01*
X69187718Y-80510063D01*
X69272551Y-80607967D01*
X69381531Y-80678004D01*
X69505825Y-80714499D01*
X69505827Y-80714500D01*
X69505828Y-80714500D01*
X69635373Y-80714500D01*
X69635373Y-80714499D01*
X69759669Y-80678004D01*
X69868649Y-80607967D01*
X69953482Y-80510063D01*
X69953485Y-80510055D01*
X69956183Y-80505859D01*
X70008987Y-80460104D01*
X70078145Y-80450159D01*
X70141701Y-80479183D01*
X70179477Y-80537960D01*
X70184500Y-80572897D01*
X70184500Y-82125500D01*
X70164815Y-82192539D01*
X70112011Y-82238294D01*
X70060500Y-82249500D01*
X68753647Y-82249500D01*
X68686608Y-82229815D01*
X68640853Y-82177011D01*
X68630826Y-82116840D01*
X68630500Y-82116840D01*
X68630500Y-82114881D01*
X68630244Y-82113345D01*
X68630500Y-82110745D01*
X68630500Y-80282100D01*
X68650185Y-80215061D01*
X68702989Y-80169306D01*
X68754500Y-80158100D01*
X68988367Y-80158100D01*
X69055406Y-80177785D01*
G37*
G04 #@! TD.AperFunction*
G04 #@! TA.AperFunction,Conductor*
G36*
X64735539Y-66567085D02*
G01*
X64781294Y-66619889D01*
X64792500Y-66671400D01*
X64792500Y-67297400D01*
X65051164Y-67297400D01*
X65118203Y-67317085D01*
X65163958Y-67369889D01*
X65173902Y-67439047D01*
X65170240Y-67455995D01*
X65165474Y-67472399D01*
X65165474Y-67472400D01*
X66531000Y-67472400D01*
X66598039Y-67492085D01*
X66643794Y-67544889D01*
X66655000Y-67596400D01*
X66655000Y-68472400D01*
X66957500Y-68472400D01*
X67024539Y-68492085D01*
X67070294Y-68544889D01*
X67081500Y-68596400D01*
X67081500Y-68648100D01*
X67061815Y-68715139D01*
X67009011Y-68760894D01*
X66957500Y-68772100D01*
X66944730Y-68772100D01*
X66914300Y-68774953D01*
X66914298Y-68774953D01*
X66786119Y-68819806D01*
X66786117Y-68819807D01*
X66676850Y-68900450D01*
X66596207Y-69009717D01*
X66596206Y-69009719D01*
X66551353Y-69137898D01*
X66551353Y-69137900D01*
X66548500Y-69168330D01*
X66548500Y-70226869D01*
X66551353Y-70257299D01*
X66551354Y-70257301D01*
X66560992Y-70284845D01*
X66564554Y-70354624D01*
X66529826Y-70415251D01*
X66467832Y-70447479D01*
X66456632Y-70448567D01*
X66455400Y-70449800D01*
X66455400Y-72399799D01*
X66478708Y-72399799D01*
X66478720Y-72399798D01*
X66574218Y-72390042D01*
X66642911Y-72402811D01*
X66693796Y-72450692D01*
X66710717Y-72518481D01*
X66705724Y-72545849D01*
X66705911Y-72545889D01*
X66704600Y-72552007D01*
X66704530Y-72552396D01*
X66704495Y-72552501D01*
X66704493Y-72552509D01*
X66694000Y-72655213D01*
X66694000Y-73105200D01*
X67865247Y-73105200D01*
X67881775Y-73088672D01*
X67943098Y-73055187D01*
X67969456Y-73052353D01*
X68024685Y-73052353D01*
X68091724Y-73072038D01*
X68137479Y-73124842D01*
X68147423Y-73194000D01*
X68118398Y-73257556D01*
X68112366Y-73264034D01*
X68033900Y-73342500D01*
X68084919Y-73393519D01*
X68118404Y-73454842D01*
X68113420Y-73524534D01*
X68071548Y-73580467D01*
X68027187Y-73597012D01*
X68019000Y-73605200D01*
X68019000Y-74755199D01*
X68143972Y-74755199D01*
X68143986Y-74755198D01*
X68246697Y-74744705D01*
X68413119Y-74689558D01*
X68413124Y-74689556D01*
X68562345Y-74597515D01*
X68686315Y-74473545D01*
X68778356Y-74324324D01*
X68778358Y-74324319D01*
X68833505Y-74157897D01*
X68833506Y-74157889D01*
X68838451Y-74109492D01*
X68864847Y-74044800D01*
X68920856Y-74005052D01*
X68985718Y-73982356D01*
X68985719Y-73982356D01*
X69128822Y-73892437D01*
X69248331Y-73772928D01*
X69338250Y-73629822D01*
X69365358Y-73552353D01*
X69343464Y-73521495D01*
X69320725Y-73455429D01*
X69337313Y-73387557D01*
X69357788Y-73361192D01*
X69380706Y-73338725D01*
X69968495Y-72762495D01*
X69852899Y-72646899D01*
X69819414Y-72585576D01*
X69817846Y-72576889D01*
X69802050Y-72467021D01*
X69770034Y-72396917D01*
X69748236Y-72349186D01*
X69748235Y-72349185D01*
X69748235Y-72349184D01*
X69746137Y-72346763D01*
X69744809Y-72343854D01*
X69743442Y-72341727D01*
X69743748Y-72341530D01*
X69717115Y-72283208D01*
X69715853Y-72265564D01*
X69715853Y-72026657D01*
X69735538Y-71959618D01*
X69752169Y-71938978D01*
X69763128Y-71928020D01*
X69824319Y-71807926D01*
X69828873Y-71779174D01*
X69840100Y-71708293D01*
X69840100Y-71141306D01*
X69824320Y-71041678D01*
X69824319Y-71041676D01*
X69824319Y-71041674D01*
X69763128Y-70921580D01*
X69763126Y-70921578D01*
X69763123Y-70921574D01*
X69667825Y-70826276D01*
X69667821Y-70826273D01*
X69667820Y-70826272D01*
X69665406Y-70825042D01*
X69610539Y-70797085D01*
X69559743Y-70749110D01*
X69542949Y-70681289D01*
X69565487Y-70615154D01*
X69604410Y-70580918D01*
X69604405Y-70580911D01*
X69604490Y-70580848D01*
X69608905Y-70576965D01*
X69611874Y-70575395D01*
X69611882Y-70575393D01*
X69721150Y-70494750D01*
X69801793Y-70385482D01*
X69824219Y-70321390D01*
X69846646Y-70257301D01*
X69846646Y-70257299D01*
X69849500Y-70226869D01*
X69849500Y-69168330D01*
X69846646Y-69137900D01*
X69846646Y-69137898D01*
X69801793Y-69009719D01*
X69801792Y-69009717D01*
X69721150Y-68900450D01*
X69611882Y-68819807D01*
X69611880Y-68819806D01*
X69483700Y-68774953D01*
X69453270Y-68772100D01*
X69453266Y-68772100D01*
X69087490Y-68772100D01*
X69020451Y-68752415D01*
X68974696Y-68699611D01*
X68964752Y-68630453D01*
X68993777Y-68566897D01*
X69046534Y-68531059D01*
X69057019Y-68527389D01*
X69115882Y-68506793D01*
X69225150Y-68426150D01*
X69305793Y-68316882D01*
X69343411Y-68209376D01*
X69350646Y-68188701D01*
X69350646Y-68188699D01*
X69353500Y-68158269D01*
X69353500Y-67524733D01*
X69353118Y-67520671D01*
X69351393Y-67502269D01*
X69364731Y-67433686D01*
X69387167Y-67403013D01*
X69972820Y-66817360D01*
X70034142Y-66783877D01*
X70103834Y-66788861D01*
X70159767Y-66830733D01*
X70184184Y-66896197D01*
X70184500Y-66905043D01*
X70184500Y-72679138D01*
X70164815Y-72746177D01*
X70146574Y-72761982D01*
X70160500Y-72772624D01*
X70184266Y-72838327D01*
X70184500Y-72845945D01*
X70184500Y-79955102D01*
X70164815Y-80022141D01*
X70112011Y-80067896D01*
X70042853Y-80077840D01*
X69979297Y-80048815D01*
X69956186Y-80022144D01*
X69953483Y-80017938D01*
X69868649Y-79920033D01*
X69759669Y-79849996D01*
X69759665Y-79849994D01*
X69759664Y-79849994D01*
X69635374Y-79813500D01*
X69635372Y-79813500D01*
X69596433Y-79813500D01*
X69529394Y-79793815D01*
X69508752Y-79777181D01*
X69348710Y-79617139D01*
X69328548Y-79605499D01*
X69308385Y-79593858D01*
X69308384Y-79593857D01*
X69280194Y-79577581D01*
X69280191Y-79577579D01*
X69241975Y-79567339D01*
X69203762Y-79557100D01*
X55902962Y-79557100D01*
X55823838Y-79557100D01*
X55747412Y-79577578D01*
X55747411Y-79577578D01*
X55747409Y-79577579D01*
X55747408Y-79577579D01*
X55683742Y-79614337D01*
X55615841Y-79630810D01*
X55549815Y-79607957D01*
X55528028Y-79588152D01*
X55441449Y-79488233D01*
X55332469Y-79418196D01*
X55332465Y-79418194D01*
X55332464Y-79418194D01*
X55208174Y-79381700D01*
X55208172Y-79381700D01*
X55169233Y-79381700D01*
X55102194Y-79362015D01*
X55081552Y-79345381D01*
X55023019Y-79286848D01*
X54989534Y-79225525D01*
X54986700Y-79199167D01*
X54986700Y-78005526D01*
X55006385Y-77938487D01*
X55023019Y-77917845D01*
X55030680Y-77910184D01*
X55092003Y-77876699D01*
X55161695Y-77881683D01*
X55212072Y-77916660D01*
X55244414Y-77953986D01*
X55273438Y-78017539D01*
X55274700Y-78035186D01*
X55274700Y-78199762D01*
X55295179Y-78276189D01*
X55295180Y-78276190D01*
X55312132Y-78305553D01*
X55334737Y-78344707D01*
X55334739Y-78344710D01*
X55334740Y-78344711D01*
X55562540Y-78572511D01*
X55618489Y-78628460D01*
X55618491Y-78628461D01*
X55618495Y-78628464D01*
X55687004Y-78668017D01*
X55687011Y-78668021D01*
X55763438Y-78688500D01*
X55763440Y-78688500D01*
X59607154Y-78688500D01*
X59607156Y-78688500D01*
X59683583Y-78668021D01*
X59752105Y-78628460D01*
X59808054Y-78572511D01*
X60720460Y-77660105D01*
X60746430Y-77615123D01*
X60757646Y-77595697D01*
X60757649Y-77595691D01*
X60757929Y-77595204D01*
X60760021Y-77591583D01*
X60780500Y-77515156D01*
X60780500Y-77485500D01*
X60800185Y-77418461D01*
X60852989Y-77372706D01*
X60904500Y-77361500D01*
X61024944Y-77361500D01*
X61091983Y-77381185D01*
X61137738Y-77433989D01*
X61148944Y-77485500D01*
X61148944Y-77522097D01*
X61155301Y-77545821D01*
X61165852Y-77585200D01*
X61165859Y-77585223D01*
X61165862Y-77585234D01*
X61169440Y-77598588D01*
X61171505Y-77606296D01*
X61215086Y-77681781D01*
X61215088Y-77681784D01*
X61215089Y-77681785D01*
X61228133Y-77694829D01*
X61289771Y-77756467D01*
X61348079Y-77790131D01*
X61365261Y-77800051D01*
X61449459Y-77822612D01*
X61449460Y-77822612D01*
X61449462Y-77822612D01*
X62504138Y-77822612D01*
X62504141Y-77822612D01*
X62588339Y-77800051D01*
X62605521Y-77790131D01*
X62663829Y-77756467D01*
X62725467Y-77694829D01*
X62744911Y-77675385D01*
X62788495Y-77599895D01*
X62801952Y-77549672D01*
X62811056Y-77515697D01*
X62811056Y-77485500D01*
X62830741Y-77418461D01*
X62883545Y-77372706D01*
X62935056Y-77361500D01*
X63055500Y-77361500D01*
X63122539Y-77381185D01*
X63168294Y-77433989D01*
X63179500Y-77485500D01*
X63179500Y-77819762D01*
X63180264Y-77822612D01*
X63199979Y-77896190D01*
X63199982Y-77896195D01*
X63239535Y-77964704D01*
X63239539Y-77964709D01*
X63239540Y-77964711D01*
X64115140Y-78840311D01*
X64171089Y-78896260D01*
X64171091Y-78896261D01*
X64171095Y-78896264D01*
X64239604Y-78935817D01*
X64239611Y-78935821D01*
X64316038Y-78956300D01*
X64316040Y-78956300D01*
X68428760Y-78956300D01*
X68428762Y-78956300D01*
X68505189Y-78935821D01*
X68573711Y-78896260D01*
X68629660Y-78840311D01*
X69125260Y-78344711D01*
X69140115Y-78318981D01*
X69147868Y-78305553D01*
X69152761Y-78297076D01*
X69164821Y-78276189D01*
X69185300Y-78199762D01*
X69185300Y-77501786D01*
X69204985Y-77434747D01*
X69215578Y-77420594D01*
X69267682Y-77360463D01*
X69321497Y-77242626D01*
X69339933Y-77114400D01*
X69321497Y-76986174D01*
X69267682Y-76868337D01*
X69182849Y-76770433D01*
X69073869Y-76700396D01*
X69073865Y-76700394D01*
X69073864Y-76700394D01*
X68949574Y-76663900D01*
X68949572Y-76663900D01*
X68820028Y-76663900D01*
X68789433Y-76672883D01*
X68719563Y-76672882D01*
X68660786Y-76635106D01*
X68631762Y-76571550D01*
X68630500Y-76553905D01*
X68630500Y-76141249D01*
X68630499Y-76141247D01*
X68618868Y-76082770D01*
X68618867Y-76082769D01*
X68574552Y-76016447D01*
X68508230Y-75972132D01*
X68508229Y-75972131D01*
X68449752Y-75960500D01*
X68449748Y-75960500D01*
X66330907Y-75960500D01*
X66263868Y-75940815D01*
X66218113Y-75888011D01*
X66214725Y-75879833D01*
X66173354Y-75768913D01*
X66173350Y-75768906D01*
X66087190Y-75653812D01*
X66087187Y-75653809D01*
X65972093Y-75567649D01*
X65972086Y-75567645D01*
X65837379Y-75517403D01*
X65837372Y-75517401D01*
X65777844Y-75511000D01*
X65730000Y-75511000D01*
X65730000Y-76612000D01*
X65710315Y-76679039D01*
X65657511Y-76724794D01*
X65606000Y-76736000D01*
X65254500Y-76736000D01*
X65187461Y-76716315D01*
X65141706Y-76663511D01*
X65130500Y-76612000D01*
X65130500Y-75990262D01*
X65130000Y-75980084D01*
X65130000Y-75511000D01*
X65082155Y-75511000D01*
X65022627Y-75517401D01*
X65022620Y-75517403D01*
X64887913Y-75567645D01*
X64887904Y-75567650D01*
X64877386Y-75575524D01*
X64811921Y-75599938D01*
X64743649Y-75585084D01*
X64715399Y-75563935D01*
X64353819Y-75202355D01*
X64320334Y-75141032D01*
X64317500Y-75114674D01*
X64317500Y-74579700D01*
X64337185Y-74512661D01*
X64389989Y-74466906D01*
X64441500Y-74455700D01*
X65198270Y-74455700D01*
X65228699Y-74452846D01*
X65228701Y-74452846D01*
X65292790Y-74430419D01*
X65356882Y-74407993D01*
X65466150Y-74327350D01*
X65546793Y-74218082D01*
X65573980Y-74140386D01*
X65591646Y-74089901D01*
X65591646Y-74089899D01*
X65594500Y-74059469D01*
X65594500Y-73605200D01*
X66694001Y-73605200D01*
X66694001Y-74055186D01*
X66704494Y-74157897D01*
X66759641Y-74324319D01*
X66759643Y-74324324D01*
X66851684Y-74473545D01*
X66975654Y-74597515D01*
X67124875Y-74689556D01*
X67124880Y-74689558D01*
X67291302Y-74744705D01*
X67291309Y-74744706D01*
X67394019Y-74755199D01*
X67518999Y-74755199D01*
X67519000Y-74755198D01*
X67519000Y-73605200D01*
X66694001Y-73605200D01*
X65594500Y-73605200D01*
X65594500Y-72650930D01*
X65591646Y-72620500D01*
X65591646Y-72620498D01*
X65551913Y-72506950D01*
X65548351Y-72437171D01*
X65583079Y-72376544D01*
X65645072Y-72344316D01*
X65707959Y-72348289D01*
X65832794Y-72389656D01*
X65932083Y-72399799D01*
X65955400Y-72399798D01*
X65955400Y-70449799D01*
X65932093Y-70449800D01*
X65932074Y-70449801D01*
X65832792Y-70459944D01*
X65671918Y-70513252D01*
X65671907Y-70513257D01*
X65521521Y-70606018D01*
X65520158Y-70603809D01*
X65466601Y-70625409D01*
X65397961Y-70612361D01*
X65347271Y-70564274D01*
X65330500Y-70502001D01*
X65330500Y-70058588D01*
X65350185Y-69991549D01*
X65366819Y-69970907D01*
X65392837Y-69944889D01*
X65425747Y-69911979D01*
X65474259Y-69807945D01*
X65480500Y-69760539D01*
X65480499Y-68576380D01*
X65500184Y-68509342D01*
X65552987Y-68463587D01*
X65622146Y-68453643D01*
X65639095Y-68457305D01*
X65681449Y-68469610D01*
X65681452Y-68469611D01*
X65716881Y-68472399D01*
X65716894Y-68472400D01*
X66155000Y-68472400D01*
X66155000Y-67972400D01*
X65147959Y-67972400D01*
X65131810Y-67984453D01*
X65062111Y-67989337D01*
X65000961Y-67955890D01*
X64530166Y-67485095D01*
X64496681Y-67423772D01*
X64501665Y-67354080D01*
X64530167Y-67309732D01*
X64542500Y-67297399D01*
X64542500Y-66797400D01*
X64272887Y-66797400D01*
X64205848Y-66777715D01*
X64204027Y-66776522D01*
X64200999Y-66774499D01*
X64156197Y-66720886D01*
X64147491Y-66651561D01*
X64177648Y-66588535D01*
X64237092Y-66551817D01*
X64269894Y-66547400D01*
X64668500Y-66547400D01*
X64735539Y-66567085D01*
G37*
G04 #@! TD.AperFunction*
G04 #@! TA.AperFunction,Conductor*
G36*
X55878196Y-66893247D02*
G01*
X55885656Y-66897048D01*
X55885658Y-66897050D01*
X55955796Y-66932787D01*
X56006591Y-66980761D01*
X56023500Y-67043271D01*
X56023500Y-69342962D01*
X56043979Y-69419389D01*
X56043980Y-69419391D01*
X56056667Y-69441365D01*
X56056669Y-69441368D01*
X56083539Y-69487909D01*
X56083541Y-69487912D01*
X56660618Y-70064989D01*
X56694103Y-70126312D01*
X56695675Y-70135023D01*
X56713302Y-70257625D01*
X56757601Y-70354624D01*
X56767118Y-70375463D01*
X56840320Y-70459944D01*
X56849383Y-70470404D01*
X56851951Y-70473367D01*
X56960931Y-70543404D01*
X57075232Y-70576965D01*
X57085225Y-70579899D01*
X57085227Y-70579900D01*
X57085228Y-70579900D01*
X57214773Y-70579900D01*
X57214773Y-70579899D01*
X57339069Y-70543404D01*
X57448049Y-70473367D01*
X57532882Y-70375463D01*
X57532882Y-70375461D01*
X57536786Y-70370957D01*
X57595564Y-70333182D01*
X57665434Y-70333182D01*
X57724212Y-70370955D01*
X57753238Y-70434511D01*
X57754500Y-70452159D01*
X57754500Y-70928167D01*
X57734815Y-70995206D01*
X57718181Y-71015848D01*
X55410941Y-73323087D01*
X55410935Y-73323095D01*
X55371382Y-73391604D01*
X55371379Y-73391609D01*
X55350900Y-73468039D01*
X55350900Y-76688660D01*
X55331215Y-76755699D01*
X55314581Y-76776341D01*
X54861781Y-77229141D01*
X54800458Y-77262626D01*
X54730766Y-77257642D01*
X54674833Y-77215770D01*
X54650416Y-77150306D01*
X54650100Y-77141460D01*
X54650100Y-71509525D01*
X54669785Y-71442486D01*
X54686415Y-71421848D01*
X54878279Y-71229983D01*
X54939602Y-71196499D01*
X55009294Y-71201483D01*
X55059674Y-71236463D01*
X55124751Y-71311567D01*
X55233731Y-71381604D01*
X55358025Y-71418099D01*
X55358027Y-71418100D01*
X55358028Y-71418100D01*
X55487573Y-71418100D01*
X55487573Y-71418099D01*
X55611869Y-71381604D01*
X55720849Y-71311567D01*
X55805682Y-71213663D01*
X55859497Y-71095826D01*
X55877933Y-70967600D01*
X55859497Y-70839374D01*
X55805682Y-70721537D01*
X55720849Y-70623633D01*
X55695257Y-70607186D01*
X55649503Y-70554383D01*
X55639559Y-70485225D01*
X55654912Y-70440868D01*
X55661245Y-70429900D01*
X55677421Y-70401882D01*
X55697900Y-70325455D01*
X55697900Y-67003731D01*
X55717585Y-66936692D01*
X55770389Y-66890937D01*
X55839547Y-66880993D01*
X55878196Y-66893247D01*
G37*
G04 #@! TD.AperFunction*
G04 #@! TA.AperFunction,Conductor*
G36*
X60097539Y-67017584D02*
G01*
X60143294Y-67070388D01*
X60154500Y-67121899D01*
X60154500Y-67445300D01*
X60134815Y-67512339D01*
X60118181Y-67532981D01*
X59574598Y-68076563D01*
X59574555Y-68076603D01*
X59574556Y-68076604D01*
X59572900Y-68078259D01*
X59572860Y-68078280D01*
X59540562Y-68110580D01*
X59479239Y-68144066D01*
X59452880Y-68146900D01*
X59266867Y-68146900D01*
X59251839Y-68148878D01*
X59219455Y-68153141D01*
X59219453Y-68153142D01*
X59219448Y-68153143D01*
X59115631Y-68201554D01*
X59046554Y-68212046D01*
X59040584Y-68209376D01*
X59041023Y-68264616D01*
X59034154Y-68283031D01*
X58985741Y-68386854D01*
X58985740Y-68386855D01*
X58979500Y-68434260D01*
X58979500Y-69760532D01*
X58979501Y-69760538D01*
X58985741Y-69807945D01*
X59034253Y-69911979D01*
X59115421Y-69993147D01*
X59219455Y-70041659D01*
X59266861Y-70047900D01*
X59452899Y-70047899D01*
X59519939Y-70067583D01*
X59540581Y-70084218D01*
X59556381Y-70100018D01*
X59589866Y-70161341D01*
X59592700Y-70187699D01*
X59592700Y-72753574D01*
X59573015Y-72820613D01*
X59520211Y-72866368D01*
X59451053Y-72876312D01*
X59411075Y-72863371D01*
X59381425Y-72847809D01*
X59216256Y-72807100D01*
X59046144Y-72807100D01*
X58880973Y-72847810D01*
X58730350Y-72926863D01*
X58603016Y-73039672D01*
X58506382Y-73179668D01*
X58446060Y-73338725D01*
X58446059Y-73338730D01*
X58425555Y-73507600D01*
X58446059Y-73676469D01*
X58446060Y-73676474D01*
X58506382Y-73835531D01*
X58545662Y-73892437D01*
X58603017Y-73975529D01*
X58730348Y-74088334D01*
X58730349Y-74088334D01*
X58735962Y-74093307D01*
X58734394Y-74095075D01*
X58771124Y-74140386D01*
X58780700Y-74188169D01*
X58780700Y-74442503D01*
X58798575Y-74509212D01*
X58798574Y-74509212D01*
X58798575Y-74509214D01*
X58804585Y-74531645D01*
X58850727Y-74611567D01*
X58850731Y-74611572D01*
X59293181Y-75054021D01*
X59326666Y-75115344D01*
X59329500Y-75141702D01*
X59329500Y-76612000D01*
X59309815Y-76679039D01*
X59257011Y-76724794D01*
X59205500Y-76736000D01*
X58854000Y-76736000D01*
X58786961Y-76716315D01*
X58741206Y-76663511D01*
X58730000Y-76612000D01*
X58730000Y-75511000D01*
X58682155Y-75511000D01*
X58622627Y-75517401D01*
X58622620Y-75517403D01*
X58487913Y-75567645D01*
X58487906Y-75567649D01*
X58372812Y-75653809D01*
X58372809Y-75653812D01*
X58286649Y-75768906D01*
X58286645Y-75768913D01*
X58245276Y-75879833D01*
X58203405Y-75935766D01*
X58137941Y-75960184D01*
X58129094Y-75960500D01*
X56075900Y-75960500D01*
X56008861Y-75940815D01*
X55963106Y-75888011D01*
X55951900Y-75836500D01*
X55951900Y-73683433D01*
X55971585Y-73616394D01*
X55988219Y-73595752D01*
X57133279Y-72450692D01*
X58295460Y-71288511D01*
X58335022Y-71219988D01*
X58355500Y-71143562D01*
X58355500Y-71064438D01*
X58355500Y-68296899D01*
X58375185Y-68229860D01*
X58427989Y-68184105D01*
X58479500Y-68172899D01*
X58718133Y-68172899D01*
X58718138Y-68172899D01*
X58765545Y-68166659D01*
X58869370Y-68118244D01*
X58938444Y-68107753D01*
X58944415Y-68110422D01*
X58943977Y-68055182D01*
X58950841Y-68036776D01*
X58999259Y-67932945D01*
X59000182Y-67925926D01*
X59028446Y-67862031D01*
X59035429Y-67854440D01*
X59855652Y-67034218D01*
X59916975Y-67000733D01*
X59943333Y-66997899D01*
X60030500Y-66997899D01*
X60097539Y-67017584D01*
G37*
G04 #@! TD.AperFunction*
G04 #@! TA.AperFunction,Conductor*
G36*
X62423039Y-73297185D02*
G01*
X62468794Y-73349989D01*
X62480000Y-73401500D01*
X62480000Y-74673941D01*
X62460315Y-74740980D01*
X62443681Y-74761622D01*
X62022737Y-75182566D01*
X61961414Y-75216051D01*
X61891722Y-75211067D01*
X61835789Y-75169195D01*
X61811372Y-75103731D01*
X61811056Y-75094885D01*
X61811056Y-74803893D01*
X61830741Y-74736854D01*
X61883545Y-74691099D01*
X61952703Y-74681155D01*
X61969652Y-74684817D01*
X61977508Y-74687099D01*
X61977511Y-74687100D01*
X61979998Y-74687295D01*
X61980000Y-74687295D01*
X61980000Y-73401500D01*
X61999685Y-73334461D01*
X62052489Y-73288706D01*
X62104000Y-73277500D01*
X62356000Y-73277500D01*
X62423039Y-73297185D01*
G37*
G04 #@! TD.AperFunction*
G04 #@! TA.AperFunction,Conductor*
G36*
X63873334Y-69966906D02*
G01*
X63905898Y-69987834D01*
X63906535Y-69986925D01*
X63915419Y-69993145D01*
X63915421Y-69993147D01*
X64019455Y-70041659D01*
X64066861Y-70047900D01*
X64393138Y-70047899D01*
X64440545Y-70041659D01*
X64544579Y-69993147D01*
X64544581Y-69993144D01*
X64553094Y-69989175D01*
X64622172Y-69978683D01*
X64685956Y-70007202D01*
X64724196Y-70065678D01*
X64729500Y-70101557D01*
X64729500Y-70625300D01*
X64709815Y-70692339D01*
X64657011Y-70738094D01*
X64605500Y-70749300D01*
X64396907Y-70749300D01*
X64297278Y-70765079D01*
X64177178Y-70826273D01*
X64177174Y-70826276D01*
X64081876Y-70921574D01*
X64081873Y-70921578D01*
X64020679Y-71041678D01*
X64004900Y-71141306D01*
X64004900Y-71708293D01*
X64020679Y-71807921D01*
X64020680Y-71807924D01*
X64020681Y-71807926D01*
X64071366Y-71907400D01*
X64081873Y-71928021D01*
X64081876Y-71928025D01*
X64177174Y-72023323D01*
X64177177Y-72023325D01*
X64177180Y-72023328D01*
X64272563Y-72071928D01*
X64323357Y-72119900D01*
X64340267Y-72182411D01*
X64340267Y-72195668D01*
X64336687Y-72195668D01*
X64329116Y-72247988D01*
X64287707Y-72295688D01*
X64288594Y-72296890D01*
X64281119Y-72302406D01*
X64281118Y-72302407D01*
X64268375Y-72311812D01*
X64185538Y-72372947D01*
X64119908Y-72396917D01*
X64051738Y-72381601D01*
X64024224Y-72360857D01*
X63754879Y-72091512D01*
X63754877Y-72091510D01*
X63720957Y-72071926D01*
X63703532Y-72061865D01*
X63655318Y-72011297D01*
X63642096Y-71942690D01*
X63654133Y-71900020D01*
X63670573Y-71866393D01*
X63680500Y-71798260D01*
X63680500Y-70706740D01*
X63670573Y-70638607D01*
X63619198Y-70533517D01*
X63619196Y-70533515D01*
X63619196Y-70533514D01*
X63536483Y-70450801D01*
X63494443Y-70430249D01*
X63452039Y-70391507D01*
X63449861Y-70393179D01*
X63444909Y-70386726D01*
X63317763Y-70259580D01*
X63284278Y-70198257D01*
X63289262Y-70128565D01*
X63331134Y-70072632D01*
X63396598Y-70048215D01*
X63405427Y-70047899D01*
X63593138Y-70047899D01*
X63640545Y-70041659D01*
X63744579Y-69993147D01*
X63744581Y-69993145D01*
X63753465Y-69986925D01*
X63754678Y-69988658D01*
X63803642Y-69961922D01*
X63873334Y-69966906D01*
G37*
G04 #@! TD.AperFunction*
G04 #@! TA.AperFunction,Conductor*
G36*
X60050854Y-49240585D02*
G01*
X60096609Y-49293389D01*
X60106553Y-49362547D01*
X60077528Y-49426103D01*
X60071496Y-49432581D01*
X59437522Y-50066554D01*
X59437518Y-50066560D01*
X59417652Y-50100968D01*
X59367084Y-50149183D01*
X59298477Y-50162404D01*
X59233613Y-50136435D01*
X59214413Y-50117631D01*
X59141010Y-50028190D01*
X58990721Y-49904852D01*
X58981050Y-49896915D01*
X58798554Y-49799368D01*
X58600534Y-49739300D01*
X58600532Y-49739299D01*
X58600534Y-49739299D01*
X58394600Y-49719017D01*
X58188667Y-49739299D01*
X57990643Y-49799369D01*
X57880498Y-49858243D01*
X57808150Y-49896915D01*
X57808148Y-49896916D01*
X57808147Y-49896917D01*
X57648189Y-50028189D01*
X57516917Y-50188147D01*
X57516915Y-50188150D01*
X57499147Y-50221391D01*
X57419369Y-50370643D01*
X57359299Y-50568667D01*
X57339017Y-50774600D01*
X57359299Y-50980532D01*
X57366183Y-51003226D01*
X57419368Y-51178554D01*
X57464454Y-51262904D01*
X57516917Y-51361053D01*
X57638253Y-51508902D01*
X57665566Y-51573212D01*
X57666400Y-51587567D01*
X57666400Y-52729400D01*
X57646715Y-52796439D01*
X57593911Y-52842194D01*
X57542400Y-52853400D01*
X56466401Y-52853400D01*
X56466401Y-52901722D01*
X56476544Y-53001007D01*
X56529852Y-53161881D01*
X56529857Y-53161892D01*
X56618824Y-53306128D01*
X56618827Y-53306132D01*
X56738668Y-53425973D01*
X56770461Y-53445583D01*
X56817186Y-53497531D01*
X56828409Y-53566493D01*
X56815850Y-53607415D01*
X56813516Y-53611997D01*
X56780752Y-53676298D01*
X56765900Y-53770075D01*
X56765900Y-54383117D01*
X56776692Y-54451257D01*
X56780754Y-54476904D01*
X56838350Y-54589942D01*
X56838352Y-54589944D01*
X56838354Y-54589947D01*
X56928052Y-54679645D01*
X56928054Y-54679646D01*
X56928058Y-54679650D01*
X57041094Y-54737245D01*
X57041098Y-54737247D01*
X57134875Y-54752099D01*
X57134881Y-54752100D01*
X57597918Y-54752099D01*
X57691704Y-54737246D01*
X57804742Y-54679650D01*
X57894450Y-54589942D01*
X57952046Y-54476904D01*
X57952046Y-54476902D01*
X57952047Y-54476901D01*
X57965829Y-54389881D01*
X57966900Y-54383119D01*
X57966899Y-54080653D01*
X57986583Y-54013615D01*
X58003213Y-53992978D01*
X58204219Y-53791972D01*
X58265542Y-53758488D01*
X58335234Y-53763472D01*
X58391167Y-53805344D01*
X58415584Y-53870808D01*
X58415900Y-53879654D01*
X58415900Y-54383117D01*
X58426692Y-54451257D01*
X58430754Y-54476904D01*
X58488350Y-54589942D01*
X58488352Y-54589944D01*
X58488354Y-54589947D01*
X58578052Y-54679645D01*
X58578054Y-54679646D01*
X58578058Y-54679650D01*
X58691094Y-54737245D01*
X58691098Y-54737247D01*
X58784875Y-54752099D01*
X58784881Y-54752100D01*
X58874368Y-54752099D01*
X58941405Y-54771783D01*
X58987161Y-54824586D01*
X58997105Y-54893745D01*
X58968081Y-54957301D01*
X58962048Y-54963780D01*
X55212889Y-58712940D01*
X55156941Y-58768887D01*
X55156935Y-58768895D01*
X55117382Y-58837404D01*
X55117379Y-58837409D01*
X55096900Y-58913839D01*
X55096900Y-59305535D01*
X55077215Y-59372574D01*
X55024411Y-59418329D01*
X54961681Y-59429026D01*
X54930575Y-59426200D01*
X54924000Y-59426200D01*
X54924000Y-60856400D01*
X54937681Y-60870081D01*
X54971166Y-60931404D01*
X54974000Y-60957762D01*
X54974000Y-62791038D01*
X54954315Y-62858077D01*
X54937681Y-62878719D01*
X54924000Y-62892400D01*
X54924000Y-67268999D01*
X54930580Y-67268999D01*
X54961678Y-67266173D01*
X55030224Y-67279709D01*
X55080570Y-67328156D01*
X55096900Y-67389664D01*
X55096900Y-70110060D01*
X55077215Y-70177099D01*
X55060581Y-70197741D01*
X54461781Y-70796541D01*
X54400458Y-70830026D01*
X54330766Y-70825042D01*
X54274833Y-70783170D01*
X54250416Y-70717706D01*
X54250100Y-70708860D01*
X54250100Y-67389573D01*
X54269785Y-67322534D01*
X54322589Y-67276779D01*
X54385325Y-67266082D01*
X54417421Y-67268999D01*
X54423999Y-67268998D01*
X54424000Y-67268998D01*
X54424000Y-62430962D01*
X54443685Y-62363923D01*
X54460319Y-62343281D01*
X54474000Y-62329600D01*
X54474000Y-61419200D01*
X54460319Y-61405519D01*
X54426834Y-61344196D01*
X54424000Y-61317838D01*
X54424000Y-59426200D01*
X54423999Y-59426199D01*
X54417436Y-59426200D01*
X54417434Y-59426200D01*
X54385317Y-59429118D01*
X54316772Y-59415578D01*
X54266428Y-59367130D01*
X54250100Y-59305626D01*
X54250100Y-52353400D01*
X56466400Y-52353400D01*
X57166400Y-52353400D01*
X57166400Y-51628399D01*
X57143093Y-51628400D01*
X57143074Y-51628401D01*
X57043792Y-51638544D01*
X56882918Y-51691852D01*
X56882907Y-51691857D01*
X56738671Y-51780824D01*
X56738667Y-51780827D01*
X56618827Y-51900667D01*
X56618824Y-51900671D01*
X56529857Y-52044907D01*
X56529852Y-52044918D01*
X56476544Y-52205793D01*
X56466400Y-52305077D01*
X56466400Y-52353400D01*
X54250100Y-52353400D01*
X54250100Y-50774600D01*
X54799017Y-50774600D01*
X54819299Y-50980532D01*
X54826183Y-51003226D01*
X54879368Y-51178554D01*
X54976915Y-51361050D01*
X55009390Y-51400621D01*
X55108189Y-51521010D01*
X55189290Y-51587567D01*
X55268150Y-51652285D01*
X55450646Y-51749832D01*
X55648666Y-51809900D01*
X55648665Y-51809900D01*
X55657113Y-51810732D01*
X55854600Y-51830183D01*
X56060534Y-51809900D01*
X56258554Y-51749832D01*
X56441050Y-51652285D01*
X56601010Y-51521010D01*
X56732285Y-51361050D01*
X56829832Y-51178554D01*
X56889900Y-50980534D01*
X56910183Y-50774600D01*
X56889900Y-50568666D01*
X56829832Y-50370646D01*
X56732285Y-50188150D01*
X56660737Y-50100968D01*
X56601010Y-50028189D01*
X56450721Y-49904852D01*
X56441050Y-49896915D01*
X56258554Y-49799368D01*
X56060534Y-49739300D01*
X56060532Y-49739299D01*
X56060534Y-49739299D01*
X55854600Y-49719017D01*
X55648667Y-49739299D01*
X55450643Y-49799369D01*
X55340498Y-49858243D01*
X55268150Y-49896915D01*
X55268148Y-49896916D01*
X55268147Y-49896917D01*
X55108189Y-50028189D01*
X54976917Y-50188147D01*
X54976915Y-50188150D01*
X54959147Y-50221391D01*
X54879369Y-50370643D01*
X54819299Y-50568667D01*
X54799017Y-50774600D01*
X54250100Y-50774600D01*
X54250100Y-49344900D01*
X54269785Y-49277861D01*
X54322589Y-49232106D01*
X54374100Y-49220900D01*
X59983815Y-49220900D01*
X60050854Y-49240585D01*
G37*
G04 #@! TD.AperFunction*
G04 #@! TA.AperFunction,Conductor*
G36*
X63795164Y-63094559D02*
G01*
X63798871Y-63096941D01*
X63814880Y-63107638D01*
X63814883Y-63107640D01*
X63814887Y-63107641D01*
X63852703Y-63115163D01*
X63891599Y-63122900D01*
X63905497Y-63122899D01*
X63972534Y-63142580D01*
X64018292Y-63195382D01*
X64029500Y-63246893D01*
X64029500Y-63260797D01*
X64044760Y-63337519D01*
X64055446Y-63353511D01*
X64076323Y-63420188D01*
X64057837Y-63487568D01*
X64055446Y-63491289D01*
X64044759Y-63507282D01*
X64029500Y-63583996D01*
X64029500Y-63760798D01*
X64044760Y-63837519D01*
X64055446Y-63853511D01*
X64076323Y-63920188D01*
X64057837Y-63987568D01*
X64055446Y-63991289D01*
X64044759Y-64007282D01*
X64029500Y-64083996D01*
X64029500Y-64260798D01*
X64044760Y-64337519D01*
X64055446Y-64353511D01*
X64076323Y-64420188D01*
X64057837Y-64487568D01*
X64055446Y-64491289D01*
X64044759Y-64507282D01*
X64029500Y-64583996D01*
X64029500Y-64760798D01*
X64044760Y-64837519D01*
X64055446Y-64853511D01*
X64076323Y-64920188D01*
X64057837Y-64987568D01*
X64055446Y-64991289D01*
X64044759Y-65007282D01*
X64029500Y-65083996D01*
X64029500Y-65260798D01*
X64044760Y-65337519D01*
X64055446Y-65353511D01*
X64076323Y-65420188D01*
X64057837Y-65487568D01*
X64055446Y-65491289D01*
X64044759Y-65507282D01*
X64029500Y-65583996D01*
X64029500Y-65760798D01*
X64044760Y-65837519D01*
X64055446Y-65853511D01*
X64076323Y-65920188D01*
X64057837Y-65987568D01*
X64055446Y-65991289D01*
X64044759Y-66007282D01*
X64034216Y-66060286D01*
X64001830Y-66122196D01*
X63988086Y-66134468D01*
X63891322Y-66208718D01*
X63801156Y-66326224D01*
X63744478Y-66463057D01*
X63744478Y-66463059D01*
X63731225Y-66563714D01*
X63742149Y-66587261D01*
X63732617Y-66656477D01*
X63687177Y-66709553D01*
X63620256Y-66729636D01*
X63595328Y-66727256D01*
X63581924Y-66724589D01*
X63568401Y-66721900D01*
X63568400Y-66721900D01*
X63391601Y-66721900D01*
X63314880Y-66737160D01*
X63298889Y-66747846D01*
X63232212Y-66768723D01*
X63164832Y-66750237D01*
X63161111Y-66747846D01*
X63145117Y-66737159D01*
X63068403Y-66721900D01*
X62891601Y-66721900D01*
X62814880Y-66737160D01*
X62798889Y-66747846D01*
X62732212Y-66768723D01*
X62664832Y-66750237D01*
X62661111Y-66747846D01*
X62645117Y-66737159D01*
X62568403Y-66721900D01*
X62391601Y-66721900D01*
X62314880Y-66737160D01*
X62298889Y-66747846D01*
X62232212Y-66768723D01*
X62164832Y-66750237D01*
X62161111Y-66747846D01*
X62145117Y-66737159D01*
X62068403Y-66721900D01*
X61891601Y-66721900D01*
X61814880Y-66737160D01*
X61798889Y-66747846D01*
X61732212Y-66768723D01*
X61664832Y-66750237D01*
X61661111Y-66747846D01*
X61645117Y-66737159D01*
X61568403Y-66721900D01*
X61391601Y-66721900D01*
X61314880Y-66737160D01*
X61298889Y-66747846D01*
X61232212Y-66768723D01*
X61164832Y-66750237D01*
X61161111Y-66747846D01*
X61145117Y-66737159D01*
X61068403Y-66721900D01*
X60891601Y-66721900D01*
X60814880Y-66737160D01*
X60798889Y-66747846D01*
X60732212Y-66768723D01*
X60664832Y-66750237D01*
X60661111Y-66747846D01*
X60645117Y-66737159D01*
X60568403Y-66721900D01*
X60568401Y-66721900D01*
X60554499Y-66721900D01*
X60487460Y-66702215D01*
X60441705Y-66649411D01*
X60430499Y-66597900D01*
X60430499Y-66584002D01*
X60429712Y-66580044D01*
X60415240Y-66507283D01*
X60415239Y-66507281D01*
X60415238Y-66507278D01*
X60404555Y-66491291D01*
X60383676Y-66424614D01*
X60402160Y-66357233D01*
X60404517Y-66353564D01*
X60415240Y-66337517D01*
X60430500Y-66260801D01*
X60430499Y-66084000D01*
X60415240Y-66007283D01*
X60415239Y-66007281D01*
X60415238Y-66007278D01*
X60404555Y-65991291D01*
X60383676Y-65924614D01*
X60402160Y-65857233D01*
X60404517Y-65853564D01*
X60415240Y-65837517D01*
X60430500Y-65760801D01*
X60430499Y-65584000D01*
X60415240Y-65507283D01*
X60415239Y-65507281D01*
X60415238Y-65507278D01*
X60404555Y-65491291D01*
X60383676Y-65424614D01*
X60402160Y-65357233D01*
X60404517Y-65353564D01*
X60415240Y-65337517D01*
X60430500Y-65260801D01*
X60430499Y-65084000D01*
X60415240Y-65007283D01*
X60415239Y-65007281D01*
X60415238Y-65007278D01*
X60404555Y-64991291D01*
X60383676Y-64924614D01*
X60402160Y-64857233D01*
X60404517Y-64853564D01*
X60415240Y-64837517D01*
X60430500Y-64760801D01*
X60430499Y-64584000D01*
X60415240Y-64507283D01*
X60415239Y-64507281D01*
X60415238Y-64507278D01*
X60404555Y-64491291D01*
X60383676Y-64424614D01*
X60402160Y-64357233D01*
X60404517Y-64353564D01*
X60415240Y-64337517D01*
X60430500Y-64260801D01*
X60430499Y-64084000D01*
X60415240Y-64007283D01*
X60415239Y-64007281D01*
X60415238Y-64007278D01*
X60404555Y-63991291D01*
X60383676Y-63924614D01*
X60402160Y-63857233D01*
X60404517Y-63853564D01*
X60415240Y-63837517D01*
X60425783Y-63784513D01*
X60458167Y-63722604D01*
X60471914Y-63710330D01*
X60568678Y-63636081D01*
X60658843Y-63518575D01*
X60715521Y-63381742D01*
X60715521Y-63381740D01*
X60728773Y-63281086D01*
X60717850Y-63257538D01*
X60727382Y-63188322D01*
X60772822Y-63135247D01*
X60839743Y-63115163D01*
X60864672Y-63117543D01*
X60891599Y-63122900D01*
X61068400Y-63122899D01*
X61145117Y-63107640D01*
X61161107Y-63096955D01*
X61227783Y-63076076D01*
X61295164Y-63094559D01*
X61298871Y-63096941D01*
X61314880Y-63107638D01*
X61314883Y-63107640D01*
X61314887Y-63107641D01*
X61352703Y-63115163D01*
X61391599Y-63122900D01*
X61568400Y-63122899D01*
X61645117Y-63107640D01*
X61661107Y-63096955D01*
X61727783Y-63076076D01*
X61795164Y-63094559D01*
X61798871Y-63096941D01*
X61814880Y-63107638D01*
X61814883Y-63107640D01*
X61814887Y-63107641D01*
X61852703Y-63115163D01*
X61891599Y-63122900D01*
X62068400Y-63122899D01*
X62145117Y-63107640D01*
X62161107Y-63096955D01*
X62227783Y-63076076D01*
X62295164Y-63094559D01*
X62298871Y-63096941D01*
X62314880Y-63107638D01*
X62314883Y-63107640D01*
X62314887Y-63107641D01*
X62352703Y-63115163D01*
X62391599Y-63122900D01*
X62568400Y-63122899D01*
X62645117Y-63107640D01*
X62661107Y-63096955D01*
X62727783Y-63076076D01*
X62795164Y-63094559D01*
X62798871Y-63096941D01*
X62814880Y-63107638D01*
X62814883Y-63107640D01*
X62814887Y-63107641D01*
X62852703Y-63115163D01*
X62891599Y-63122900D01*
X63068400Y-63122899D01*
X63145117Y-63107640D01*
X63161107Y-63096955D01*
X63227783Y-63076076D01*
X63295164Y-63094559D01*
X63298871Y-63096941D01*
X63314880Y-63107638D01*
X63314883Y-63107640D01*
X63314887Y-63107641D01*
X63352703Y-63115163D01*
X63391599Y-63122900D01*
X63568400Y-63122899D01*
X63645117Y-63107640D01*
X63661107Y-63096955D01*
X63727783Y-63076076D01*
X63795164Y-63094559D01*
G37*
G04 #@! TD.AperFunction*
G04 #@! TA.AperFunction,Conductor*
G36*
X59515963Y-61813383D02*
G01*
X59526531Y-61825452D01*
X59530251Y-61830300D01*
X59536691Y-61838692D01*
X59578186Y-61880187D01*
X59578197Y-61880200D01*
X59613228Y-61915231D01*
X59613230Y-61915234D01*
X59653942Y-61955948D01*
X59653961Y-61955964D01*
X60033716Y-62335719D01*
X60067201Y-62397042D01*
X60062217Y-62466734D01*
X60020345Y-62522667D01*
X59954881Y-62547084D01*
X59946035Y-62547400D01*
X59917500Y-62547400D01*
X59917500Y-63047400D01*
X60187113Y-63047400D01*
X60254152Y-63067085D01*
X60255972Y-63068277D01*
X60259000Y-63070300D01*
X60303803Y-63123914D01*
X60312509Y-63193239D01*
X60282352Y-63256265D01*
X60222908Y-63292983D01*
X60190106Y-63297400D01*
X59791500Y-63297400D01*
X59724461Y-63277715D01*
X59678706Y-63224911D01*
X59667500Y-63173400D01*
X59667500Y-62547400D01*
X59408836Y-62547400D01*
X59341797Y-62527715D01*
X59296042Y-62474911D01*
X59286098Y-62405753D01*
X59289760Y-62388805D01*
X59294525Y-62372400D01*
X57929000Y-62372400D01*
X57861961Y-62352715D01*
X57816206Y-62299911D01*
X57805000Y-62248400D01*
X57805000Y-61996400D01*
X57824685Y-61929361D01*
X57877489Y-61883606D01*
X57929000Y-61872400D01*
X59294525Y-61872400D01*
X59328995Y-61826489D01*
X59384988Y-61784697D01*
X59454687Y-61779811D01*
X59515963Y-61813383D01*
G37*
G04 #@! TD.AperFunction*
G04 #@! TA.AperFunction,Conductor*
G36*
X66872539Y-59094185D02*
G01*
X66918294Y-59146989D01*
X66929500Y-59198500D01*
X66929500Y-59228669D01*
X66932353Y-59259099D01*
X66932353Y-59259101D01*
X66977206Y-59387280D01*
X66977207Y-59387282D01*
X67057850Y-59496550D01*
X67167118Y-59577193D01*
X67191947Y-59585881D01*
X67295299Y-59622046D01*
X67325730Y-59624900D01*
X67325734Y-59624900D01*
X67934270Y-59624900D01*
X67964690Y-59622047D01*
X67964691Y-59622046D01*
X67964699Y-59622046D01*
X67964706Y-59622043D01*
X67972066Y-59620436D01*
X67972669Y-59623197D01*
X68029244Y-59620291D01*
X68088141Y-59653223D01*
X68537413Y-60102495D01*
X68562525Y-60138662D01*
X68587718Y-60193825D01*
X68672551Y-60291729D01*
X68781531Y-60361766D01*
X68905825Y-60398261D01*
X68905827Y-60398262D01*
X68905828Y-60398262D01*
X69035373Y-60398262D01*
X69035373Y-60398261D01*
X69094579Y-60380877D01*
X69138166Y-60368080D01*
X69208035Y-60368080D01*
X69266813Y-60405855D01*
X69295838Y-60469410D01*
X69297100Y-60487057D01*
X69297100Y-61098411D01*
X69277415Y-61165450D01*
X69260781Y-61186092D01*
X68615122Y-61831750D01*
X68615120Y-61831753D01*
X68566924Y-61915231D01*
X68562393Y-61923078D01*
X68543963Y-61991860D01*
X68543963Y-61991861D01*
X68535100Y-62024936D01*
X68535100Y-62201879D01*
X68515415Y-62268918D01*
X68462611Y-62314673D01*
X68393453Y-62324617D01*
X68391703Y-62324352D01*
X68342125Y-62316500D01*
X67879082Y-62316500D01*
X67798119Y-62329323D01*
X67785296Y-62331354D01*
X67672258Y-62388950D01*
X67672257Y-62388951D01*
X67672252Y-62388954D01*
X67582554Y-62478652D01*
X67582551Y-62478657D01*
X67582550Y-62478658D01*
X67546505Y-62549400D01*
X67520524Y-62600391D01*
X67517667Y-62598935D01*
X67487625Y-62642863D01*
X67423264Y-62670055D01*
X67354419Y-62658135D01*
X67308285Y-62615786D01*
X67306970Y-62616708D01*
X67294525Y-62598935D01*
X67296258Y-62597721D01*
X67269522Y-62548758D01*
X67274506Y-62479066D01*
X67295434Y-62446501D01*
X67294525Y-62445865D01*
X67300742Y-62436983D01*
X67300747Y-62436979D01*
X67349259Y-62332945D01*
X67355500Y-62285539D01*
X67355499Y-61959262D01*
X67349259Y-61911855D01*
X67300747Y-61807821D01*
X67219579Y-61726653D01*
X67115545Y-61678141D01*
X67115543Y-61678140D01*
X67115544Y-61678140D01*
X67068140Y-61671900D01*
X67068139Y-61671900D01*
X66768624Y-61671900D01*
X66701585Y-61652215D01*
X66655830Y-61599411D01*
X66645886Y-61530253D01*
X66645886Y-61530252D01*
X66647533Y-61518800D01*
X66629097Y-61390574D01*
X66575282Y-61272737D01*
X66490449Y-61174833D01*
X66381469Y-61104796D01*
X66381465Y-61104794D01*
X66381464Y-61104794D01*
X66257174Y-61068300D01*
X66257172Y-61068300D01*
X66127628Y-61068300D01*
X66127626Y-61068300D01*
X66003335Y-61104794D01*
X66003332Y-61104795D01*
X66003331Y-61104796D01*
X65968602Y-61127115D01*
X65894350Y-61174833D01*
X65809518Y-61272737D01*
X65809517Y-61272738D01*
X65755702Y-61390574D01*
X65737267Y-61518800D01*
X65737267Y-61518802D01*
X65742945Y-61558299D01*
X65733000Y-61627458D01*
X65687245Y-61680261D01*
X65672612Y-61688326D01*
X65590632Y-61726554D01*
X65521554Y-61737046D01*
X65457770Y-61708526D01*
X65419531Y-61650050D01*
X65418976Y-61580182D01*
X65425841Y-61561776D01*
X65474259Y-61457945D01*
X65480500Y-61410539D01*
X65480499Y-60084262D01*
X65474259Y-60036855D01*
X65425747Y-59932821D01*
X65344579Y-59851653D01*
X65247661Y-59806459D01*
X65195223Y-59760288D01*
X65176071Y-59693094D01*
X65196287Y-59626213D01*
X65241614Y-59584720D01*
X65328019Y-59538535D01*
X65342494Y-59530798D01*
X65498647Y-59402647D01*
X65626798Y-59246494D01*
X65648221Y-59206414D01*
X65683696Y-59140047D01*
X65732658Y-59090203D01*
X65793054Y-59074500D01*
X66805500Y-59074500D01*
X66872539Y-59094185D01*
G37*
G04 #@! TD.AperFunction*
G04 #@! TA.AperFunction,Conductor*
G36*
X58814786Y-60643718D02*
G01*
X58859139Y-60672221D01*
X58943181Y-60756263D01*
X58976666Y-60817586D01*
X58979500Y-60843944D01*
X58979500Y-61268418D01*
X58959815Y-61335457D01*
X58907011Y-61381212D01*
X58837853Y-61391156D01*
X58820904Y-61387494D01*
X58790120Y-61378550D01*
X58731234Y-61340943D01*
X58702029Y-61277470D01*
X58701358Y-61246871D01*
X58709199Y-61170121D01*
X58709200Y-61170109D01*
X58709200Y-61146800D01*
X57608200Y-61146800D01*
X57541161Y-61127115D01*
X57495406Y-61074311D01*
X57484200Y-61022800D01*
X57484200Y-60770800D01*
X57503885Y-60703761D01*
X57556689Y-60658006D01*
X57608200Y-60646800D01*
X58730330Y-60646800D01*
X58745094Y-60638737D01*
X58814786Y-60643718D01*
G37*
G04 #@! TD.AperFunction*
G04 #@! TA.AperFunction,Conductor*
G36*
X61329040Y-57942185D02*
G01*
X61374795Y-57994989D01*
X61384739Y-58064147D01*
X61371359Y-58104953D01*
X61277978Y-58279654D01*
X61219337Y-58472968D01*
X61199538Y-58674000D01*
X61219337Y-58875031D01*
X61277978Y-59068345D01*
X61373198Y-59246488D01*
X61373203Y-59246495D01*
X61501352Y-59402647D01*
X61657504Y-59530796D01*
X61657511Y-59530802D01*
X61719037Y-59563688D01*
X61768882Y-59612650D01*
X61784342Y-59680788D01*
X61760510Y-59746468D01*
X61704953Y-59788836D01*
X61670877Y-59796304D01*
X61670886Y-59796372D01*
X61670091Y-59796476D01*
X61668707Y-59796780D01*
X61666870Y-59796900D01*
X61666862Y-59796900D01*
X61666862Y-59796901D01*
X61619455Y-59803141D01*
X61619453Y-59803142D01*
X61619451Y-59803142D01*
X61515419Y-59851653D01*
X61506535Y-59857875D01*
X61505322Y-59856142D01*
X61456347Y-59882880D01*
X61386656Y-59877889D01*
X61354100Y-59856966D01*
X61353465Y-59857875D01*
X61344580Y-59851654D01*
X61344579Y-59851653D01*
X61240545Y-59803141D01*
X61240543Y-59803140D01*
X61240544Y-59803140D01*
X61193140Y-59796900D01*
X60866867Y-59796900D01*
X60851839Y-59798878D01*
X60819455Y-59803141D01*
X60819453Y-59803142D01*
X60819451Y-59803142D01*
X60715419Y-59851653D01*
X60706535Y-59857875D01*
X60705322Y-59856142D01*
X60656347Y-59882880D01*
X60586656Y-59877889D01*
X60554100Y-59856966D01*
X60553465Y-59857875D01*
X60544580Y-59851654D01*
X60544579Y-59851653D01*
X60440545Y-59803141D01*
X60440543Y-59803140D01*
X60440544Y-59803140D01*
X60393140Y-59796900D01*
X60259688Y-59796900D01*
X60192649Y-59777215D01*
X60146894Y-59724411D01*
X60136950Y-59655253D01*
X60165975Y-59591697D01*
X60201236Y-59563541D01*
X60218733Y-59554189D01*
X60262494Y-59530798D01*
X60418647Y-59402647D01*
X60546798Y-59246494D01*
X60628209Y-59094185D01*
X60642021Y-59068345D01*
X60642021Y-59068344D01*
X60642023Y-59068341D01*
X60700662Y-58875033D01*
X60720462Y-58674000D01*
X60700662Y-58472967D01*
X60665623Y-58357462D01*
X60665001Y-58287596D01*
X60696600Y-58233791D01*
X60971575Y-57958816D01*
X61032897Y-57925334D01*
X61059255Y-57922500D01*
X61262001Y-57922500D01*
X61329040Y-57942185D01*
G37*
G04 #@! TD.AperFunction*
G04 #@! TA.AperFunction,Conductor*
G36*
X63705578Y-57003728D02*
G01*
X63761511Y-57045600D01*
X63765346Y-57051019D01*
X63800447Y-57103552D01*
X63866769Y-57147867D01*
X63866770Y-57147868D01*
X63925247Y-57159499D01*
X63925250Y-57159500D01*
X65572900Y-57159500D01*
X65639939Y-57179185D01*
X65685694Y-57231989D01*
X65696900Y-57283500D01*
X65696900Y-57768128D01*
X65714920Y-57835382D01*
X65713257Y-57905232D01*
X65674093Y-57963094D01*
X65609865Y-57990597D01*
X65540962Y-57979010D01*
X65503309Y-57949305D01*
X65502955Y-57949660D01*
X65499953Y-57946658D01*
X65499286Y-57946132D01*
X65498647Y-57945353D01*
X65498645Y-57945351D01*
X65498644Y-57945350D01*
X65364646Y-57835382D01*
X65342494Y-57817202D01*
X65342492Y-57817201D01*
X65342488Y-57817198D01*
X65164345Y-57721978D01*
X64971031Y-57663337D01*
X64770000Y-57643538D01*
X64568968Y-57663337D01*
X64375654Y-57721978D01*
X64197511Y-57817198D01*
X64197504Y-57817203D01*
X64041352Y-57945352D01*
X63913203Y-58101504D01*
X63913198Y-58101511D01*
X63817978Y-58279654D01*
X63759337Y-58472968D01*
X63739538Y-58674000D01*
X63759337Y-58875031D01*
X63817978Y-59068345D01*
X63913198Y-59246488D01*
X63913203Y-59246495D01*
X64041352Y-59402647D01*
X64197504Y-59530796D01*
X64197507Y-59530799D01*
X64258764Y-59563541D01*
X64308609Y-59612503D01*
X64324070Y-59680641D01*
X64300239Y-59746321D01*
X64244681Y-59788690D01*
X64200313Y-59796900D01*
X64066867Y-59796900D01*
X64051839Y-59798878D01*
X64019455Y-59803141D01*
X64019453Y-59803142D01*
X64019451Y-59803142D01*
X63915419Y-59851653D01*
X63906535Y-59857875D01*
X63905322Y-59856142D01*
X63856347Y-59882880D01*
X63786656Y-59877889D01*
X63754100Y-59856966D01*
X63753465Y-59857875D01*
X63744580Y-59851654D01*
X63744579Y-59851653D01*
X63640545Y-59803141D01*
X63640543Y-59803140D01*
X63640544Y-59803140D01*
X63593140Y-59796900D01*
X63266867Y-59796900D01*
X63251839Y-59798878D01*
X63219455Y-59803141D01*
X63219453Y-59803142D01*
X63219451Y-59803142D01*
X63115419Y-59851653D01*
X63106535Y-59857875D01*
X63105322Y-59856142D01*
X63056347Y-59882880D01*
X62986656Y-59877889D01*
X62954100Y-59856966D01*
X62953465Y-59857875D01*
X62944580Y-59851654D01*
X62944579Y-59851653D01*
X62840545Y-59803141D01*
X62840543Y-59803140D01*
X62840544Y-59803140D01*
X62793138Y-59796899D01*
X62791297Y-59796779D01*
X62790778Y-59796589D01*
X62789114Y-59796370D01*
X62789163Y-59795997D01*
X62725691Y-59772747D01*
X62683491Y-59717061D01*
X62678097Y-59647400D01*
X62711221Y-59585881D01*
X62740961Y-59563687D01*
X62802494Y-59530798D01*
X62958647Y-59402647D01*
X63086798Y-59246494D01*
X63168209Y-59094185D01*
X63182021Y-59068345D01*
X63182021Y-59068344D01*
X63182023Y-59068341D01*
X63240662Y-58875033D01*
X63260462Y-58674000D01*
X63240662Y-58472967D01*
X63182023Y-58279659D01*
X63182021Y-58279656D01*
X63182021Y-58279654D01*
X63086801Y-58101511D01*
X63086799Y-58101509D01*
X63086798Y-58101506D01*
X62958647Y-57945353D01*
X62901164Y-57898178D01*
X62861830Y-57840433D01*
X62859959Y-57770589D01*
X62892148Y-57714644D01*
X63210594Y-57396198D01*
X63574564Y-57032227D01*
X63635886Y-56998744D01*
X63705578Y-57003728D01*
G37*
G04 #@! TD.AperFunction*
G04 #@! TA.AperFunction,Conductor*
G36*
X61315570Y-55427385D02*
G01*
X61361325Y-55480189D01*
X61371269Y-55549347D01*
X61357889Y-55590153D01*
X61277978Y-55739654D01*
X61219337Y-55932968D01*
X61199538Y-56134000D01*
X61219337Y-56335031D01*
X61277978Y-56528345D01*
X61373198Y-56706488D01*
X61373203Y-56706495D01*
X61501352Y-56862647D01*
X61548874Y-56901647D01*
X61588208Y-56959392D01*
X61590079Y-57029237D01*
X61553892Y-57089005D01*
X61491136Y-57119721D01*
X61470209Y-57121500D01*
X60789273Y-57121500D01*
X60687410Y-57148793D01*
X60596087Y-57201520D01*
X60596084Y-57201522D01*
X60130211Y-57667394D01*
X60068888Y-57700879D01*
X60006536Y-57698374D01*
X59891033Y-57663338D01*
X59690000Y-57643538D01*
X59488968Y-57663337D01*
X59295654Y-57721978D01*
X59117511Y-57817198D01*
X59117504Y-57817203D01*
X58961352Y-57945352D01*
X58833203Y-58101504D01*
X58833198Y-58101511D01*
X58737978Y-58279654D01*
X58679337Y-58472968D01*
X58659538Y-58674000D01*
X58679337Y-58875031D01*
X58737978Y-59068345D01*
X58833198Y-59246488D01*
X58833203Y-59246495D01*
X58961352Y-59402647D01*
X59117504Y-59530796D01*
X59117507Y-59530799D01*
X59153780Y-59550187D01*
X59218385Y-59584719D01*
X59268229Y-59633680D01*
X59283690Y-59701818D01*
X59259859Y-59767498D01*
X59212337Y-59806459D01*
X59135811Y-59842144D01*
X59066734Y-59852636D01*
X59002950Y-59824116D01*
X58995725Y-59817443D01*
X58446019Y-59267737D01*
X58412534Y-59206414D01*
X58409700Y-59180056D01*
X58409700Y-59088306D01*
X58393920Y-58988678D01*
X58393919Y-58988676D01*
X58393919Y-58988674D01*
X58332728Y-58868580D01*
X58332726Y-58868578D01*
X58332723Y-58868574D01*
X58237425Y-58773276D01*
X58237421Y-58773273D01*
X58237420Y-58773272D01*
X58117326Y-58712081D01*
X58117324Y-58712080D01*
X58117321Y-58712079D01*
X58017693Y-58696300D01*
X58017688Y-58696300D01*
X57450712Y-58696300D01*
X57450707Y-58696300D01*
X57351078Y-58712079D01*
X57351074Y-58712080D01*
X57351074Y-58712081D01*
X57242924Y-58767185D01*
X57186633Y-58780700D01*
X56788493Y-58780700D01*
X56721454Y-58761015D01*
X56653271Y-58717196D01*
X56653266Y-58717194D01*
X56528974Y-58680700D01*
X56528972Y-58680700D01*
X56399428Y-58680700D01*
X56394433Y-58680700D01*
X56327394Y-58661015D01*
X56281639Y-58608211D01*
X56271695Y-58539053D01*
X56300720Y-58475497D01*
X56306752Y-58469019D01*
X56833586Y-57942185D01*
X58477519Y-56298250D01*
X58538840Y-56264767D01*
X58608532Y-56269751D01*
X58664465Y-56311623D01*
X58683859Y-56349937D01*
X58722287Y-56476619D01*
X58737979Y-56528346D01*
X58833198Y-56706488D01*
X58833203Y-56706495D01*
X58961352Y-56862647D01*
X59012123Y-56904313D01*
X59117506Y-56990798D01*
X59117509Y-56990799D01*
X59117511Y-56990801D01*
X59295654Y-57086021D01*
X59295656Y-57086021D01*
X59295659Y-57086023D01*
X59488967Y-57144662D01*
X59690000Y-57164462D01*
X59891033Y-57144662D01*
X60084341Y-57086023D01*
X60262494Y-56990798D01*
X60418647Y-56862647D01*
X60546798Y-56706494D01*
X60642023Y-56528341D01*
X60700662Y-56335033D01*
X60720462Y-56134000D01*
X60700662Y-55932967D01*
X60642023Y-55739659D01*
X60642021Y-55739656D01*
X60642021Y-55739654D01*
X60562111Y-55590153D01*
X60547869Y-55521750D01*
X60572869Y-55456507D01*
X60629174Y-55415136D01*
X60671469Y-55407700D01*
X61248531Y-55407700D01*
X61315570Y-55427385D01*
G37*
G04 #@! TD.AperFunction*
G04 #@! TA.AperFunction,Conductor*
G36*
X67751859Y-55560023D02*
G01*
X67804749Y-55605678D01*
X67820335Y-55640819D01*
X67825792Y-55661186D01*
X67825793Y-55661187D01*
X67878520Y-55752512D01*
X67878522Y-55752514D01*
X68045327Y-55919319D01*
X68078812Y-55980642D01*
X68073828Y-56050334D01*
X68045327Y-56094681D01*
X67980122Y-56159885D01*
X67980118Y-56159891D01*
X67927391Y-56251215D01*
X67927390Y-56251218D01*
X67925468Y-56258390D01*
X67925469Y-56258391D01*
X67900100Y-56353072D01*
X67900100Y-56365217D01*
X67880415Y-56432256D01*
X67827611Y-56478011D01*
X67758453Y-56487955D01*
X67721642Y-56476619D01*
X67700791Y-56466426D01*
X67700792Y-56466426D01*
X67632661Y-56456500D01*
X67632660Y-56456500D01*
X66621900Y-56456500D01*
X66554861Y-56436815D01*
X66509106Y-56384011D01*
X66497900Y-56332500D01*
X66497900Y-56263755D01*
X66517585Y-56196716D01*
X66534219Y-56176074D01*
X67116474Y-55593819D01*
X67177797Y-55560334D01*
X67204155Y-55557500D01*
X67632658Y-55557500D01*
X67632660Y-55557500D01*
X67682684Y-55550211D01*
X67751859Y-55560023D01*
G37*
G04 #@! TD.AperFunction*
G04 #@! TA.AperFunction,Conductor*
G36*
X66083117Y-53619950D02*
G01*
X66177699Y-53653046D01*
X66208130Y-53655900D01*
X66819565Y-53655900D01*
X66819565Y-53657287D01*
X66882205Y-53672536D01*
X66907801Y-53692193D01*
X67560427Y-54344819D01*
X67593912Y-54406142D01*
X67588928Y-54475834D01*
X67547056Y-54531767D01*
X67481592Y-54556184D01*
X67472746Y-54556500D01*
X66541139Y-54556500D01*
X66473008Y-54566426D01*
X66367914Y-54617803D01*
X66285203Y-54700514D01*
X66233826Y-54805608D01*
X66223900Y-54873739D01*
X66223900Y-55240260D01*
X66229344Y-55277626D01*
X66219531Y-55346803D01*
X66194321Y-55383185D01*
X66007181Y-55570325D01*
X65945858Y-55603810D01*
X65876166Y-55598826D01*
X65820233Y-55556954D01*
X65795816Y-55491490D01*
X65795500Y-55482644D01*
X65795500Y-55289249D01*
X65795499Y-55289247D01*
X65783868Y-55230770D01*
X65783867Y-55230769D01*
X65739552Y-55164447D01*
X65673230Y-55120132D01*
X65673229Y-55120131D01*
X65614752Y-55108500D01*
X65614748Y-55108500D01*
X64438407Y-55108500D01*
X64371368Y-55088815D01*
X64325613Y-55036011D01*
X64315669Y-54966853D01*
X64344694Y-54903297D01*
X64350726Y-54896819D01*
X64547326Y-54700219D01*
X64608649Y-54666734D01*
X64635007Y-54663900D01*
X64799493Y-54663900D01*
X64899121Y-54648120D01*
X64899121Y-54648119D01*
X64899126Y-54648119D01*
X65019220Y-54586928D01*
X65114528Y-54491620D01*
X65146961Y-54427965D01*
X65194933Y-54377171D01*
X65195255Y-54376984D01*
X65269913Y-54333880D01*
X65954483Y-53649308D01*
X66015804Y-53615825D01*
X66083117Y-53619950D01*
G37*
G04 #@! TD.AperFunction*
G04 #@! TA.AperFunction,Conductor*
G36*
X70127539Y-49240585D02*
G01*
X70173294Y-49293389D01*
X70184500Y-49344900D01*
X70184500Y-54469812D01*
X70164815Y-54536851D01*
X70112011Y-54582606D01*
X70042853Y-54592550D01*
X70006042Y-54581214D01*
X69975791Y-54566426D01*
X69975792Y-54566426D01*
X69907661Y-54556500D01*
X69907660Y-54556500D01*
X69485500Y-54556500D01*
X69418461Y-54536815D01*
X69372706Y-54484011D01*
X69361500Y-54432500D01*
X69361500Y-54285659D01*
X69372706Y-54234147D01*
X69397697Y-54179426D01*
X69416133Y-54051200D01*
X69397697Y-53922974D01*
X69377913Y-53879654D01*
X69372705Y-53868249D01*
X69361500Y-53816739D01*
X69361500Y-53341729D01*
X69361501Y-53341716D01*
X69361501Y-53226274D01*
X69361073Y-53224675D01*
X69334207Y-53124413D01*
X69307426Y-53078027D01*
X69283698Y-53036928D01*
X69281481Y-53033088D01*
X69202582Y-52954189D01*
X69202582Y-52954188D01*
X69202576Y-52954183D01*
X69149218Y-52900824D01*
X69115734Y-52839501D01*
X69112900Y-52813144D01*
X69112900Y-52201130D01*
X69110046Y-52170700D01*
X69110046Y-52170698D01*
X69066275Y-52045611D01*
X69065193Y-52042518D01*
X69053849Y-52027147D01*
X69050591Y-52022732D01*
X69026621Y-51957103D01*
X69041937Y-51888933D01*
X69091678Y-51839865D01*
X69150362Y-51825100D01*
X69424350Y-51825100D01*
X69424351Y-51825099D01*
X69439168Y-51822152D01*
X69482829Y-51813468D01*
X69482829Y-51813467D01*
X69482831Y-51813467D01*
X69549152Y-51769152D01*
X69593467Y-51702831D01*
X69593467Y-51702829D01*
X69593468Y-51702829D01*
X69603805Y-51650856D01*
X69605100Y-51644348D01*
X69605100Y-49904852D01*
X69605100Y-49904849D01*
X69605099Y-49904847D01*
X69593468Y-49846370D01*
X69593467Y-49846369D01*
X69549152Y-49780047D01*
X69482830Y-49735732D01*
X69482829Y-49735731D01*
X69424352Y-49724100D01*
X69424348Y-49724100D01*
X67684852Y-49724100D01*
X67684847Y-49724100D01*
X67626370Y-49735731D01*
X67626369Y-49735732D01*
X67560047Y-49780047D01*
X67515732Y-49846369D01*
X67515731Y-49846370D01*
X67504100Y-49904847D01*
X67504100Y-50915545D01*
X67484415Y-50982584D01*
X67467781Y-51003226D01*
X67208102Y-51262904D01*
X67146779Y-51296389D01*
X67077087Y-51291405D01*
X67021154Y-51249533D01*
X66996737Y-51184069D01*
X67001759Y-51139235D01*
X67049900Y-50980534D01*
X67070183Y-50774600D01*
X67049900Y-50568666D01*
X66989832Y-50370646D01*
X66892285Y-50188150D01*
X66820737Y-50100968D01*
X66761010Y-50028189D01*
X66610721Y-49904852D01*
X66601050Y-49896915D01*
X66418554Y-49799368D01*
X66220534Y-49739300D01*
X66220532Y-49739299D01*
X66220534Y-49739299D01*
X66014600Y-49719017D01*
X65808667Y-49739299D01*
X65610639Y-49799370D01*
X65596400Y-49806981D01*
X65527997Y-49821220D01*
X65462754Y-49796216D01*
X65450272Y-49785301D01*
X65147512Y-49482541D01*
X65147511Y-49482540D01*
X65123040Y-49468412D01*
X65123040Y-49468411D01*
X65123038Y-49468411D01*
X65095108Y-49452285D01*
X65046895Y-49401719D01*
X65033673Y-49333112D01*
X65059641Y-49268247D01*
X65116556Y-49227720D01*
X65157111Y-49220900D01*
X70060500Y-49220900D01*
X70127539Y-49240585D01*
G37*
G04 #@! TD.AperFunction*
G04 #@! TA.AperFunction,Conductor*
G36*
X61757310Y-51552166D02*
G01*
X61808870Y-51599318D01*
X61815589Y-51612026D01*
X61847118Y-51681063D01*
X61931951Y-51778967D01*
X62040931Y-51849004D01*
X62165225Y-51885499D01*
X62165227Y-51885500D01*
X62209174Y-51885500D01*
X62276213Y-51905185D01*
X62321968Y-51957989D01*
X62331912Y-52027147D01*
X62302887Y-52090703D01*
X62253755Y-52122769D01*
X62254258Y-52123798D01*
X62245971Y-52127848D01*
X62245780Y-52127974D01*
X62245605Y-52128027D01*
X62140514Y-52179403D01*
X62057803Y-52262114D01*
X62006426Y-52367208D01*
X61996500Y-52435339D01*
X61996500Y-52801860D01*
X62006426Y-52869991D01*
X62006427Y-52869993D01*
X62041445Y-52941625D01*
X62057803Y-52975085D01*
X62088637Y-53005919D01*
X62122122Y-53067242D01*
X62117138Y-53136934D01*
X62088637Y-53181281D01*
X62057803Y-53212114D01*
X62006426Y-53317208D01*
X61996500Y-53385339D01*
X61996500Y-53751860D01*
X62006426Y-53819991D01*
X62006427Y-53819993D01*
X62056770Y-53922973D01*
X62057803Y-53925085D01*
X62088637Y-53955919D01*
X62122122Y-54017242D01*
X62117138Y-54086934D01*
X62088636Y-54131283D01*
X62055366Y-54164552D01*
X61994042Y-54198036D01*
X61924351Y-54193050D01*
X61873972Y-54158071D01*
X61791449Y-54062833D01*
X61682469Y-53992796D01*
X61682465Y-53992794D01*
X61682464Y-53992794D01*
X61558174Y-53956300D01*
X61558172Y-53956300D01*
X61428628Y-53956300D01*
X61428626Y-53956300D01*
X61304334Y-53992794D01*
X61279079Y-54009024D01*
X61212039Y-54028706D01*
X61194166Y-54027411D01*
X61184822Y-54026049D01*
X61130260Y-54018100D01*
X61130255Y-54018100D01*
X60560333Y-54018100D01*
X60493294Y-53998415D01*
X60472652Y-53981781D01*
X60327012Y-53836141D01*
X60327011Y-53836140D01*
X60299043Y-53819993D01*
X60299043Y-53819992D01*
X60299039Y-53819991D01*
X60284890Y-53811821D01*
X60258490Y-53796579D01*
X60258491Y-53796579D01*
X60220275Y-53786339D01*
X60182062Y-53776100D01*
X60182060Y-53776100D01*
X59723760Y-53776100D01*
X59656721Y-53756415D01*
X59610966Y-53703611D01*
X59605488Y-53685442D01*
X59605063Y-53685581D01*
X59602047Y-53676299D01*
X59602046Y-53676297D01*
X59602046Y-53676296D01*
X59544450Y-53563258D01*
X59544446Y-53563254D01*
X59544445Y-53563252D01*
X59454747Y-53473554D01*
X59454743Y-53473551D01*
X59454742Y-53473550D01*
X59399972Y-53445643D01*
X59349178Y-53397670D01*
X59332383Y-53329849D01*
X59354920Y-53263715D01*
X59399972Y-53224676D01*
X59444620Y-53201928D01*
X59539928Y-53106620D01*
X59550025Y-53086804D01*
X59598000Y-53036008D01*
X59660509Y-53019100D01*
X59775456Y-53019100D01*
X59842495Y-53038785D01*
X59863137Y-53055419D01*
X59865514Y-53057796D01*
X59865515Y-53057796D01*
X59865517Y-53057798D01*
X59970607Y-53109173D01*
X60003050Y-53113900D01*
X60038739Y-53119100D01*
X60038740Y-53119100D01*
X61130261Y-53119100D01*
X61152971Y-53115791D01*
X61198393Y-53109173D01*
X61303483Y-53057798D01*
X61386198Y-52975083D01*
X61437573Y-52869993D01*
X61447500Y-52801860D01*
X61447500Y-52435340D01*
X61437573Y-52367207D01*
X61386198Y-52262117D01*
X61386196Y-52262115D01*
X61386196Y-52262114D01*
X61303485Y-52179403D01*
X61198391Y-52128026D01*
X61130261Y-52118100D01*
X61130260Y-52118100D01*
X60252155Y-52118100D01*
X60185116Y-52098415D01*
X60139361Y-52045611D01*
X60129417Y-51976453D01*
X60132378Y-51962016D01*
X60158500Y-51864527D01*
X60158500Y-51757552D01*
X60178185Y-51690513D01*
X60230989Y-51644758D01*
X60300147Y-51634814D01*
X60342006Y-51650856D01*
X60342778Y-51649413D01*
X60348147Y-51652283D01*
X60348150Y-51652285D01*
X60530646Y-51749832D01*
X60728666Y-51809900D01*
X60728665Y-51809900D01*
X60737113Y-51810732D01*
X60934600Y-51830183D01*
X61140534Y-51809900D01*
X61338554Y-51749832D01*
X61521050Y-51652285D01*
X61624132Y-51567687D01*
X61688442Y-51540375D01*
X61757310Y-51552166D01*
G37*
G04 #@! TD.AperFunction*
M02*
