G04 #@! TF.GenerationSoftware,KiCad,Pcbnew,8.0.1*
G04 #@! TF.CreationDate,2024-04-30T14:23:49+02:00*
G04 #@! TF.ProjectId,AVRinator,41565269-6e61-4746-9f72-2e6b69636164,1.0*
G04 #@! TF.SameCoordinates,Original*
G04 #@! TF.FileFunction,Soldermask,Bot*
G04 #@! TF.FilePolarity,Negative*
%FSLAX46Y46*%
G04 Gerber Fmt 4.6, Leading zero omitted, Abs format (unit mm)*
G04 Created by KiCad (PCBNEW 8.0.1) date 2024-04-30 14:23:49*
%MOMM*%
%LPD*%
G01*
G04 APERTURE LIST*
G04 Aperture macros list*
%AMRoundRect*
0 Rectangle with rounded corners*
0 $1 Rounding radius*
0 $2 $3 $4 $5 $6 $7 $8 $9 X,Y pos of 4 corners*
0 Add a 4 corners polygon primitive as box body*
4,1,4,$2,$3,$4,$5,$6,$7,$8,$9,$2,$3,0*
0 Add four circle primitives for the rounded corners*
1,1,$1+$1,$2,$3*
1,1,$1+$1,$4,$5*
1,1,$1+$1,$6,$7*
1,1,$1+$1,$8,$9*
0 Add four rect primitives between the rounded corners*
20,1,$1+$1,$2,$3,$4,$5,0*
20,1,$1+$1,$4,$5,$6,$7,0*
20,1,$1+$1,$6,$7,$8,$9,0*
20,1,$1+$1,$8,$9,$2,$3,0*%
G04 Aperture macros list end*
%ADD10R,1.700000X1.700000*%
%ADD11O,1.700000X1.700000*%
%ADD12R,1.650000X1.650000*%
%ADD13C,1.650000*%
%ADD14RoundRect,0.200000X-0.200000X-0.275000X0.200000X-0.275000X0.200000X0.275000X-0.200000X0.275000X0*%
%ADD15RoundRect,0.250000X-0.250000X-0.475000X0.250000X-0.475000X0.250000X0.475000X-0.250000X0.475000X0*%
%ADD16RoundRect,0.225000X-0.250000X0.225000X-0.250000X-0.225000X0.250000X-0.225000X0.250000X0.225000X0*%
%ADD17RoundRect,0.150000X0.512500X0.150000X-0.512500X0.150000X-0.512500X-0.150000X0.512500X-0.150000X0*%
%ADD18C,1.000000*%
%ADD19RoundRect,0.225000X0.225000X0.250000X-0.225000X0.250000X-0.225000X-0.250000X0.225000X-0.250000X0*%
%ADD20RoundRect,0.250000X-0.325000X-0.650000X0.325000X-0.650000X0.325000X0.650000X-0.325000X0.650000X0*%
%ADD21RoundRect,0.062500X-0.062500X0.375000X-0.062500X-0.375000X0.062500X-0.375000X0.062500X0.375000X0*%
%ADD22RoundRect,0.062500X-0.375000X0.062500X-0.375000X-0.062500X0.375000X-0.062500X0.375000X0.062500X0*%
%ADD23R,3.450000X3.450000*%
%ADD24RoundRect,0.200000X0.200000X0.275000X-0.200000X0.275000X-0.200000X-0.275000X0.200000X-0.275000X0*%
%ADD25RoundRect,0.225000X-0.225000X-0.250000X0.225000X-0.250000X0.225000X0.250000X-0.225000X0.250000X0*%
%ADD26RoundRect,0.250000X0.250000X0.475000X-0.250000X0.475000X-0.250000X-0.475000X0.250000X-0.475000X0*%
%ADD27RoundRect,0.125000X-0.125000X0.625000X-0.125000X-0.625000X0.125000X-0.625000X0.125000X0.625000X0*%
%ADD28RoundRect,0.125000X-0.625000X0.125000X-0.625000X-0.125000X0.625000X-0.125000X0.625000X0.125000X0*%
%ADD29RoundRect,0.150000X0.150000X-0.512500X0.150000X0.512500X-0.150000X0.512500X-0.150000X-0.512500X0*%
%ADD30C,0.650000*%
%ADD31R,0.300000X1.150000*%
%ADD32R,2.180000X2.000000*%
%ADD33RoundRect,0.250000X0.450000X-0.262500X0.450000X0.262500X-0.450000X0.262500X-0.450000X-0.262500X0*%
%ADD34C,0.500000*%
G04 APERTURE END LIST*
D10*
X68554600Y-50774600D03*
D11*
X66014600Y-50774600D03*
X63474600Y-50774600D03*
X60934600Y-50774600D03*
X58394600Y-50774600D03*
X55854600Y-50774600D03*
D12*
X64770000Y-56134000D03*
D13*
X64770000Y-58674000D03*
X62230000Y-56134000D03*
X62230000Y-58674000D03*
X59690000Y-56134000D03*
X59690000Y-58674000D03*
D14*
X68110600Y-64516000D03*
X69760600Y-64516000D03*
D15*
X67630000Y-58699400D03*
X69530000Y-58699400D03*
D16*
X64516000Y-52463400D03*
X64516000Y-54013400D03*
D17*
X62859500Y-52618600D03*
X62859500Y-53568600D03*
X62859500Y-54518600D03*
X60584500Y-54518600D03*
X60584500Y-52618600D03*
D14*
X68110600Y-62992000D03*
X69760600Y-62992000D03*
D18*
X59131200Y-73507600D03*
D19*
X58966400Y-52603400D03*
X57416400Y-52603400D03*
D20*
X64819000Y-73355200D03*
X67769000Y-73355200D03*
D21*
X60480000Y-62484900D03*
X60980000Y-62484900D03*
X61480000Y-62484900D03*
X61980000Y-62484900D03*
X62480000Y-62484900D03*
X62980000Y-62484900D03*
X63480000Y-62484900D03*
X63980000Y-62484900D03*
D22*
X64667500Y-63172400D03*
X64667500Y-63672400D03*
X64667500Y-64172400D03*
X64667500Y-64672400D03*
X64667500Y-65172400D03*
X64667500Y-65672400D03*
X64667500Y-66172400D03*
X64667500Y-66672400D03*
D21*
X63980000Y-67359900D03*
X63480000Y-67359900D03*
X62980000Y-67359900D03*
X62480000Y-67359900D03*
X61980000Y-67359900D03*
X61480000Y-67359900D03*
X60980000Y-67359900D03*
X60480000Y-67359900D03*
D22*
X59792500Y-66672400D03*
X59792500Y-66172400D03*
X59792500Y-65672400D03*
X59792500Y-65172400D03*
X59792500Y-64672400D03*
X59792500Y-64172400D03*
X59792500Y-63672400D03*
X59792500Y-63172400D03*
D23*
X62230000Y-64922400D03*
D24*
X56324000Y-60401200D03*
X54674000Y-60401200D03*
D17*
X69361900Y-55057000D03*
X69361900Y-56007000D03*
X69361900Y-56957000D03*
X67086900Y-56957000D03*
X67086900Y-55057000D03*
D25*
X64655400Y-71424800D03*
X66205400Y-71424800D03*
D26*
X68412400Y-52730400D03*
X66512400Y-52730400D03*
D14*
X54674000Y-66294000D03*
X56324000Y-66294000D03*
D27*
X59430000Y-60747400D03*
X60230000Y-60747400D03*
X61030000Y-60747400D03*
X61830000Y-60747400D03*
X62630000Y-60747400D03*
X63430000Y-60747400D03*
X64230000Y-60747400D03*
X65030000Y-60747400D03*
D28*
X66405000Y-62122400D03*
X66405000Y-62922400D03*
X66405000Y-63722400D03*
X66405000Y-64522400D03*
X66405000Y-65322400D03*
X66405000Y-66122400D03*
X66405000Y-66922400D03*
X66405000Y-67722400D03*
D27*
X65030000Y-69097400D03*
X64230000Y-69097400D03*
X63430000Y-69097400D03*
X62630000Y-69097400D03*
X61830000Y-69097400D03*
X61030000Y-69097400D03*
X60230000Y-69097400D03*
X59430000Y-69097400D03*
D28*
X58055000Y-67722400D03*
X58055000Y-66922400D03*
X58055000Y-66122400D03*
X58055000Y-65322400D03*
X58055000Y-64522400D03*
X58055000Y-63722400D03*
X58055000Y-62922400D03*
X58055000Y-62122400D03*
D29*
X63180000Y-73527500D03*
X62230000Y-73527500D03*
X61280000Y-73527500D03*
X61280000Y-71252500D03*
X62230000Y-71252500D03*
X63180000Y-71252500D03*
D30*
X65120000Y-77661000D03*
X59340000Y-77661000D03*
D31*
X65580000Y-76586000D03*
X64780000Y-76586000D03*
X63480000Y-76586000D03*
X62480000Y-76586000D03*
X61980000Y-76586000D03*
X60980000Y-76586000D03*
X59680000Y-76586000D03*
X58880000Y-76586000D03*
X59180000Y-76586000D03*
X59980000Y-76586000D03*
X60480000Y-76586000D03*
X61480000Y-76586000D03*
X62980000Y-76586000D03*
X63980000Y-76586000D03*
X64480000Y-76586000D03*
X65280000Y-76586000D03*
D32*
X67340000Y-81091000D03*
X67340000Y-77161000D03*
X57120000Y-81091000D03*
X57120000Y-77161000D03*
D15*
X67249000Y-69697600D03*
X69149000Y-69697600D03*
D24*
X59016400Y-54076600D03*
X57366400Y-54076600D03*
D16*
X57734200Y-59346800D03*
X57734200Y-60896800D03*
D24*
X56324000Y-64820800D03*
X54674000Y-64820800D03*
D25*
X54724000Y-61874400D03*
X56274000Y-61874400D03*
X67639600Y-71424800D03*
X69189600Y-71424800D03*
D33*
X68453000Y-67841500D03*
X68453000Y-66016500D03*
D24*
X56324000Y-63347600D03*
X54674000Y-63347600D03*
D34*
X59131200Y-73507600D03*
X62219089Y-49646089D03*
X61591590Y-72411990D03*
X68961000Y-54051200D03*
X60871100Y-63919100D03*
X64947800Y-75361800D03*
X54533800Y-55956200D03*
X61493400Y-52044600D03*
X66217800Y-69951600D03*
X63677800Y-79121000D03*
X63830200Y-66268600D03*
X56464200Y-55930800D03*
X57912000Y-55245000D03*
X55245000Y-72059800D03*
X67005200Y-60325000D03*
X54686200Y-49758600D03*
X69824600Y-68249800D03*
X64008000Y-70383400D03*
X63779400Y-63423800D03*
X67640200Y-56057800D03*
X54674000Y-65557400D03*
X68148200Y-60071000D03*
X55905400Y-52171600D03*
X69773800Y-73355200D03*
X57327800Y-73837800D03*
X60934600Y-55626000D03*
X60452000Y-81153000D03*
X69773800Y-74168000D03*
X56515000Y-53162200D03*
X54965600Y-75996800D03*
X59740800Y-53289200D03*
X54635400Y-59613800D03*
X69824600Y-67335400D03*
X61087000Y-58140600D03*
X64185800Y-81178400D03*
X69697600Y-53492400D03*
X67411600Y-74980800D03*
X62331600Y-81178400D03*
X54610000Y-53238400D03*
X61696600Y-53568600D03*
X69875400Y-81584800D03*
X54635400Y-61112400D03*
X57353200Y-74879200D03*
X68757800Y-61366400D03*
X56108600Y-70180200D03*
X62280800Y-74523600D03*
X68326000Y-75387200D03*
X69672200Y-52222400D03*
X67589400Y-61315600D03*
X56413400Y-75692000D03*
X54508400Y-81559400D03*
X69773800Y-76200000D03*
X64160400Y-57531000D03*
X62941200Y-77876400D03*
X54686200Y-67056000D03*
X60731400Y-79121000D03*
X66573400Y-54025800D03*
X56896000Y-49682400D03*
X59029600Y-75641200D03*
X66217800Y-69088000D03*
X64795400Y-72186800D03*
X55422800Y-70967600D03*
X56464200Y-59131200D03*
X67157600Y-71907400D03*
X69760600Y-62280800D03*
X68970600Y-59947762D03*
X56718200Y-60883800D03*
X58775600Y-81407000D03*
X55143400Y-79832200D03*
X69570600Y-80264000D03*
X68884800Y-77114400D03*
X61150400Y-61531600D03*
X55575200Y-77647800D03*
X60230000Y-60747400D03*
X64058800Y-77622400D03*
X60452000Y-75184000D03*
X62230000Y-51435000D03*
X69545200Y-57454800D03*
X58521600Y-64414400D03*
X57150000Y-70129400D03*
X56083200Y-64820800D03*
X61493400Y-54406800D03*
X61830000Y-60747400D03*
X58782000Y-66833800D03*
X62560200Y-61671200D03*
X63430000Y-60747400D03*
X64230000Y-60747400D03*
X64820800Y-61747400D03*
X66192400Y-61518800D03*
X67183000Y-64135000D03*
X64230000Y-69097400D03*
X62992000Y-67945000D03*
X62630000Y-69097400D03*
M02*
